<svg width="28" height="28" viewBox="0 0 28 28" fill="none" xmlns="http://www.w3.org/2000/svg">
<circle cx="13.8965" cy="14" r="13.1784" fill="white" stroke="#F3F4F6" stroke-width="0.85022"/>
<path d="M14.0995 8.66531L18.9745 10.6153C19.1641 10.6911 19.3158 10.9186 19.3158 11.119V12.9174C19.3158 13.2153 19.072 13.459 18.7741 13.459H9.02409C8.72617 13.459 8.48242 13.2153 8.48242 12.9174V11.119C8.48242 10.9186 8.63409 10.6911 8.82367 10.6153L13.6987 8.66531C13.807 8.62198 13.9912 8.62198 14.0995 8.66531Z" stroke="#240552" stroke-width="1.11415" stroke-miterlimit="10" stroke-linecap="round" stroke-linejoin="round"/>
<path d="M19.3158 19.4167H8.48242V17.7917C8.48242 17.4938 8.72617 17.25 9.02409 17.25H18.7741C19.072 17.25 19.3158 17.4938 19.3158 17.7917V19.4167Z" stroke="#240552" stroke-width="1.11415" stroke-miterlimit="10" stroke-linecap="round" stroke-linejoin="round"/>
<path d="M9.56641 17.2507V13.459" stroke="#8E50E9" stroke-miterlimit="10" stroke-linecap="round" stroke-linejoin="round"/>
<path d="M11.7324 17.2507V13.459" stroke="#8E50E9" stroke-miterlimit="10" stroke-linecap="round" stroke-linejoin="round"/>
<path d="M13.8984 17.2507V13.459" stroke="#8E50E9" stroke-miterlimit="10" stroke-linecap="round" stroke-linejoin="round"/>
<path d="M16.0645 17.2507V13.459" stroke="#8E50E9" stroke-miterlimit="10" stroke-linecap="round" stroke-linejoin="round"/>
<path d="M18.2324 17.2507V13.459" stroke="#8E50E9" stroke-miterlimit="10" stroke-linecap="round" stroke-linejoin="round"/>
<path d="M7.93945 19.416H19.8561" stroke="#240552" stroke-width="1.11415" stroke-miterlimit="10" stroke-linecap="round" stroke-linejoin="round"/>
<path d="M13.8984 12.1035C14.3472 12.1035 14.7109 11.7397 14.7109 11.291C14.7109 10.8423 14.3472 10.4785 13.8984 10.4785C13.4497 10.4785 13.0859 10.8423 13.0859 11.291C13.0859 11.7397 13.4497 12.1035 13.8984 12.1035Z" stroke="#8E50E9" stroke-width="1.11415" stroke-miterlimit="10" stroke-linecap="round" stroke-linejoin="round"/>
</svg>
