<svg width="179" height="180" viewBox="0 0 179 180" fill="none" xmlns="http://www.w3.org/2000/svg">
<path d="M89.498 0.4375C138.894 0.4375 179 40.5433 179 89.9395C179 139.336 138.894 179.441 89.498 179.441C40.1019 179.441 -0.00390625 139.336 -0.00390625 89.9395C-0.00390625 40.5433 40.1019 0.4375 89.498 0.4375Z" fill="#F9FAFB"/>
<path d="M88.9167 18.0186C128.61 18.0186 160.837 50.2462 160.837 89.9392C160.837 129.632 128.61 161.86 88.9167 161.86C49.2237 161.86 16.9961 129.632 16.9961 89.9392C16.9961 50.2462 49.2237 18.0186 88.9167 18.0186Z" fill="#F4F4F4"/>
<path d="M87.9849 35.9824C117.893 35.9824 142.177 60.2658 142.177 90.1744C142.177 120.083 117.893 144.366 87.9849 144.366C58.0764 144.366 33.793 120.083 33.793 90.1744C33.793 60.2658 58.0764 35.9824 87.9849 35.9824Z" fill="#F9FAFB"/>
<path d="M63.827 95.0135C69.3942 99.7336 80.5291 109.174 80.5291 109.174C80.5291 109.174 102.081 86.4277 112.857 75.0551" stroke="#22C55E" stroke-width="12.1885" stroke-linecap="round" stroke-linejoin="round"/>
<path d="M62.3446 27.6494L63.2604 30.4679H66.2239L63.8264 32.2099L64.7422 35.0284L62.3446 33.2864L59.947 35.0284L60.8628 32.2099L58.4653 30.4679H61.4288L62.3446 27.6494Z" fill="#22C55E"/>
<path d="M152.083 87.6689L152.999 90.4875H155.962L153.565 92.2294L154.48 95.0479L152.083 93.306L149.685 95.0479L150.601 92.2294L148.204 90.4875H151.167L152.083 87.6689Z" fill="#22C55E"/>
<path d="M64.966 144.541L65.5547 146.353H67.4598L65.9185 147.473L66.5072 149.285L64.966 148.165L63.4247 149.285L64.0134 147.473L62.4721 146.353H64.3772L64.966 144.541Z" fill="#22C55E"/>
</svg>
