<svg width="95" height="32" viewBox="0 0 95 32" fill="none" xmlns="http://www.w3.org/2000/svg">
<g clip-path="url(#clip0_2050_10152)">
<path d="M10.7219 6.56297C10.7219 8.59621 10.7219 10.6354 10.7338 12.6686C10.7338 14.4233 10.1647 16.1305 8.53453 17.0315C6.63171 18.0748 3.92862 17.808 1.80646 17.5887C1.72347 17.5887 1.65234 17.5709 1.57528 17.565C1.64641 16.1008 1.61677 14.6189 1.54564 13.1606C1.45672 11.1807 2.65414 8.82147 4.78223 8.48951C7.08815 8.12791 9.09768 7.87894 10.1884 6.60446C10.224 6.5689 10.2595 6.5274 10.2892 6.48591C10.4492 6.26658 10.6211 6.0591 10.793 5.8457C10.7397 6.07689 10.7219 6.31993 10.7219 6.55704V6.56297Z" fill="white"/>
<path d="M3.74421 30.8478C5.33286 30.9486 6.93337 30.9249 8.52203 30.9545C10.3774 30.9842 12.2803 31.2154 14.0705 30.8893C16.6431 30.421 19.5359 28.7435 20.4903 26.2597C21.3735 23.9597 20.9586 21.2151 19.4351 19.2827C19.3284 19.1523 19.2158 19.0218 19.0913 18.8914C17.5501 17.2079 15.1612 16.3247 12.8849 16.627C10.0573 17.0005 7.56765 19.2234 6.8326 21.9798C6.37616 23.6989 6.77332 25.5247 6.50657 27.2734C6.28724 28.7197 5.04833 30.2017 3.73828 30.8478H3.74421Z" fill="white"/>
<path d="M19.638 0C19.4958 0.432731 19.6677 0.901028 19.8514 1.31598C22.2107 6.57395 28.5298 10.1306 28.3104 16.4497C28.2097 19.3069 26.787 22.662 24.3981 24.3574C24.2262 24.4819 24.0661 24.5886 23.8646 24.6479C23.4081 23.7943 23.3607 22.5494 22.9754 21.6128C22.4893 20.4332 21.8491 19.2773 20.954 18.3644C20.0945 17.493 19.0215 16.9891 18.162 16.1355C16.36 14.3335 15.2218 11.8675 15.0736 9.31853C14.8602 5.6907 16.6741 2.08659 19.644 0.0118556L19.638 0Z" fill="white"/>
<path d="M3.23118 12.6856C3.23118 12.6856 3.14819 11.1029 4.77241 11.18C4.77241 11.18 5.3652 12.9109 3.23118 12.6856Z" fill="#240552" stroke="white" stroke-width="0.249246" stroke-miterlimit="10"/>
<path d="M2.69123 26.1061C4.17755 26.1061 5.38246 24.9012 5.38246 23.4149C5.38246 21.9285 4.17755 20.7236 2.69123 20.7236C1.2049 20.7236 0 21.9285 0 23.4149C0 24.9012 1.2049 26.1061 2.69123 26.1061Z" fill="white"/>
<path d="M34.6681 26.1479L39.8253 12.3657H42.5877L47.7449 26.1479H45.0477L43.7851 22.8046H38.6457L37.383 26.1479H34.6562H34.6681ZM39.5111 20.5698H42.9493L41.2124 15.3059L39.5111 20.5698Z" fill="white"/>
<path d="M49.125 26.1478V16.8115H51.5673V18.9988C51.7925 18.1986 52.1482 17.5999 52.6343 17.2027C53.1144 16.8055 53.642 16.604 54.217 16.604C54.792 16.604 55.3077 16.7166 55.7523 16.9478L55.3314 19.1352C54.958 18.9633 54.4897 18.8803 53.9147 18.8803C52.3497 18.8803 51.5732 20.2022 51.5732 22.8401V26.1478H49.1309H49.125Z" fill="white"/>
<path d="M56.9438 23.4865C56.6948 22.8759 56.5703 22.2061 56.5703 21.4888C56.5703 20.7716 56.6948 20.1017 56.9438 19.4793C57.1927 18.8569 57.5247 18.3412 57.9456 17.9203C58.3664 17.5053 58.8584 17.1793 59.4157 16.9481C59.9788 16.7169 60.5657 16.5984 61.1822 16.5984C61.7986 16.5984 62.4033 16.7288 62.9368 16.9837C63.4703 17.2386 63.8615 17.6002 64.1164 18.0566V11.7139H66.5587V26.1422H64.1164V24.8736C63.8615 25.3301 63.4703 25.6917 62.9309 25.9466C62.3974 26.2074 61.8105 26.3319 61.1822 26.3319C60.5538 26.3319 59.9788 26.2133 59.4216 25.9821C58.8644 25.7509 58.3724 25.4308 57.9515 25.0159C57.5306 24.6009 57.1927 24.0911 56.9438 23.4747V23.4865ZM59.1311 21.4533C59.1311 22.2061 59.3682 22.8167 59.8365 23.2909C60.3108 23.7651 60.8917 24.0022 61.5852 24.0022C62.2788 24.0022 62.8597 23.7651 63.3517 23.2968C63.8437 22.8285 64.0809 22.212 64.0809 21.4592C64.0809 20.7064 63.8319 20.0958 63.3339 19.6394C62.836 19.1829 62.2551 18.9577 61.5852 18.9577C60.9154 18.9577 60.3048 19.1888 59.8365 19.6512C59.3682 20.1136 59.1311 20.7182 59.1311 21.4651V21.4533Z" fill="white"/>
<path d="M68.9062 13.184C68.9062 12.7749 69.0604 12.4252 69.3745 12.1407C69.6887 11.8561 70.0562 11.7139 70.4831 11.7139C70.9099 11.7139 71.2714 11.8561 71.5797 12.1407C71.8879 12.4252 72.0361 12.769 72.0361 13.184C72.0361 13.5989 71.882 13.9487 71.5797 14.2332C71.2774 14.5177 70.9099 14.66 70.4831 14.66C70.0562 14.66 69.6769 14.5177 69.3686 14.2332C69.0604 13.9487 68.9062 13.5989 68.9062 13.184ZM69.2501 26.1481V16.8118H71.6923V26.1481H69.2501Z" fill="white"/>
<path d="M74.4414 26.1483V14.6602H76.8837V26.1483H74.4414Z" fill="white"/>
<path d="M79.6348 26.148V11.7197H82.077V26.148H79.6348Z" fill="white"/>
<path d="M84.2598 21.4648C84.2598 20.7357 84.3902 20.0658 84.6569 19.4434C84.9237 18.8269 85.2794 18.3112 85.7239 17.9022C86.1685 17.4932 86.6783 17.1731 87.2533 16.9478C87.8283 16.7226 88.427 16.604 89.0494 16.604C89.5652 16.604 90.0987 16.7107 90.6499 16.93C91.2012 17.1494 91.634 17.4932 91.9481 17.9615V16.8055H94.3904V26.1419H91.9481V24.9326C91.6755 25.3772 91.2546 25.721 90.6855 25.9581C90.1165 26.1952 89.5711 26.3138 89.0554 26.3138C88.2196 26.3138 87.443 26.1181 86.7198 25.7328C85.9966 25.3475 85.4038 24.7725 84.9474 24.0197C84.491 23.2669 84.2657 22.4133 84.2657 21.453L84.2598 21.4648ZM86.8206 21.4648C86.8206 22.1939 87.0755 22.7926 87.5912 23.2669C88.1069 23.7411 88.7056 23.9782 89.3933 23.9782C90.0809 23.9782 90.6855 23.7529 91.1894 23.2965C91.6932 22.8401 91.9422 22.2295 91.9422 21.4648C91.9422 20.7001 91.6873 20.0896 91.1775 19.6331C90.6677 19.1767 90.069 18.9514 89.3873 18.9514C88.7056 18.9514 88.0891 19.1885 87.5793 19.6568C87.0696 20.1311 86.8147 20.7298 86.8147 21.4648H86.8206Z" fill="white"/>
</g>
<defs>
<clipPath id="clip0_2050_10152">
<rect width="94.3945" height="31.0618" fill="white"/>
</clipPath>
</defs>
</svg>
