<svg width="77" height="26" viewBox="0 0 77 26" fill="none" xmlns="http://www.w3.org/2000/svg">
<g clip-path="url(#clip0_2568_45499)">
<path d="M9.14313 5.92104C9.14313 7.55749 9.14313 9.19871 9.15267 10.8352C9.15267 12.2474 8.69465 13.6214 7.38263 14.3466C5.85114 15.1863 3.67557 14.9716 1.96755 14.7951C1.90076 14.7951 1.84351 14.7808 1.78148 14.776C1.83874 13.5976 1.81488 12.4048 1.75763 11.2312C1.68606 9.63764 2.6498 7.73879 4.36259 7.47161C6.21851 7.18058 7.83587 6.9802 8.71374 5.95444C8.74236 5.92581 8.77099 5.89241 8.79484 5.85902C8.92366 5.68249 9.06202 5.51551 9.20038 5.34375C9.15744 5.52982 9.14313 5.72543 9.14313 5.91627V5.92104Z" fill="#240552"/>
<path d="M3.52821 25.4694C4.80683 25.5505 6.095 25.5314 7.37363 25.5552C8.86695 25.5791 10.3984 25.7652 11.8393 25.5028C13.9099 25.1259 16.2381 23.7757 17.0063 21.7766C17.7171 19.9255 17.3832 17.7165 16.157 16.1612C16.0711 16.0562 15.9805 15.9512 15.8803 15.8463C14.6399 14.4913 12.7171 13.7804 10.8851 14.0238C8.60932 14.3243 6.6055 16.1135 6.0139 18.332C5.64653 19.7156 5.96619 21.185 5.75149 22.5925C5.57496 23.7566 4.57783 24.9493 3.52344 25.4694H3.52821Z" fill="#240552"/>
<path d="M16.3162 0.640625C16.2017 0.988907 16.3401 1.36582 16.488 1.69979C18.3868 5.93166 23.4727 8.79425 23.2962 13.8801C23.2151 16.1797 22.07 18.8801 20.1473 20.2446C20.009 20.3448 19.8802 20.4307 19.7179 20.4784C19.3506 19.7914 19.3124 18.7895 19.0023 18.0357C18.6111 17.0862 18.0958 16.1559 17.3754 15.4212C16.6836 14.7198 15.8201 14.3143 15.1283 13.6273C13.6779 12.1769 12.7618 10.1922 12.6426 8.14062C12.4708 5.22078 13.9307 2.32001 16.321 0.650167L16.3162 0.640625Z" fill="#240552"/>
<path d="M3.10995 10.8507C3.10995 10.8507 3.04316 9.57689 4.35041 9.63891C4.35041 9.63891 4.82751 11.032 3.10995 10.8507Z" fill="#E9E9E9" stroke="#240552" stroke-width="0.200606" stroke-miterlimit="10"/>
<path d="M2.67775 21.6524C3.87402 21.6524 4.84378 20.6826 4.84378 19.4863C4.84378 18.2901 3.87402 17.3203 2.67775 17.3203C1.48148 17.3203 0.511719 18.2901 0.511719 19.4863C0.511719 20.6826 1.48148 21.6524 2.67775 21.6524Z" fill="#240552"/>
<path d="M28.4197 21.6824L32.5705 10.5898H34.7937L38.9445 21.6824H36.7737L35.7575 18.9916H31.621L30.6048 21.6824H28.4102H28.4197ZM32.3176 17.1929H35.0848L33.6869 12.9563L32.3176 17.1929Z" fill="#240552"/>
<path d="M40.0586 21.6813V14.167H42.0242V15.9275C42.2055 15.2834 42.4918 14.8015 42.883 14.4819C43.2695 14.1622 43.6941 14 44.1569 14C44.6197 14 45.0347 14.0906 45.3926 14.2767L45.0538 16.0372C44.7533 15.8989 44.3763 15.8321 43.9136 15.8321C42.654 15.8321 42.029 16.896 42.029 19.0191V21.6813H40.0634H40.0586Z" fill="#240552"/>
<path d="M46.3474 19.5416C46.1471 19.0502 46.0469 18.5111 46.0469 17.9338C46.0469 17.3565 46.1471 16.8174 46.3474 16.3164C46.5478 15.8155 46.815 15.4004 47.1537 15.0616C47.4925 14.7277 47.8885 14.4653 48.3369 14.2792C48.7902 14.0931 49.2625 13.9977 49.7587 13.9977C50.2549 13.9977 50.7415 14.1027 51.1709 14.3078C51.6003 14.513 51.9152 14.804 52.1203 15.1714V10.0664H54.086V21.679H52.1203V20.658C51.9152 21.0254 51.6003 21.3164 51.1661 21.5216C50.7368 21.7315 50.2644 21.8317 49.7587 21.8317C49.253 21.8317 48.7902 21.7363 48.3417 21.5502C47.8932 21.3641 47.4973 21.1065 47.1585 20.7725C46.8198 20.4385 46.5478 20.0282 46.3474 19.5321V19.5416ZM48.1079 17.9051C48.1079 18.5111 48.2988 19.0025 48.6757 19.3842C49.0574 19.7658 49.5249 19.9567 50.0831 19.9567C50.6413 19.9567 51.1089 19.7658 51.5049 19.3889C51.9009 19.012 52.0917 18.5158 52.0917 17.9099C52.0917 17.304 51.8913 16.8126 51.4906 16.4452C51.0898 16.0779 50.6223 15.8966 50.0831 15.8966C49.544 15.8966 49.0526 16.0826 48.6757 16.4548C48.2988 16.8269 48.1079 17.3135 48.1079 17.9147V17.9051Z" fill="#240552"/>
<path d="M55.9766 11.2496C55.9766 10.9204 56.1006 10.6389 56.3535 10.4099C56.6063 10.1809 56.9021 10.0664 57.2456 10.0664C57.5892 10.0664 57.8802 10.1809 58.1283 10.4099C58.3764 10.6389 58.4956 10.9156 58.4956 11.2496C58.4956 11.5836 58.3716 11.8651 58.1283 12.0941C57.885 12.3231 57.5892 12.4376 57.2456 12.4376C56.9021 12.4376 56.5968 12.3231 56.3487 12.0941C56.1006 11.8651 55.9766 11.5836 55.9766 11.2496ZM56.2533 21.6838V14.1695H58.2189V21.6838H56.2533Z" fill="#240552"/>
<path d="M60.4336 21.6837V12.4375H62.3992V21.6837H60.4336Z" fill="#240552"/>
<path d="M64.6094 21.6829V10.0703H66.575V21.6829H64.6094Z" fill="#240552"/>
<path d="M68.3359 17.9122C68.3359 17.3254 68.4409 16.7863 68.6556 16.2853C68.8703 15.7891 69.1565 15.374 69.5144 15.0448C69.8722 14.7156 70.2825 14.458 70.7453 14.2767C71.2081 14.0954 71.6899 14 72.1909 14C72.606 14 73.0354 14.0859 73.4791 14.2624C73.9228 14.4389 74.2711 14.7156 74.5239 15.0926V14.1622H76.4896V21.6765H74.5239V20.7032C74.3044 21.0611 73.9657 21.3378 73.5077 21.5286C73.0497 21.7195 72.6108 21.8149 72.1957 21.8149C71.523 21.8149 70.898 21.6574 70.3159 21.3473C69.7338 21.0372 69.2567 20.5744 68.8894 19.9685C68.522 19.3626 68.3407 18.6756 68.3407 17.9027L68.3359 17.9122ZM70.397 17.9122C70.397 18.499 70.6022 18.9809 71.0172 19.3626C71.4323 19.7443 71.9142 19.9351 72.4676 19.9351C73.0211 19.9351 73.5077 19.7538 73.9132 19.3864C74.3188 19.0191 74.5191 18.5277 74.5191 17.9122C74.5191 17.2968 74.314 16.8053 73.9037 16.438C73.4934 16.0706 73.0115 15.8893 72.4629 15.8893C71.9142 15.8893 71.418 16.0802 71.0077 16.4571C70.5974 16.8387 70.3922 17.3206 70.3922 17.9122H70.397Z" fill="#240552"/>
</g>
<defs>
<clipPath id="clip0_2568_45499">
<rect width="75.9733" height="25" fill="white" transform="translate(0.511719 0.640625)"/>
</clipPath>
</defs>
</svg>
