<svg width="15" height="15" viewBox="0 0 15 15" fill="none" xmlns="http://www.w3.org/2000/svg">
<path d="M8.2382 10.213L10.0919 8.3593C10.2227 8.22859 10.288 8.06223 10.288 7.86022C10.288 7.65821 10.2227 7.49185 10.0919 7.36113L8.22038 5.48958C8.08967 5.35886 7.9264 5.29636 7.73057 5.30206C7.53426 5.30824 7.37075 5.37669 7.24004 5.5074C7.10933 5.63811 7.04397 5.80447 7.04397 6.00648C7.04397 6.20849 7.10933 6.37485 7.24004 6.50556L7.88172 7.14724H5.58237C5.38036 7.14724 5.214 7.21545 5.08329 7.35187C4.95258 7.48876 4.88722 7.65821 4.88722 7.86022C4.88722 8.06223 4.95567 8.23144 5.09256 8.36786C5.22898 8.50475 5.39819 8.57319 5.6002 8.57319H7.88172L7.22222 9.23269C7.0915 9.36341 7.029 9.52691 7.0347 9.72322C7.04088 9.91905 7.10933 10.0823 7.24004 10.213C7.37075 10.3437 7.53711 10.4091 7.73912 10.4091C7.94113 10.4091 8.10749 10.3437 8.2382 10.213ZM7.73912 14.99C6.75284 14.99 5.82597 14.8027 4.95852 14.4281C4.09107 14.0541 3.3365 13.5462 2.69483 12.9045C2.05315 12.2628 1.54527 11.5083 1.1712 10.6408C0.79665 9.77337 0.609375 8.8465 0.609375 7.86022C0.609375 6.87393 0.79665 5.94707 1.1712 5.07962C1.54527 4.21216 2.05315 3.4576 2.69483 2.81592C3.3365 2.17424 4.09107 1.66613 4.95852 1.29158C5.82597 0.917506 6.75284 0.730469 7.73912 0.730469C8.7254 0.730469 9.65227 0.917506 10.5197 1.29158C11.3872 1.66613 12.1417 2.17424 12.7834 2.81592C13.4251 3.4576 13.933 4.21216 14.307 5.07962C14.6816 5.94707 14.8689 6.87393 14.8689 7.86022C14.8689 8.8465 14.6816 9.77337 14.307 10.6408C13.933 11.5083 13.4251 12.2628 12.7834 12.9045C12.1417 13.5462 11.3872 14.0541 10.5197 14.4281C9.65227 14.8027 8.7254 14.99 7.73912 14.99Z" fill="#010101"/>
</svg>
