<svg width="15" height="15" viewBox="0 0 15 15" fill="none" xmlns="http://www.w3.org/2000/svg">
<path d="M7.8239 10.213L9.67763 8.3593C9.80834 8.22859 9.8737 8.06223 9.8737 7.86022C9.8737 7.65821 9.80834 7.49185 9.67763 7.36113L7.80607 5.48958C7.67536 5.35886 7.51209 5.29636 7.31626 5.30206C7.11996 5.30824 6.95645 5.37669 6.82573 5.5074C6.69502 5.63811 6.62967 5.80447 6.62967 6.00648C6.62967 6.20849 6.69502 6.37485 6.82573 6.50556L7.46741 7.14724H5.16807C4.96606 7.14724 4.7997 7.21545 4.66898 7.35187C4.53827 7.48876 4.47292 7.65821 4.47292 7.86022C4.47292 8.06223 4.54136 8.23144 4.67825 8.36786C4.81467 8.50475 4.98388 8.57319 5.18589 8.57319H7.46741L6.80791 9.23269C6.6772 9.36341 6.61469 9.52691 6.6204 9.72322C6.62658 9.91905 6.69502 10.0823 6.82573 10.213C6.95645 10.3437 7.12281 10.4091 7.32482 10.4091C7.52683 10.4091 7.69319 10.3437 7.8239 10.213ZM7.32482 14.99C6.33853 14.99 5.41167 14.8027 4.54421 14.4281C3.67676 14.0541 2.9222 13.5462 2.28052 12.9045C1.63884 12.2628 1.13097 11.5083 0.756893 10.6408C0.382343 9.77337 0.195068 8.8465 0.195068 7.86022C0.195068 6.87393 0.382343 5.94707 0.756893 5.07962C1.13097 4.21216 1.63884 3.4576 2.28052 2.81592C2.9222 2.17424 3.67676 1.66613 4.54421 1.29158C5.41167 0.917506 6.33853 0.730469 7.32482 0.730469C8.3111 0.730469 9.23797 0.917506 10.1054 1.29158C10.9729 1.66613 11.7274 2.17424 12.3691 2.81592C13.0108 3.4576 13.5187 4.21216 13.8927 5.07962C14.2673 5.94707 14.4546 6.87393 14.4546 7.86022C14.4546 8.8465 14.2673 9.77337 13.8927 10.6408C13.5187 11.5083 13.0108 12.2628 12.3691 12.9045C11.7274 13.5462 10.9729 14.0541 10.1054 14.4281C9.23797 14.8027 8.3111 14.99 7.32482 14.99Z" fill="white"/>
</svg>
