<svg width="28" height="28" viewBox="0 0 28 28" fill="none" xmlns="http://www.w3.org/2000/svg">
<circle cx="13.8965" cy="14.002" r="13.1784" fill="white" stroke="#F3F4F6" stroke-width="0.85022"/>
<path d="M19.564 13.1841C19.5888 13.3753 19.6016 13.5785 19.6016 13.7945C19.6016 15.0225 19.2296 15.8481 18.8736 16.3609C18.7329 16.5645 18.5692 16.751 18.3856 16.9169C18.3256 16.9706 18.2625 17.0208 18.1968 17.0673L18.1896 17.0721C18.132 17.108 18.0846 17.158 18.0517 17.2174C18.0188 17.2767 18.0016 17.3434 18.0016 17.4113V18.7481C18.0016 18.8542 17.9594 18.9559 17.8844 19.0309C17.8094 19.1059 17.7077 19.1481 17.6016 19.1481H16.4944C16.4698 19.1481 16.4461 19.1383 16.4287 19.1209C16.4113 19.1035 16.4016 19.0799 16.4016 19.0553C16.4016 18.5617 16.0016 18.1617 15.5088 18.1617H14.0944C13.6016 18.1617 13.2016 18.5617 13.2016 19.0553C13.2016 19.0799 13.1918 19.1035 13.1744 19.1209C13.157 19.1383 13.1334 19.1481 13.1088 19.1481H12.0016C11.8955 19.1481 11.7937 19.1059 11.7187 19.0309C11.6437 18.9559 11.6016 18.8542 11.6016 18.7481V18.0681C11.6013 17.9843 11.5748 17.9027 11.5257 17.8348C11.4766 17.7669 11.4075 17.7162 11.328 17.6897L11.296 17.6745C11.2324 17.6433 11.171 17.608 11.112 17.5689C10.936 17.4553 10.6584 17.2441 10.2864 16.8673C9.95082 16.5219 9.68059 16.1186 9.48876 15.6769C9.34156 15.3393 9.03356 15.0425 8.62156 14.9729C8.56023 14.9625 8.50453 14.9308 8.46429 14.8834C8.42404 14.836 8.40182 14.7759 8.40156 14.7137V13.5081C8.40156 13.4532 8.42101 13.4001 8.45646 13.3582C8.4919 13.3163 8.54105 13.2884 8.59516 13.2793C9.03516 13.2049 9.34716 12.8681 9.46876 12.4969C9.57276 12.1785 9.75996 11.7609 10.0704 11.4465C10.3321 11.1855 10.625 10.9576 10.9424 10.7681C11.0695 10.6916 11.2003 10.6214 11.3344 10.5577L11.3552 10.5481L11.3592 10.5465C11.4313 10.5156 11.4927 10.4641 11.5358 10.3985C11.5789 10.333 11.6018 10.2562 11.6016 10.1777V8.50008C11.804 8.67608 12.04 8.86648 12.2944 9.03608C12.6416 9.26968 13.0552 9.48888 13.48 9.56808C13.5782 9.30127 13.707 9.04676 13.864 8.80968C13.8152 8.8045 13.7664 8.79944 13.7176 8.79448C13.4336 8.76568 13.092 8.60808 12.7392 8.37208C12.4215 8.15365 12.1231 7.90849 11.8472 7.63928C11.7608 7.5569 11.6524 7.50134 11.5351 7.47933C11.4179 7.45732 11.2967 7.46981 11.1864 7.51528C11.0731 7.55973 10.9759 7.63721 10.9073 7.73765C10.8386 7.83809 10.8018 7.95684 10.8016 8.07848V9.92968C10.3236 10.1824 9.88527 10.5039 9.50076 10.8841C9.06636 11.3241 8.83036 11.8761 8.70876 12.2481C8.66076 12.3905 8.55676 12.4745 8.46236 12.4905C8.22187 12.5309 8.00348 12.6552 7.84591 12.8414C7.68834 13.0275 7.60178 13.2634 7.60156 13.5073V14.7129C7.60144 14.9644 7.6904 15.2078 7.85266 15.3999C8.01493 15.5921 8.24 15.7205 8.48796 15.7625C8.58796 15.7785 8.69596 15.8601 8.75516 15.9969C8.98636 16.5285 9.31218 17.0137 9.71676 17.4289C10.124 17.8417 10.4456 18.0905 10.676 18.2401C10.7216 18.2697 10.764 18.2953 10.8016 18.3177V18.7481C10.8016 18.9057 10.8326 19.0617 10.8929 19.2073C10.9532 19.3529 11.0416 19.4852 11.153 19.5966C11.2645 19.708 11.3968 19.7964 11.5423 19.8567C11.6879 19.917 11.844 19.9481 12.0016 19.9481H13.1088C13.6016 19.9481 14.0016 19.5481 14.0016 19.0553C14.0016 19.0033 14.0432 18.9617 14.0944 18.9617H15.5088C15.56 18.9617 15.6016 19.0033 15.6016 19.0553C15.6016 19.5481 16.0016 19.9481 16.4944 19.9481H17.6016C17.9198 19.9481 18.225 19.8217 18.4501 19.5966C18.6751 19.3716 18.8016 19.0663 18.8016 18.7481V17.6129C19.0793 17.3822 19.3243 17.1147 19.5296 16.8177C19.9736 16.1801 20.4016 15.1969 20.4016 13.7945C20.4016 13.2137 20.3208 12.6937 20.1672 12.2289C20.0175 12.577 19.8139 12.8993 19.564 13.1841ZM19.444 9.73368C19.684 10.3139 19.7221 10.9579 19.552 11.5624C19.382 12.1668 19.0137 12.6965 18.5064 13.0665C18.1624 13.3161 17.7088 13.2985 17.3168 13.1361L14.8848 12.1289C14.4928 11.9665 14.1592 11.6585 14.0928 11.2393C13.9892 10.5637 14.1364 9.87357 14.5065 9.29898C14.8766 8.72438 15.4441 8.305 16.102 8.11986C16.7599 7.93472 17.4628 7.99662 18.0783 8.29388C18.6937 8.59115 19.18 9.10325 19.444 9.73368ZM18.036 12.4201C18.3233 12.2109 18.5496 11.929 18.6918 11.6033C18.8339 11.2776 18.8868 10.9199 18.8448 10.5671C18.8028 10.2142 18.6676 9.87887 18.4531 9.5956C18.2385 9.31233 17.9523 9.09134 17.624 8.95538C17.2957 8.81942 16.9371 8.77339 16.585 8.82204C16.233 8.87068 15.9003 9.01223 15.6212 9.23213C15.342 9.45203 15.1265 9.74234 14.9968 10.0732C14.8671 10.404 14.8279 10.7635 14.8832 11.1145C14.8925 11.1599 14.9157 11.2012 14.9496 11.2329C15.0008 11.2873 15.0824 11.3449 15.1912 11.3897L17.6232 12.3977C17.7121 12.4361 17.8079 12.456 17.9048 12.4561C17.9512 12.4579 17.997 12.4453 18.036 12.4201ZM11.4016 13.1481C11.5607 13.1481 11.7133 13.0849 11.8258 12.9723C11.9383 12.8598 12.0016 12.7072 12.0016 12.5481C12.0016 12.389 11.9383 12.2363 11.8258 12.1238C11.7133 12.0113 11.5607 11.9481 11.4016 11.9481C11.2424 11.9481 11.0898 12.0113 10.9773 12.1238C10.8648 12.2363 10.8016 12.389 10.8016 12.5481C10.8016 12.7072 10.8648 12.8598 10.9773 12.9723C11.0898 13.0849 11.2424 13.1481 11.4016 13.1481Z" fill="#23A323"/>
</svg>
