<svg width="28" height="28" viewBox="0 0 28 28" fill="none" xmlns="http://www.w3.org/2000/svg">
<circle cx="13.8965" cy="14.002" r="13.1784" fill="white" stroke="#F3F4F6" stroke-width="0.85022"/>
<path d="M15.2266 19.8346H12.5599C9.3399 19.8346 6.72656 17.2146 6.72656 14.0013C6.72656 10.788 9.3399 8.16797 12.5599 8.16797H15.2266C18.4466 8.16797 21.0599 10.788 21.0599 14.0013C21.0599 17.2146 18.4466 19.8346 15.2266 19.8346ZM12.5599 9.16797C9.89323 9.16797 7.72656 11.3346 7.72656 14.0013C7.72656 16.668 9.89323 18.8346 12.5599 18.8346H15.2266C17.8932 18.8346 20.0599 16.668 20.0599 14.0013C20.0599 11.3346 17.8932 9.16797 15.2266 9.16797H12.5599Z" fill="#240552"/>
<path d="M12.5612 17.1654C10.8145 17.1654 9.39453 15.7454 9.39453 13.9987C9.39453 12.252 10.8145 10.832 12.5612 10.832C14.3079 10.832 15.7279 12.252 15.7279 13.9987C15.7279 15.7454 14.3079 17.1654 12.5612 17.1654ZM12.5612 11.832C11.3679 11.832 10.3945 12.8054 10.3945 13.9987C10.3945 15.192 11.3679 16.1654 12.5612 16.1654C13.7545 16.1654 14.7279 15.192 14.7279 13.9987C14.7279 12.8054 13.7545 11.832 12.5612 11.832Z" fill="#101828"/>
</svg>
