<svg width="25" height="25" viewBox="0 0 25 25" fill="none" xmlns="http://www.w3.org/2000/svg">
<path d="M16.1067 21.6004L7.68174 13.2004C7.58174 13.1004 7.51107 12.9921 7.46974 12.8754C7.42774 12.7587 7.40674 12.6337 7.40674 12.5004C7.40674 12.3671 7.42774 12.2421 7.46974 12.1254C7.51107 12.0087 7.58174 11.9004 7.68174 11.8004L16.1067 3.37539C16.3401 3.14206 16.6317 3.02539 16.9817 3.02539C17.3317 3.02539 17.6317 3.15039 17.8817 3.40039C18.1317 3.65039 18.2567 3.94206 18.2567 4.27539C18.2567 4.60872 18.1317 4.90039 17.8817 5.15039L10.5317 12.5004L17.8817 19.8504C18.1151 20.0837 18.2317 20.3711 18.2317 20.7124C18.2317 21.0544 18.1067 21.3504 17.8567 21.6004C17.6067 21.8504 17.3151 21.9754 16.9817 21.9754C16.6484 21.9754 16.3567 21.8504 16.1067 21.6004Z" fill="#3D0072"/>
</svg>
