<svg width="119" height="119" viewBox="0 0 119 119" fill="none" xmlns="http://www.w3.org/2000/svg">
<circle cx="59.4973" cy="59.7239" r="58.2043" fill="url(#paint0_linear_749_216794)" stroke="url(#paint1_linear_749_216794)" stroke-width="1.91361"/>
<path d="M53.1086 71.0305V57.478C53.1085 57.19 53.2041 56.9101 53.3803 56.6823C53.5566 56.4545 53.8035 56.2917 54.0823 56.2194C54.3611 56.1472 54.6561 56.1696 54.9208 56.2831C55.1855 56.3967 55.405 56.5949 55.5448 56.8467L63.0514 70.3596C63.1912 70.6114 63.4107 70.8096 63.6754 70.9232C63.9401 71.0367 64.235 71.0591 64.5138 70.9869C64.7926 70.9146 65.0396 70.7518 65.2158 70.524C65.3921 70.2962 65.4876 70.0163 65.4876 69.7283V56.1758M50.6328 61.1274H67.9633M50.6328 66.0789H67.9633" stroke="#240552" stroke-width="2.47579" stroke-linecap="round" stroke-linejoin="round"/>
<path d="M49.7621 36.1605L54.8771 42.1458L54.3245 42.7627C43.7971 45.1238 35.9336 54.5258 35.9336 65.7656C35.9336 75.6468 43.9531 83.6663 53.8343 83.6663H65.1623C75.0434 83.6663 83.063 75.6486 83.063 65.7674C83.0813 54.5258 75.2179 45.1238 64.6904 42.7627C64.7332 42.3747 64.6631 41.9827 64.4885 41.6336L68.8397 36.6526L69.1206 36.2193C69.4486 35.5039 69.5325 34.7005 69.3594 33.9327C69.1863 33.165 68.7658 32.4753 68.1625 31.9699C67.5592 31.4644 66.8066 31.1712 66.0204 31.1352C65.2342 31.0992 64.4579 31.3225 63.811 31.7707L62.2633 29.9348C61.9161 29.5462 61.4909 29.2352 61.0155 29.022C60.5401 28.8088 60.0251 28.6981 59.504 28.6973C58.983 28.6964 58.4676 28.8053 57.9914 29.017C57.5153 29.2286 57.0891 29.5382 56.7407 29.9256L55.1195 31.7359C54.4742 31.2783 53.6962 31.0461 52.9057 31.0752C52.1152 31.1043 51.3564 31.393 50.7465 31.8967C50.1366 32.4004 49.7096 33.0911 49.5317 33.8618C49.3538 34.6326 49.4348 35.4405 49.7621 36.1605ZM56.737 38.7034L53.6232 35.1049C54.3466 35.4534 55.1651 35.5524 55.9508 35.3863C56.7364 35.2202 57.4448 34.7984 57.9652 34.1869L59.434 32.2811L61.0644 34.2126C61.5727 34.8037 62.2584 35.2148 63.0194 35.3845C63.7803 35.5542 64.5757 35.4735 65.2871 35.1544L62.188 38.7034H56.737ZM39.6055 65.7656C39.6055 54.7718 48.5137 45.8637 59.5075 45.8637C70.5013 45.8637 79.4094 54.7718 79.391 65.7619V65.7656C79.3896 69.5388 77.89 73.1571 75.2219 75.8252C72.5538 78.4933 68.9355 79.9929 65.1623 79.9944H53.8343C50.0611 79.9929 46.4428 78.4933 43.7747 75.8252C41.1066 73.1571 39.607 69.5388 39.6055 65.7656Z" fill="#240552"/>
<defs>
<linearGradient id="paint0_linear_749_216794" x1="59.4973" y1="1.51953" x2="59.4973" y2="117.928" gradientUnits="userSpaceOnUse">
<stop stop-color="#FCFAFF"/>
<stop offset="1" stop-color="#FCFAFF" stop-opacity="0"/>
</linearGradient>
<linearGradient id="paint1_linear_749_216794" x1="59.4973" y1="1.51953" x2="59.4973" y2="117.928" gradientUnits="userSpaceOnUse">
<stop stop-color="#F8F0FF"/>
<stop offset="1" stop-color="#F8F0FF" stop-opacity="0"/>
</linearGradient>
</defs>
</svg>
