<svg width="31" height="31" viewBox="0 0 31 31" fill="none" xmlns="http://www.w3.org/2000/svg">
<circle cx="15.0312" cy="15.5029" r="14.5199" stroke="#240552" stroke-width="1.02272"/>
<path d="M15.2522 9.63924L20.6106 11.7826C20.819 11.8659 20.9857 12.116 20.9857 12.3363V14.3129C20.9857 14.6404 20.7178 14.9083 20.3903 14.9083H9.6735C9.34604 14.9083 9.07812 14.6404 9.07812 14.3129V12.3363C9.07812 12.116 9.24483 11.8659 9.45322 11.7826L14.8116 9.63924C14.9307 9.59161 15.1331 9.59161 15.2522 9.63924Z" stroke="#240552" stroke-width="0.893066" stroke-miterlimit="10" stroke-linecap="round" stroke-linejoin="round"/>
<path d="M20.9857 21.4567H9.07812V19.6706C9.07812 19.3431 9.34604 19.0752 9.6735 19.0752H20.3903C20.7178 19.0752 20.9857 19.3431 20.9857 19.6706V21.4567Z" stroke="#240552" stroke-width="0.893066" stroke-miterlimit="10" stroke-linecap="round" stroke-linejoin="round"/>
<path d="M10.2734 19.0739V14.9062" stroke="#240552" stroke-width="0.893066" stroke-miterlimit="10" stroke-linecap="round" stroke-linejoin="round"/>
<path d="M12.6562 19.0739V14.9062" stroke="#240552" stroke-width="0.893066" stroke-miterlimit="10" stroke-linecap="round" stroke-linejoin="round"/>
<path d="M15.0312 19.0739V14.9062" stroke="#240552" stroke-width="0.893066" stroke-miterlimit="10" stroke-linecap="round" stroke-linejoin="round"/>
<path d="M17.4141 19.0739V14.9062" stroke="#240552" stroke-width="0.893066" stroke-miterlimit="10" stroke-linecap="round" stroke-linejoin="round"/>
<path d="M19.7969 19.0739V14.9062" stroke="#240552" stroke-width="0.893066" stroke-miterlimit="10" stroke-linecap="round" stroke-linejoin="round"/>
<path d="M8.48438 21.458H21.5827" stroke="#240552" stroke-width="0.893066" stroke-miterlimit="10" stroke-linecap="round" stroke-linejoin="round"/>
<path d="M15.0337 13.4209C15.5269 13.4209 15.9268 13.0211 15.9268 12.5278C15.9268 12.0346 15.5269 11.6348 15.0337 11.6348C14.5405 11.6348 14.1406 12.0346 14.1406 12.5278C14.1406 13.0211 14.5405 13.4209 15.0337 13.4209Z" stroke="#240552" stroke-width="0.893066" stroke-miterlimit="10" stroke-linecap="round" stroke-linejoin="round"/>
</svg>
