<svg width="30" height="30" viewBox="0 0 30 30" fill="none" xmlns="http://www.w3.org/2000/svg">
<circle cx="15" cy="15" r="14.5" stroke="#F3F4F6"/>
<path d="M15.015 21.397C13.2675 21.397 11.52 21.1195 9.86252 20.5645C9.23252 20.347 8.75252 19.9045 8.54252 19.327C8.32502 18.7495 8.40002 18.112 8.74502 17.542L9.60752 16.1095C9.78752 15.8095 9.95252 15.2095 9.95252 14.857V12.6895C9.95252 9.89945 12.225 7.62695 15.015 7.62695C17.805 7.62695 20.0775 9.89945 20.0775 12.6895V14.857C20.0775 15.202 20.2425 15.8095 20.4225 16.117L21.2775 17.542C21.6 18.082 21.66 18.7345 21.4425 19.327C21.225 19.9195 20.7525 20.3695 20.16 20.5645C18.51 21.1195 16.7625 21.397 15.015 21.397ZM15.015 8.75195C12.8475 8.75195 11.0775 10.5145 11.0775 12.6895V14.857C11.0775 15.4045 10.8525 16.2145 10.575 16.687L9.71252 18.1195C9.54752 18.397 9.50252 18.6895 9.60002 18.937C9.69002 19.192 9.91502 19.387 10.2225 19.492C13.3575 20.542 16.68 20.542 19.815 19.492C20.085 19.402 20.295 19.1995 20.3925 18.9295C20.49 18.6595 20.4675 18.367 20.3175 18.1195L19.455 16.687C19.17 16.1995 18.9525 15.397 18.9525 14.8495V12.6895C18.9525 10.5145 17.19 8.75195 15.015 8.75195Z" fill="#041004"/>
<path d="M16.4101 8.95477C16.3576 8.95477 16.3051 8.94727 16.2526 8.93227C16.0351 8.87227 15.8251 8.82727 15.6226 8.79727C14.9851 8.71477 14.3701 8.75977 13.7926 8.93227C13.5826 8.99977 13.3576 8.93227 13.2151 8.77477C13.0726 8.61727 13.0276 8.39227 13.1101 8.18977C13.4176 7.40227 14.1676 6.88477 15.0226 6.88477C15.8776 6.88477 16.6276 7.39477 16.9351 8.18977C17.0101 8.39227 16.9726 8.61727 16.8301 8.77477C16.7176 8.89477 16.5601 8.95477 16.4101 8.95477Z" fill="#041004"/>
<path d="M15.015 23.1074C14.2725 23.1074 13.5525 22.8074 13.0275 22.2824C12.5025 21.7574 12.2025 21.0374 12.2025 20.2949H13.3275C13.3275 20.7374 13.5075 21.1724 13.8225 21.4874C14.1375 21.8024 14.5725 21.9824 15.015 21.9824C15.945 21.9824 16.7025 21.2249 16.7025 20.2949H17.8275C17.8275 21.8474 16.5675 23.1074 15.015 23.1074Z" fill="#041004"/>
</svg>
