<svg width="41" height="25" viewBox="0 0 41 25" fill="none" xmlns="http://www.w3.org/2000/svg">
<rect x="0.775574" y="0.568848" width="40" height="24" rx="4" fill="#17AD4E"/>
<path d="M11.6156 16.5688V9.33885H14.3756C15.7856 9.33885 16.6456 10.0588 16.6456 11.2488C16.6456 12.0788 16.2856 12.6388 15.5656 12.9388C16.3656 13.1988 16.7756 13.7788 16.7756 14.6388C16.7756 15.8388 15.9056 16.5688 14.4756 16.5688H11.6156ZM14.3156 10.2088H12.5956V12.5288H14.3756C15.1856 12.5288 15.6456 12.0888 15.6456 11.3388C15.6456 10.6188 15.1656 10.2088 14.3156 10.2088ZM14.4556 13.3788H12.5956V15.6988H14.4556C15.2956 15.6988 15.7656 15.2688 15.7656 14.5188C15.7656 13.7988 15.2856 13.3788 14.4556 13.3788ZM19.7523 16.6888C18.3123 16.6888 17.3223 15.6488 17.3223 14.1288C17.3223 12.5988 18.2923 11.5388 19.7123 11.5388C21.1023 11.5388 22.0123 12.4988 22.0123 13.9488V14.2988L18.2323 14.3088C18.3023 15.3388 18.8423 15.9088 19.7723 15.9088C20.5023 15.9088 20.9823 15.6088 21.1423 15.0488H22.0223C21.7823 16.0988 20.9623 16.6888 19.7523 16.6888ZM19.7123 12.3288C18.8923 12.3288 18.3723 12.8188 18.2523 13.6788H21.0723C21.0723 12.8688 20.5423 12.3288 19.7123 12.3288ZM24.1934 16.5688H23.2534V12.4688H22.2934V11.6788H23.2534V10.1488H24.1934V11.6788H25.1534V12.4688H24.1934V16.5688ZM27.1684 16.6888C26.1184 16.6888 25.4984 16.0988 25.4984 15.2088C25.4984 14.3088 26.1684 13.7488 27.3184 13.6588L28.8584 13.5388V13.3988C28.8584 12.5788 28.3684 12.2888 27.7084 12.2888C26.9184 12.2888 26.4684 12.6388 26.4684 13.2288H25.6484C25.6484 12.2088 26.4884 11.5388 27.7484 11.5388C28.9584 11.5388 29.7784 12.1788 29.7784 13.4988V16.5688H28.9784L28.8784 15.7788C28.6284 16.3388 27.9584 16.6888 27.1684 16.6888ZM27.4384 15.9588C28.3284 15.9588 28.8684 15.3788 28.8684 14.4588V14.1988L27.6184 14.2988C26.7884 14.3788 26.4484 14.6988 26.4484 15.1788C26.4484 15.6988 26.8284 15.9588 27.4384 15.9588Z" fill="white"/>
</svg>
