<svg width="67" height="68" viewBox="0 0 67 68" fill="none" xmlns="http://www.w3.org/2000/svg">
<circle cx="33.2412" cy="34.085" r="32.6162" fill="url(#paint0_linear_2664_38159)" stroke="url(#paint1_linear_2664_38159)"/>
<circle cx="33.2422" cy="34.085" r="19.6" fill="white" stroke="#EDEDED" stroke-width="0.8"/>
<path d="M31.5025 29.4467C31.5025 30.3781 31.5025 31.3122 31.5079 32.2436C31.5079 33.0474 31.2473 33.8295 30.5005 34.2422C29.6288 34.7201 28.3906 34.5979 27.4185 34.4975C27.3805 34.4975 27.3479 34.4893 27.3126 34.4866C27.3452 33.8159 27.3316 33.137 27.299 32.469C27.2583 31.5621 27.8068 30.4813 28.7816 30.3293C29.8379 30.1636 30.7585 30.0496 31.2581 29.4657C31.2744 29.4494 31.2907 29.4304 31.3043 29.4114C31.3776 29.311 31.4563 29.2159 31.5351 29.1182C31.5107 29.2241 31.5025 29.3354 31.5025 29.444V29.4467Z" fill="#240552"/>
<path d="M28.3074 40.5715C29.0351 40.6177 29.7683 40.6068 30.4961 40.6204C31.346 40.6339 32.2176 40.7399 33.0377 40.5905C34.2162 40.376 35.5414 39.6075 35.9785 38.4697C36.3831 37.4161 36.1931 36.1589 35.4952 35.2737C35.4463 35.2139 35.3947 35.1542 35.3377 35.0944C34.6317 34.3233 33.5374 33.9186 32.4946 34.0571C31.1994 34.2282 30.0589 35.2465 29.7222 36.5092C29.5131 37.2967 29.695 38.133 29.5728 38.9341C29.4723 39.5966 28.9048 40.2755 28.3047 40.5715H28.3074Z" fill="#240552"/>
<path d="M35.5909 26.4404C35.5257 26.6387 35.6044 26.8532 35.6886 27.0433C36.7694 29.4519 39.664 31.0811 39.5636 33.9758C39.5174 35.2846 38.8657 36.8216 37.7714 37.5982C37.6926 37.6552 37.6193 37.7041 37.527 37.7313C37.3179 37.3402 37.2962 36.77 37.1197 36.3409C36.897 35.8006 36.6037 35.2711 36.1937 34.8529C35.7999 34.4537 35.3085 34.2229 34.9147 33.8319C34.0892 33.0064 33.5679 31.8768 33.5 30.7091C33.4022 29.0473 34.2331 27.3963 35.5936 26.4459L35.5909 26.4404Z" fill="#240552"/>
<path d="M28.0706 32.2525C28.0706 32.2525 28.0326 31.5275 28.7767 31.5628C28.7767 31.5628 29.0482 32.3557 28.0706 32.2525Z" fill="white" stroke="#240552" stroke-width="0.114176" stroke-miterlimit="10"/>
<path d="M27.8266 38.3982C28.5074 38.3982 29.0594 37.8463 29.0594 37.1654C29.0594 36.4846 28.5074 35.9326 27.8266 35.9326C27.1457 35.9326 26.5938 36.4846 26.5938 37.1654C26.5938 37.8463 27.1457 38.3982 27.8266 38.3982Z" fill="#240552"/>
<defs>
<linearGradient id="paint0_linear_2664_38159" x1="33.2422" y1="-15.0823" x2="33.2422" y2="57.0622" gradientUnits="userSpaceOnUse">
<stop stop-color="#EFEFEF"/>
<stop offset="1" stop-color="#D9D9D9" stop-opacity="0"/>
</linearGradient>
<linearGradient id="paint1_linear_2664_38159" x1="33.2412" y1="0.96875" x2="33.2422" y2="55.2203" gradientUnits="userSpaceOnUse">
<stop stop-color="#DDDDDD"/>
<stop offset="1" stop-color="#DDDDDD" stop-opacity="0"/>
</linearGradient>
</defs>
</svg>
