<svg width="41" height="41" viewBox="0 0 41 41" fill="none" xmlns="http://www.w3.org/2000/svg">
<circle cx="20.257" cy="20.6382" r="20.2095" fill="#3D0072"/>
<path d="M25.1074 23.0634H23.4906V24.6801H25.1074M25.1074 19.8298H23.4906V21.4466H25.1074M26.7241 26.2969H20.2571V24.6801H21.8738V23.0634H20.2571V21.4466H21.8738V19.8298H20.2571V18.2131H26.7241M18.6403 16.5963H17.0235V14.9796H18.6403M18.6403 19.8298H17.0235V18.2131H18.6403M18.6403 23.0634H17.0235V21.4466H18.6403M18.6403 26.2969H17.0235V24.6801H18.6403M15.4068 16.5963H13.79V14.9796H15.4068M15.4068 19.8298H13.79V18.2131H15.4068M15.4068 23.0634H13.79V21.4466H15.4068M15.4068 26.2969H13.79V24.6801H15.4068M20.2571 16.5963V13.3628H12.1732V27.9137H28.3409V16.5963H20.2571Z" fill="white"/>
</svg>
