<svg width="67" height="68" viewBox="0 0 67 68" fill="none" xmlns="http://www.w3.org/2000/svg">
<circle cx="33.2412" cy="34.085" r="32.6162" fill="url(#paint0_linear_2332_35217)" stroke="url(#paint1_linear_2332_35217)"/>
<circle cx="33.2422" cy="34.085" r="19.6" fill="white" stroke="#EDEDED" stroke-width="0.8"/>
<path d="M40.3229 32.1367H26.1562C25.8658 32.1367 25.625 31.8959 25.625 31.6055C25.625 31.3151 25.8658 31.0742 26.1562 31.0742H40.3229C40.6133 31.0742 40.8542 31.3151 40.8542 31.6055C40.8542 31.8959 40.6133 32.1367 40.3229 32.1367Z" fill="#240552"/>
<path d="M30.4089 37.8037H28.9922C28.7018 37.8037 28.4609 37.5629 28.4609 37.2725C28.4609 36.982 28.7018 36.7412 28.9922 36.7412H30.4089C30.6993 36.7412 30.9401 36.982 30.9401 37.2725C30.9401 37.5629 30.6993 37.8037 30.4089 37.8037Z" fill="#240552"/>
<path d="M35.013 37.8037H32.1797C31.8893 37.8037 31.6484 37.5629 31.6484 37.2725C31.6484 36.982 31.8893 36.7412 32.1797 36.7412H35.013C35.3034 36.7412 35.5443 36.982 35.5443 37.2725C35.5443 37.5629 35.3034 37.8037 35.013 37.8037Z" fill="#240552"/>
<path d="M37.1779 40.6374H29.3013C26.4821 40.6374 25.625 39.7874 25.625 36.9965V31.174C25.625 28.3832 26.4821 27.5332 29.3013 27.5332H37.1708C39.99 27.5332 40.8471 28.3832 40.8471 31.174V36.9895C40.8542 39.7874 39.9971 40.6374 37.1779 40.6374ZM29.3013 28.5957C27.0771 28.5957 26.6875 28.9782 26.6875 31.174V36.9895C26.6875 39.1853 27.0771 39.5678 29.3013 39.5678H37.1708C39.395 39.5678 39.7846 39.1853 39.7846 36.9895V31.174C39.7846 28.9782 39.395 28.5957 37.1708 28.5957H29.3013Z" fill="#240552"/>
<defs>
<linearGradient id="paint0_linear_2332_35217" x1="33.2422" y1="-15.0823" x2="33.2422" y2="57.0622" gradientUnits="userSpaceOnUse">
<stop stop-color="#EFEFEF"/>
<stop offset="1" stop-color="#D9D9D9" stop-opacity="0"/>
</linearGradient>
<linearGradient id="paint1_linear_2332_35217" x1="33.2412" y1="0.96875" x2="33.2422" y2="55.2203" gradientUnits="userSpaceOnUse">
<stop stop-color="#DDDDDD"/>
<stop offset="1" stop-color="#DDDDDD" stop-opacity="0"/>
</linearGradient>
</defs>
</svg>
