<svg width="30" height="31" viewBox="0 0 30 31" fill="none" xmlns="http://www.w3.org/2000/svg">
<circle cx="14.6974" cy="15.2599" r="14.1974" stroke="#240552"/>
<path d="M8.07031 19.5709V12.9428C8.07031 12.5912 8.20998 12.2541 8.45858 12.0055C8.70718 11.7569 9.04436 11.6172 9.39594 11.6172H20.0009C20.3525 11.6172 20.6897 11.7569 20.9383 12.0055C21.1869 12.2541 21.3265 12.5912 21.3265 12.9428V19.5709C21.3265 19.9225 21.1869 20.2597 20.9383 20.5083C20.6897 20.7569 20.3525 20.8965 20.0009 20.8965H9.39594C9.04436 20.8965 8.70718 20.7569 8.45858 20.5083C8.20998 20.2597 8.07031 19.9225 8.07031 19.5709Z" stroke="#240552" stroke-width="0.994217" stroke-linecap="round" stroke-linejoin="round"/>
<path d="M19.0072 16.2646L19.0138 16.2573M10.3906 16.2646L10.3973 16.2573M14.6989 18.2464C14.1715 18.2464 13.6658 18.0369 13.2929 17.664C12.92 17.2911 12.7105 16.7853 12.7105 16.258C12.7105 15.7306 12.92 15.2248 13.2929 14.8519C13.6658 14.479 14.1715 14.2695 14.6989 14.2695C15.2263 14.2695 15.732 14.479 16.1049 14.8519C16.4778 15.2248 16.6873 15.7306 16.6873 16.258C16.6873 16.7853 16.4778 17.2911 16.1049 17.664C15.732 18.0369 15.2263 18.2464 14.6989 18.2464Z" stroke="#240552" stroke-width="0.994217" stroke-linecap="round" stroke-linejoin="round"/>
</svg>
