<svg width="33" height="34" viewBox="0 0 33 34" fill="none" xmlns="http://www.w3.org/2000/svg">
<circle cx="16.5027" cy="16.7996" r="15.7996" stroke="#240552"/>
<path d="M20.1756 19.8344L20.4099 21.7327C20.47 22.2313 19.9353 22.5797 19.5088 22.3214L16.9918 20.8256C16.7155 20.8256 16.4452 20.8076 16.1809 20.7715C16.6254 20.2489 16.8897 19.5881 16.8897 18.8733C16.8897 17.1672 15.4119 15.7856 13.5858 15.7856C12.8889 15.7856 12.2462 15.9838 11.7115 16.3322C11.6935 16.1821 11.6875 16.0319 11.6875 15.8757C11.6875 13.1424 14.0603 10.9258 16.9918 10.9258C19.9233 10.9258 22.2962 13.1424 22.2962 15.8757C22.2962 17.4976 21.4612 18.9333 20.1756 19.8344Z" stroke="#240552" stroke-width="0.901075" stroke-linecap="round" stroke-linejoin="round"/>
<path d="M16.8891 18.8728C16.8891 19.5877 16.6248 20.2485 16.1803 20.7711C15.5856 21.492 14.6425 21.9545 13.5852 21.9545L12.0173 22.8856C11.753 23.0478 11.4166 22.8255 11.4526 22.5192L11.6028 21.3358C10.7979 20.7771 10.2812 19.882 10.2812 18.8728C10.2812 17.8156 10.8459 16.8845 11.711 16.3318C12.2456 15.9834 12.8884 15.7852 13.5852 15.7852C15.4114 15.7852 16.8891 17.1668 16.8891 18.8728Z" stroke="#240552" stroke-width="0.901075" stroke-linecap="round" stroke-linejoin="round"/>
</svg>
