<svg width="92" height="92" viewBox="0 0 92 92" fill="none" xmlns="http://www.w3.org/2000/svg">
<path d="M9.58203 45.9987C9.58203 28.8317 9.58203 20.2482 14.9151 14.9151C20.2482 9.58203 28.8317 9.58203 45.9987 9.58203C63.1655 9.58203 71.7491 9.58203 77.0824 14.9151C82.4154 20.2482 82.4154 28.8317 82.4154 45.9987C82.4154 63.1655 82.4154 71.7491 77.0824 77.0824C71.7491 82.4154 63.1655 82.4154 45.9987 82.4154C28.8317 82.4154 20.2482 82.4154 14.9151 77.0824C9.58203 71.7491 9.58203 63.1655 9.58203 45.9987Z" stroke="#240552" stroke-width="5.75"/>
<path d="M9.58203 34.5H82.4154" stroke="#240552" stroke-width="5.75" stroke-linejoin="round"/>
<path d="M49.832 49.832H65.1654" stroke="#240552" stroke-width="5.75" stroke-linecap="round" stroke-linejoin="round"/>
<path d="M49.832 65.168H57.4987" stroke="#240552" stroke-width="5.75" stroke-linecap="round" stroke-linejoin="round"/>
<path d="M26.832 23H26.8657" stroke="#240552" stroke-width="7.66667" stroke-linecap="round" stroke-linejoin="round"/>
<path d="M42.168 23H42.2017" stroke="#240552" stroke-width="7.66667" stroke-linecap="round" stroke-linejoin="round"/>
<path d="M34.5 34.5V82.4167" stroke="#240552" stroke-width="5.75" stroke-linecap="round" stroke-linejoin="round"/>
</svg>
