<svg width="31" height="31" viewBox="0 0 31 31" fill="none" xmlns="http://www.w3.org/2000/svg">
<circle cx="15.7138" cy="15.3818" r="14.2359" stroke="#240552" stroke-width="1.00271"/>
<path d="M13.928 10.7826C13.928 11.7165 13.928 12.6532 13.9334 13.5871C13.9334 14.393 13.672 15.1772 12.9233 15.5911C12.0492 16.0703 10.8076 15.9478 9.83287 15.847C9.79475 15.847 9.76207 15.8388 9.72668 15.8361C9.75935 15.1636 9.74574 14.4829 9.71306 13.8131C9.67222 12.9037 10.2222 11.82 11.1997 11.6675C12.2589 11.5014 13.1819 11.387 13.6829 10.8016C13.6993 10.7853 13.7156 10.7662 13.7292 10.7472C13.8027 10.6464 13.8817 10.5511 13.9606 10.4531C13.9361 10.5593 13.928 10.671 13.928 10.7799V10.7826Z" fill="#240552"/>
<path d="M10.7215 21.9418C11.4512 21.9881 12.1863 21.9772 12.9161 21.9908C13.7683 22.0044 14.6423 22.1106 15.4646 21.9608C16.6463 21.7457 17.975 20.9752 18.4134 19.8343C18.8191 18.7779 18.6285 17.5172 17.9288 16.6296C17.8797 16.5697 17.828 16.5098 17.7708 16.4499C17.0629 15.6766 15.9656 15.2709 14.92 15.4097C13.6213 15.5813 12.4777 16.6023 12.1401 17.8684C11.9304 18.6581 12.1128 19.4967 11.9903 20.2999C11.8896 20.9643 11.3205 21.645 10.7188 21.9418H10.7215Z" fill="#240552"/>
<path d="M18.0184 7.76953C17.9531 7.9683 18.032 8.1834 18.1164 8.374C19.2001 10.7891 22.1026 12.4228 22.0019 15.3253C21.9556 16.6377 21.3021 18.1788 20.2048 18.9576C20.1259 19.0147 20.0524 19.0638 19.9598 19.091C19.7501 18.6989 19.7284 18.1271 19.5514 17.6969C19.3281 17.1551 19.034 16.6241 18.6229 16.2048C18.2281 15.8045 17.7353 15.5731 17.3404 15.181C16.5127 14.3533 15.9899 13.2206 15.9219 12.0498C15.8238 10.3834 16.657 8.72796 18.0211 7.77498L18.0184 7.76953Z" fill="#240552"/>
<path d="M10.4847 13.5991C10.4847 13.5991 10.4466 12.8721 11.1926 12.9075C11.1926 12.9075 11.4649 13.7026 10.4847 13.5991Z" fill="white" stroke="#240552" stroke-width="0.114486" stroke-miterlimit="10"/>
<path d="M10.2362 19.7614C10.9189 19.7614 11.4723 19.2079 11.4723 18.5252C11.4723 17.8425 10.9189 17.2891 10.2362 17.2891C9.55345 17.2891 9 17.8425 9 18.5252C9 19.2079 9.55345 19.7614 10.2362 19.7614Z" fill="#240552"/>
</svg>
