<svg width="76" height="76" viewBox="0 0 76 76" fill="none" xmlns="http://www.w3.org/2000/svg">
<circle cx="35.9429" cy="39.2393" r="35.9116" fill="#240552"/>
<circle cx="39.9019" cy="36.4116" r="35.9116" fill="#F6F1FE"/>
<path d="M53.1927 15.6711V56.6848C53.1927 59.1275 51.2094 61.1108 48.7667 61.1108H30.4728C28.0301 61.1108 26.0469 59.1275 26.0469 56.6848V15.6711C26.0469 13.2284 28.0301 11.2451 30.4728 11.2451H48.7667C51.2094 11.2451 53.1927 13.2284 53.1927 15.6711Z" fill="#FEFEFE"/>
<path d="M51.0745 19.0174V51.3268C51.0745 51.6527 50.8103 51.9169 50.4844 51.9169H28.6497C28.3238 51.9169 28.0596 51.6527 28.0596 51.3268V19.0174C28.0596 18.6914 28.3238 18.4272 28.6497 18.4272H50.4844C50.8103 18.4272 51.0745 18.6914 51.0745 19.0174Z" fill="#240552"/>
<path d="M42.1648 55.4833C42.1648 56.9335 40.9891 58.1091 39.5389 58.1091C38.0887 58.1091 36.9131 56.9335 36.9131 55.4833C36.9131 54.0331 38.0887 52.8574 39.5389 52.8574C40.9891 52.8574 42.1648 54.0331 42.1648 55.4833Z" fill="#240552"/>
<path d="M43.1088 15.1248C43.1088 15.4507 42.8446 15.7149 42.5187 15.7149H36.6175C36.2915 15.7149 36.0273 15.4507 36.0273 15.1248C36.0273 14.7989 36.2915 14.5347 36.6175 14.5347H42.5187C42.8446 14.5347 43.1088 14.7989 43.1088 15.1248Z" fill="#240552"/>
</svg>
