<svg width="41" height="41" viewBox="0 0 41 41" fill="none" xmlns="http://www.w3.org/2000/svg">
<circle cx="20.257" cy="20.7325" r="20.2095" fill="#22C55E"/>
<path d="M25.1074 23.1576H23.4906V24.7744H25.1074M25.1074 19.9241H23.4906V21.5408H25.1074M26.7241 26.3911H20.2571V24.7744H21.8738V23.1576H20.2571V21.5408H21.8738V19.9241H20.2571V18.3073H26.7241M18.6403 16.6906H17.0235V15.0738H18.6403M18.6403 19.9241H17.0235V18.3073H18.6403M18.6403 23.1576H17.0235V21.5408H18.6403M18.6403 26.3911H17.0235V24.7744H18.6403M15.4068 16.6906H13.79V15.0738H15.4068M15.4068 19.9241H13.79V18.3073H15.4068M15.4068 23.1576H13.79V21.5408H15.4068M15.4068 26.3911H13.79V24.7744H15.4068M20.2571 16.6906V13.457H12.1732V28.0079H28.3409V16.6906H20.2571Z" fill="white"/>
</svg>
