<svg width="51" height="51" viewBox="0 0 51 51" fill="none" xmlns="http://www.w3.org/2000/svg">
<circle cx="25.3284" cy="25.8687" r="25.1265" fill="#FF823B"/>
<path d="M28.4816 16.9004H21.5761C18.3432 16.9004 16.7274 16.9004 15.5661 17.6761C15.0632 18.0121 14.6315 18.4438 14.2955 18.9467C13.5198 20.108 13.5198 21.7227 13.5198 24.9568C13.5198 28.1897 13.5198 29.8056 14.2955 30.9668C14.6315 31.4697 15.0632 31.9015 15.5661 32.2374C15.9655 32.5044 16.4178 32.6794 16.9725 32.7945M21.5761 33.0131H28.4816C31.7145 33.0131 33.3304 33.0131 34.4917 32.2374C34.9945 31.9014 35.4262 31.4696 35.7623 30.9668C36.538 29.8056 36.538 28.1908 36.538 24.9568C36.538 21.7239 36.538 20.108 35.7623 18.9467C35.4263 18.4439 34.9945 18.0121 34.4917 17.6761C34.0923 17.4091 33.64 17.2342 33.0853 17.1191" stroke="white" stroke-width="1.72637" stroke-linecap="round"/>
<path d="M21.5826 21.5059C20.6669 21.5059 19.7887 21.8696 19.1412 22.5171C18.4937 23.1647 18.1299 24.0429 18.1299 24.9586C18.1299 25.8743 18.4937 26.7525 19.1412 27.4C19.7887 28.0476 20.6669 28.4113 21.5826 28.4113M28.4881 21.5059C29.4038 21.5059 30.282 21.8696 30.9295 22.5171C31.577 23.1647 31.9408 24.0429 31.9408 24.9586C31.9408 25.8743 31.577 26.7525 30.9295 27.4C30.282 28.0476 29.4038 28.4113 28.4881 28.4113" stroke="white" stroke-width="1.72637"/>
<path d="M21.5691 16.9004V33.0131M28.4746 16.9004V33.0131" stroke="white" stroke-width="1.72637" stroke-linecap="round"/>
</svg>
