<svg width="33" height="34" viewBox="0 0 33 34" fill="none" xmlns="http://www.w3.org/2000/svg">
<circle cx="16.0957" cy="17.0723" r="16.0957" fill="#FF823B"/>
<g clip-path="url(#clip0_2585_46793)">
<path d="M18.1156 11.5078H13.6921C11.6211 11.5078 10.586 11.5078 9.8421 12.0047C9.51996 12.2199 9.24338 12.4965 9.02816 12.8187C8.53125 13.5626 8.53125 14.5969 8.53125 16.6686C8.53125 18.7396 8.53125 19.7747 9.02816 20.5186C9.24338 20.8407 9.51996 21.1173 9.8421 21.3325C10.0979 21.5036 10.3877 21.6156 10.743 21.6894M13.6921 21.8294H18.1156C20.1866 21.8294 21.2217 21.8294 21.9656 21.3325C22.2877 21.1173 22.5643 20.8407 22.7795 20.5186C23.2764 19.7747 23.2764 18.7403 23.2764 16.6686C23.2764 14.5977 23.2764 13.5626 22.7795 12.8187C22.5643 12.4965 22.2877 12.22 21.9656 12.0047C21.7098 11.8337 21.42 11.7216 21.0647 11.6479" stroke="black" stroke-width="1.10589" stroke-linecap="round"/>
<path d="M13.6962 14.457C13.1096 14.457 12.547 14.6901 12.1322 15.1048C11.7174 15.5196 11.4844 16.0822 11.4844 16.6688C11.4844 17.2554 11.7174 17.818 12.1322 18.2328C12.547 18.6476 13.1096 18.8806 13.6962 18.8806M18.1197 14.457C18.7063 14.457 19.2689 14.6901 19.6837 15.1048C20.0985 15.5196 20.3315 16.0822 20.3315 16.6688C20.3315 17.2554 20.0985 17.818 19.6837 18.2328C19.2689 18.6476 18.7063 18.8806 18.1197 18.8806" stroke="black" stroke-width="1.10589"/>
<path d="M13.6875 11.5078V21.8294M18.1111 11.5078V21.8294" stroke="black" stroke-width="1.10589" stroke-linecap="round"/>
</g>
<defs>
<clipPath id="clip0_2585_46793">
<rect width="17.6942" height="17.6942" fill="white" transform="translate(7.0625 7.82227)"/>
</clipPath>
</defs>
</svg>
