<svg width="84" height="29" viewBox="0 0 84 29" fill="none" xmlns="http://www.w3.org/2000/svg">
<g clip-path="url(#clip0_1401_2562)">
<path d="M9.96803 6.74456C9.96803 8.53612 9.96803 10.3329 9.97847 12.1245C9.97847 13.6705 9.47704 15.1748 8.04066 15.9687C6.36401 16.888 3.98222 16.653 2.11231 16.4597C2.03919 16.4597 1.97651 16.4441 1.90861 16.4388C1.97129 15.1487 1.94517 13.8429 1.88249 12.558C1.80414 10.8134 2.85923 8.7346 4.73437 8.4421C6.7662 8.12348 8.53686 7.90411 9.49794 6.78112C9.52927 6.74978 9.56062 6.71322 9.58673 6.67666C9.72776 6.4834 9.87923 6.30058 10.0307 6.11255C9.98369 6.31625 9.96803 6.53041 9.96803 6.73933V6.74456Z" fill="#FF8845"/>
<path d="M3.81968 28.1429C5.2195 28.2317 6.62976 28.2108 8.02958 28.237C9.66445 28.2631 11.3411 28.4668 12.9185 28.1795C15.1854 27.7669 17.7343 26.2887 18.5752 24.1002C19.3535 22.0736 18.9879 19.6552 17.6455 17.9525C17.5515 17.8376 17.4523 17.7226 17.3426 17.6077C15.9845 16.1243 13.8796 15.3461 11.8739 15.6125C9.3824 15.9415 7.18865 17.9002 6.54097 20.329C6.13878 21.8438 6.48874 23.4525 6.25369 24.9934C6.06043 26.2678 4.96878 27.5736 3.81445 28.1429H3.81968Z" fill="#FF8845"/>
<path d="M17.8244 0.961914C17.6991 1.34321 17.8505 1.75584 18.0125 2.12147C20.0913 6.75446 25.6592 9.88838 25.466 15.4563C25.3772 17.9739 24.1236 20.9303 22.0187 22.4241C21.8672 22.5338 21.7262 22.6278 21.5486 22.68C21.1464 21.9279 21.1046 20.831 20.7651 20.0057C20.3368 18.9663 19.7727 17.9478 18.984 17.1434C18.2266 16.3756 17.2812 15.9316 16.5238 15.1795C14.936 13.5916 13.9331 11.4188 13.8026 9.1728C13.6145 5.9762 15.2128 2.80048 17.8297 0.97236L17.8244 0.961914Z" fill="#FF8845"/>
<path d="M3.36684 12.1399C3.36684 12.1399 3.29371 10.7453 4.72487 10.8132C4.72487 10.8132 5.2472 12.3384 3.36684 12.1399Z" fill="#E9E9E9" stroke="#FF8845" stroke-width="0.21962" stroke-miterlimit="10"/>
<path d="M2.89136 23.9648C4.20101 23.9648 5.2627 22.9032 5.2627 21.5935C5.2627 20.2839 4.20101 19.2222 2.89136 19.2222C1.5817 19.2222 0.52002 20.2839 0.52002 21.5935C0.52002 22.9032 1.5817 23.9648 2.89136 23.9648Z" fill="#FF8845"/>
<path d="M31.07 24.0011L35.6142 11.8572H38.0482L42.5924 24.0011H40.2159L39.1033 21.0553H34.5748L33.4622 24.0011H31.0596H31.07ZM35.3374 19.0861H38.3668L36.8364 14.4479L35.3374 19.0861Z" fill="#FF8845"/>
<path d="M43.8091 24.0012V15.7746H45.961V17.702C46.1595 16.9968 46.4729 16.4693 46.9012 16.1193C47.3243 15.7694 47.7892 15.5918 48.2958 15.5918C48.8025 15.5918 49.2569 15.691 49.6486 15.8947L49.2778 17.8221C48.9487 17.6706 48.5361 17.5975 48.0294 17.5975C46.6505 17.5975 45.9663 18.7623 45.9663 21.0866V24.0012H43.8143H43.8091Z" fill="#FF8845"/>
<path d="M50.6992 21.6563C50.4798 21.1183 50.3701 20.528 50.3701 19.896C50.3701 19.264 50.4798 18.6738 50.6992 18.1254C50.9186 17.5769 51.2111 17.1225 51.5819 16.7517C51.9527 16.386 52.3863 16.0988 52.8773 15.8951C53.3735 15.6913 53.8906 15.5869 54.4338 15.5869C54.977 15.5869 55.5098 15.7018 55.9798 15.9264C56.4499 16.151 56.7947 16.4696 57.0193 16.8718V11.283H59.1712V23.9963H57.0193V22.8785C56.7947 23.2807 56.4499 23.5993 55.9746 23.8239C55.5045 24.0537 54.9874 24.1634 54.4338 24.1634C53.8801 24.1634 53.3735 24.0589 52.8825 23.8552C52.3915 23.6515 51.958 23.3695 51.5871 23.0038C51.2163 22.6382 50.9186 22.189 50.6992 21.6458V21.6563ZM52.6265 19.8647C52.6265 20.528 52.8355 21.066 53.2481 21.4839C53.666 21.9017 54.1778 22.1107 54.789 22.1107C55.4001 22.1107 55.9119 21.9017 56.3455 21.4891C56.779 21.0765 56.9879 20.5333 56.9879 19.8699C56.9879 19.2066 56.7685 18.6686 56.3298 18.2664C55.891 17.8642 55.3792 17.6657 54.789 17.6657C54.1987 17.6657 53.6607 17.8694 53.2481 18.2768C52.8355 18.6842 52.6265 19.217 52.6265 19.8751V19.8647Z" fill="#FF8845"/>
<path d="M61.2388 12.5783C61.2388 12.2179 61.3746 11.9097 61.6514 11.659C61.9282 11.4083 62.2521 11.283 62.6281 11.283C63.0042 11.283 63.3228 11.4083 63.5944 11.659C63.866 11.9097 63.9966 12.2127 63.9966 12.5783C63.9966 12.9439 63.8608 13.2521 63.5944 13.5028C63.3281 13.7535 63.0042 13.8789 62.6281 13.8789C62.2521 13.8789 61.9178 13.7535 61.6462 13.5028C61.3746 13.2521 61.2388 12.9439 61.2388 12.5783ZM61.5417 24.0015V15.7749H63.6937V24.0015H61.5417Z" fill="#FF8845"/>
<path d="M66.1162 24.0015V13.8789H68.2682V24.0015H66.1162Z" fill="#FF8845"/>
<path d="M70.6909 24.0014V11.2881H72.8429V24.0014H70.6909Z" fill="#FF8845"/>
<path d="M74.7671 19.8748C74.7671 19.2324 74.882 18.6422 75.1171 18.0937C75.3521 17.5505 75.6655 17.0961 76.0572 16.7357C76.449 16.3753 76.8982 16.0932 77.4048 15.8947C77.9115 15.6963 78.439 15.5918 78.9874 15.5918C79.4419 15.5918 79.912 15.6858 80.3977 15.8791C80.8835 16.0723 81.2648 16.3753 81.5416 16.7879V15.7694H83.6936V23.9959H81.5416V22.9304C81.3013 23.3221 80.9305 23.6251 80.4291 23.834C79.9276 24.043 79.4471 24.1474 78.9927 24.1474C78.2562 24.1474 77.572 23.975 76.9347 23.6355C76.2975 23.296 75.7752 22.7894 75.373 22.126C74.9708 21.4627 74.7723 20.7105 74.7723 19.8644L74.7671 19.8748ZM77.0235 19.8748C77.0235 20.5173 77.2481 21.0448 77.7025 21.4627C78.157 21.8805 78.6845 22.0895 79.2904 22.0895C79.8963 22.0895 80.4291 21.891 80.873 21.4888C81.317 21.0866 81.5364 20.5486 81.5364 19.8748C81.5364 19.201 81.3118 18.663 80.8626 18.2609C80.4134 17.8587 79.8858 17.6602 79.2852 17.6602C78.6845 17.6602 78.1413 17.8691 77.6921 18.2817C77.2429 18.6996 77.0183 19.2272 77.0183 19.8748H77.0235Z" fill="#FF8845"/>
</g>
<defs>
<clipPath id="clip0_1401_2562">
<rect width="83.1744" height="27.3696" fill="white" transform="translate(0.52002 0.961914)"/>
</clipPath>
</defs>
</svg>
