<svg width="18" height="18" viewBox="0 0 18 18" fill="none" xmlns="http://www.w3.org/2000/svg">
<path d="M9.0273 6.20496V1.99219L7.62305 3.39644" stroke="#240552" stroke-width="1.05319" stroke-linecap="round" stroke-linejoin="round"/>
<path d="M9.0293 1.99219L10.4336 3.39644" stroke="#240552" stroke-width="1.05319" stroke-linecap="round" stroke-linejoin="round"/>
<path d="M5.5175 9.01562C2.70898 9.01562 2.70898 10.2724 2.70898 11.8241V12.5263C2.70898 14.4641 2.70898 16.0369 6.21962 16.0369H11.8366C14.6452 16.0369 15.3473 14.4641 15.3473 12.5263V11.8241C15.3473 10.2724 15.3473 9.01562 12.5388 9.01562C11.8366 9.01562 11.6401 9.16307 11.2749 9.4369L10.5588 10.1952C9.73027 11.0799 8.32601 11.0799 7.49048 10.1952L6.78133 9.4369C6.41622 9.16307 6.21962 9.01562 5.5175 9.01562Z" stroke="#240552" stroke-width="1.05319" stroke-miterlimit="10" stroke-linecap="round" stroke-linejoin="round"/>
<path d="M4.11523 9.01281V7.60855C4.11523 6.19727 4.11523 5.03174 6.22162 4.82812" stroke="#240552" stroke-width="1.05319" stroke-miterlimit="10" stroke-linecap="round" stroke-linejoin="round"/>
<path d="M13.9404 9.01281V7.60855C13.9404 6.19727 13.9404 5.03174 11.834 4.82812" stroke="#240552" stroke-width="1.05319" stroke-miterlimit="10" stroke-linecap="round" stroke-linejoin="round"/>
</svg>
