<svg width="16" height="17" viewBox="0 0 16 17" fill="none" xmlns="http://www.w3.org/2000/svg">
<path d="M7.92003 6.06672V2.23438L6.64258 3.51182" stroke="black" stroke-width="0.958087" stroke-linecap="round" stroke-linejoin="round"/>
<path d="M7.91602 2.23438L9.19346 3.51182" stroke="black" stroke-width="0.958087" stroke-linecap="round" stroke-linejoin="round"/>
<path d="M4.72873 8.62109C2.17383 8.62109 2.17383 9.76441 2.17383 11.176V11.8147C2.17383 13.5776 2.17383 15.0083 5.36745 15.0083H10.4772C13.0321 15.0083 13.6709 13.5776 13.6709 11.8147V11.176C13.6709 9.76441 13.6709 8.62109 11.116 8.62109C10.4772 8.62109 10.2984 8.75523 9.96627 9.00433L9.31477 9.69415C8.56107 10.4989 7.28362 10.4989 6.52354 9.69415L5.87843 9.00433C5.54629 8.75523 5.36745 8.62109 4.72873 8.62109Z" stroke="black" stroke-width="0.958087" stroke-miterlimit="10" stroke-linecap="round" stroke-linejoin="round"/>
<path d="M3.44727 8.6232V7.34576C3.44727 6.06192 3.44727 5.00164 5.36344 4.81641" stroke="black" stroke-width="0.958087" stroke-miterlimit="10" stroke-linecap="round" stroke-linejoin="round"/>
<path d="M12.3869 8.6232V7.34576C12.3869 6.06192 12.3869 5.00164 10.4707 4.81641" stroke="black" stroke-width="0.958087" stroke-miterlimit="10" stroke-linecap="round" stroke-linejoin="round"/>
</svg>
