<svg width="28" height="28" viewBox="0 0 28 28" fill="none" xmlns="http://www.w3.org/2000/svg">
<circle cx="13.8965" cy="14.002" r="13.1784" fill="white" stroke="#F3F4F6" stroke-width="0.85022"/>
<path d="M18.8539 9.40046L9.8539 18.4005C9.76008 18.4943 9.63283 18.547 9.50015 18.547C9.36746 18.547 9.24022 18.4943 9.1464 18.4005C9.05258 18.3066 8.99987 18.1794 8.99987 18.0467C8.99987 17.914 9.05258 17.7868 9.1464 17.693L18.1464 8.69296C18.2401 8.59914 18.3673 8.5464 18.4999 8.54634C18.6325 8.54628 18.7598 8.59891 18.8536 8.69265C18.9474 8.78638 19.0001 8.91355 19.0002 9.04618C19.0003 9.1788 18.9476 9.30601 18.8539 9.39983V9.40046ZM9.1589 11.888C8.73695 11.4659 8.49994 10.8936 8.5 10.2968C8.50006 9.70002 8.73718 9.12771 9.15921 8.70577C9.58123 8.28383 10.1536 8.04682 10.7504 8.04688C11.3471 8.04693 11.9195 8.28406 12.3414 8.70608C12.7633 9.12811 13.0004 9.70047 13.0003 10.2972C13.0002 10.894 12.7631 11.4663 12.3411 11.8883C11.9191 12.3102 11.3467 12.5472 10.7499 12.5472C10.1531 12.5471 9.58084 12.31 9.1589 11.888ZM9.50015 10.298C9.50031 10.5035 9.55115 10.7058 9.64816 10.887C9.74518 11.0682 9.88537 11.2227 10.0563 11.3367C10.2273 11.4508 10.4238 11.521 10.6283 11.541C10.8329 11.5611 11.0392 11.5303 11.229 11.4516C11.4189 11.3729 11.5864 11.2485 11.7167 11.0896C11.847 10.9307 11.9362 10.7421 11.9762 10.5405C12.0162 10.3389 12.0059 10.1305 11.9462 9.93384C11.8865 9.73718 11.7792 9.55827 11.6339 9.41296C11.459 9.23812 11.2362 9.11909 10.9936 9.07092C10.7511 9.02275 10.4997 9.04761 10.2713 9.14235C10.0428 9.23709 9.84763 9.39746 9.71037 9.60317C9.57311 9.80887 9.49995 10.0507 9.50015 10.298ZM19.5001 16.798C19.5 17.3185 19.3194 17.8229 18.9891 18.2252C18.6588 18.6275 18.1992 18.9029 17.6886 19.0043C17.1781 19.1057 16.6481 19.027 16.1891 18.7815C15.7301 18.5361 15.3704 18.139 15.1712 17.6581C14.9721 17.1771 14.946 16.642 15.0972 16.1439C15.2484 15.6458 15.5676 15.2155 16.0005 14.9264C16.4333 14.6373 16.953 14.5072 17.4711 14.5583C17.9891 14.6094 18.4734 14.8386 18.8414 15.2067C19.051 15.4152 19.2171 15.6632 19.3302 15.9363C19.4433 16.2095 19.501 16.5023 19.5001 16.798ZM18.5001 16.798C18.5002 16.5088 18.4 16.2285 18.2166 16.0049C18.0332 15.7813 17.7779 15.6282 17.4943 15.5718C17.2106 15.5153 16.9162 15.5589 16.6611 15.6952C16.406 15.8315 16.2061 16.052 16.0954 16.3191C15.9847 16.5863 15.97 16.8836 16.0539 17.1603C16.1378 17.4371 16.3151 17.6762 16.5555 17.8369C16.7959 17.9976 17.0847 18.07 17.3725 18.0417C17.6603 18.0134 17.9294 17.8862 18.1339 17.6817C18.2503 17.5659 18.3427 17.4282 18.4055 17.2765C18.4684 17.1248 18.5006 16.9622 18.5001 16.798Z" fill="#23A323"/>
</svg>
