<svg width="16" height="16" viewBox="0 0 16 16" fill="none" xmlns="http://www.w3.org/2000/svg">
<path d="M6.32851 11.0023C6.20976 11.0023 6.09102 10.9586 5.99727 10.8648C5.81602 10.6836 5.81602 10.3836 5.99727 10.2023L10.091 6.10859C10.2723 5.92734 10.5723 5.92734 10.7535 6.10859C10.9348 6.28984 10.9348 6.58984 10.7535 6.77109L6.65976 10.8648C6.56601 10.9586 6.44726 11.0023 6.32851 11.0023Z" fill="#240552"/>
<path d="M6.58516 7.93203C5.90391 7.93203 5.34766 7.37579 5.34766 6.69454C5.34766 6.01329 5.90391 5.45703 6.58516 5.45703C7.26641 5.45703 7.82265 6.01329 7.82265 6.69454C7.82265 7.37579 7.26641 7.93203 6.58516 7.93203ZM6.58516 6.40079C6.42266 6.40079 6.28516 6.53204 6.28516 6.70079C6.28516 6.86954 6.41641 7.00078 6.58516 7.00078C6.75391 7.00078 6.88515 6.86954 6.88515 6.70079C6.88515 6.53204 6.74766 6.40079 6.58516 6.40079Z" fill="#240552"/>
<path d="M10.673 11.5141C9.99178 11.5141 9.43555 10.9578 9.43555 10.2766C9.43555 9.5953 9.99178 9.03906 10.673 9.03906C11.3543 9.03906 11.9105 9.5953 11.9105 10.2766C11.9105 10.9578 11.3543 11.5141 10.673 11.5141ZM10.673 9.98282C10.5105 9.98282 10.373 10.1141 10.373 10.2828C10.373 10.4516 10.5043 10.5828 10.673 10.5828C10.8418 10.5828 10.973 10.4516 10.973 10.2828C10.973 10.1141 10.8418 9.98282 10.673 9.98282Z" fill="#240552"/>
<path d="M8.47266 15.207C4.76641 15.207 1.75391 12.1945 1.75391 8.48828C1.75391 4.78203 4.76641 1.76953 8.47266 1.76953C12.1789 1.76953 15.1914 4.78203 15.1914 8.48828C15.1914 12.1945 12.1789 15.207 8.47266 15.207ZM8.47266 2.70703C5.28516 2.70703 2.69141 5.30078 2.69141 8.48828C2.69141 11.6758 5.28516 14.2695 8.47266 14.2695C11.6602 14.2695 14.2539 11.6758 14.2539 8.48828C14.2539 5.30078 11.6602 2.70703 8.47266 2.70703Z" fill="#240552"/>
</svg>
