<svg width="33" height="34" viewBox="0 0 33 34" fill="none" xmlns="http://www.w3.org/2000/svg">
<circle cx="16.0957" cy="17.0723" r="16.0957" fill="#A855F7"/>
<g clip-path="url(#clip0_2585_46820)">
<path d="M10.3359 18.0928C10.3359 16.4445 10.3359 15.6198 10.8483 15.108C11.36 14.5957 12.1847 14.5957 13.833 14.5957H18.4958C20.1441 14.5957 20.9688 14.5957 21.4805 15.108C21.9928 15.6198 21.9928 16.4445 21.9928 18.0928C21.9928 19.7411 21.9928 20.5658 21.4805 21.0775C20.9688 21.5898 20.1441 21.5898 18.4958 21.5898H13.833C12.1847 21.5898 11.36 21.5898 10.8483 21.0775C10.3359 20.5658 10.3359 19.7411 10.3359 18.0928Z" stroke="black" stroke-width="0.874268"/>
<path d="M12.6719 14.5964V13.4307C12.6719 12.5032 13.0403 11.6137 13.6961 10.9579C14.352 10.302 15.2415 9.93359 16.1689 9.93359C17.0964 9.93359 17.9859 10.302 18.6417 10.9579C19.2976 11.6137 19.666 12.5032 19.666 13.4307V14.5964" stroke="black" stroke-width="0.874268" stroke-linecap="round"/>
</g>
<defs>
<clipPath id="clip0_2585_46820">
<rect width="13.9883" height="13.9883" fill="white" transform="translate(9.17188 8.76758)"/>
</clipPath>
</defs>
</svg>
