<svg width="75" height="74" viewBox="0 0 75 74" fill="none" xmlns="http://www.w3.org/2000/svg">
<circle cx="35.7788" cy="37.7615" r="35.5803" fill="#3E0E87"/>
<circle cx="38.5803" cy="36.0803" r="35.3002" fill="#F6F1FE" stroke="black" stroke-width="0.56032"/>
<path d="M19.0786 28.4854H61.6321V54.0443H19.0786V28.4854Z" fill="#3E0E87"/>
<path d="M18.853 28.7111L38.5174 11.9941C39.6648 11.0955 41.281 11.108 42.4137 12.025L61.4065 28.7111H18.853Z" fill="#3E0E87"/>
<g filter="url(#filter0_d_1640_2070)">
<path d="M57.9115 49.8083H23.1716V21.2319H57.9115V49.8083Z" fill="#F4F4F4"/>
</g>
<path d="M46.5583 41.8019L61.4949 28.3477V54.288L46.5583 41.8019Z" fill="#3E0E87"/>
<path d="M33.8773 41.8019L18.9407 28.3477V54.288L33.8773 41.8019Z" fill="#3E0E87"/>
<path d="M39.3722 34.3469C39.3722 35.1476 39.3722 35.9506 39.3768 36.7512C39.3768 37.4422 39.1527 38.1145 38.5108 38.4693C37.7615 38.8801 36.697 38.7751 35.8614 38.6887C35.8287 38.6887 35.8007 38.6817 35.7703 38.6794C35.7983 38.1028 35.7867 37.5192 35.7587 36.945C35.7236 36.1653 36.1952 35.2363 37.0332 35.1056C37.9412 34.9632 38.7326 34.8651 39.1621 34.3632C39.1761 34.3492 39.1901 34.3329 39.2018 34.3166C39.2648 34.2302 39.3325 34.1485 39.4002 34.0645C39.3792 34.1555 39.3722 34.2512 39.3722 34.3446V34.3469Z" fill="white" fill-opacity="0.13"/>
<path d="M36.6259 43.9107C37.2515 43.9504 37.8817 43.941 38.5073 43.9527C39.238 43.9644 39.9873 44.0554 40.6922 43.927C41.7053 43.7426 42.8445 43.082 43.2203 42.1039C43.5681 41.1982 43.4047 40.1174 42.8048 39.3565C42.7628 39.3051 42.7184 39.2538 42.6694 39.2024C42.0625 38.5395 41.1217 38.1916 40.2254 38.3107C39.1119 38.4578 38.1315 39.3331 37.842 40.4186C37.6623 41.0955 37.8187 41.8145 37.7137 42.5031C37.6273 43.0727 37.1394 43.6563 36.6235 43.9107H36.6259Z" fill="white" fill-opacity="0.13"/>
<path d="M42.8861 31.7632C42.8301 31.9336 42.8978 32.118 42.9702 32.2814C43.8992 34.3519 46.3876 35.7525 46.3012 38.2409C46.2615 39.366 45.7013 40.6872 44.7606 41.3549C44.6929 41.4039 44.6299 41.4459 44.5505 41.4692C44.3708 41.1331 44.3521 40.6429 44.2003 40.2741C44.0089 39.8095 43.7568 39.3544 43.4044 38.9949C43.0659 38.6517 42.6434 38.4533 42.3049 38.1172C41.5953 37.4075 41.1471 36.4365 41.0887 35.4327C41.0047 34.0041 41.719 32.5849 42.8885 31.7679L42.8861 31.7632Z" fill="white" fill-opacity="0.13"/>
<path d="M36.4246 36.7585C36.4246 36.7585 36.3919 36.1353 37.0315 36.1656C37.0315 36.1656 37.2649 36.8472 36.4246 36.7585Z" fill="white" stroke="white" stroke-opacity="0.13" stroke-width="0.0981505" stroke-miterlimit="10"/>
<path d="M36.2126 42.0434C36.7979 42.0434 37.2724 41.5689 37.2724 40.9836C37.2724 40.3983 36.7979 39.9238 36.2126 39.9238C35.6273 39.9238 35.1528 40.3983 35.1528 40.9836C35.1528 41.5689 35.6273 42.0434 36.2126 42.0434Z" fill="white" fill-opacity="0.13"/>
<path d="M38.65 27.2619C38.65 28.0626 38.65 28.8656 38.6547 29.6663C38.6547 30.3572 38.4306 31.0295 37.7886 31.3843C37.0393 31.7952 35.9749 31.6901 35.1392 31.6038C35.1065 31.6038 35.0785 31.5968 35.0482 31.5944C35.0762 31.0178 35.0645 30.4343 35.0365 29.86C35.0015 29.0804 35.473 28.1513 36.311 28.0206C37.2191 27.8782 38.0104 27.7802 38.4399 27.2783C38.4539 27.2643 38.4679 27.2479 38.4796 27.2316C38.5426 27.1452 38.6103 27.0635 38.678 26.9795C38.657 27.0705 38.65 27.1662 38.65 27.2596V27.2619Z" fill="#3E0E87"/>
<path d="M35.9037 36.8257C36.5293 36.8654 37.1596 36.8561 37.7852 36.8678C38.5158 36.8794 39.2651 36.9705 39.9701 36.8421C40.9832 36.6577 42.1223 35.9971 42.4981 35.019C42.8459 34.1133 42.6825 33.0325 42.0826 32.2715C42.0406 32.2201 41.9962 32.1688 41.9472 32.1174C41.3403 31.4545 40.3996 31.1067 39.5032 31.2257C38.3897 31.3728 37.4093 32.2482 37.1199 33.3336C36.9401 34.0106 37.0965 34.7295 36.9915 35.4181C36.9051 35.9877 36.4172 36.5713 35.9014 36.8257H35.9037Z" fill="#3E0E87"/>
<path d="M42.164 24.6782C42.1079 24.8486 42.1756 25.033 42.248 25.1964C43.1771 27.267 45.6654 28.6676 45.5791 31.1559C45.5394 32.2811 44.9791 33.6023 44.0384 34.2699C43.9707 34.3189 43.9077 34.3609 43.8283 34.3843C43.6486 34.0481 43.6299 33.5579 43.4782 33.1891C43.2868 32.7246 43.0347 32.2694 42.6822 31.9099C42.3437 31.5668 41.9212 31.3684 41.5827 31.0322C40.8731 30.3226 40.4249 29.3515 40.3665 28.3478C40.2825 26.9192 40.9968 25.4999 42.1663 24.6829L42.164 24.6782Z" fill="#3E0E87"/>
<path d="M35.7002 29.6736C35.7002 29.6736 35.6676 29.0503 36.3072 29.0807C36.3072 29.0807 36.5406 29.7623 35.7002 29.6736Z" fill="white"/>
<path d="M35.4858 34.9584C36.0711 34.9584 36.5456 34.4839 36.5456 33.8986C36.5456 33.3133 36.0711 32.8389 35.4858 32.8389C34.9005 32.8389 34.426 33.3133 34.426 33.8986C34.426 34.4839 34.9005 34.9584 35.4858 34.9584Z" fill="#3E0E87"/>
<path d="M61.4941 54.2852L41.7799 37.6582C40.7778 36.9877 39.4695 36.9904 38.4703 37.6653L18.9407 54.2852H61.4941Z" fill="#3E0E87"/>
<defs>
<filter id="filter0_d_1640_2070" x="11.9652" y="12.2668" width="57.1525" height="50.989" filterUnits="userSpaceOnUse" color-interpolation-filters="sRGB">
<feFlood flood-opacity="0" result="BackgroundImageFix"/>
<feColorMatrix in="SourceAlpha" type="matrix" values="0 0 0 0 0 0 0 0 0 0 0 0 0 0 0 0 0 0 127 0" result="hardAlpha"/>
<feOffset dy="2.24128"/>
<feGaussianBlur stdDeviation="5.6032"/>
<feComposite in2="hardAlpha" operator="out"/>
<feColorMatrix type="matrix" values="0 0 0 0 0 0 0 0 0 0 0 0 0 0 0 0 0 0 0.25 0"/>
<feBlend mode="normal" in2="BackgroundImageFix" result="effect1_dropShadow_1640_2070"/>
<feBlend mode="normal" in="SourceGraphic" in2="effect1_dropShadow_1640_2070" result="shape"/>
</filter>
</defs>
</svg>
