<svg width="41" height="41" viewBox="0 0 41 41" fill="none" xmlns="http://www.w3.org/2000/svg">
<circle cx="20.257" cy="20.2579" r="20.2095" fill="white"/>
<path d="M25.1074 22.683H23.4906V24.2998H25.1074M25.1074 19.4495H23.4906V21.0662H25.1074M26.7241 25.9165H20.2571V24.2998H21.8738V22.683H20.2571V21.0662H21.8738V19.4495H20.2571V17.8327H26.7241M18.6403 16.2159H17.0235V14.5992H18.6403M18.6403 19.4495H17.0235V17.8327H18.6403M18.6403 22.683H17.0235V21.0662H18.6403M18.6403 25.9165H17.0235V24.2998H18.6403M15.4068 16.2159H13.79V14.5992H15.4068M15.4068 19.4495H13.79V17.8327H15.4068M15.4068 22.683H13.79V21.0662H15.4068M15.4068 25.9165H13.79V24.2998H15.4068M20.2571 16.2159V12.9824H12.1732V27.5333H28.3409V16.2159H20.2571Z" fill="#22C55E"/>
</svg>
