<svg width="20" height="20" viewBox="0 0 20 20" fill="none" xmlns="http://www.w3.org/2000/svg">
<path d="M16.8391 9.18975C16.8686 9.41682 16.8838 9.65813 16.8838 9.91465C16.8838 11.373 16.442 12.3535 16.0192 12.9625C15.8522 13.2042 15.6577 13.4258 15.4397 13.6227C15.3684 13.6866 15.2936 13.7462 15.2155 13.8014L15.2069 13.8071C15.1386 13.8498 15.0822 13.9091 15.0432 13.9796C15.0041 14.0501 14.9836 14.1293 14.9836 14.2099V15.7974C14.9836 15.9234 14.9336 16.0443 14.8445 16.1333C14.7554 16.2224 14.6346 16.2725 14.5086 16.2725H13.1937C13.1645 16.2725 13.1365 16.2609 13.1158 16.2402C13.0951 16.2195 13.0835 16.1915 13.0835 16.1623C13.0835 15.5761 12.6085 15.101 12.0232 15.101H10.3435C9.75829 15.101 9.28326 15.5761 9.28326 16.1623C9.28326 16.1915 9.27164 16.2195 9.25098 16.2402C9.23031 16.2609 9.20228 16.2725 9.17305 16.2725H7.85816C7.73217 16.2725 7.61135 16.2224 7.52226 16.1333C7.43318 16.0443 7.38313 15.9234 7.38313 15.7974V14.9899C7.38285 14.8904 7.35135 14.7935 7.29305 14.7129C7.23475 14.6322 7.15261 14.5719 7.05821 14.5405L7.02021 14.5225C6.94476 14.4854 6.87177 14.4435 6.80169 14.397C6.59268 14.2621 6.263 14.0113 5.82123 13.5638C5.42274 13.1537 5.10183 12.6747 4.87401 12.1501C4.6992 11.7492 4.33343 11.3967 3.84414 11.3141C3.77131 11.3018 3.70516 11.2642 3.65736 11.2078C3.60957 11.1515 3.58319 11.0801 3.58288 11.0063V9.57453C3.58288 9.50936 3.60597 9.4463 3.64807 9.39656C3.69016 9.34681 3.74852 9.31359 3.81279 9.30281C4.33533 9.21445 4.70585 8.81448 4.85026 8.37365C4.97377 7.99552 5.19608 7.49959 5.56471 7.12621C5.87557 6.81623 6.22337 6.54564 6.60028 6.32056C6.75129 6.22974 6.90665 6.14635 7.06581 6.07069L7.09051 6.05929L7.09526 6.05739C7.18091 6.02068 7.25388 5.95957 7.30506 5.8817C7.35625 5.80382 7.3834 5.71261 7.38313 5.61941V3.62713C7.6235 3.83615 7.90376 4.06226 8.20588 4.26367C8.61821 4.54109 9.10939 4.80141 9.61388 4.89547C9.73051 4.5786 9.88354 4.27636 10.0699 3.99481C10.012 3.98866 9.95401 3.98264 9.89605 3.97675C9.55877 3.94255 9.1531 3.75539 8.73412 3.47512C8.35689 3.21571 8.00249 2.92457 7.6748 2.60486C7.57226 2.50703 7.44354 2.44105 7.30425 2.41491C7.16496 2.38877 7.02108 2.4036 6.89005 2.4576C6.75558 2.51039 6.64009 2.6024 6.5586 2.72168C6.4771 2.84096 6.43337 2.98199 6.43307 3.12645V5.32489C5.86539 5.62499 5.3449 6.00688 4.88826 6.45832C4.37238 6.98085 4.09211 7.6364 3.9477 8.07818C3.8907 8.24729 3.76719 8.34705 3.65508 8.36605C3.36948 8.41409 3.11012 8.56172 2.923 8.78276C2.73587 9.0038 2.63307 9.28397 2.63281 9.57358V11.0053C2.63266 11.304 2.73831 11.593 2.93101 11.8212C3.12371 12.0494 3.39101 12.202 3.68548 12.2518C3.80424 12.2708 3.9325 12.3677 4.0028 12.5302C4.27737 13.1615 4.66431 13.7377 5.14478 14.2308C5.62836 14.721 6.01029 15.0165 6.28391 15.1941C6.33806 15.2293 6.38841 15.2597 6.43307 15.2863V15.7974C6.43307 15.9846 6.46993 16.1699 6.54154 16.3428C6.61316 16.5157 6.71813 16.6728 6.85047 16.8051C6.9828 16.9375 7.1399 17.0424 7.3128 17.1141C7.4857 17.1857 7.67101 17.2225 7.85816 17.2225H9.17305C9.75829 17.2225 10.2333 16.7475 10.2333 16.1623C10.2333 16.1005 10.2827 16.0511 10.3435 16.0511H12.0232C12.084 16.0511 12.1334 16.1005 12.1334 16.1623C12.1334 16.7475 12.6085 17.2225 13.1937 17.2225H14.5086C14.8866 17.2225 15.249 17.0724 15.5163 16.8051C15.7836 16.5379 15.9337 16.1754 15.9337 15.7974V14.4493C16.2636 14.1754 16.5544 13.8576 16.7983 13.5049C17.3255 12.7477 17.8338 11.5801 17.8338 9.91465C17.8338 9.2249 17.7379 8.60736 17.5555 8.05538C17.3777 8.46877 17.136 8.85159 16.8391 9.18975ZM16.6966 5.09213C16.9817 5.78117 17.0269 6.54602 16.8249 7.26383C16.623 7.98165 16.1856 8.61075 15.5831 9.05009C15.1746 9.34651 14.6359 9.32561 14.1704 9.13275L11.2822 7.93662C10.8167 7.74375 10.4205 7.37798 10.3416 6.88015C10.2187 6.07784 10.3934 5.25826 10.833 4.57589C11.2725 3.89351 11.9464 3.39546 12.7278 3.17559C13.5091 2.95572 14.3438 3.02923 15.0747 3.38225C15.8056 3.73528 16.3831 4.34344 16.6966 5.09213ZM15.0245 8.28244C15.3657 8.03405 15.6345 7.69924 15.8033 7.31246C15.9722 6.92568 16.0349 6.5009 15.985 6.08184C15.9352 5.66277 15.7746 5.26455 15.5198 4.92814C15.265 4.59174 14.9251 4.3293 14.5352 4.16784C14.1453 4.00637 13.7194 3.95171 13.3014 4.00948C12.8833 4.06724 12.4882 4.23535 12.1567 4.4965C11.8252 4.75765 11.5693 5.10241 11.4152 5.49531C11.2612 5.88821 11.2146 6.31506 11.2803 6.73194C11.2914 6.78584 11.3189 6.83496 11.3591 6.87255C11.4199 6.93715 11.5169 7.00556 11.6461 7.05876L14.5343 8.25584C14.6399 8.30144 14.7536 8.32504 14.8687 8.32519C14.9238 8.32738 14.9782 8.31244 15.0245 8.28244ZM7.14561 9.147C7.33459 9.147 7.51583 9.07193 7.64946 8.9383C7.78309 8.80467 7.85816 8.62343 7.85816 8.43445C7.85816 8.24547 7.78309 8.06423 7.64946 7.9306C7.51583 7.79698 7.33459 7.7219 7.14561 7.7219C6.95663 7.7219 6.77539 7.79698 6.64177 7.9306C6.50814 8.06423 6.43307 8.24547 6.43307 8.43445C6.43307 8.62343 6.50814 8.80467 6.64177 8.9383C6.77539 9.07193 6.95663 9.147 7.14561 9.147Z" fill="black"/>
</svg>
