<svg width="27" height="27" viewBox="0 0 27 27" fill="none" xmlns="http://www.w3.org/2000/svg">
<path d="M10.4379 19.8864V13.8888C10.4379 13.7613 10.4802 13.6375 10.5582 13.5367C10.6362 13.4358 10.7455 13.3638 10.8689 13.3318C10.9922 13.2998 11.1228 13.3098 11.2399 13.36C11.357 13.4102 11.4542 13.498 11.5161 13.6094L14.8381 19.5895C14.8999 19.7009 14.9971 19.7886 15.1142 19.8389C15.2314 19.8891 15.3619 19.8991 15.4853 19.8671C15.6086 19.8351 15.7179 19.763 15.7959 19.6622C15.8739 19.5614 15.9162 19.4375 15.9162 19.3101V13.3125M9.34229 15.5038H17.0118M9.34229 17.6951H17.0118" stroke="#240552" stroke-width="1.09565" stroke-linecap="round" stroke-linejoin="round"/>
<path d="M8.95813 4.45713L11.2218 7.10588L10.9772 7.37888C6.31832 8.42376 2.83838 12.5846 2.83838 17.5587C2.83838 21.9316 6.38738 25.4806 10.7603 25.4806H15.7734C20.1463 25.4806 23.6953 21.9324 23.6953 17.5595C23.7034 12.5846 20.2234 8.42376 15.5646 7.37888C15.5835 7.20719 15.5525 7.03368 15.4752 6.8792L17.4008 4.67488L17.5251 4.48313C17.6703 4.16653 17.7074 3.811 17.6308 3.47123C17.5542 3.13146 17.3681 2.82626 17.1011 2.60258C16.8341 2.3789 16.5011 2.24911 16.1531 2.23319C15.8052 2.21727 15.4617 2.31608 15.1754 2.51445L14.4904 1.70195C14.3368 1.53001 14.1486 1.39237 13.9382 1.29801C13.7279 1.20365 13.4999 1.15468 13.2693 1.1543C13.0388 1.15392 12.8107 1.20213 12.6 1.29579C12.3893 1.38945 12.2007 1.52645 12.0464 1.69788L11.329 2.49901C11.0434 2.29652 10.6991 2.19376 10.3493 2.20663C9.99948 2.2195 9.66365 2.34727 9.39374 2.57019C9.12383 2.79311 8.9349 3.09875 8.85615 3.43984C8.77741 3.78093 8.81325 4.13846 8.95813 4.45713ZM12.0448 5.58245L10.6668 3.98995C10.987 4.14421 11.3492 4.18801 11.6969 4.1145C12.0446 4.041 12.3581 3.85433 12.5884 3.5837L13.2384 2.74032L13.9599 3.59507C14.1848 3.85668 14.4883 4.03859 14.8251 4.1137C15.1618 4.18882 15.5138 4.1531 15.8286 4.01188L14.4571 5.58245H12.0448ZM4.46338 17.5587C4.46338 12.6934 8.40563 8.7512 13.2709 8.7512C18.1361 8.7512 22.0784 12.6934 22.0703 17.5571V17.5587C22.0696 19.2285 21.406 20.8298 20.2252 22.0105C19.0445 23.1913 17.4432 23.8549 15.7734 23.8556H10.7603C9.09042 23.8549 7.48916 23.1913 6.3084 22.0105C5.12765 20.8298 4.46402 19.2285 4.46338 17.5587Z" fill="#240552"/>
</svg>
