<svg width="96" height="23" viewBox="0 0 96 23" fill="none" xmlns="http://www.w3.org/2000/svg">
<g clip-path="url(#clip0_2883_60707)">
<path d="M59.9758 14.3366C60.2043 14.6303 60.4937 14.8712 60.824 15.0426C61.1543 15.214 61.5178 15.3119 61.8895 15.3297C62.0296 15.3302 62.1693 15.3152 62.3061 15.285C62.4245 15.2588 62.5373 15.2117 62.6392 15.1461C62.7307 15.0815 62.8062 14.997 62.8602 14.899C62.916 14.786 62.9436 14.6612 62.9408 14.5352C62.9438 14.4384 62.9208 14.3425 62.8743 14.2575C62.8296 14.1764 62.7704 14.1043 62.6995 14.0448C62.6248 13.983 62.5434 13.9299 62.4567 13.8865C62.3713 13.8397 62.2821 13.8002 62.1901 13.7685C62.025 13.7005 61.8594 13.6379 61.6957 13.5825C61.5321 13.5272 61.3694 13.4674 61.2043 13.398C61.0916 13.3588 60.9795 13.3176 60.8683 13.2742C60.7257 13.2203 60.5866 13.1577 60.4517 13.0867C60.3065 13.0099 60.1672 12.9222 60.035 12.8245C59.8955 12.7204 59.7704 12.598 59.6631 12.4608C59.5493 12.3149 59.4585 12.1524 59.3936 11.9791C59.3213 11.7809 59.2864 11.571 59.2906 11.36C59.2847 11.0907 59.3581 10.8255 59.5019 10.5976C59.6464 10.373 59.8389 10.1833 60.0656 10.0421C60.3116 9.88989 60.5802 9.77792 60.8615 9.71048C61.1611 9.63537 61.4689 9.59801 61.7778 9.59928C62.2383 9.59333 62.6973 9.65217 63.1413 9.77409C63.5519 9.89119 63.9342 10.0912 64.2645 10.3616L63.5507 11.4615C63.4336 11.3445 63.3113 11.2329 63.1841 11.1269C63.0668 11.03 62.9403 10.945 62.8063 10.873C62.6677 10.8017 62.5209 10.7475 62.3693 10.7118C62.192 10.6746 62.0113 10.6569 61.8303 10.6588C61.6824 10.6562 61.535 10.6763 61.3932 10.7186C61.284 10.7536 61.1822 10.8088 61.0931 10.8812C61.0188 10.9457 60.9603 11.0265 60.9222 11.1172C60.8853 11.2051 60.8665 11.2996 60.8669 11.395C60.8647 11.4932 60.8918 11.5899 60.9445 11.6727C60.9994 11.7535 61.0685 11.8236 61.1485 11.8796C61.2349 11.9407 61.3281 11.9916 61.4263 12.0311C61.5316 12.0743 61.6375 12.1132 61.7458 12.1476C61.9152 12.2103 62.0857 12.27 62.2581 12.3283C62.4304 12.3865 62.598 12.4463 62.7689 12.506C62.8534 12.5395 62.9563 12.5754 63.0787 12.6211C63.207 12.6687 63.3318 12.7253 63.4521 12.7905C63.588 12.8624 63.7167 12.947 63.8367 13.043C63.9672 13.1441 64.0827 13.2633 64.1795 13.397C64.2845 13.5457 64.3663 13.7094 64.4223 13.8826C64.4907 14.0884 64.5236 14.3043 64.5194 14.5212C64.5247 14.8045 64.4465 15.0832 64.2946 15.3224C64.1434 15.5573 63.9425 15.7562 63.7061 15.9051C63.4489 16.067 63.1676 16.1869 62.8728 16.2605C62.5603 16.3408 62.2389 16.381 61.9162 16.38C61.6415 16.3799 61.367 16.3637 61.0941 16.3314C60.8444 16.3011 60.5984 16.2463 60.3594 16.1678C60.1263 16.0914 59.9034 15.9869 59.6956 15.8565C59.4773 15.7183 59.278 15.5521 59.1027 15.3622L59.9758 14.3366ZM53.9478 9.70708V14.1851C53.9439 14.3382 53.9698 14.4906 54.024 14.6338C54.0681 14.7494 54.1375 14.8538 54.227 14.9393C54.312 15.0195 54.4149 15.0786 54.5271 15.1116C54.6472 15.1487 54.7724 15.1666 54.8981 15.1646C55.21 15.1635 55.5207 15.1262 55.8241 15.0534C56.1294 14.9851 56.4216 14.8679 56.6894 14.7062V9.70708H58.2695V15.1048C58.273 15.2558 58.2855 15.4065 58.3069 15.5559C58.3292 15.7502 58.3666 15.9808 58.4137 16.2435H56.921C56.9127 16.2188 56.8987 16.1741 56.8821 16.1047C56.8656 16.0352 56.8448 15.9658 56.8253 15.8895C56.8059 15.8133 56.7909 15.741 56.7739 15.673C56.7612 15.6226 56.7515 15.5715 56.7447 15.52C56.6016 15.6464 56.4468 15.7589 56.2825 15.856C56.1108 15.9603 55.9305 16.0495 55.7435 16.1226C55.56 16.1967 55.3704 16.2544 55.1768 16.295C54.9981 16.3349 54.8156 16.3554 54.6324 16.3562C54.2631 16.3685 53.8949 16.3091 53.5481 16.1814C53.2803 16.0789 53.0419 15.9122 52.8537 15.6958C52.6765 15.4855 52.5496 15.2376 52.4828 14.9708C52.4092 14.6776 52.3733 14.3762 52.3759 14.0739V9.70951L53.9478 9.70708ZM46.7713 15.2088C46.9641 15.2743 47.1619 15.324 47.3628 15.3573C47.5922 15.3959 47.8245 15.4154 48.0571 15.4156C48.2946 15.4173 48.5285 15.3585 48.737 15.2447C48.9498 15.1241 49.1314 14.9553 49.2672 14.7518C49.4286 14.5117 49.547 14.2453 49.6173 13.9647C49.7038 13.6216 49.7454 13.2687 49.7411 12.9149C49.7433 12.6226 49.7125 12.331 49.6494 12.0457C49.5986 11.8063 49.502 11.5791 49.3648 11.3765C49.2396 11.1945 49.0706 11.0469 48.8734 10.9473C48.6488 10.8414 48.4025 10.7896 48.1543 10.7958C48.0243 10.7964 47.8946 10.8052 47.7658 10.822C47.6388 10.841 47.5127 10.8659 47.388 10.8968C47.2726 10.9247 47.159 10.9598 47.0481 11.0021C46.9512 11.0393 46.8582 11.0858 46.7703 11.141L46.7713 15.2088ZM45.1995 6.75958H46.7713V10.198C47.0179 10.0114 47.294 9.86731 47.5881 9.77166C47.9257 9.65769 48.2801 9.60139 48.6364 9.60511C49.0757 9.59462 49.511 9.68989 49.9058 9.88286C50.2436 10.0576 50.5359 10.3088 50.7594 10.6166C50.9875 10.9355 51.1523 11.2952 51.245 11.6761C51.3485 12.0847 51.4002 12.5046 51.3989 12.926C51.4117 13.4489 51.3172 13.9688 51.1212 14.4537C50.953 14.8583 50.7028 15.2236 50.3865 15.5268C50.0911 15.805 49.7419 16.0198 49.3604 16.1581C48.9884 16.2921 48.5963 16.3615 48.2009 16.3635C47.8982 16.3635 47.6204 16.3602 47.3676 16.3538C47.1136 16.347 46.8679 16.3387 46.6329 16.3275C46.3979 16.3164 46.1624 16.2984 45.9303 16.2746C45.6982 16.2508 45.4554 16.2231 45.2019 16.1887L45.1995 6.75958ZM40.9589 15.3195C41.2084 15.3264 41.453 15.2491 41.6532 15.1C41.8539 14.9472 42.0168 14.7506 42.1296 14.5251C42.2612 14.2716 42.3548 14.0002 42.4074 13.7195C42.4694 13.4193 42.5002 13.1135 42.4991 12.8071C42.5 12.5333 42.473 12.2601 42.4185 11.9918C42.3696 11.7537 42.2778 11.5264 42.1476 11.3212C42.0258 11.1312 41.859 10.9743 41.662 10.8642C41.4406 10.7447 41.1915 10.6857 40.9399 10.6933C40.7037 10.6892 40.4708 10.7497 40.2664 10.8681C40.0692 10.9886 39.9029 11.1536 39.7808 11.3498C39.644 11.5748 39.5455 11.8209 39.4895 12.0782C39.3586 12.6442 39.3542 13.2322 39.4769 13.8001C39.5307 14.0631 39.6243 14.3165 39.7546 14.5513C39.8747 14.7705 40.0421 14.9602 40.2446 15.1068C40.4544 15.2518 40.7048 15.3266 40.9598 15.3204L40.9589 15.3195ZM41.0118 16.4081C40.5295 16.4166 40.0501 16.3322 39.5997 16.1595C39.2076 16.0054 38.8553 15.7648 38.5693 15.4554C38.2831 15.1364 38.068 14.7601 37.938 14.3517C37.7878 13.8881 37.7142 13.4031 37.72 12.9158C37.7179 12.484 37.785 12.0547 37.9186 11.6441C38.0462 11.2558 38.2523 10.898 38.5241 10.5928C38.8073 10.2805 39.1553 10.0341 39.5439 9.87072C40.0022 9.68487 40.4936 9.59464 40.988 9.60559C41.4771 9.59366 41.9634 9.68397 42.4156 9.87072C42.7961 10.0347 43.1339 10.2839 43.4028 10.5991C43.6671 10.9183 43.8619 11.2891 43.9748 11.6878C44.0998 12.1235 44.1619 12.5748 44.1594 13.028C44.162 13.474 44.0893 13.9173 43.9442 14.3391C43.8078 14.7342 43.5961 15.0992 43.3207 15.4137C43.0441 15.7215 42.7064 15.9684 42.3292 16.1386C41.9146 16.3211 41.4656 16.412 41.0128 16.4052L41.0118 16.4081ZM34.7395 6.76007H36.3113V14.6639C36.2966 14.8166 36.3317 14.9699 36.4114 15.101C36.444 15.143 36.4863 15.1765 36.5347 15.1987C36.583 15.2209 36.636 15.2312 36.6891 15.2287C36.8049 15.2321 36.9203 15.2133 37.029 15.1733C37.1223 15.1383 37.2305 15.0942 37.35 15.0471L37.6166 15.8565C37.5112 15.9293 37.4007 15.9942 37.2859 16.0508C37.1652 16.1129 37.0405 16.1667 36.9125 16.212C36.7794 16.2581 36.6435 16.2957 36.5056 16.3246C36.3685 16.3528 36.2289 16.3673 36.0889 16.3678C35.9199 16.3679 35.7513 16.3493 35.5864 16.3125C35.4284 16.2785 35.281 16.2065 35.1571 16.1027C35.022 15.9886 34.9175 15.8425 34.8531 15.6778C34.7703 15.4531 34.7321 15.2145 34.7405 14.9752L34.7395 6.76007ZM33.7105 15.6084C33.4911 15.7264 33.2662 15.8332 33.0341 15.9318C32.7854 16.037 32.5291 16.1234 32.2674 16.1901C31.961 16.2679 31.6497 16.3245 31.3356 16.3596C30.9486 16.4025 30.5595 16.4229 30.1701 16.4208C29.7306 16.4264 29.2931 16.3608 28.8746 16.2265C28.1374 15.9867 27.4981 15.514 27.0527 14.8795C26.8282 14.5651 26.6444 14.2236 26.5054 13.8632C26.3602 13.4906 26.2524 13.1044 26.1835 12.7104C26.113 12.3065 26.0778 11.8972 26.0781 11.4872C26.0777 11.0582 26.1205 10.6301 26.2058 10.2097C26.2869 9.80469 26.4122 9.40982 26.5793 9.03212C26.7419 8.66921 26.9495 8.32823 27.1974 8.01725C27.4403 7.71137 27.7271 7.44317 28.0486 7.22137C28.3778 6.99344 28.7403 6.81784 29.1232 6.70083C29.5404 6.57123 29.9752 6.5075 30.412 6.51194C30.6412 6.51194 30.8524 6.51873 31.0432 6.53136C31.2211 6.5425 31.3981 6.5639 31.5735 6.59546C31.7332 6.62339 31.8903 6.66482 32.043 6.71928C32.1973 6.77379 32.3473 6.83969 32.4917 6.91643C32.6542 7.00032 32.8106 7.0954 32.9598 7.20098C33.1217 7.31105 33.2997 7.44053 33.494 7.58945L32.6165 8.79904C32.4324 8.6274 32.2378 8.46734 32.0338 8.31977C31.8676 8.19927 31.6885 8.0978 31.4997 8.01725C31.3251 7.94313 31.1424 7.89 30.9553 7.85895C30.7481 7.82741 30.5386 7.81248 30.3289 7.81427C29.9554 7.80723 29.5866 7.89974 29.2606 8.08232C28.9464 8.26585 28.6785 8.51902 28.4774 8.82235C28.2549 9.15895 28.0924 9.53156 27.9972 9.92365C27.8848 10.368 27.8298 10.825 27.8335 11.2833C27.8299 11.7714 27.8765 12.2585 27.9724 12.7371C28.0543 13.1666 28.2064 13.5797 28.4225 13.9598C28.6174 14.3002 28.8902 14.5896 29.2184 14.8043C29.5703 15.0205 29.9777 15.1295 30.3906 15.1179C30.525 15.1206 30.6595 15.1146 30.7932 15.1C30.9364 15.082 31.0792 15.0708 31.2248 15.0485C31.3705 15.0262 31.5138 15 31.6526 14.9694C31.7915 14.9388 31.9207 14.9082 32.0411 14.8761V11.6742H33.7076L33.7105 15.6084ZM91.1168 12.169L93.2534 9.75418H95.221L92.2477 12.6701L95.4138 16.2887H93.5268L91.1173 13.4631V16.2887H89.5426V6.80474H91.1173L91.1168 12.169ZM82.5545 10.8749C82.5545 10.7443 82.5545 10.5792 82.5433 10.3738C82.5375 10.1659 82.5147 9.95886 82.4754 9.75467H83.9583C83.9726 9.79326 83.9846 9.83266 83.9943 9.87267C84.0054 9.92122 84.0181 9.97804 84.0331 10.0353C84.0482 10.0926 84.0593 10.1562 84.0705 10.2174C84.0817 10.2786 84.0885 10.3383 84.0967 10.3908C84.2061 10.292 84.3237 10.2028 84.4483 10.1242C84.7477 9.93086 85.0792 9.79256 85.4272 9.71582C85.6228 9.67235 85.8227 9.65085 86.023 9.65172C86.3449 9.64935 86.6647 9.70241 86.9685 9.80857C87.2507 9.90688 87.51 10.0613 87.7308 10.2626C87.9509 10.4667 88.1254 10.7149 88.2431 10.991C88.3717 11.2984 88.4355 11.629 88.4306 11.9621V16.2892H86.8573V12.2622C86.8615 12.0379 86.8349 11.8141 86.7781 11.597C86.7352 11.4344 86.6554 11.2839 86.545 11.157C86.4424 11.0446 86.3122 10.9609 86.1673 10.9142C86.0008 10.8612 85.8268 10.8355 85.6521 10.838C85.5303 10.8387 85.4087 10.8484 85.2884 10.8671C85.1546 10.8841 85.0223 10.9111 84.8926 10.9478C84.7575 10.9832 84.6245 11.0258 84.4939 11.0755C84.3676 11.1199 84.245 11.1743 84.1273 11.2381V16.2911H82.554L82.5545 10.8749ZM79.3147 12.8784C78.9263 12.8866 78.5399 12.9369 78.1624 13.0285C77.907 13.0885 77.6652 13.1964 77.4501 13.3465C77.286 13.4615 77.1583 13.6211 77.082 13.8064C77.0126 13.991 76.9781 14.187 76.9805 14.3842C76.9757 14.5341 76.9958 14.6838 77.0402 14.8271C77.0738 14.9345 77.1329 15.0322 77.2126 15.1116C77.2907 15.1854 77.3863 15.2381 77.4904 15.2646C77.6023 15.2962 77.7183 15.3116 77.8346 15.3102C77.9483 15.3102 78.0638 15.3034 78.1818 15.2937C78.3063 15.2802 78.4294 15.2565 78.5499 15.2228C78.68 15.1874 78.8069 15.141 78.9291 15.084C79.0669 15.0199 79.1984 14.9431 79.322 14.8548L79.3147 12.8784ZM75.4878 10.6447C75.8444 10.3249 76.2599 10.0775 76.711 9.91637C77.1873 9.74008 77.6914 9.65077 78.1993 9.6527C78.54 9.65198 78.8796 9.69308 79.2103 9.77506C79.5156 9.84748 79.8062 9.97146 80.0698 10.1417C80.3166 10.3045 80.5216 10.5233 80.668 10.7802C80.8222 11.0628 80.8992 11.381 80.8914 11.7028V14.6188C80.8898 14.7378 80.8983 14.8567 80.9166 14.9742C80.9266 15.0533 80.9542 15.1291 80.9972 15.1961C81.034 15.249 81.0857 15.2896 81.1458 15.3127C81.2184 15.3362 81.2944 15.347 81.3707 15.3447C81.4317 15.3422 81.4925 15.3363 81.5528 15.3268C81.6453 15.3138 81.73 15.2999 81.8067 15.285L81.9762 15.9794C81.8791 16.0391 81.779 16.0945 81.679 16.1488C81.5748 16.2041 81.4661 16.2505 81.3542 16.2877C81.2323 16.3296 81.1075 16.362 80.9807 16.3848C80.8329 16.4095 80.6834 16.422 80.5335 16.4222C80.2653 16.4301 80.001 16.3565 79.7755 16.211C79.6747 16.1422 79.5885 16.0541 79.5218 15.9519C79.4552 15.8496 79.4094 15.7352 79.387 15.6152C79.2274 15.7661 79.0508 15.8979 78.8607 16.008C78.6872 16.1094 78.5038 16.1927 78.3134 16.2566C78.1326 16.3164 77.9467 16.3592 77.7579 16.3844C77.5808 16.4075 77.4024 16.42 77.2238 16.4217C76.955 16.4238 76.6876 16.3845 76.4308 16.3052C76.2084 16.2357 76.0038 16.1187 75.8311 15.9624C75.6634 15.8086 75.5328 15.6186 75.4494 15.4069C75.3541 15.1559 75.3069 14.8892 75.3106 14.6207C75.3043 14.3205 75.3566 14.022 75.4645 13.7418C75.5617 13.4985 75.7067 13.2771 75.8908 13.0906C76.0796 12.9047 76.2989 12.7524 76.5391 12.6405C76.8013 12.5172 77.0766 12.424 77.3597 12.3627C77.6692 12.2919 77.9834 12.2432 78.2998 12.2171C78.6303 12.1892 78.9669 12.1753 79.3094 12.1753V11.9393C79.3146 11.7502 79.2844 11.5618 79.2205 11.3838C79.1659 11.2411 79.0799 11.1125 78.969 11.0075C78.8569 10.9104 78.726 10.8377 78.5844 10.7938C78.4235 10.746 78.2564 10.7226 78.0886 10.7244C77.9419 10.723 77.7955 10.7365 77.6516 10.7647C77.5072 10.7925 77.3671 10.8392 77.2349 10.9036C77.0828 10.9783 76.9382 11.0676 76.8033 11.1701C76.6285 11.3025 76.462 11.4454 76.3046 11.5979L75.4878 10.6447ZM69.8638 8.02842V10.8448H70.747C71.0207 10.8485 71.2938 10.8202 71.5609 10.7603C71.7839 10.7131 71.9959 10.6242 72.1858 10.4981C72.3528 10.3835 72.4887 10.2294 72.5816 10.0494C72.6779 9.85095 72.7255 9.63239 72.7205 9.41185C72.7245 9.20311 72.6896 8.99545 72.6175 8.79952C72.5476 8.62479 72.4266 8.4752 72.2703 8.37027C72.0745 8.24364 71.8555 8.1573 71.6259 8.11631C71.2986 8.05374 70.9657 8.02429 70.6325 8.02842H69.8638ZM69.8638 12.0651V15.0694H71.1399C71.4328 15.0754 71.7248 15.0328 72.0037 14.9431C72.2252 14.8701 72.4307 14.7556 72.6093 14.6057C72.7601 14.4783 72.8805 14.3189 72.9618 14.139C73.0369 13.9752 73.0761 13.7972 73.0769 13.617C73.0776 13.4116 73.0385 13.2079 72.9618 13.0173C72.8842 12.8267 72.7618 12.6576 72.6049 12.5244C72.4219 12.3737 72.211 12.2605 71.9843 12.1913C71.689 12.1029 71.3816 12.0611 71.0734 12.0675L69.8638 12.0651ZM71.2302 6.80523C71.6669 6.80044 72.1022 6.85467 72.5243 6.96644C72.8735 7.05998 73.2027 7.21665 73.4955 7.42872C73.7578 7.6252 73.9707 7.88006 74.1175 8.17312C74.2664 8.48899 74.3405 8.83494 74.3341 9.18411C74.3354 9.42259 74.2881 9.65885 74.1952 9.87849C74.1011 10.1048 73.9718 10.3147 73.812 10.5005C73.6475 10.6907 73.4558 10.8555 73.2429 10.9895C73.0287 11.127 72.7945 11.2305 72.5486 11.2964C72.8112 11.3458 73.0668 11.4273 73.3095 11.5392C73.5721 11.6579 73.8129 11.8199 74.0218 12.0185C74.2449 12.2272 74.4262 12.4766 74.556 12.7532C74.7013 13.0684 74.7725 13.4127 74.7643 13.7598C74.7634 14.0853 74.6913 14.4066 74.5531 14.7013C74.4046 15.0142 74.1891 15.2905 73.9218 15.5108C73.6164 15.7641 73.2653 15.9564 72.8875 16.0775C72.4269 16.2281 71.9444 16.3003 71.4599 16.2911H68.1948V6.8062L71.2302 6.80523Z" fill="black"/>
<path fill-rule="evenodd" clip-rule="evenodd" d="M10.7447 0.859388C12.8611 0.862652 14.9292 1.49325 16.6874 2.67148C18.4456 3.84971 19.8151 5.52269 20.6227 7.47901C21.4304 9.43532 21.6401 11.5872 21.2252 13.6626C20.8102 15.738 19.7894 17.6439 18.2917 19.1393C16.794 20.6347 14.8865 21.6526 12.8105 22.0643C10.7344 22.476 8.5829 22.2631 6.62783 21.4524C4.67276 20.6417 3.00189 19.2696 1.82637 17.5096C0.650846 15.7496 0.02344 13.6806 0.0234375 11.5641C0.0234358 10.1569 0.300867 8.7636 0.839862 7.46377C1.37886 6.16393 2.16884 4.98312 3.16461 3.98888C4.16038 2.99464 5.34241 2.20648 6.64307 1.66949C7.94373 1.1325 9.33751 0.857217 10.7447 0.859388Z" fill="#EB2232"/>
<path fill-rule="evenodd" clip-rule="evenodd" d="M11.6158 13.3954V11.3792L14.1739 11.3958C15.4058 11.404 16.0055 12.3888 16.0055 13.4177C16.0055 16.2628 11.6231 16.8727 11.6187 13.3954M11.6187 8.04765C16.3371 5.57117 16.7538 11.0097 13.9044 10.7514H11.6075L11.6187 8.04765ZM15.7302 11C19.1127 9.70446 16.2857 4.66118 10.749 7.78106C10.1807 7.31762 9.50375 7.00661 8.78193 6.87739C7.41404 6.59963 5.57998 6.84145 4.55103 7.8L5.04827 8.28558C5.58111 7.82658 6.23343 7.52847 6.92921 7.42599C7.62498 7.32351 8.33555 7.42089 8.97811 7.70677C9.19311 7.80885 9.38251 7.95779 9.53242 8.14265C9.68233 8.32751 9.78893 8.5436 9.84439 8.77505L9.86915 13.409C9.66618 16.6279 5.52026 16.3793 5.52123 13.409V11.3758H8.78193V10.7621H3.80469V12.7632C3.81731 16.5667 8.44396 17.2067 10.7354 15.3557C11.6725 16.0505 12.8194 16.4034 13.985 16.3555C18.0925 16.3278 18.9379 11.8978 15.7195 10.9971L15.7302 11Z" fill="white"/>
</g>
<defs>
<clipPath id="clip0_2883_60707">
<rect width="95.3945" height="21.4094" fill="white" transform="translate(0.0234375 0.859375)"/>
</clipPath>
</defs>
</svg>
