<svg width="75" height="18" viewBox="0 0 75 18" fill="none" xmlns="http://www.w3.org/2000/svg">
<g clip-path="url(#clip0_2079_29814)">
<path d="M46.9474 11.3927C47.1254 11.6214 47.3507 11.8089 47.6079 11.9424C47.8651 12.0759 48.1482 12.1521 48.4376 12.166C48.5467 12.1664 48.6555 12.1547 48.7621 12.1312C48.8543 12.1108 48.9421 12.0742 49.0215 12.023C49.0927 11.9728 49.1515 11.9069 49.1935 11.8306C49.237 11.7426 49.2585 11.6454 49.2563 11.5474C49.2586 11.4719 49.2408 11.3972 49.2045 11.3311C49.1697 11.2679 49.1236 11.2118 49.0684 11.1654C49.0102 11.1173 48.9468 11.0759 48.8793 11.0422C48.8128 11.0057 48.7434 10.975 48.6717 10.9503C48.5431 10.8974 48.4142 10.8486 48.2868 10.8055C48.1593 10.7624 48.0327 10.7158 47.9041 10.6618C47.8163 10.6313 47.729 10.5991 47.6424 10.5654C47.5314 10.5234 47.423 10.4746 47.318 10.4194C47.2049 10.3595 47.0965 10.2913 46.9935 10.2152C46.8848 10.1341 46.7874 10.0388 46.7039 9.93198C46.6153 9.81832 46.5446 9.69183 46.494 9.55687C46.4378 9.4025 46.4106 9.23903 46.4139 9.07475C46.4092 8.86501 46.4664 8.65853 46.5784 8.48109C46.6909 8.30619 46.8408 8.15844 47.0174 8.0485C47.2089 7.92995 47.4181 7.84276 47.6371 7.79024C47.8704 7.73175 48.1101 7.70266 48.3507 7.70365C48.7092 7.69901 49.0667 7.74484 49.4125 7.83978C49.7322 7.93096 50.0298 8.08668 50.2871 8.29731L49.7312 9.15378C49.64 9.06268 49.5448 8.97575 49.4457 8.89325C49.3544 8.81779 49.2559 8.75154 49.1515 8.69549C49.0436 8.63997 48.9294 8.59781 48.8112 8.56995C48.6732 8.54104 48.5325 8.52722 48.3915 8.52873C48.2763 8.52665 48.1616 8.54234 48.0512 8.57524C47.9661 8.60256 47.8868 8.64552 47.8175 8.70192C47.7596 8.75215 47.7141 8.81503 47.6844 8.88569C47.6556 8.95416 47.641 9.02772 47.6413 9.10198C47.6396 9.17847 47.6607 9.25373 47.7018 9.31827C47.7445 9.38118 47.7983 9.43577 47.8606 9.47935C47.9279 9.52696 48.0005 9.56656 48.0769 9.59733C48.159 9.63099 48.2414 9.66124 48.3257 9.68808C48.4577 9.73686 48.5904 9.78337 48.7246 9.82875C48.8589 9.87413 48.9893 9.92064 49.1224 9.96715C49.1882 9.99324 49.2684 10.0212 49.3637 10.0568C49.4636 10.0938 49.5608 10.1379 49.6545 10.1887C49.7603 10.2447 49.8605 10.3105 49.9539 10.3854C50.0556 10.4641 50.1455 10.5569 50.2209 10.661C50.3026 10.7768 50.3664 10.9043 50.41 11.0391C50.4633 11.1994 50.4888 11.3676 50.4856 11.5364C50.4897 11.757 50.4288 11.974 50.3105 12.1603C50.1928 12.3432 50.0363 12.4981 49.8522 12.6141C49.652 12.7401 49.4329 12.8336 49.2034 12.8909C48.96 12.9534 48.7097 12.9847 48.4584 12.9839C48.2445 12.9838 48.0307 12.9712 47.8183 12.9461C47.6238 12.9225 47.4322 12.8798 47.2461 12.8186C47.0646 12.7592 46.891 12.6778 46.7292 12.5763C46.5592 12.4686 46.404 12.3392 46.2675 12.1913L46.9474 11.3927ZM42.2533 7.78759V11.2747C42.2503 11.3939 42.2705 11.5126 42.3127 11.6241C42.347 11.7142 42.401 11.7954 42.4707 11.862C42.537 11.9245 42.617 11.9705 42.7044 11.9962C42.7979 12.0251 42.8954 12.039 42.9933 12.0374C43.2362 12.0366 43.4782 12.0075 43.7144 11.9508C43.9521 11.8977 44.1797 11.8064 44.3882 11.6805V7.78759H45.6187V11.9909C45.6214 12.1085 45.6311 12.2258 45.6478 12.3422C45.6652 12.4934 45.6943 12.6731 45.731 12.8776H44.5686C44.5622 12.8583 44.5512 12.8236 44.5383 12.7695C44.5255 12.7154 44.5092 12.6613 44.4941 12.602C44.479 12.5426 44.4672 12.4863 44.454 12.4333C44.4442 12.3941 44.4366 12.3543 44.4313 12.3142C44.3199 12.4126 44.1994 12.5002 44.0713 12.5759C43.9377 12.6571 43.7973 12.7265 43.6516 12.7835C43.5088 12.8412 43.3611 12.8861 43.2103 12.9177C43.0712 12.9488 42.9291 12.9648 42.7865 12.9654C42.4988 12.9749 42.2121 12.9287 41.9421 12.8292C41.7336 12.7494 41.5479 12.6196 41.4014 12.4511C41.2633 12.2874 41.1645 12.0943 41.1125 11.8865C41.0552 11.6582 41.0273 11.4235 41.0293 11.1881V7.78948L42.2533 7.78759ZM36.6649 12.0718C36.815 12.1228 36.969 12.1615 37.1254 12.1875C37.3041 12.2176 37.485 12.2327 37.6662 12.2329C37.8511 12.2342 38.0333 12.1884 38.1956 12.0998C38.3613 12.0059 38.5027 11.8745 38.6085 11.716C38.7341 11.529 38.8264 11.3216 38.8811 11.1031C38.9484 10.8359 38.9809 10.5611 38.9775 10.2855C38.9792 10.0579 38.9552 9.83089 38.9061 9.60868C38.8666 9.42231 38.7913 9.24536 38.6845 9.08761C38.587 8.94586 38.4554 8.83091 38.3018 8.75334C38.1269 8.67094 37.9351 8.63054 37.7418 8.63537C37.6406 8.63587 37.5396 8.64269 37.4393 8.65578C37.3404 8.67057 37.2422 8.69 37.1451 8.71402C37.0552 8.73573 36.9668 8.76314 36.8804 8.79607C36.805 8.82503 36.7325 8.86125 36.6641 8.90422L36.6649 12.0718ZM35.4409 5.49233H36.6649V8.16988C36.8569 8.02458 37.0719 7.91237 37.3009 7.83788C37.5638 7.74913 37.8398 7.70529 38.1173 7.70819C38.4593 7.70002 38.7983 7.7742 39.1057 7.92448C39.3688 8.06054 39.5964 8.25619 39.7705 8.49583C39.9481 8.74418 40.0764 9.02426 40.1486 9.32092C40.2292 9.63906 40.2694 9.96605 40.2685 10.2942C40.2784 10.7014 40.2048 11.1062 40.0522 11.4838C39.9212 11.7989 39.7264 12.0834 39.4801 12.3195C39.25 12.5361 38.9781 12.7034 38.6811 12.8111C38.3914 12.9154 38.086 12.9695 37.7781 12.971C37.5424 12.971 37.3261 12.9685 37.1292 12.9635C36.9315 12.9582 36.7401 12.9517 36.5571 12.943C36.3741 12.9343 36.1907 12.9204 36.01 12.9018C35.8292 12.8833 35.6401 12.8617 35.4428 12.8349L35.4409 5.49233ZM32.1386 12.158C32.333 12.1635 32.5235 12.1033 32.6794 11.9871C32.8356 11.8682 32.9625 11.715 33.0503 11.5394C33.1528 11.342 33.2256 11.1307 33.2666 10.9121C33.3149 10.6784 33.3389 10.4403 33.3381 10.2016C33.3387 9.98838 33.3177 9.77566 33.2753 9.5667C33.2372 9.3813 33.1657 9.20436 33.0643 9.0445C32.9695 8.89658 32.8396 8.77436 32.6862 8.68868C32.5137 8.59558 32.3198 8.54966 32.1239 8.55558C31.9399 8.5524 31.7586 8.59946 31.5994 8.69171C31.4458 8.78554 31.3163 8.914 31.2213 9.06681C31.1147 9.24199 31.0381 9.43367 30.9944 9.63401C30.8924 10.0748 30.8891 10.5326 30.9846 10.9749C31.0265 11.1797 31.0994 11.377 31.2009 11.5598C31.2944 11.7305 31.4247 11.8783 31.5824 11.9924C31.7458 12.1054 31.9408 12.1636 32.1394 12.1588L32.1386 12.158ZM32.1799 13.0058C31.8043 13.0124 31.431 12.9466 31.0802 12.8122C30.7749 12.6922 30.5006 12.5048 30.2778 12.2639C30.055 12.0155 29.8874 11.7225 29.7863 11.4044C29.6693 11.0434 29.612 10.6657 29.6165 10.2863C29.6149 9.95004 29.6671 9.6157 29.7712 9.29596C29.8705 8.99362 30.031 8.71495 30.2427 8.47731C30.4632 8.23416 30.7342 8.04223 31.0368 7.91502C31.3936 7.77029 31.7763 7.70004 32.1613 7.70856C32.5422 7.69927 32.9209 7.76959 33.273 7.91502C33.5694 8.04269 33.8324 8.23675 34.0418 8.48222C34.2476 8.73077 34.3993 9.01951 34.4872 9.32999C34.5845 9.66927 34.6329 10.0207 34.6309 10.3736C34.633 10.721 34.5763 11.0661 34.4634 11.3946C34.3572 11.7023 34.1923 11.9865 33.9779 12.2314C33.7624 12.4711 33.4995 12.6633 33.2057 12.796C32.8829 12.938 32.5333 13.0088 32.1806 13.0035L32.1799 13.0058ZM27.2955 5.49271H28.5195V11.6476C28.508 11.7664 28.5354 11.8858 28.5974 11.9879C28.6229 12.0206 28.6558 12.0467 28.6934 12.064C28.7311 12.0813 28.7723 12.0893 28.8137 12.0873C28.9039 12.09 28.9937 12.0754 29.0784 12.0442C29.151 12.017 29.2353 11.9826 29.3284 11.9459L29.536 12.5763C29.4539 12.6329 29.3679 12.6834 29.2784 12.7275C29.1845 12.7759 29.0873 12.8178 28.9877 12.853C28.884 12.889 28.7782 12.9183 28.6708 12.9408C28.564 12.9627 28.4553 12.974 28.3464 12.9744C28.2147 12.9745 28.0835 12.96 27.955 12.9313C27.8319 12.9048 27.7172 12.8488 27.6207 12.768C27.5155 12.6791 27.4342 12.5654 27.384 12.4371C27.3195 12.2621 27.2897 12.0763 27.2963 11.8899L27.2955 5.49271ZM26.4943 12.383C26.3233 12.4749 26.1483 12.5581 25.9675 12.6349C25.7738 12.7168 25.5742 12.784 25.3705 12.836C25.1319 12.8966 24.8894 12.9407 24.6448 12.968C24.3435 13.0014 24.0405 13.0173 23.7373 13.0156C23.3951 13.0201 23.0544 12.969 22.7284 12.8644C22.1544 12.6776 21.6565 12.3095 21.3097 11.8155C21.1349 11.5706 20.9917 11.3047 20.8835 11.024C20.7705 10.7338 20.6865 10.4331 20.6328 10.1263C20.578 9.81181 20.5505 9.49311 20.5508 9.17383C20.5504 8.8397 20.5838 8.5064 20.6502 8.17896C20.7134 7.8636 20.8109 7.55611 20.941 7.26199C21.0676 6.97938 21.2294 6.71386 21.4224 6.47169C21.6115 6.2335 21.8349 6.02465 22.0852 5.85194C22.3416 5.67444 22.6239 5.5377 22.922 5.44658C23.2469 5.34566 23.5855 5.29603 23.9256 5.29949C24.1041 5.29949 24.2686 5.30478 24.4172 5.31461C24.5557 5.32328 24.6935 5.33995 24.8301 5.36452C24.9545 5.38628 25.0768 5.41854 25.1958 5.46095C25.3159 5.5034 25.4326 5.55471 25.5452 5.61447C25.6716 5.6798 25.7934 5.75384 25.9097 5.83605C26.0357 5.92176 26.1744 6.0226 26.3256 6.13856L25.6423 7.08049C25.4989 6.94683 25.3474 6.82219 25.1886 6.70727C25.0592 6.61344 24.9196 6.53442 24.7726 6.47169C24.6367 6.41398 24.4944 6.3726 24.3487 6.34842C24.1873 6.32387 24.0242 6.31224 23.861 6.31364C23.57 6.30815 23.2829 6.38019 23.0291 6.52236C22.7844 6.66528 22.5757 6.86243 22.4191 7.09864C22.2459 7.36075 22.1193 7.65091 22.0452 7.95624C21.9577 8.30228 21.9149 8.6581 21.9177 9.01501C21.9149 9.39509 21.9512 9.77446 22.0259 10.1471C22.0896 10.4816 22.2081 10.8033 22.3764 11.0993C22.5282 11.3643 22.7406 11.5897 22.9962 11.7568C23.2702 11.9253 23.5874 12.0101 23.909 12.0011C24.0137 12.0032 24.1184 11.9985 24.2224 11.9871C24.334 11.9731 24.4452 11.9644 24.5586 11.947C24.672 11.9297 24.7836 11.9092 24.8917 11.8854C24.9999 11.8616 25.1005 11.8378 25.1942 11.8128V9.31941H26.492L26.4943 12.383ZM71.1974 9.70472L72.8612 7.82427H74.3934L72.0781 10.095L74.5435 12.9128H73.0741L71.1978 10.7124V12.9128H69.9715V5.5275H71.1978L71.1974 9.70472ZM64.5298 8.697C64.5298 8.59528 64.5298 8.46672 64.5211 8.30677C64.5165 8.14489 64.4988 7.98366 64.4682 7.82465H65.623C65.6341 7.8547 65.6435 7.88538 65.651 7.91654C65.6597 7.95435 65.6695 7.99859 65.6812 8.04321C65.6929 8.08783 65.7016 8.13737 65.7103 8.18501C65.719 8.23265 65.7243 8.27916 65.7307 8.32C65.8159 8.2431 65.9075 8.17364 66.0045 8.11241C66.2376 7.96185 66.4958 7.85416 66.7668 7.7944C66.9191 7.76055 67.0748 7.74381 67.2308 7.74449C67.4814 7.74264 67.7304 7.78395 67.967 7.86662C68.1867 7.94318 68.3887 8.06345 68.5607 8.22018C68.732 8.37912 68.868 8.57239 68.9596 8.78737C69.0597 9.02675 69.1094 9.2842 69.1056 9.54364V12.9132H67.8804V9.77732C67.8837 9.60264 67.863 9.42833 67.8188 9.25928C67.7853 9.13269 67.7232 9.01549 67.6373 8.9167C67.5574 8.82913 67.456 8.76395 67.3431 8.72763C67.2134 8.68635 67.078 8.6663 66.9419 8.66826C66.8471 8.6688 66.7524 8.67639 66.6587 8.69095C66.5545 8.70417 66.4515 8.72516 66.3505 8.75372C66.2453 8.78131 66.1417 8.81451 66.0401 8.85317C65.9417 8.88779 65.8462 8.93015 65.7546 8.97984V12.9147H64.5294L64.5298 8.697ZM62.0069 10.2572C61.7044 10.2635 61.4036 10.3027 61.1096 10.374C60.9107 10.4207 60.7224 10.5048 60.5549 10.6217C60.4271 10.7112 60.3276 10.8355 60.2682 10.9798C60.2142 11.1236 60.1874 11.2762 60.1892 11.4298C60.1855 11.5465 60.2012 11.663 60.2357 11.7746C60.2618 11.8583 60.3079 11.9343 60.37 11.9962C60.4308 12.0537 60.5052 12.0947 60.5863 12.1153C60.6735 12.1399 60.7637 12.1519 60.8544 12.1509C60.9428 12.1509 61.0328 12.1456 61.1247 12.138C61.2216 12.1275 61.3175 12.109 61.4113 12.0828C61.5127 12.0552 61.6115 12.0191 61.7067 11.9746C61.8139 11.9247 61.9163 11.865 62.0126 11.7962L62.0069 10.2572ZM59.0268 8.51777C59.3045 8.26867 59.628 8.07602 59.9794 7.95057C60.3503 7.81329 60.7428 7.74374 61.1383 7.74524C61.4037 7.74469 61.6681 7.77669 61.9256 7.84053C62.1633 7.89692 62.3897 7.99347 62.5949 8.12602C62.7871 8.25285 62.9467 8.4232 63.0608 8.62326C63.1808 8.84332 63.2408 9.09111 63.2347 9.34172V11.6124C63.2335 11.7051 63.24 11.7976 63.2544 11.8892C63.2621 11.9508 63.2836 12.0098 63.3171 12.062C63.3457 12.1032 63.386 12.1348 63.4328 12.1527C63.4893 12.171 63.5486 12.1795 63.6079 12.1777C63.6554 12.1758 63.7028 12.1711 63.7497 12.1637C63.8218 12.1536 63.8877 12.1428 63.9475 12.1312L64.0794 12.6719C64.0038 12.7184 63.9259 12.7615 63.848 12.8039C63.7669 12.8469 63.6822 12.8831 63.5951 12.912C63.5002 12.9446 63.403 12.9699 63.3043 12.9877C63.1892 13.0069 63.0727 13.0166 62.956 13.0168C62.7471 13.0229 62.5413 12.9656 62.3657 12.8523C62.2872 12.7987 62.2201 12.7301 62.1682 12.6505C62.1163 12.5709 62.0806 12.4818 62.0632 12.3883C61.9389 12.5058 61.8014 12.6085 61.6533 12.6942C61.5183 12.7732 61.3755 12.838 61.2272 12.8878C61.0864 12.9344 60.9416 12.9677 60.7946 12.9873C60.6567 13.0053 60.5178 13.015 60.3787 13.0164C60.1694 13.018 59.9611 12.9874 59.7612 12.9256C59.588 12.8715 59.4287 12.7804 59.2942 12.6587C59.1635 12.5389 59.0619 12.391 58.997 12.2261C58.9227 12.0307 58.886 11.823 58.8888 11.6139C58.884 11.3802 58.9247 11.1477 59.0087 10.9295C59.0844 10.74 59.1973 10.5676 59.3407 10.4224C59.4877 10.2776 59.6584 10.159 59.8455 10.0719C60.0497 9.97586 60.264 9.9033 60.4845 9.8556C60.7255 9.8004 60.9702 9.76249 61.2166 9.74216C61.474 9.72048 61.736 9.70964 62.0027 9.70964V9.52587C62.0068 9.37862 61.9833 9.23191 61.9335 9.09328C61.891 8.98216 61.8241 8.88201 61.7377 8.80023C61.6504 8.72466 61.5484 8.668 61.4382 8.63385C61.3129 8.59662 61.1828 8.57839 61.0521 8.57978C60.9379 8.57873 60.8239 8.58925 60.7118 8.61116C60.5994 8.63282 60.4903 8.66918 60.3874 8.71931C60.2689 8.7775 60.1563 8.84703 60.0512 8.9269C59.9151 9.02999 59.7854 9.14124 59.6629 9.26004L59.0268 8.51777ZM54.6473 6.48039V8.67356H55.3351C55.5482 8.67645 55.7609 8.65436 55.9689 8.60776C56.1425 8.57103 56.3077 8.50174 56.4555 8.40357C56.5855 8.31434 56.6914 8.1943 56.7637 8.05418C56.8387 7.89963 56.8758 7.72943 56.8719 7.55769C56.875 7.39515 56.8478 7.23344 56.7917 7.08086C56.7372 6.9448 56.643 6.82831 56.5213 6.7466C56.3689 6.64799 56.1983 6.58076 56.0196 6.54883C55.7646 6.50011 55.5054 6.47718 55.2459 6.48039H54.6473ZM54.6473 9.6238V11.9633H55.641C55.8692 11.968 56.0965 11.9348 56.3137 11.865C56.4862 11.8082 56.6462 11.719 56.7853 11.6022C56.9027 11.503 56.9965 11.3789 57.0598 11.2388C57.1183 11.1112 57.1488 10.9726 57.1494 10.8323C57.15 10.6723 57.1196 10.5137 57.0598 10.3653C56.9994 10.2169 56.904 10.0852 56.7819 9.98151C56.6394 9.86415 56.4752 9.77601 56.2986 9.72212C56.0686 9.65325 55.8293 9.62072 55.5892 9.62569L54.6473 9.6238ZM55.7114 5.52788C56.0514 5.52415 56.3904 5.56638 56.7191 5.65342C56.991 5.72625 57.2474 5.84826 57.4754 6.0134C57.6796 6.1664 57.8455 6.36486 57.9598 6.59307C58.0757 6.83905 58.1334 7.10845 58.1284 7.38035C58.1294 7.56606 58.0926 7.75003 58.0203 7.92107C57.947 8.09728 57.8463 8.26077 57.7219 8.40546C57.5938 8.55358 57.4445 8.6819 57.2787 8.78624C57.1119 8.8933 56.9295 8.97392 56.738 9.02522C56.9425 9.06367 57.1415 9.12717 57.3305 9.21429C57.5351 9.30671 57.7226 9.43287 57.8853 9.5875C58.059 9.75007 58.2001 9.94423 58.3012 10.1596C58.4144 10.4051 58.4698 10.6732 58.4634 10.9435C58.4628 11.197 58.4066 11.4472 58.2989 11.6767C58.1833 11.9203 58.0155 12.1355 57.8074 12.307C57.5696 12.5042 57.2962 12.654 57.0019 12.7483C56.6433 12.8656 56.2675 12.9219 55.8902 12.9147H53.3477V5.52863L55.7114 5.52788Z" fill="black"/>
<path fill-rule="evenodd" clip-rule="evenodd" d="M8.60659 0.896983C10.2547 0.899524 11.8651 1.39058 13.2343 2.30808C14.6034 3.22559 15.6698 4.52837 16.2988 6.05178C16.9278 7.57519 17.091 9.25086 16.7679 10.867C16.4448 12.4832 15.6499 13.9673 14.4836 15.1318C13.3173 16.2963 11.8319 17.089 10.2153 17.4096C8.59861 17.7302 6.92319 17.5644 5.40075 16.933C3.87831 16.3017 2.57718 15.2333 1.66178 13.8628C0.746385 12.4922 0.257814 10.881 0.257813 9.2329C0.257811 8.13713 0.473851 7.05211 0.893574 6.03991C1.3133 5.02771 1.92847 4.1082 2.70389 3.33397C3.47931 2.55974 4.39978 1.94599 5.41262 1.52782C6.42547 1.10966 7.51082 0.895293 8.60659 0.896983Z" fill="#EB2232"/>
<path fill-rule="evenodd" clip-rule="evenodd" d="M9.28576 10.6601V9.09014L11.2778 9.103C12.2371 9.10942 12.7041 9.87628 12.7041 10.6775C12.7041 12.893 9.29143 13.3679 9.28802 10.6601M9.28802 6.49578C12.9623 4.5673 13.2868 8.80238 11.0679 8.60121H9.27933L9.28802 6.49578ZM12.4897 8.79482C15.1237 7.78596 12.9223 3.85868 8.61079 6.28818C8.16826 5.92729 7.64107 5.6851 7.07898 5.58448C6.01378 5.36819 4.58558 5.5565 3.78431 6.30293L4.17152 6.68106C4.58645 6.32363 5.09442 6.09148 5.63623 6.01168C6.17804 5.93188 6.73138 6.00771 7.23174 6.23033C7.39917 6.30982 7.54666 6.4258 7.6634 6.56975C7.78013 6.71371 7.86314 6.88198 7.90633 7.06222L7.92561 10.6707C7.76756 13.1774 4.53907 12.9838 4.53982 10.6707V9.08749H7.07898V8.60953H3.20312V10.1678C3.21296 13.1297 6.8158 13.6281 8.6002 12.1867C9.32994 12.7277 10.223 13.0025 11.1307 12.9652C14.3293 12.9437 14.9876 9.49398 12.4813 8.79255L12.4897 8.79482Z" fill="white"/>
</g>
<defs>
<clipPath id="clip0_2079_29814">
<rect width="74.2852" height="16.6718" fill="white" transform="translate(0.257812 0.896973)"/>
</clipPath>
</defs>
</svg>
