<svg width="589" height="236" viewBox="0 0 589 236" fill="none" xmlns="http://www.w3.org/2000/svg">
<path d="M1.75922 221.905V221.452H2.95343V221.905C2.95343 222.797 3.44368 223.439 4.44933 223.439C5.48012 223.439 5.93266 222.81 5.93266 221.867V215.343H7.16458V221.918C7.16458 223.552 6.07094 224.582 4.44933 224.582C2.71459 224.582 1.75922 223.476 1.75922 221.905ZM10.8138 224.582C9.49387 224.582 8.71449 223.841 8.71449 222.722C8.71449 221.591 9.55672 220.887 11.0023 220.774L12.9382 220.623V220.447C12.9382 219.416 12.3223 219.051 11.4926 219.051C10.4995 219.051 9.93384 219.491 9.93384 220.233H8.90305C8.90305 218.951 9.95898 218.109 11.5429 218.109C13.0639 218.109 14.0947 218.913 14.0947 220.572V224.432H13.0891L12.9634 223.439C12.6491 224.143 11.8069 224.582 10.8138 224.582ZM11.1532 223.665C12.272 223.665 12.9508 222.936 12.9508 221.779V221.452L11.3795 221.578C10.3361 221.679 9.9087 222.081 9.9087 222.684C9.9087 223.338 10.3864 223.665 11.1532 223.665ZM16.9128 224.432H15.7311V218.285H16.7996L16.9254 219.227C17.315 218.523 18.0944 218.109 18.9618 218.109C20.5834 218.109 21.3251 219.102 21.3251 220.673V224.432H20.1434V220.937C20.1434 219.693 19.5652 219.19 18.6601 219.19C17.5539 219.19 16.9128 219.982 16.9128 221.176V224.432ZM24.7341 223.941C24.7341 224.846 24.0553 225.601 23.1628 225.714V225.186C23.6782 225.098 24.0428 224.758 24.0428 224.369C23.9548 224.419 23.8542 224.444 23.7034 224.444C23.2885 224.444 22.9366 224.143 22.9366 223.677C22.9366 223.175 23.276 222.81 23.7788 222.81C24.3067 222.81 24.7341 223.25 24.7341 223.941ZM35.731 224.419L29.5965 224.432V223.489L32.5255 220.962C33.9962 219.693 34.411 219.077 34.411 218.109C34.411 216.965 33.7574 216.286 32.6637 216.286C31.545 216.286 30.8159 217.103 30.7907 218.398H29.5588C29.5965 216.449 30.8284 215.18 32.6763 215.18C34.499 215.18 35.6681 216.286 35.6681 218.033C35.6681 219.328 35.027 220.246 33.418 221.641L31.5324 223.275H35.731V224.419ZM36.8648 219.894C36.8648 217.078 38.323 215.167 40.6108 215.167C42.8861 215.167 44.3443 217.078 44.3443 219.894C44.3443 222.722 42.9489 224.595 40.6108 224.595C38.2601 224.595 36.8648 222.722 36.8648 219.894ZM38.0841 219.894C38.0841 222.131 39.0143 223.489 40.6108 223.489C42.2073 223.489 43.1249 222.131 43.1249 219.894C43.1249 217.631 42.2073 216.273 40.6108 216.273C39.0143 216.273 38.0841 217.631 38.0841 219.894ZM51.6774 224.419L45.543 224.432V223.489L48.4719 220.962C49.9427 219.693 50.3575 219.077 50.3575 218.109C50.3575 216.965 49.7039 216.286 48.6102 216.286C47.4914 216.286 46.7623 217.103 46.7372 218.398H45.5053C45.543 216.449 46.7749 215.18 48.6228 215.18C50.4455 215.18 51.6146 216.286 51.6146 218.033C51.6146 219.328 50.9735 220.246 49.3645 221.641L47.4789 223.275H51.6774V224.419ZM55.4625 219.73H54.5574V218.913L57.1344 216.437H53.0489V215.343H58.6931V216.336L56.2041 218.712C57.7503 218.901 58.9194 219.944 58.9194 221.578C58.9194 223.413 57.5366 224.582 55.6887 224.582C53.9037 224.582 52.6215 223.489 52.6215 221.603H53.8409C53.8409 222.785 54.57 223.476 55.7139 223.476C56.8955 223.476 57.6623 222.722 57.6623 221.553C57.6623 220.459 56.9081 219.73 55.4625 219.73Z" fill="#240552"/>
<path d="M521.161 224.432H519.954V215.343H521.161L524.291 222.986L527.421 215.343H528.653V224.432H527.446V220.836C527.446 219.139 527.459 218.523 527.522 217.882L524.869 224.432H523.713L521.073 217.908C521.136 218.347 521.161 219.278 521.161 220.547V224.432ZM532.366 224.582C531.046 224.582 530.267 223.841 530.267 222.722C530.267 221.591 531.109 220.887 532.555 220.774L534.49 220.623V220.447C534.49 219.416 533.874 219.051 533.045 219.051C532.052 219.051 531.486 219.491 531.486 220.233H530.455C530.455 218.951 531.511 218.109 533.095 218.109C534.616 218.109 535.647 218.913 535.647 220.572V224.432H534.641L534.516 223.439C534.201 224.143 533.359 224.582 532.366 224.582ZM532.705 223.665C533.824 223.665 534.503 222.936 534.503 221.779V221.452L532.932 221.578C531.888 221.679 531.461 222.081 531.461 222.684C531.461 223.338 531.939 223.665 532.705 223.665ZM540.803 218.234V219.315H540.275C539.156 219.315 538.465 219.994 538.465 221.176V224.432H537.283V218.297H538.39L538.465 219.227C538.716 218.586 539.332 218.159 540.175 218.159C540.388 218.159 540.564 218.184 540.803 218.234ZM542.689 223.941C542.689 224.846 542.011 225.601 541.118 225.714V225.186C541.634 225.098 541.998 224.758 541.998 224.369C541.91 224.419 541.81 224.444 541.659 224.444C541.244 224.444 540.892 224.143 540.892 223.677C540.892 223.175 541.231 222.81 541.734 222.81C542.262 222.81 542.689 223.25 542.689 223.941ZM553.686 224.419L547.552 224.432V223.489L550.481 220.962C551.952 219.693 552.366 219.077 552.366 218.109C552.366 216.965 551.713 216.286 550.619 216.286C549.5 216.286 548.771 217.103 548.746 218.398H547.514C547.552 216.449 548.784 215.18 550.632 215.18C552.454 215.18 553.623 216.286 553.623 218.033C553.623 219.328 552.982 220.246 551.373 221.641L549.488 223.275H553.686V224.419ZM554.82 219.894C554.82 217.078 556.278 215.167 558.566 215.167C560.841 215.167 562.3 217.078 562.3 219.894C562.3 222.722 560.904 224.595 558.566 224.595C556.215 224.595 554.82 222.722 554.82 219.894ZM556.039 219.894C556.039 222.131 556.97 223.489 558.566 223.489C560.163 223.489 561.08 222.131 561.08 219.894C561.08 217.631 560.163 216.273 558.566 216.273C556.97 216.273 556.039 217.631 556.039 219.894ZM569.633 224.419L563.498 224.432V223.489L566.427 220.962C567.898 219.693 568.313 219.077 568.313 218.109C568.313 216.965 567.659 216.286 566.566 216.286C565.447 216.286 564.718 217.103 564.693 218.398H563.461C563.498 216.449 564.73 215.18 566.578 215.18C568.401 215.18 569.57 216.286 569.57 218.033C569.57 219.328 568.929 220.246 567.32 221.641L565.434 223.275H569.633V224.419ZM573.418 219.73H572.513V218.913L575.09 216.437H571.004V215.343H576.648V216.336L574.159 218.712C575.706 218.901 576.875 219.944 576.875 221.578C576.875 223.413 575.492 224.582 573.644 224.582C571.859 224.582 570.577 223.489 570.577 221.603H571.796C571.796 222.785 572.525 223.476 573.669 223.476C574.851 223.476 575.618 222.722 575.618 221.553C575.618 220.459 574.863 219.73 573.418 219.73Z" fill="#240552"/>
<path d="M586.883 51.6704C580.068 46.398 557.076 40.0712 519.63 56.9428C472.822 78.0323 410.949 109.667 359.299 73.1114C307.648 36.5562 236.091 -44.9899 1.51288 87.171" stroke="#240552" stroke-width="2.0255" stroke-linecap="round"/>
<path d="M521.281 57.2072C558.921 40.4154 582.032 46.7123 588.883 51.9598V207.519H0.474609V87.2926C236.27 -44.2435 308.199 36.9171 360.117 73.2994C412.036 109.682 474.23 78.197 521.281 57.2072Z" fill="url(#paint0_linear_630_58704)"/>
<g filter="url(#filter0_d_630_58704)">
<circle cx="191.28" cy="15.0203" r="14.0926" fill="#240552"/>
<circle cx="191.28" cy="15.0203" r="10.8905" stroke="white" stroke-width="6.40426"/>
</g>
<path d="M193.508 29.8691V208.109" stroke="#D6BFFA" stroke-dasharray="2 2"/>
<g filter="url(#filter1_d_630_58704)">
<rect x="150.547" y="83.7266" width="85.9236" height="39.657" rx="5.50792" fill="white"/>
</g>
<g filter="url(#filter2_d_630_58704)">
<path d="M191.305 138.811L200.845 122.287H181.765L191.305 138.811Z" fill="white"/>
</g>
<path d="M163.854 99.5352H163.219V94.7565H163.854L165.5 98.7751L167.145 94.7565H167.793V99.5352H167.159V97.6448C167.159 96.7526 167.165 96.4287 167.198 96.0916L165.804 99.5352H165.196L163.808 96.1048C163.841 96.3362 163.854 96.8253 163.854 97.4928V99.5352ZM169.745 99.6145C169.051 99.6145 168.641 99.2245 168.641 98.6363C168.641 98.0414 169.084 97.6713 169.844 97.6118L170.862 97.5325V97.4399C170.862 96.898 170.538 96.7063 170.102 96.7063C169.58 96.7063 169.283 96.9376 169.283 97.3276H168.741C168.741 96.6534 169.296 96.2106 170.129 96.2106C170.928 96.2106 171.47 96.6336 171.47 97.506V99.5352H170.941L170.875 99.013C170.71 99.3831 170.267 99.6145 169.745 99.6145ZM169.924 99.132C170.512 99.132 170.869 98.7486 170.869 98.1406V97.9687L170.043 98.0348C169.494 98.0877 169.269 98.2992 169.269 98.6164C169.269 98.9601 169.52 99.132 169.924 99.132ZM174.181 96.2767V96.8451H173.904C173.315 96.8451 172.952 97.202 172.952 97.8233V99.5352H172.331V96.3097H172.912L172.952 96.7988C173.084 96.4617 173.408 96.237 173.851 96.237C173.963 96.237 174.056 96.2502 174.181 96.2767ZM179.651 99.5285L176.426 99.5352V99.0394L177.966 97.7109C178.739 97.0434 178.957 96.7195 178.957 96.2106C178.957 95.6091 178.614 95.2522 178.039 95.2522C177.45 95.2522 177.067 95.6818 177.054 96.3626H176.406C176.426 95.3381 177.074 94.6706 178.045 94.6706C179.004 94.6706 179.618 95.2522 179.618 96.1709C179.618 96.8517 179.281 97.3342 178.435 98.0678L177.444 98.9271H179.651V99.5285ZM180.248 97.1491C180.248 95.6686 181.014 94.6639 182.217 94.6639C183.413 94.6639 184.18 95.6686 184.18 97.1491C184.18 98.6363 183.447 99.6211 182.217 99.6211C180.981 99.6211 180.248 98.6363 180.248 97.1491ZM180.889 97.1491C180.889 98.3256 181.378 99.0394 182.217 99.0394C183.057 99.0394 183.539 98.3256 183.539 97.1491C183.539 95.9594 183.057 95.2456 182.217 95.2456C181.378 95.2456 180.889 95.9594 180.889 97.1491ZM188.036 99.5285L184.81 99.5352V99.0394L186.35 97.7109C187.124 97.0434 187.342 96.7195 187.342 96.2106C187.342 95.6091 186.998 95.2522 186.423 95.2522C185.835 95.2522 185.452 95.6818 185.438 96.3626H184.791C184.81 95.3381 185.458 94.6706 186.43 94.6706C187.388 94.6706 188.003 95.2522 188.003 96.1709C188.003 96.8517 187.666 97.3342 186.82 98.0678L185.828 98.9271H188.036V99.5285ZM190.026 97.0632H189.55V96.6336L190.905 95.3315H188.757V94.7565H191.725V95.2786L190.416 96.5278C191.229 96.627 191.844 97.1756 191.844 98.0348C191.844 98.9998 191.117 99.6145 190.145 99.6145C189.206 99.6145 188.532 99.0394 188.532 98.048H189.173C189.173 98.6693 189.557 99.0328 190.158 99.0328C190.78 99.0328 191.183 98.6363 191.183 98.0216C191.183 97.4466 190.786 97.0632 190.026 97.0632Z" fill="#9CA3AF"/>
<path d="M163.843 113.352H162.455V105.299H163.854L167.632 111.005V105.299H169.02V113.352H167.632L163.843 107.645V113.352ZM174.328 106.489C172.731 106.489 171.816 107.645 171.816 109.386C171.816 111.181 172.852 112.162 174.339 112.162C175.738 112.162 176.586 111.391 176.586 110.102V110.069H174.152V108.824H177.897V113.352H176.707L176.619 112.426C176.178 113.043 175.264 113.473 174.174 113.473C171.915 113.473 170.34 111.831 170.34 109.353C170.34 106.907 171.937 105.167 174.361 105.167C176.2 105.167 177.622 106.235 177.853 107.877H176.366C176.112 106.929 175.297 106.489 174.328 106.489ZM180.808 113.352H179.42V105.299H180.819L184.597 111.005V105.299H185.985V113.352H184.597L180.808 107.645V113.352ZM191.464 107.667L193.204 105.299H194.813L192.885 107.866C193.083 107.811 193.292 107.778 193.491 107.778C195.154 107.778 196.278 108.945 196.278 110.576C196.278 112.294 195 113.495 193.281 113.495C191.541 113.495 190.241 112.217 190.241 110.565C190.241 109.595 190.56 108.89 191.464 107.667ZM191.684 110.576C191.684 111.556 192.334 112.239 193.281 112.239C194.196 112.239 194.857 111.556 194.857 110.576C194.857 109.606 194.207 108.934 193.281 108.934C192.323 108.934 191.684 109.606 191.684 110.576ZM197.149 109.342C197.149 106.841 198.493 105.145 200.553 105.145C202.613 105.145 203.968 106.841 203.968 109.342C203.968 111.831 202.69 113.495 200.553 113.495C198.416 113.495 197.149 111.831 197.149 109.342ZM198.537 109.342C198.537 111.203 199.286 112.25 200.553 112.25C201.831 112.25 202.58 111.203 202.58 109.342C202.58 107.436 201.831 106.39 200.553 106.39C199.286 106.39 198.537 107.436 198.537 109.342ZM206.534 112.867C206.534 113.781 205.873 114.508 204.981 114.618V114.079C205.477 113.99 205.851 113.693 205.851 113.307C205.763 113.352 205.664 113.374 205.532 113.374C205.102 113.374 204.75 113.054 204.75 112.614C204.75 112.085 205.091 111.732 205.587 111.732C206.138 111.732 206.534 112.184 206.534 112.867ZM207.326 109.342C207.326 106.841 208.67 105.145 210.73 105.145C212.79 105.145 214.145 106.841 214.145 109.342C214.145 111.831 212.867 113.495 210.73 113.495C208.593 113.495 207.326 111.831 207.326 109.342ZM208.714 109.342C208.714 111.203 209.463 112.25 210.73 112.25C212.008 112.25 212.757 111.203 212.757 109.342C212.757 107.436 212.008 106.39 210.73 106.39C209.463 106.39 208.714 107.436 208.714 109.342ZM215.093 109.342C215.093 106.841 216.437 105.145 218.497 105.145C220.557 105.145 221.912 106.841 221.912 109.342C221.912 111.831 220.634 113.495 218.497 113.495C216.36 113.495 215.093 111.831 215.093 109.342ZM216.481 109.342C216.481 111.203 217.23 112.25 218.497 112.25C219.775 112.25 220.524 111.203 220.524 109.342C220.524 107.436 219.775 106.39 218.497 106.39C217.23 106.39 216.481 107.436 216.481 109.342ZM222.86 109.342C222.86 106.841 224.204 105.145 226.264 105.145C228.324 105.145 229.679 106.841 229.679 109.342C229.679 111.831 228.401 113.495 226.264 113.495C224.127 113.495 222.86 111.831 222.86 109.342ZM224.248 109.342C224.248 111.203 224.997 112.25 226.264 112.25C227.542 112.25 228.291 111.203 228.291 109.342C228.291 107.436 227.542 106.39 226.264 106.39C224.997 106.39 224.248 107.436 224.248 109.342Z" fill="#3D0072"/>
<defs>
<filter id="filter0_d_630_58704" x="164.379" y="0.927734" width="53.8045" height="53.8026" filterUnits="userSpaceOnUse" color-interpolation-filters="sRGB">
<feFlood flood-opacity="0" result="BackgroundImageFix"/>
<feColorMatrix in="SourceAlpha" type="matrix" values="0 0 0 0 0 0 0 0 0 0 0 0 0 0 0 0 0 0 127 0" result="hardAlpha"/>
<feOffset dy="12.8085"/>
<feGaussianBlur stdDeviation="6.40426"/>
<feComposite in2="hardAlpha" operator="out"/>
<feColorMatrix type="matrix" values="0 0 0 0 0.0509804 0 0 0 0 0.0392157 0 0 0 0 0.172549 0 0 0 0.08 0"/>
<feBlend mode="normal" in2="BackgroundImageFix" result="effect1_dropShadow_630_58704"/>
<feBlend mode="normal" in="SourceGraphic" in2="effect1_dropShadow_630_58704" result="shape"/>
</filter>
<filter id="filter1_d_630_58704" x="137.328" y="79.3202" width="112.36" height="66.0943" filterUnits="userSpaceOnUse" color-interpolation-filters="sRGB">
<feFlood flood-opacity="0" result="BackgroundImageFix"/>
<feColorMatrix in="SourceAlpha" type="matrix" values="0 0 0 0 0 0 0 0 0 0 0 0 0 0 0 0 0 0 127 0" result="hardAlpha"/>
<feOffset dy="8.81268"/>
<feGaussianBlur stdDeviation="6.60951"/>
<feComposite in2="hardAlpha" operator="out"/>
<feColorMatrix type="matrix" values="0 0 0 0 0.666875 0 0 0 0 0.663889 0 0 0 0 0.669444 0 0 0 0.15 0"/>
<feBlend mode="normal" in2="BackgroundImageFix" result="effect1_dropShadow_630_58704"/>
<feBlend mode="normal" in="SourceGraphic" in2="effect1_dropShadow_630_58704" result="shape"/>
</filter>
<filter id="filter2_d_630_58704" x="168.547" y="117.881" width="45.5162" height="42.9615" filterUnits="userSpaceOnUse" color-interpolation-filters="sRGB">
<feFlood flood-opacity="0" result="BackgroundImageFix"/>
<feColorMatrix in="SourceAlpha" type="matrix" values="0 0 0 0 0 0 0 0 0 0 0 0 0 0 0 0 0 0 127 0" result="hardAlpha"/>
<feOffset dy="8.81268"/>
<feGaussianBlur stdDeviation="6.60951"/>
<feComposite in2="hardAlpha" operator="out"/>
<feColorMatrix type="matrix" values="0 0 0 0 0.666875 0 0 0 0 0.663889 0 0 0 0 0.669444 0 0 0 0.15 0"/>
<feBlend mode="normal" in2="BackgroundImageFix" result="effect1_dropShadow_630_58704"/>
<feBlend mode="normal" in="SourceGraphic" in2="effect1_dropShadow_630_58704" result="shape"/>
</filter>
<linearGradient id="paint0_linear_630_58704" x1="284.818" y1="-24.4526" x2="294.679" y2="207.519" gradientUnits="userSpaceOnUse">
<stop stop-color="#22C55E"/>
<stop offset="0.0001" stop-color="#C39FF9"/>
<stop offset="1" stop-color="#F2FDF6" stop-opacity="0"/>
<stop offset="1" stop-color="#240552" stop-opacity="0"/>
</linearGradient>
</defs>
</svg>
