<svg width="47" height="13" viewBox="0 0 47 13" fill="none" xmlns="http://www.w3.org/2000/svg">
<path d="M2.72752 12.5H1.93552V4.624H2.73852L7.07252 11.18V4.624H7.85352V12.5H7.07252L2.72752 5.944V12.5ZM9.20531 8.562C9.20531 6.12 10.4043 4.47 12.3623 4.47C14.3093 4.47 15.5083 6.12 15.5083 8.562C15.5083 11.015 14.3313 12.643 12.3623 12.643C10.3823 12.643 9.20531 11.015 9.20531 8.562ZM9.98631 8.562C9.98631 10.608 10.8553 11.928 12.3623 11.928C13.8693 11.928 14.7383 10.608 14.7383 8.562C14.7383 6.505 13.8693 5.196 12.3623 5.196C10.8553 5.196 9.98631 6.505 9.98631 8.562ZM16.8252 12.621C16.4512 12.621 16.1322 12.313 16.1322 11.95C16.1322 11.576 16.4512 11.257 16.8252 11.257C17.1992 11.257 17.5182 11.576 17.5182 11.95C17.5182 12.313 17.1992 12.621 16.8252 12.621ZM18.1432 8.562C18.1432 6.12 19.3422 4.47 21.3002 4.47C23.2472 4.47 24.4462 6.12 24.4462 8.562C24.4462 11.015 23.2692 12.643 21.3002 12.643C19.3202 12.643 18.1432 11.015 18.1432 8.562ZM18.9242 8.562C18.9242 10.608 19.7932 11.928 21.3002 11.928C22.8072 11.928 23.6762 10.608 23.6762 8.562C23.6762 6.505 22.8072 5.196 21.3002 5.196C19.7932 5.196 18.9242 6.505 18.9242 8.562ZM25.432 8.562C25.432 6.12 26.631 4.47 28.589 4.47C30.536 4.47 31.735 6.12 31.735 8.562C31.735 11.015 30.558 12.643 28.589 12.643C26.609 12.643 25.432 11.015 25.432 8.562ZM26.213 8.562C26.213 10.608 27.082 11.928 28.589 11.928C30.096 11.928 30.965 10.608 30.965 8.562C30.965 6.505 30.096 5.196 28.589 5.196C27.082 5.196 26.213 6.505 26.213 8.562Z" fill="#23A323"/>
<path d="M45.9767 8.99795C45.844 8.99795 45.7169 8.94528 45.6231 8.85151C45.5293 8.75774 45.4767 8.63056 45.4767 8.49795V7.20295L42.3317 10.353C42.2852 10.3998 42.2299 10.437 42.1689 10.4624C42.108 10.4878 42.0427 10.5009 41.9767 10.5009C41.9106 10.5009 41.8453 10.4878 41.7844 10.4624C41.7234 10.437 41.6681 10.3998 41.6217 10.353L39.9767 8.70295L37.3317 11.353C37.2375 11.4471 37.1098 11.5 36.9767 11.5C36.8435 11.5 36.7158 11.4471 36.6217 11.353C36.5275 11.2588 36.4746 11.1311 36.4746 10.998C36.4746 10.8648 36.5275 10.7371 36.6217 10.643L39.6217 7.64295C39.6681 7.59609 39.7234 7.55889 39.7844 7.53351C39.8453 7.50812 39.9106 7.49506 39.9767 7.49506C40.0427 7.49506 40.108 7.50812 40.1689 7.53351C40.2299 7.55889 40.2852 7.59609 40.3317 7.64295L41.9767 9.29295L44.7717 6.49795H43.4767C43.344 6.49795 43.2169 6.44528 43.1231 6.35151C43.0293 6.25774 42.9767 6.13056 42.9767 5.99795C42.9767 5.86535 43.0293 5.73817 43.1231 5.6444C43.2169 5.55063 43.344 5.49795 43.4767 5.49795H45.9767C46.042 5.49874 46.1065 5.51233 46.1667 5.53795C46.2888 5.58869 46.3859 5.68578 46.4367 5.80795C46.4623 5.86807 46.4759 5.93262 46.4767 5.99795V8.49795C46.4767 8.63056 46.424 8.75774 46.3302 8.85151C46.2364 8.94528 46.1093 8.99795 45.9767 8.99795Z" fill="#23A323"/>
</svg>
