<svg width="33" height="34" viewBox="0 0 33 34" fill="none" xmlns="http://www.w3.org/2000/svg">
<circle cx="16.0957" cy="16.9883" r="16.0957" fill="#23A323"/>
<path d="M23.3442 10.252H10.1655C9.88747 10.252 9.62083 10.3624 9.42423 10.559C9.22763 10.7556 9.11719 11.0222 9.11719 11.3003V21.4838C9.11719 21.7619 9.22763 22.0285 9.42423 22.2251C9.62083 22.4217 9.88747 22.5321 10.1655 22.5321H11.5133V23.88C11.5133 23.9991 11.5607 24.1134 11.6449 24.1976C11.7292 24.2819 11.8434 24.3292 11.9626 24.3292C12.0818 24.3292 12.196 24.2819 12.2803 24.1976C12.3645 24.1134 12.4119 23.9991 12.4119 23.88V22.5321H21.0979V23.88C21.0979 23.9991 21.1452 24.1134 21.2294 24.1976C21.3137 24.2819 21.428 24.3292 21.5471 24.3292C21.6663 24.3292 21.7806 24.2819 21.8648 24.1976C21.9491 24.1134 21.9964 23.9991 21.9964 23.88V22.5321H23.3442C23.6223 22.5321 23.8889 22.4217 24.0855 22.2251C24.2821 22.0285 24.3925 21.7619 24.3925 21.4838V11.3003C24.3925 11.0222 24.2821 10.7556 24.0855 10.559C23.8889 10.3624 23.6223 10.252 23.3442 10.252ZM23.3442 21.6336H10.1655C10.1258 21.6336 10.0877 21.6178 10.0596 21.5897C10.0315 21.5616 10.0157 21.5235 10.0157 21.4838V11.3003C10.0157 11.2605 10.0315 11.2225 10.0596 11.1944C10.0877 11.1663 10.1258 11.1505 10.1655 11.1505H23.3442C23.3839 11.1505 23.422 11.1663 23.4501 11.1944C23.4782 11.2225 23.494 11.2605 23.494 11.3003V16.2423H21.9665C21.8524 15.3752 21.4128 14.584 20.7368 14.0291C20.0608 13.4743 19.199 13.1973 18.3263 13.2545C17.4536 13.3116 16.6354 13.6986 16.0375 14.3369C15.4397 14.9752 15.107 15.817 15.107 16.6916C15.107 17.5661 15.4397 18.4079 16.0375 19.0462C16.6354 19.6845 17.4536 20.0715 18.3263 20.1286C19.199 20.1858 20.0608 19.9089 20.7368 19.354C21.4128 18.7991 21.8524 18.0079 21.9665 17.1408H23.494V21.4838C23.494 21.5235 23.4782 21.5616 23.4501 21.5897C23.422 21.6178 23.3839 21.6336 23.3442 21.6336ZM19.4977 16.2423C19.3957 16.0272 19.2235 15.8533 19.0095 15.7491C18.7956 15.6449 18.5525 15.6166 18.3203 15.6689C18.0881 15.7211 17.8806 15.8509 17.7319 16.0367C17.5832 16.2226 17.5022 16.4535 17.5022 16.6916C17.5022 16.9296 17.5832 17.1605 17.7319 17.3464C17.8806 17.5322 18.0881 17.662 18.3203 17.7143C18.5525 17.7665 18.7956 17.7383 19.0095 17.634C19.2235 17.5298 19.3957 17.3559 19.4977 17.1408H21.0574C20.9452 17.767 20.6025 18.3285 20.097 18.7147C19.5914 19.1009 18.9596 19.2838 18.326 19.2274C17.6923 19.1711 17.1027 18.8795 16.6732 18.4102C16.2438 17.9409 16.0056 17.3277 16.0056 16.6916C16.0056 16.0554 16.2438 15.4423 16.6732 14.9729C17.1027 14.5036 17.6923 14.212 18.326 14.1557C18.9596 14.0993 19.5914 14.2823 20.097 14.6684C20.6025 15.0546 20.9452 15.6161 21.0574 16.2423H19.4977Z" fill="black"/>
</svg>
