<svg width="24" height="24" viewBox="0 0 24 24" fill="none" xmlns="http://www.w3.org/2000/svg">
<circle cx="11.5391" cy="11.9453" r="11.5234" fill="#23A323"/>
<path d="M16.7305 7.11719H7.29544C7.09639 7.11719 6.90549 7.19626 6.76474 7.33701C6.62399 7.47776 6.54492 7.66866 6.54492 7.86771V15.1585C6.54492 15.3575 6.62399 15.5484 6.76474 15.6891C6.90549 15.8299 7.09639 15.909 7.29544 15.909H8.26039V16.8739C8.26039 16.9592 8.29428 17.041 8.3546 17.1014C8.41492 17.1617 8.49674 17.1956 8.58204 17.1956C8.66735 17.1956 8.74916 17.1617 8.80948 17.1014C8.8698 17.041 8.90369 16.9592 8.90369 16.8739V15.909H15.1223V16.8739C15.1223 16.9592 15.1562 17.041 15.2165 17.1014C15.2768 17.1617 15.3586 17.1956 15.4439 17.1956C15.5292 17.1956 15.611 17.1617 15.6714 17.1014C15.7317 17.041 15.7656 16.9592 15.7656 16.8739V15.909H16.7305C16.9296 15.909 17.1205 15.8299 17.2612 15.6891C17.402 15.5484 17.481 15.3575 17.481 15.1585V7.86771C17.481 7.66866 17.402 7.47776 17.2612 7.33701C17.1205 7.19626 16.9296 7.11719 16.7305 7.11719ZM16.7305 15.2657H7.29544C7.267 15.2657 7.23973 15.2544 7.21963 15.2343C7.19952 15.2142 7.18822 15.1869 7.18822 15.1585V7.86771C7.18822 7.83927 7.19952 7.812 7.21963 7.79189C7.23973 7.77178 7.267 7.76049 7.29544 7.76049H16.7305C16.759 7.76049 16.7862 7.77178 16.8063 7.79189C16.8264 7.812 16.8377 7.83927 16.8377 7.86771V11.4059H15.7441C15.6625 10.7851 15.3477 10.2186 14.8637 9.82139C14.3798 9.42415 13.7628 9.22588 13.138 9.2668C12.5133 9.30772 11.9274 9.58477 11.4994 10.0417C11.0714 10.4987 10.8332 11.1014 10.8332 11.7275C10.8332 12.3536 11.0714 12.9563 11.4994 13.4133C11.9274 13.8703 12.5133 14.1473 13.138 14.1882C13.7628 14.2291 14.3798 14.0309 14.8637 13.6336C15.3477 13.2364 15.6625 12.6699 15.7441 12.0492H16.8377V15.1585C16.8377 15.1869 16.8264 15.2142 16.8063 15.2343C16.7862 15.2544 16.759 15.2657 16.7305 15.2657ZM13.9767 11.4059C13.9036 11.2519 13.7804 11.1274 13.6272 11.0528C13.474 10.9782 13.3 10.9579 13.1337 10.9953C12.9675 11.0328 12.8189 11.1256 12.7125 11.2587C12.606 11.3918 12.548 11.5571 12.548 11.7275C12.548 11.8979 12.606 12.0632 12.7125 12.1963C12.8189 12.3294 12.9675 12.4223 13.1337 12.4597C13.3 12.4971 13.474 12.4769 13.6272 12.4023C13.7804 12.3276 13.9036 12.2031 13.9767 12.0492H15.0933C15.0129 12.4975 14.7676 12.8994 14.4057 13.1759C14.0438 13.4524 13.5914 13.5834 13.1378 13.543C12.6841 13.5027 12.262 13.294 11.9545 12.9579C11.6471 12.6219 11.4766 12.183 11.4766 11.7275C11.4766 11.2721 11.6471 10.8331 11.9545 10.4971C12.262 10.1611 12.6841 9.95234 13.1378 9.91199C13.5914 9.87165 14.0438 10.0026 14.4057 10.2791C14.7676 10.5556 15.0129 10.9576 15.0933 11.4059H13.9767Z" fill="white"/>
</svg>
