<svg width="266" height="1024" viewBox="0 0 266 1024" fill="none" xmlns="http://www.w3.org/2000/svg">
<g opacity="0.25">
<path d="M297.046 380.754C305.065 380.583 312.999 379.559 320.677 377.341C358.47 366.507 382.102 332.212 382.699 297.575C382.699 295.442 382.869 293.31 383.211 291.177C384.661 282.816 389.438 277.015 397.372 274.371C405.477 271.641 412.899 273.262 419.127 279.233C423.136 283.072 425.269 287.764 425.61 293.31C425.866 296.807 425.951 296.807 429.023 297.575C434.312 298.855 439.431 300.561 444.464 302.523C447.621 303.803 447.706 303.718 447.45 300.22C447.365 298.77 447.194 297.405 447.109 295.954C447.023 294.077 447.023 292.201 446.767 290.409C446.511 288.447 446.256 286.399 445.744 284.523C440.796 264.304 422.112 250.313 400.785 251.934C380.225 253.469 363.674 269.678 361.541 289.812C361.115 294.077 361.371 298.428 360.774 302.694C357.105 326.752 344.309 344.07 322.128 354.137C313.511 358.061 304.383 359.17 294.999 359.511C268.723 360.45 249.613 385.019 254.732 410.869C258.656 430.661 276.06 445.164 296.193 445.42C316.327 445.676 334.071 431.77 338.678 412.148C339.958 406.603 339.361 401.058 340.128 395.513C340.384 393.636 339.958 393.38 338.252 394.062C332.706 396.366 326.99 398.157 321.189 399.608C318.289 400.375 318.203 400.375 318.203 403.191C318.118 416.499 304.724 427.078 290.904 423.068C279.387 419.656 273.927 407.883 275.804 398.754C277.936 388.176 285.956 381.18 296.876 380.924L297.046 380.754Z" fill="#3D0072"/>
<path d="M254.224 186.912C254.139 211.141 273.163 230.165 297.136 230.08C324.52 229.994 340.559 206.96 339.791 187.254C340.388 163.964 320.767 144.342 297.391 144.086C276.831 143.83 254.309 159.954 254.139 186.998L254.224 186.912ZM318.378 187.168C318.378 198.941 308.908 208.667 297.221 208.581C285.789 208.496 275.978 200.221 275.552 187.083C275.211 175.225 285.107 165.755 297.05 165.584C308.482 165.329 318.975 175.651 318.378 187.168Z" fill="#3D0072"/>
<path d="M191.939 853.786C180.592 854.554 171.379 847.729 168.905 836.895C168.564 835.188 168.308 833.482 168.308 831.776C168.308 830.752 167.796 830.155 166.857 829.984C160.459 828.534 154.231 826.487 148.089 824.013C146.894 823.501 146.553 824.269 146.639 825.292C146.639 827.766 146.894 830.155 146.894 832.629C147.236 858.82 168.905 875.711 190.233 875.541C216.85 875.285 239.031 849.606 231.097 820.856C225.978 802.429 209.342 789.632 190.233 789.462C186.223 789.462 182.213 789.206 178.289 788.438C163.957 785.623 151.757 778.968 142.032 768.048C130.685 755.337 125.396 740.237 125.481 722.492C125.567 721.468 125.823 719.762 125.908 718.056C126.079 716.264 125.652 715.923 124.031 716.606C118.23 718.909 112.258 720.957 106.116 722.322C104.495 722.663 104.154 723.601 104.068 725.052C103.898 729.488 104.409 733.924 105.092 738.275C108.248 756.873 116.268 772.996 129.832 786.22C146.127 802.088 165.663 810.277 188.356 810.789C190.403 810.789 192.365 810.96 194.328 811.387C204.906 813.69 211.902 822.989 211.219 833.994C210.622 844.231 202.006 853.018 191.939 853.701V853.786Z" fill="#3D0072"/>
<path d="M90.4112 467.424C85.5485 466.571 80.7711 466.998 75.9083 466.4C73.8609 466.144 73.6049 466.486 74.3727 468.448C76.3349 473.481 78.1264 478.685 79.4061 483.889C80.3445 487.814 80.4298 487.814 84.6101 488.24C95.0181 489.349 103.208 497.624 103.89 508.032C104.658 518.526 98.0893 527.739 87.8519 530.469C86.1457 530.896 84.5248 531.237 82.8185 531.152C80.8564 531.066 80.1739 532.005 79.7473 533.796C78.6383 539.086 76.9321 544.29 74.9699 549.323C73.5196 552.991 73.5196 552.991 77.6999 552.735C78.7236 552.735 79.662 552.735 80.6858 552.735V552.565C82.2214 552.565 83.8423 552.65 85.3779 552.565C87.0841 552.48 88.7903 552.224 90.4966 551.882C110.715 548.214 125.474 530.299 125.474 509.568C125.474 488.837 110.63 471.007 90.4112 467.339V467.424Z" fill="#3D0072"/>
<path d="M0 797.229V867.782C9.38424 861.213 15.8679 850.976 17.8301 838.605C20.3041 822.311 13.1379 806.528 0 797.315V797.229Z" fill="#3D0072"/>
<path d="M232.19 624.389C232.958 619.868 232.275 615.261 233.128 610.739C233.47 608.777 232.873 608.436 230.996 609.204C225.792 611.337 220.588 613.043 215.128 614.408C211.459 615.346 211.459 615.346 211.118 619.015C210.436 626.693 206.682 632.494 200.028 636.248C197.042 637.954 193.715 638.807 190.217 638.892C187.743 638.892 187.743 639.063 187.06 641.451C186.548 643.243 186.122 645.035 185.695 646.826C184.672 650.836 183.136 654.675 181.686 658.599C180.833 660.732 181.089 660.988 183.477 660.732C185.184 660.561 186.89 660.476 188.34 660.391C189.364 660.391 190.046 660.391 190.729 660.391C209.583 660.135 228.266 646.741 232.19 624.475V624.389Z" fill="#3D0072"/>
<path d="M190.073 531.231C186.49 531.317 182.992 531.487 179.409 531.914C158.423 534.644 140.678 543.772 126.516 559.299C111.843 575.423 104.506 594.532 104.165 616.372C104.165 619.699 103.738 622.941 102.288 626.012C98.7048 633.605 92.6477 637.87 84.2872 638.724C80.6188 639.065 80.6188 638.979 79.6804 642.733C78.5714 647.169 77.2064 651.52 75.5855 655.871C75.0736 657.321 73.538 658.942 74.3058 660.222C75.2442 661.843 77.1211 660.222 78.6567 660.393C80.5335 660.478 82.3251 660.393 84.2019 660.393C88.5528 660.393 92.6477 659.454 96.7427 658.089C111.928 652.97 125.663 637.614 125.578 616.969C125.578 605.367 128.478 594.532 134.536 584.721C147.162 564.247 165.589 553.668 189.561 553.071C201.505 552.73 211.828 548.805 220.359 540.189C239.298 521.079 236.227 489.344 213.875 474.329C206.026 469.039 197.41 466.651 187.599 466.992C186.149 466.907 184.272 466.736 182.395 466.565C181.371 466.565 181.115 467.077 181.457 467.93C183.931 474.158 186.064 480.556 187.514 487.125C187.684 487.893 188.196 488.32 189.049 488.405C189.732 488.405 190.5 488.405 191.182 488.49C202.955 489.429 211.572 498.813 211.316 510.501C211.06 522.103 201.931 531.146 190.073 531.487V531.231Z" fill="#3D0072"/>
<path d="M193.076 750.984C192.337 748.084 190.545 746.491 187.702 746.207C173.369 744.842 164.241 729.571 170.213 716.348C173.796 708.329 180.194 704.063 188.896 703.295C191.967 703.039 191.967 703.039 192.82 700.054C193.759 696.641 194.697 693.143 195.806 689.731C196.574 687.427 197.512 685.209 198.28 682.906C198.536 682.138 198.28 681.456 197.342 681.541C192.65 681.967 187.957 681.541 183.265 682.394C156.563 686.745 140.439 713.789 149.482 739.297C155.625 756.7 172.516 768.388 191.711 767.876C192.564 767.961 194.441 768.132 196.318 768.303C198.707 768.558 198.963 768.303 198.11 766.084C196.147 761.136 194.441 756.188 193.161 750.984H193.076Z" fill="#3D0072"/>
<path d="M125.934 839.383C125.678 837.507 125.422 835.715 125.507 834.862C125.763 824.71 123.46 816.179 118.341 808.671C109.725 796.045 97.6104 789.818 82.5103 789.391C58.1966 788.709 39.5134 778.045 26.9727 757.143C19.8065 745.285 17.2472 732.232 18.6122 718.412C18.8681 716.023 18.6122 715.938 16.3941 716.791C11.1048 718.924 5.64484 720.715 0.0996094 722.08V748.015C4.27986 763.456 12.2991 776.765 24.2427 787.77C40.6225 802.956 60.0734 810.719 82.5103 810.889C87.4584 810.889 92.0652 812.425 95.9895 815.582C101.193 819.762 103.923 825.222 104.179 831.876C104.179 833.753 104.691 834.691 106.653 835.118C112.625 836.483 118.512 838.36 124.142 840.748C125.848 841.431 126.36 841.09 126.104 839.383H125.934Z" fill="#3D0072"/>
<path d="M90.2593 573.97C85.8231 574.14 81.3869 573.97 77.0361 574.652C55.0258 577.979 40.0963 595.212 39.755 617.649C39.755 620.806 39.4991 623.962 38.9872 627.033C35.5748 649.811 20.3894 668.324 0 676.855V699.719C15.1001 695.282 28.1527 687.092 39.0726 674.893C53.4902 658.854 60.8269 639.83 61.1682 618.161C61.1682 615.09 61.5947 612.189 62.7891 609.374C66.2868 601.099 72.6852 596.663 81.5576 595.809C84.7994 595.468 84.8847 595.553 85.6525 592.312C86.8469 587.108 88.4678 582.16 90.4299 577.212C90.6859 576.529 90.9418 575.847 91.1124 575.164C91.2831 574.482 90.9418 573.97 90.2593 573.97Z" fill="#3D0072"/>
<path d="M75.2264 875.888C75.8236 875.888 76.3355 875.888 76.9326 875.803C84.0988 874.779 91.1796 875.803 98.1751 877.423C126.925 884.59 146.547 909.757 146.973 939.871C146.973 942.004 147.229 944.137 147.485 946.27C150.13 966.147 167.533 983.039 189.97 983.039C210.445 983.039 227.678 968.707 231.858 948.658C232.967 943.54 232.199 938.336 233.138 933.302C233.479 931.426 232.967 931.17 231.005 931.937C226.057 933.9 221.109 935.606 215.99 936.885C215.137 937.056 214.284 937.227 213.516 937.397C212.151 937.739 211.127 938.336 211.383 939.957C211.383 940.554 211.383 941.066 211.383 941.663C210.274 955.825 196.112 965.038 182.804 960.261C174.273 957.275 168.642 949.17 168.557 939.786C168.557 933.046 167.874 926.307 166.168 919.823C157.722 888.087 137.674 867.357 106.536 857.375C99.0282 854.987 91.1796 854.134 83.331 853.963C80.7716 853.963 80.6863 853.963 80.0891 856.352C78.8095 862.068 77.0179 867.698 74.7998 873.073C74.6292 873.499 74.4586 873.84 74.288 874.267C73.9467 875.205 74.1174 875.973 75.397 875.888H75.2264Z" fill="#3D0072"/>
<path d="M264.122 875.551C271.714 862.755 275.553 848.764 275.553 833.834C275.553 830.422 275.553 830.422 272.311 829.569C268.046 828.46 263.78 827.18 259.6 825.644C257.894 825.047 255.761 823.255 254.481 824.109C252.861 825.218 254.311 827.777 254.14 829.739C254.14 830.422 254.14 831.189 254.14 831.872C254.14 835.711 253.97 839.55 253.287 843.389C247.571 876.404 218.565 897.22 190.498 896.794C188.109 896.794 185.635 896.623 183.247 896.623C181.284 896.623 181.028 896.879 181.882 898.841C184.1 904.472 185.976 910.102 187.256 915.989C187.597 917.78 188.536 918.292 190.242 918.292C194.422 918.292 198.517 918.122 202.612 917.439C229.656 913.003 250.216 898.927 264.207 875.466L264.122 875.551Z" fill="#3D0072"/>
<path d="M230.953 393.976C225.152 396.365 219.18 398.242 213.038 399.607C211.673 399.948 211.246 400.63 211.161 401.995C211.161 403.446 211.502 404.384 213.123 404.811C219.351 406.176 225.493 408.138 231.38 410.612C232.66 411.124 233.342 410.612 233.086 409.247C232.489 404.725 232.318 400.119 233.086 395.682C233.171 393.635 232.745 393.294 230.868 393.976H230.953Z" fill="#3D0072"/>
<path d="M214.226 165.085C212.179 172.08 211.411 179.417 211.24 186.754C211.24 188.375 211.667 189.484 213.458 189.825C219.601 191.019 225.573 193.152 231.374 195.456C232.995 196.138 233.506 195.797 233.165 193.92C232.141 188.033 232.653 182.147 233.677 176.346C239.905 141.198 270.276 121.747 297.575 122.856C299.708 122.856 301.841 122.856 303.974 122.856C305.765 122.856 306.021 122.6 305.339 120.893C303.035 115.178 301.158 109.291 299.708 103.319C299.367 101.869 298.684 101.187 297.149 101.187C291.859 101.016 286.57 101.357 281.366 102.466C246.815 110.144 224.293 130.96 214.141 165.085H214.226Z" fill="#3D0072"/>
<path d="M264.544 0.079834C272.393 9.20814 284.08 14.924 297.048 14.924C310.868 14.924 321.958 8.86689 329.466 0.079834H264.544Z" fill="#3D0072"/>
<path d="M299.759 1023.83C301.209 1017.6 303.171 1011.54 305.56 1005.66C306.072 1004.46 305.389 1004.12 304.366 1004.21C302.404 1004.29 300.356 1004.46 298.394 1004.55C296.432 1004.72 294.384 1004.8 292.422 1005.06C279.455 1006.34 268.279 1013.68 261.454 1024H299.844L299.759 1023.83Z" fill="#3D0072"/>
<path d="M296.273 660.386C298.406 660.386 300.624 660.386 302.671 660.045C319.904 657.145 332.189 647.675 337.649 630.954C343.024 614.404 339.526 599.218 326.985 586.678C306.169 565.862 270.594 572.345 258.139 599.048C254.3 607.237 253.959 615.939 253.788 624.641C253.788 625.921 254.641 626.006 255.494 625.665C261.466 623.191 267.523 621.229 273.836 619.864C274.86 619.608 275.286 619.096 275.372 618.157C275.542 616.451 275.713 614.745 276.054 613.039C278.187 602.204 288.595 594.526 299.344 595.976C311.117 597.512 319.051 607.408 318.283 619.096C317.601 629.76 308.728 638.461 297.638 638.888C294.396 638.973 291.069 639.144 287.827 639.485C266.499 641.874 248.413 650.832 233.996 666.699C215.057 687.601 207.549 712.341 212.668 740.152C218.384 771.206 236.555 792.789 265.561 804.989C275.542 809.169 286.036 810.875 296.87 810.961C308.814 811.046 317.771 820.345 318.283 831.777C318.795 843.976 308.473 853.872 297.894 853.872C294.823 853.872 294.823 854.043 294.055 857.199C293.031 861.55 291.666 865.731 290.216 869.911C289.533 871.788 288.424 873.494 288.339 875.541C290.301 876.395 292.263 875.456 294.226 875.456C294.652 875.456 295.079 875.456 295.676 875.371C296.188 875.371 296.956 875.371 297.638 875.371C320.075 875.627 343.45 855.408 339.27 825.89C336.284 804.904 318.198 789.548 296.87 789.377C277.675 789.206 261.466 782.04 248.84 767.623C235.361 752.352 230.157 734.266 233.484 714.132C238.944 681.714 266.329 660.642 296.102 660.301L296.273 660.386Z" fill="#3D0072"/>
<path d="M89.3086 122.844C91.1002 122.844 91.5267 122.503 90.8442 120.882C88.4555 115.081 86.5787 109.024 85.2137 102.881C84.8724 101.431 84.0193 101.175 82.7397 101.175C81.2894 101.175 80.3509 101.431 80.0097 103.137C78.8153 109.194 76.7679 114.995 74.5498 120.711C74.4645 120.967 74.2938 121.223 74.2085 121.479C73.9526 122.332 74.3792 122.844 75.2323 122.844C77.621 122.844 80.095 122.844 82.4837 122.844C82.4837 122.844 82.4837 122.759 82.4837 122.673C83.5928 122.673 84.7871 122.673 85.8962 122.673C87.0052 122.673 88.1996 122.844 89.3086 122.844Z" fill="#3D0072"/>
<path d="M124.059 393.873C118.257 396.347 112.286 398.224 106.143 399.589C104.522 399.93 104.096 400.783 104.096 402.234C104.096 403.769 104.693 404.537 106.228 404.878C109.726 405.731 113.139 406.67 116.551 407.693C119.025 408.461 121.329 409.485 123.803 410.338C125.935 411.106 126.277 410.85 125.935 408.461C125.509 405.731 125.679 403.001 125.594 399.418C125.594 398.65 125.85 396.944 126.021 395.238C126.191 393.532 125.765 393.105 124.059 393.788V393.873Z" fill="#3D0072"/>
<path d="M168.442 295.428C168.442 293.551 168.613 291.759 169.039 289.882C171.172 280.498 179.021 273.759 188.405 273.247C198.13 272.65 206.917 278.365 210.074 287.494C213.316 296.622 210.074 306.603 202.225 312.234C198.642 314.793 194.633 316.073 190.196 316.158C188.831 316.158 187.637 316.244 187.296 317.95C186.016 324.263 183.969 330.405 181.495 336.377C181.068 337.401 181.409 338.083 182.604 337.998C187.296 337.657 191.988 337.913 196.68 337.145C223.127 332.965 239.336 305.324 230.207 280.157C223.468 261.559 204.614 248.933 183.371 252.175C162.129 255.502 147.2 273.247 146.944 294.66C146.944 298.414 146.602 302.082 146.005 305.75C143.616 319.571 137.389 331.514 127.237 341.154C114.355 353.525 98.828 359.411 80.5714 359.24C79.4624 359.155 77.8415 359.07 76.3059 358.899C73.8318 358.643 73.5759 358.899 74.5996 361.373C76.8177 366.833 78.524 372.378 79.8889 378.094C80.4861 380.568 80.6567 380.654 83.0455 380.654C87.311 380.739 91.5766 380.312 95.8421 379.63C138.583 372.72 168.101 336.292 168.357 295.342L168.442 295.428Z" fill="#3D0072"/>
<path d="M0 405.065C5.88648 406.43 11.6023 408.307 17.1476 410.61C18.086 411.037 18.9391 410.61 18.6832 409.416C18.2566 406.686 18.2566 403.956 18.2566 401.311C18.0007 387.064 10.8345 374.524 0 366.846V404.98V405.065Z" fill="#3D0072"/>
<path d="M51.1868 469.549C39.4138 447.965 22.2662 433.974 0 427.405V450.098C27.3849 461.444 43.594 490.279 38.9019 519.456C36.4279 534.897 29.4324 547.864 17.7447 558.187C12.2848 563.05 6.31303 566.718 0 569.277V592.056C15.2707 587.449 28.5793 579.174 39.4991 566.803C52.4664 552.215 59.6326 534.982 60.9975 515.446C62.1066 499.237 59.0354 483.71 51.1868 469.463V469.549Z" fill="#3D0072"/>
<path d="M16.8063 608.953C11.3464 611.256 5.71585 613.048 0 614.413V652.462C1.79154 651.182 3.49776 649.732 5.20399 648.111C14.3323 639.494 18.3419 628.574 18.1713 616.034C18.3419 614.157 18.5125 612.365 18.5979 610.489C18.7685 608.697 18.3419 608.27 16.8063 608.953Z" fill="#3D0072"/>
<path d="M123.872 286.312C119.009 288.36 113.976 289.98 108.857 291.345C105.9 292.085 104.25 293.99 103.909 297.061C102.629 309.517 90.6006 318.304 78.401 315.744C68.249 313.612 61.4241 305.507 61.1682 295.014C60.9976 288.957 60.571 282.985 59.3766 277.098C52.7224 245.533 29.603 221.305 0 212.347V235.04C23.2047 244.68 39.3285 267.544 39.6697 293.478C39.6697 296.464 39.9257 299.45 40.4375 302.436C44.7031 326.494 69.0168 342.362 92.7333 336.475C111.587 331.783 124.725 315.659 125.493 296.208C125.578 293.478 125.493 290.748 125.919 288.104C126.261 286.056 125.749 285.63 123.957 286.397L123.872 286.312Z" fill="#3D0072"/>
<path d="M189.836 445.236C192.992 445.236 196.064 445.492 199.22 445.919C242.046 452.147 267.213 498.471 247.506 538.226C235.904 561.516 216.282 573.289 190.433 574.227C186.594 574.398 182.755 574.739 179.001 575.763C160.148 580.881 147.266 597.517 147.01 617.139C147.01 620.722 146.754 624.305 146.157 627.802C141.891 655.017 119.966 676.771 92.6663 681.037C88.2302 681.719 83.794 681.549 79.4431 681.975C51.9729 684.449 36.3609 709.531 40.4559 732.309C44.1242 752.528 61.4424 767.628 81.8318 767.884C84.2205 767.884 86.6946 767.884 89.0833 768.31C91.3867 768.651 91.7279 768.31 90.8748 766.092C88.9126 761.315 87.2917 756.452 86.0121 751.418C85.5855 749.883 85.5002 748.091 84.6471 746.982C83.6234 745.703 81.6612 746.47 80.1256 746.3C67.7555 744.849 59.0537 732.735 61.7837 720.536C64.0018 710.469 72.277 703.644 82.5996 703.388C86.6092 703.303 90.6189 703.132 94.5432 702.535C115.444 699.464 133.019 690.08 147.01 674.297C161.086 658.344 168.167 639.49 168.508 618.162C168.508 614.323 169.191 610.74 170.982 607.413C174.992 599.991 181.39 596.067 189.751 595.896C195.296 595.725 200.841 595.299 206.301 594.275C247.421 586.427 276.086 549.657 275.659 509.902C275.659 505.722 275.488 501.627 274.891 497.447C270.455 465.37 247.506 437.9 216.453 427.918C207.666 425.103 198.708 423.823 189.495 423.653C177.636 423.397 168.252 413.671 168.508 401.984C168.764 388.078 180.196 380.57 189.409 380.741C194.016 380.741 198.538 380.4 203.059 379.717C223.022 376.39 240.17 367.432 253.649 352.247C272.161 331.26 279.327 306.606 274.209 279.306C268.408 248.338 250.236 226.669 221.06 214.64C211.334 210.63 201.097 208.668 190.518 208.839C187.788 208.839 187.788 208.839 187.106 211.569C185.997 216.346 184.547 220.953 182.84 225.56C181.532 228.972 182.641 230.593 186.167 230.423C206.983 229.569 224.558 236.821 238.378 252.518C260.047 277.258 259.706 315.222 236.075 339.706C223.79 352.418 208.604 358.901 190.945 359.328C187.532 359.413 184.12 359.584 180.708 360.352C161.171 364.703 147.266 381.679 146.924 401.642C146.583 425.871 165.522 445.151 189.751 445.492L189.836 445.236Z" fill="#3D0072"/>
<path d="M197.51 143.589C196.827 143.589 196.06 143.589 195.377 143.76C188.211 144.698 181.13 143.76 174.135 142.054C145.897 134.887 125.848 109.806 125.507 79.8617C125.507 76.8758 125.251 73.8899 124.654 70.904C120.303 49.7468 100.17 32.8552 75.0029 37.2914C54.5282 40.8745 40.1959 58.1927 39.7693 79.0086C39.7693 82.4211 39.5987 85.8335 39.0015 89.246C35.5038 110.062 24.6693 125.844 6.32733 136.082C4.27986 137.276 2.14708 138.3 0.0996094 139.153V162.016C29.7879 153.144 53.5045 127.636 59.4762 96.924C60.5853 91.2934 61.0972 85.6629 61.1825 79.8617C61.3531 67.4063 70.5667 58.1927 82.6809 58.1074C84.6431 58.278 86.7758 58.278 88.8233 58.9605C98.1222 61.9464 104.009 69.795 104.094 79.947C104.094 86.0041 104.606 91.9759 106.056 97.8624C114.929 132.84 136.768 154.85 171.746 163.637C177.035 165.002 182.495 165.344 187.87 165.685C191.879 165.941 191.965 165.855 192.903 161.761C193.841 157.58 195.206 153.485 196.657 149.476C197.169 148.025 197.851 146.575 198.363 145.04C198.619 144.272 198.534 143.589 197.425 143.675L197.51 143.589Z" fill="#3D0072"/>
<path d="M18.3419 190.926C18.3419 187.172 18.1713 183.504 18.6832 179.75C18.6832 179.238 18.8538 178.556 17.8301 178.3C17.4035 178.47 16.721 178.641 16.0385 178.897C12.5408 180.177 9.04299 181.456 5.54523 182.565C3.7537 183.163 1.87685 183.674 0 184.101V189.817C4.77743 190.926 9.46955 192.461 14.0764 194.082C15.5266 194.594 17.1476 196.215 18.3419 195.277C19.5363 194.338 18.3419 192.376 18.3419 190.755V190.926Z" fill="#3D0072"/>
<path d="M80.0269 271.036C80.3681 272.572 81.2213 273.084 82.6715 273.084C88.814 273.084 94.9564 272.487 100.928 271.036C135.309 262.42 157.063 240.836 166.191 206.541C167.812 200.313 168.495 193.915 168.409 187.431C168.409 186.152 168.409 184.957 166.703 184.531C160.39 183.081 154.333 181.118 148.361 178.73C147.423 178.303 146.655 178.559 146.74 179.839C146.826 181.971 146.911 184.104 146.996 186.237C146.314 212.086 135.138 231.793 112.275 244.249C101.099 250.306 88.9846 252.695 76.2732 251.244C73.9698 250.988 73.6286 251.415 74.4817 253.462C76.7851 259.178 78.6619 264.979 79.9416 271.036H80.0269Z" fill="#3D0072"/>
<path d="M39.7688 187.169C39.6835 210.885 59.2198 230.336 83.0216 230.08C107.335 229.824 125.677 210.288 125.592 186.998C125.421 160.637 103.411 143.489 82.851 144.257C61.9498 143.489 39.9395 160.893 39.8541 187.254L39.7688 187.169ZM82.5098 165.67C94.5387 165.67 104.094 175.055 104.094 187.083C104.094 198.515 95.3918 208.667 82.5951 208.667C69.8837 208.667 61.3526 198.515 61.182 187.425C61.0113 175.481 70.5662 165.756 82.5098 165.756V165.67Z" fill="#3D0072"/>
<path d="M18.6832 301.926C18.5125 299.964 18.3419 297.916 18.1713 295.954C18.3419 283.499 14.247 272.749 5.2893 263.877C3.58307 262.171 1.87685 260.721 0 259.441V297.575C5.88648 298.94 11.6023 300.902 17.1476 303.206C18.1713 303.632 18.7685 303.206 18.6832 302.011V301.926Z" fill="#3D0072"/>
<path d="M167.646 498.057C165.086 479.459 157.323 463.25 144.27 449.856C127.635 432.793 107.16 424.092 83.3582 423.75C78.8367 423.75 74.5711 422.641 70.8174 419.997C64.5897 415.731 61.4332 409.674 61.3479 402.167C61.3479 397.389 61.0066 392.697 60.2388 388.09C54.9495 355.245 31.0624 329.14 0.179688 319.841V342.534C23.8109 352.345 39.5082 375.208 39.8494 401.143C39.8494 405.067 40.276 408.821 41.2144 412.66C46.1625 431.855 62.7128 444.908 82.5051 445.164C87.709 445.164 92.7424 445.761 97.7758 446.955C122.772 452.842 142.223 473.913 146.233 499.166C147.171 504.881 147.171 510.597 146.83 516.313C146.744 518.361 147.086 518.617 149.048 517.849C154.764 515.545 160.565 513.669 166.622 512.389C167.987 512.048 168.584 511.45 168.499 510.085C168.499 506.076 168.243 502.066 167.731 498.142L167.646 498.057Z" fill="#3D0072"/>
<path d="M0 474.489V545.042C12.3701 536.425 19.9628 521.496 18.0007 504.604C16.5504 491.978 9.72548 481.314 0 474.575V474.489Z" fill="#3D0072"/>
<path d="M209.951 41.4601C203.211 37.877 196.045 36.3414 188.623 36.512C186.661 36.3414 184.87 36.1708 182.993 36.0855C181.372 36.0855 181.031 36.3414 181.542 37.7064C183.931 43.6782 185.979 49.8206 187.344 56.1336C187.599 57.2427 188.197 57.9252 189.391 58.0105C190.074 58.0105 190.841 58.1811 191.524 58.1811C202.102 58.437 212.766 68.5891 211.231 82.1535C210.036 93.0734 199.543 102.031 188.879 101.093C176.765 99.9836 168.575 91.1112 168.404 78.8264C167.978 54.0861 158.935 33.0143 140.678 16.2933C133.086 9.38305 124.981 3.92313 116.45 0.169434H49.8218C24.655 9.98023 8.10457 29.2606 0 56.7308V114.572C10.9198 106.894 18.2566 94.1824 18.2566 79.6795C18.2566 75.6699 18.5979 71.6603 19.3657 67.7359C26.0199 32.4171 59.3766 9.72429 94.269 16.0373C120.971 20.9001 141.958 42.3985 146.138 69.3569C146.821 73.793 146.65 78.2292 147.077 82.5801C149.636 110.818 174.632 125.065 195.448 122.079C214.046 119.435 229.061 105.529 232.217 86.4191C235.544 66.2857 224.881 49.2234 209.951 41.3748V41.4601Z" fill="#3D0072"/>
<path d="M223.038 0.079834H157.519C158.884 1.61544 160.334 3.15104 162.04 4.51602C169.889 11.3409 179.188 14.6681 189.51 14.924C193.776 15.0946 198.041 15.2652 202.307 16.1184C231.313 21.493 253.579 47.6835 254.176 77.3718C254.176 80.3577 254.006 83.3436 254.006 86.4148C254.006 88.2917 254.176 88.4623 255.968 87.7798C261.684 85.4764 267.485 83.5143 273.542 82.2346C275.333 81.8933 275.675 80.8696 275.675 79.1634C275.675 74.9831 275.419 70.8882 274.822 66.7933C270.641 37.2755 250.423 11.5969 223.123 0.165145L223.038 0.079834Z" fill="#3D0072"/>
<path d="M0 0.0783691V6.98858C2.81527 5.02642 5.45992 2.72302 7.76332 0.0783691H0Z" fill="#3D0072"/>
<path d="M0 1023.82H11.1758C8.18988 1019.3 4.35087 1015.46 0 1012.39V1023.82Z" fill="#3D0072"/>
<path d="M58.0117 829.57C52.7224 828.29 47.5184 826.755 42.5703 824.622C41.8878 824.366 41.2053 824.11 40.5229 823.854C39.8404 823.683 39.4138 823.939 39.4138 824.622C39.4138 825.731 39.4991 826.925 39.5844 828.034C39.8404 834.091 39.5844 840.063 38.3048 845.95C33.6979 867.619 18.5125 884.169 0 891.932V914.71C19.1097 909.165 34.7217 897.648 46.7506 879.989C56.2201 865.998 60.9122 850.471 61.0829 833.494C61.0829 830.252 61.0829 830.252 58.0117 829.484V829.57Z" fill="#3D0072"/>
<path d="M78.9937 1020.25C79.2497 1021.78 79.5909 1022.98 80.1881 1023.83H118.408C115.422 1019.31 111.583 1015.39 106.976 1012.23C99.2978 1006.94 90.7667 1004.55 82.2356 1004.64C79.6762 1004.47 77.8847 1004.38 76.0078 1004.29C73.8751 1004.29 73.7044 1004.47 74.4722 1006.43C76.2638 1010.95 78.2259 1015.47 78.9937 1020.25Z" fill="#3D0072"/>
<path d="M18.6832 947.641C18.2566 944.484 18.1713 941.413 18.2566 937.83C18.3419 936.55 18.5125 934.844 18.6832 933.138C18.8538 931.261 18.6832 931.091 16.8916 931.773C11.4317 933.991 5.80117 935.868 0 937.233V943.034C5.2893 944.228 10.4933 945.849 15.5266 947.982C16.2091 948.238 16.8063 948.494 17.4888 948.75C18.4272 949.091 18.8538 948.579 18.7685 947.726L18.6832 947.641Z" fill="#3D0072"/>
<path d="M73.0744 982.012C78.5343 983.206 84.1648 982.865 89.7101 983.462C91.1604 983.633 91.5016 983.121 90.9044 981.756C88.4304 975.784 86.4682 969.642 85.1033 963.328C84.8473 962.134 84.1648 961.622 83.0558 961.622C82.2027 961.622 81.3496 961.452 80.4964 961.366C71.3681 960.257 65.1404 955.309 62.2398 946.693C59.3393 937.991 61.728 930.228 68.3823 924C74.2687 918.54 83.397 916.663 91.5016 920.588C99.7768 924.597 103.872 931.422 103.957 940.465C103.957 944.645 104.298 948.74 104.895 952.835C110.27 988.325 136.717 1015.97 170.244 1023.81H209.231C224.161 1020.4 237.981 1012.98 249.157 1002.06C266.134 985.339 275.091 965.035 275.347 940.977C275.433 934.067 277.821 928.095 283.196 923.488C287.632 919.649 293.007 918.284 298.723 918.284C303.329 918.284 307.851 917.858 312.372 917.09C359.976 908.132 391.371 862.149 380.621 813.437C373.199 779.653 345.814 753.548 311.946 747.662C306.742 746.723 301.453 746.297 296.163 746.211C285.499 746.041 274.835 737.254 275.518 723.86C276.286 709.613 287.717 703.129 297.187 703.214C299.917 703.214 302.647 703.214 305.292 702.873C326.022 700.484 344.023 692.295 358.526 676.939C378.915 655.355 386.849 629.591 380.963 600.585C374.308 567.484 354.004 545.73 322.183 534.981C314.164 532.251 305.803 531.142 297.358 531.142C295.651 531.142 294.713 531.653 294.372 533.36C293.092 539.587 291.045 545.474 288.656 551.36C288.059 552.725 288.4 553.152 289.936 552.981C296.249 552.299 302.476 552.469 308.704 553.664C343.34 560.318 366.289 592.736 360.403 628.055C355.455 657.999 329.691 680.863 298.979 681.716C295.993 681.716 293.007 681.887 290.021 682.398C265.878 686.238 249.669 710.381 255.214 734.268C260.077 755.425 278.674 767.966 297.016 767.88C305.548 767.88 313.737 769.501 321.671 772.828C345.9 782.81 364.668 808.147 360.915 840.566C359.038 856.689 351.701 870.254 339.501 881.003C327.814 891.24 314.079 896.7 298.467 896.871C296.163 896.871 293.945 897.127 291.642 897.468C272.703 899.686 257.261 915.042 254.702 933.896C254.105 938.588 254.446 943.366 253.764 948.058C249.157 982.353 220.748 1003.77 193.022 1004.45C165.722 1005.13 145.504 993.187 132.451 969.215C127.418 960.001 125.626 949.935 125.455 939.441C124.944 912.483 100.715 892.861 74.354 897.895C54.7325 901.648 39.9736 919.308 39.6324 939.271C39.3764 959.831 53.3675 977.661 73.0744 982.097V982.012Z" fill="#3D0072"/>
</g>
</svg>
