<svg width="22" height="23" viewBox="0 0 22 23" fill="none" xmlns="http://www.w3.org/2000/svg">
<path d="M10.8843 0.898437C4.92002 0.898437 0.0850716 5.73338 0.0850716 11.6977C0.0850716 17.6609 4.92002 22.4948 10.8843 22.4948C16.8487 22.4959 21.6836 17.6609 21.6836 11.6977C21.6836 5.73338 16.8487 0.898437 10.8843 0.898437ZM14.7043 14.7025C14.839 14.5393 15.0322 14.4352 15.2426 14.4126C15.453 14.39 15.6639 14.4507 15.8302 14.5817C15.9964 14.7126 16.1048 14.9035 16.1321 15.1133C16.1594 15.3232 16.1034 15.5354 15.9762 15.7045C15.3704 16.4756 14.5972 17.099 13.7151 17.5273C12.833 17.9557 11.865 18.1778 10.8843 18.177C8.87607 18.177 7.01789 17.256 5.79674 15.711C5.73081 15.6275 5.68196 15.5319 5.65298 15.4296C5.62399 15.3273 5.61545 15.2203 5.62783 15.1146C5.64021 15.009 5.67328 14.9069 5.72514 14.814C5.777 14.7212 5.84664 14.6394 5.93008 14.5735C6.01353 14.5076 6.10914 14.4587 6.21146 14.4297C6.31378 14.4008 6.42081 14.3922 6.52644 14.4046C6.63206 14.417 6.73421 14.45 6.82706 14.5019C6.9199 14.5538 7.00163 14.6234 7.06756 14.7069C7.52194 15.2844 8.10164 15.751 8.76285 16.0716C9.42407 16.3922 10.1495 16.5584 10.8843 16.5575C12.3938 16.5575 13.7888 15.8665 14.7043 14.7025ZM14.1235 8.18864C14.3038 8.18354 14.4834 8.21466 14.6516 8.28016C14.8197 8.34566 14.973 8.44422 15.1024 8.57C15.2318 8.69578 15.3346 8.84623 15.4049 9.01245C15.4751 9.17867 15.5113 9.35729 15.5113 9.53774C15.5113 9.71819 15.4751 9.8968 15.4049 10.063C15.3346 10.2292 15.2318 10.3797 15.1024 10.5055C14.973 10.6313 14.8197 10.7298 14.6516 10.7953C14.4834 10.8608 14.3038 10.8919 14.1235 10.8868C13.7723 10.8769 13.4388 10.7304 13.1939 10.4785C12.949 10.2266 12.812 9.88908 12.812 9.53774C12.812 9.1864 12.949 8.84891 13.1939 8.59699C13.4388 8.34507 13.7723 8.19858 14.1235 8.18864ZM7.6452 8.18864C7.82558 8.18354 8.00515 8.21466 8.17329 8.28016C8.34143 8.34566 8.49473 8.44422 8.62412 8.57C8.75351 8.69578 8.85636 8.84623 8.92659 9.01245C8.99682 9.17867 9.03301 9.35729 9.03301 9.53774C9.03301 9.71819 8.99682 9.8968 8.92659 10.063C8.85636 10.2292 8.75351 10.3797 8.62412 10.5055C8.49473 10.6313 8.34143 10.7298 8.17329 10.7953C8.00515 10.8608 7.82558 10.8919 7.6452 10.8868C7.29401 10.8769 6.96053 10.7304 6.71564 10.4785C6.47074 10.2266 6.33374 9.88908 6.33374 9.53774C6.33374 9.1864 6.47074 8.84891 6.71564 8.59699C6.96053 8.34507 7.29401 8.19858 7.6452 8.18864Z" fill="#240552"/>
</svg>
