<svg width="1112" height="220" viewBox="0 0 1112 220" fill="none" xmlns="http://www.w3.org/2000/svg">
<rect x="0.78125" y="1.31055" width="1110.44" height="218.016" rx="15.5" fill="#FAFAFA" stroke="#F5F5F5"/>
<g opacity="0.6" clip-path="url(#clip0_886_244602)">
<circle cx="22.7188" cy="6" r="3" fill="#F2F2F2"/>
<circle cx="44.7188" cy="6" r="3" fill="#F2F2F2"/>
<circle cx="66.7188" cy="6" r="3" fill="#F2F2F2"/>
<circle cx="88.7188" cy="6" r="3" fill="#F2F2F2"/>
<circle cx="110.719" cy="6" r="3" fill="#F2F2F2"/>
<circle cx="22.7188" cy="32" r="3" fill="#F2F2F2"/>
<circle cx="44.7188" cy="32" r="3" fill="#F2F2F2"/>
<circle cx="66.7188" cy="32" r="3" fill="#F2F2F2"/>
<circle cx="88.7188" cy="32" r="3" fill="#F2F2F2"/>
<circle cx="110.719" cy="32" r="3" fill="#F2F2F2"/>
<circle cx="22.7188" cy="58" r="3" fill="#F2F2F2"/>
<circle cx="44.7188" cy="58" r="3" fill="#F2F2F2"/>
<circle cx="66.7188" cy="58" r="3" fill="#F2F2F2"/>
<circle cx="88.7188" cy="58" r="3" fill="#F2F2F2"/>
<circle cx="110.719" cy="58" r="3" fill="#F2F2F2"/>
<circle cx="22.7188" cy="84" r="3" fill="#F2F2F2"/>
<circle cx="44.7188" cy="84" r="3" fill="#F2F2F2"/>
<circle cx="66.7188" cy="84" r="3" fill="#F2F2F2"/>
<circle cx="88.7188" cy="84" r="3" fill="#F2F2F2"/>
<circle cx="110.719" cy="84" r="3" fill="#F2F2F2"/>
<circle cx="22.7188" cy="110" r="3" fill="#F2F2F2"/>
<circle cx="44.7188" cy="110" r="3" fill="#F2F2F2"/>
<circle cx="66.7188" cy="110" r="3" fill="#F2F2F2"/>
<circle cx="88.7188" cy="110" r="3" fill="#F2F2F2"/>
<circle cx="110.719" cy="110" r="3" fill="#F2F2F2"/>
<circle cx="22.7188" cy="136" r="3" fill="#F2F2F2"/>
<circle cx="44.7188" cy="136" r="3" fill="#F2F2F2"/>
<circle cx="66.7188" cy="136" r="3" fill="#F2F2F2"/>
<circle cx="88.7188" cy="136" r="3" fill="#F2F2F2"/>
<circle cx="110.719" cy="136" r="3" fill="#F2F2F2"/>
<circle cx="22.7188" cy="162" r="3" fill="#F2F2F2"/>
<circle cx="44.7188" cy="162" r="3" fill="#F2F2F2"/>
<circle cx="66.7188" cy="162" r="3" fill="#F2F2F2"/>
<circle cx="88.7188" cy="162" r="3" fill="#F2F2F2"/>
<circle cx="110.719" cy="162" r="3" fill="#F2F2F2"/>
<circle cx="22.7188" cy="188" r="3" fill="#F2F2F2"/>
<circle cx="44.7188" cy="188" r="3" fill="#F2F2F2"/>
<circle cx="66.7188" cy="188" r="3" fill="#F2F2F2"/>
<circle cx="88.7188" cy="188" r="3" fill="#F2F2F2"/>
<circle cx="110.719" cy="188" r="3" fill="#F2F2F2"/>
<circle cx="22.7188" cy="214" r="3" fill="#F2F2F2"/>
<circle cx="44.7188" cy="214" r="3" fill="#F2F2F2"/>
<circle cx="66.7188" cy="214" r="3" fill="#F2F2F2"/>
<circle cx="88.7188" cy="214" r="3" fill="#F2F2F2"/>
<circle cx="110.719" cy="214" r="3" fill="#F2F2F2"/>
</g>
<g opacity="0.6" clip-path="url(#clip1_886_244602)">
<circle cx="122.117" cy="6" r="3" fill="#F2F2F2"/>
<circle cx="144.117" cy="6" r="3" fill="#F2F2F2"/>
<circle cx="166.117" cy="6" r="3" fill="#F2F2F2"/>
<circle cx="188.117" cy="6" r="3" fill="#F2F2F2"/>
<circle cx="210.117" cy="6" r="3" fill="#F2F2F2"/>
<circle cx="122.117" cy="32" r="3" fill="#F2F2F2"/>
<circle cx="144.117" cy="32" r="3" fill="#F2F2F2"/>
<circle cx="166.117" cy="32" r="3" fill="#F2F2F2"/>
<circle cx="188.117" cy="32" r="3" fill="#F2F2F2"/>
<circle cx="210.117" cy="32" r="3" fill="#F2F2F2"/>
<circle cx="122.117" cy="58" r="3" fill="#F2F2F2"/>
<circle cx="144.117" cy="58" r="3" fill="#F2F2F2"/>
<circle cx="166.117" cy="58" r="3" fill="#F2F2F2"/>
<circle cx="188.117" cy="58" r="3" fill="#F2F2F2"/>
<circle cx="210.117" cy="58" r="3" fill="#F2F2F2"/>
<circle cx="122.117" cy="84" r="3" fill="#F2F2F2"/>
<circle cx="144.117" cy="84" r="3" fill="#F2F2F2"/>
<circle cx="166.117" cy="84" r="3" fill="#F2F2F2"/>
<circle cx="188.117" cy="84" r="3" fill="#F2F2F2"/>
<circle cx="210.117" cy="84" r="3" fill="#F2F2F2"/>
<circle cx="122.117" cy="110" r="3" fill="#F2F2F2"/>
<circle cx="144.117" cy="110" r="3" fill="#F2F2F2"/>
<circle cx="166.117" cy="110" r="3" fill="#F2F2F2"/>
<circle cx="188.117" cy="110" r="3" fill="#F2F2F2"/>
<circle cx="210.117" cy="110" r="3" fill="#F2F2F2"/>
<circle cx="122.117" cy="136" r="3" fill="#F2F2F2"/>
<circle cx="144.117" cy="136" r="3" fill="#F2F2F2"/>
<circle cx="166.117" cy="136" r="3" fill="#F2F2F2"/>
<circle cx="188.117" cy="136" r="3" fill="#F2F2F2"/>
<circle cx="210.117" cy="136" r="3" fill="#F2F2F2"/>
<circle cx="122.117" cy="162" r="3" fill="#F2F2F2"/>
<circle cx="144.117" cy="162" r="3" fill="#F2F2F2"/>
<circle cx="166.117" cy="162" r="3" fill="#F2F2F2"/>
<circle cx="188.117" cy="162" r="3" fill="#F2F2F2"/>
<circle cx="210.117" cy="162" r="3" fill="#F2F2F2"/>
<circle cx="122.117" cy="188" r="3" fill="#F2F2F2"/>
<circle cx="144.117" cy="188" r="3" fill="#F2F2F2"/>
<circle cx="166.117" cy="188" r="3" fill="#F2F2F2"/>
<circle cx="188.117" cy="188" r="3" fill="#F2F2F2"/>
<circle cx="210.117" cy="188" r="3" fill="#F2F2F2"/>
<circle cx="122.117" cy="214" r="3" fill="#F2F2F2"/>
<circle cx="144.117" cy="214" r="3" fill="#F2F2F2"/>
<circle cx="166.117" cy="214" r="3" fill="#F2F2F2"/>
<circle cx="188.117" cy="214" r="3" fill="#F2F2F2"/>
<circle cx="210.117" cy="214" r="3" fill="#F2F2F2"/>
</g>
<g opacity="0.6" clip-path="url(#clip2_886_244602)">
<circle cx="221.516" cy="6" r="3" fill="#F2F2F2"/>
<circle cx="243.516" cy="6" r="3" fill="#F2F2F2"/>
<circle cx="265.516" cy="6" r="3" fill="#F2F2F2"/>
<circle cx="287.516" cy="6" r="3" fill="#F2F2F2"/>
<circle cx="309.516" cy="6" r="3" fill="#F2F2F2"/>
<circle cx="221.516" cy="32" r="3" fill="#F2F2F2"/>
<circle cx="243.516" cy="32" r="3" fill="#F2F2F2"/>
<circle cx="265.516" cy="32" r="3" fill="#F2F2F2"/>
<circle cx="287.516" cy="32" r="3" fill="#F2F2F2"/>
<circle cx="309.516" cy="32" r="3" fill="#F2F2F2"/>
<circle cx="221.516" cy="58" r="3" fill="#F2F2F2"/>
<circle cx="243.516" cy="58" r="3" fill="#F2F2F2"/>
<circle cx="265.516" cy="58" r="3" fill="#F2F2F2"/>
<circle cx="287.516" cy="58" r="3" fill="#F2F2F2"/>
<circle cx="309.516" cy="58" r="3" fill="#F2F2F2"/>
<circle cx="221.516" cy="84" r="3" fill="#F2F2F2"/>
<circle cx="243.516" cy="84" r="3" fill="#F2F2F2"/>
<circle cx="265.516" cy="84" r="3" fill="#F2F2F2"/>
<circle cx="287.516" cy="84" r="3" fill="#F2F2F2"/>
<circle cx="309.516" cy="84" r="3" fill="#F2F2F2"/>
<circle cx="221.516" cy="110" r="3" fill="#F2F2F2"/>
<circle cx="243.516" cy="110" r="3" fill="#F2F2F2"/>
<circle cx="265.516" cy="110" r="3" fill="#F2F2F2"/>
<circle cx="287.516" cy="110" r="3" fill="#F2F2F2"/>
<circle cx="309.516" cy="110" r="3" fill="#F2F2F2"/>
<circle cx="221.516" cy="136" r="3" fill="#F2F2F2"/>
<circle cx="243.516" cy="136" r="3" fill="#F2F2F2"/>
<circle cx="265.516" cy="136" r="3" fill="#F2F2F2"/>
<circle cx="287.516" cy="136" r="3" fill="#F2F2F2"/>
<circle cx="309.516" cy="136" r="3" fill="#F2F2F2"/>
<circle cx="221.516" cy="162" r="3" fill="#F2F2F2"/>
<circle cx="243.516" cy="162" r="3" fill="#F2F2F2"/>
<circle cx="265.516" cy="162" r="3" fill="#F2F2F2"/>
<circle cx="287.516" cy="162" r="3" fill="#F2F2F2"/>
<circle cx="309.516" cy="162" r="3" fill="#F2F2F2"/>
<circle cx="221.516" cy="188" r="3" fill="#F2F2F2"/>
<circle cx="243.516" cy="188" r="3" fill="#F2F2F2"/>
<circle cx="265.516" cy="188" r="3" fill="#F2F2F2"/>
<circle cx="287.516" cy="188" r="3" fill="#F2F2F2"/>
<circle cx="309.516" cy="188" r="3" fill="#F2F2F2"/>
<circle cx="221.516" cy="214" r="3" fill="#F2F2F2"/>
<circle cx="243.516" cy="214" r="3" fill="#F2F2F2"/>
<circle cx="265.516" cy="214" r="3" fill="#F2F2F2"/>
<circle cx="287.516" cy="214" r="3" fill="#F2F2F2"/>
<circle cx="309.516" cy="214" r="3" fill="#F2F2F2"/>
</g>
<g opacity="0.6" clip-path="url(#clip3_886_244602)">
<circle cx="320.914" cy="6" r="3" fill="#F2F2F2"/>
<circle cx="342.914" cy="6" r="3" fill="#F2F2F2"/>
<circle cx="364.914" cy="6" r="3" fill="#F2F2F2"/>
<circle cx="386.914" cy="6" r="3" fill="#F2F2F2"/>
<circle cx="408.914" cy="6" r="3" fill="#F2F2F2"/>
<circle cx="320.914" cy="32" r="3" fill="#F2F2F2"/>
<circle cx="342.914" cy="32" r="3" fill="#F2F2F2"/>
<circle cx="364.914" cy="32" r="3" fill="#F2F2F2"/>
<circle cx="386.914" cy="32" r="3" fill="#F2F2F2"/>
<circle cx="408.914" cy="32" r="3" fill="#F2F2F2"/>
<circle cx="320.914" cy="58" r="3" fill="#F2F2F2"/>
<circle cx="342.914" cy="58" r="3" fill="#F2F2F2"/>
<circle cx="364.914" cy="58" r="3" fill="#F2F2F2"/>
<circle cx="386.914" cy="58" r="3" fill="#F2F2F2"/>
<circle cx="408.914" cy="58" r="3" fill="#F2F2F2"/>
<circle cx="320.914" cy="84" r="3" fill="#F2F2F2"/>
<circle cx="342.914" cy="84" r="3" fill="#F2F2F2"/>
<circle cx="364.914" cy="84" r="3" fill="#F2F2F2"/>
<circle cx="386.914" cy="84" r="3" fill="#F2F2F2"/>
<circle cx="408.914" cy="84" r="3" fill="#F2F2F2"/>
<circle cx="320.914" cy="110" r="3" fill="#F2F2F2"/>
<circle cx="342.914" cy="110" r="3" fill="#F2F2F2"/>
<circle cx="364.914" cy="110" r="3" fill="#F2F2F2"/>
<circle cx="386.914" cy="110" r="3" fill="#F2F2F2"/>
<circle cx="408.914" cy="110" r="3" fill="#F2F2F2"/>
<circle cx="320.914" cy="136" r="3" fill="#F2F2F2"/>
<circle cx="342.914" cy="136" r="3" fill="#F2F2F2"/>
<circle cx="364.914" cy="136" r="3" fill="#F2F2F2"/>
<circle cx="386.914" cy="136" r="3" fill="#F2F2F2"/>
<circle cx="408.914" cy="136" r="3" fill="#F2F2F2"/>
<circle cx="320.914" cy="162" r="3" fill="#F2F2F2"/>
<circle cx="342.914" cy="162" r="3" fill="#F2F2F2"/>
<circle cx="364.914" cy="162" r="3" fill="#F2F2F2"/>
<circle cx="386.914" cy="162" r="3" fill="#F2F2F2"/>
<circle cx="408.914" cy="162" r="3" fill="#F2F2F2"/>
<circle cx="320.914" cy="188" r="3" fill="#F2F2F2"/>
<circle cx="342.914" cy="188" r="3" fill="#F2F2F2"/>
<circle cx="364.914" cy="188" r="3" fill="#F2F2F2"/>
<circle cx="386.914" cy="188" r="3" fill="#F2F2F2"/>
<circle cx="408.914" cy="188" r="3" fill="#F2F2F2"/>
<circle cx="320.914" cy="214" r="3" fill="#F2F2F2"/>
<circle cx="342.914" cy="214" r="3" fill="#F2F2F2"/>
<circle cx="364.914" cy="214" r="3" fill="#F2F2F2"/>
<circle cx="386.914" cy="214" r="3" fill="#F2F2F2"/>
<circle cx="408.914" cy="214" r="3" fill="#F2F2F2"/>
</g>
<g opacity="0.6" clip-path="url(#clip4_886_244602)">
<circle cx="420.312" cy="6" r="3" fill="#F2F2F2"/>
<circle cx="442.312" cy="6" r="3" fill="#F2F2F2"/>
<circle cx="464.312" cy="6" r="3" fill="#F2F2F2"/>
<circle cx="486.312" cy="6" r="3" fill="#F2F2F2"/>
<circle cx="508.312" cy="6" r="3" fill="#F2F2F2"/>
<circle cx="420.312" cy="32" r="3" fill="#F2F2F2"/>
<circle cx="442.312" cy="32" r="3" fill="#F2F2F2"/>
<circle cx="464.312" cy="32" r="3" fill="#F2F2F2"/>
<circle cx="486.312" cy="32" r="3" fill="#F2F2F2"/>
<circle cx="508.312" cy="32" r="3" fill="#F2F2F2"/>
<circle cx="420.312" cy="58" r="3" fill="#F2F2F2"/>
<circle cx="442.312" cy="58" r="3" fill="#F2F2F2"/>
<circle cx="464.312" cy="58" r="3" fill="#F2F2F2"/>
<circle cx="486.312" cy="58" r="3" fill="#F2F2F2"/>
<circle cx="508.312" cy="58" r="3" fill="#F2F2F2"/>
<circle cx="420.312" cy="84" r="3" fill="#F2F2F2"/>
<circle cx="442.312" cy="84" r="3" fill="#F2F2F2"/>
<circle cx="464.312" cy="84" r="3" fill="#F2F2F2"/>
<circle cx="486.312" cy="84" r="3" fill="#F2F2F2"/>
<circle cx="508.312" cy="84" r="3" fill="#F2F2F2"/>
<circle cx="420.312" cy="110" r="3" fill="#F2F2F2"/>
<circle cx="442.312" cy="110" r="3" fill="#F2F2F2"/>
<circle cx="464.312" cy="110" r="3" fill="#F2F2F2"/>
<circle cx="486.312" cy="110" r="3" fill="#F2F2F2"/>
<circle cx="508.312" cy="110" r="3" fill="#F2F2F2"/>
<circle cx="420.312" cy="136" r="3" fill="#F2F2F2"/>
<circle cx="442.312" cy="136" r="3" fill="#F2F2F2"/>
<circle cx="464.312" cy="136" r="3" fill="#F2F2F2"/>
<circle cx="486.312" cy="136" r="3" fill="#F2F2F2"/>
<circle cx="508.312" cy="136" r="3" fill="#F2F2F2"/>
<circle cx="420.312" cy="162" r="3" fill="#F2F2F2"/>
<circle cx="442.312" cy="162" r="3" fill="#F2F2F2"/>
<circle cx="464.312" cy="162" r="3" fill="#F2F2F2"/>
<circle cx="486.312" cy="162" r="3" fill="#F2F2F2"/>
<circle cx="508.312" cy="162" r="3" fill="#F2F2F2"/>
<circle cx="420.312" cy="188" r="3" fill="#F2F2F2"/>
<circle cx="442.312" cy="188" r="3" fill="#F2F2F2"/>
<circle cx="464.312" cy="188" r="3" fill="#F2F2F2"/>
<circle cx="486.312" cy="188" r="3" fill="#F2F2F2"/>
<circle cx="508.312" cy="188" r="3" fill="#F2F2F2"/>
<circle cx="420.312" cy="214" r="3" fill="#F2F2F2"/>
<circle cx="442.312" cy="214" r="3" fill="#F2F2F2"/>
<circle cx="464.312" cy="214" r="3" fill="#F2F2F2"/>
<circle cx="486.312" cy="214" r="3" fill="#F2F2F2"/>
<circle cx="508.312" cy="214" r="3" fill="#F2F2F2"/>
</g>
<g opacity="0.6" clip-path="url(#clip5_886_244602)">
<circle cx="519.711" cy="6" r="3" fill="#F2F2F2"/>
<circle cx="541.711" cy="6" r="3" fill="#F2F2F2"/>
<circle cx="563.711" cy="6" r="3" fill="#F2F2F2"/>
<circle cx="585.711" cy="6" r="3" fill="#F2F2F2"/>
<circle cx="607.711" cy="6" r="3" fill="#F2F2F2"/>
<circle cx="519.711" cy="32" r="3" fill="#F2F2F2"/>
<circle cx="541.711" cy="32" r="3" fill="#F2F2F2"/>
<circle cx="563.711" cy="32" r="3" fill="#F2F2F2"/>
<circle cx="585.711" cy="32" r="3" fill="#F2F2F2"/>
<circle cx="607.711" cy="32" r="3" fill="#F2F2F2"/>
<circle cx="519.711" cy="58" r="3" fill="#F2F2F2"/>
<circle cx="541.711" cy="58" r="3" fill="#F2F2F2"/>
<circle cx="563.711" cy="58" r="3" fill="#F2F2F2"/>
<circle cx="585.711" cy="58" r="3" fill="#F2F2F2"/>
<circle cx="607.711" cy="58" r="3" fill="#F2F2F2"/>
<circle cx="519.711" cy="84" r="3" fill="#F2F2F2"/>
<circle cx="541.711" cy="84" r="3" fill="#F2F2F2"/>
<circle cx="563.711" cy="84" r="3" fill="#F2F2F2"/>
<circle cx="585.711" cy="84" r="3" fill="#F2F2F2"/>
<circle cx="607.711" cy="84" r="3" fill="#F2F2F2"/>
<circle cx="519.711" cy="110" r="3" fill="#F2F2F2"/>
<circle cx="541.711" cy="110" r="3" fill="#F2F2F2"/>
<circle cx="563.711" cy="110" r="3" fill="#F2F2F2"/>
<circle cx="585.711" cy="110" r="3" fill="#F2F2F2"/>
<circle cx="607.711" cy="110" r="3" fill="#F2F2F2"/>
<circle cx="519.711" cy="136" r="3" fill="#F2F2F2"/>
<circle cx="541.711" cy="136" r="3" fill="#F2F2F2"/>
<circle cx="563.711" cy="136" r="3" fill="#F2F2F2"/>
<circle cx="585.711" cy="136" r="3" fill="#F2F2F2"/>
<circle cx="607.711" cy="136" r="3" fill="#F2F2F2"/>
<circle cx="519.711" cy="162" r="3" fill="#F2F2F2"/>
<circle cx="541.711" cy="162" r="3" fill="#F2F2F2"/>
<circle cx="563.711" cy="162" r="3" fill="#F2F2F2"/>
<circle cx="585.711" cy="162" r="3" fill="#F2F2F2"/>
<circle cx="607.711" cy="162" r="3" fill="#F2F2F2"/>
<circle cx="519.711" cy="188" r="3" fill="#F2F2F2"/>
<circle cx="541.711" cy="188" r="3" fill="#F2F2F2"/>
<circle cx="563.711" cy="188" r="3" fill="#F2F2F2"/>
<circle cx="585.711" cy="188" r="3" fill="#F2F2F2"/>
<circle cx="607.711" cy="188" r="3" fill="#F2F2F2"/>
<circle cx="519.711" cy="214" r="3" fill="#F2F2F2"/>
<circle cx="541.711" cy="214" r="3" fill="#F2F2F2"/>
<circle cx="563.711" cy="214" r="3" fill="#F2F2F2"/>
<circle cx="585.711" cy="214" r="3" fill="#F2F2F2"/>
<circle cx="607.711" cy="214" r="3" fill="#F2F2F2"/>
</g>
<g opacity="0.6" clip-path="url(#clip6_886_244602)">
<circle cx="619.109" cy="6" r="3" fill="#F2F2F2"/>
<circle cx="641.109" cy="6" r="3" fill="#F2F2F2"/>
<circle cx="663.109" cy="6" r="3" fill="#F2F2F2"/>
<circle cx="685.109" cy="6" r="3" fill="#F2F2F2"/>
<circle cx="707.109" cy="6" r="3" fill="#F2F2F2"/>
<circle cx="619.109" cy="32" r="3" fill="#F2F2F2"/>
<circle cx="641.109" cy="32" r="3" fill="#F2F2F2"/>
<circle cx="663.109" cy="32" r="3" fill="#F2F2F2"/>
<circle cx="685.109" cy="32" r="3" fill="#F2F2F2"/>
<circle cx="707.109" cy="32" r="3" fill="#F2F2F2"/>
<circle cx="619.109" cy="58" r="3" fill="#F2F2F2"/>
<circle cx="641.109" cy="58" r="3" fill="#F2F2F2"/>
<circle cx="663.109" cy="58" r="3" fill="#F2F2F2"/>
<circle cx="685.109" cy="58" r="3" fill="#F2F2F2"/>
<circle cx="707.109" cy="58" r="3" fill="#F2F2F2"/>
<circle cx="619.109" cy="84" r="3" fill="#F2F2F2"/>
<circle cx="641.109" cy="84" r="3" fill="#F2F2F2"/>
<circle cx="663.109" cy="84" r="3" fill="#F2F2F2"/>
<circle cx="685.109" cy="84" r="3" fill="#F2F2F2"/>
<circle cx="707.109" cy="84" r="3" fill="#F2F2F2"/>
<circle cx="619.109" cy="110" r="3" fill="#F2F2F2"/>
<circle cx="641.109" cy="110" r="3" fill="#F2F2F2"/>
<circle cx="663.109" cy="110" r="3" fill="#F2F2F2"/>
<circle cx="685.109" cy="110" r="3" fill="#F2F2F2"/>
<circle cx="707.109" cy="110" r="3" fill="#F2F2F2"/>
<circle cx="619.109" cy="136" r="3" fill="#F2F2F2"/>
<circle cx="641.109" cy="136" r="3" fill="#F2F2F2"/>
<circle cx="663.109" cy="136" r="3" fill="#F2F2F2"/>
<circle cx="685.109" cy="136" r="3" fill="#F2F2F2"/>
<circle cx="707.109" cy="136" r="3" fill="#F2F2F2"/>
<circle cx="619.109" cy="162" r="3" fill="#F2F2F2"/>
<circle cx="641.109" cy="162" r="3" fill="#F2F2F2"/>
<circle cx="663.109" cy="162" r="3" fill="#F2F2F2"/>
<circle cx="685.109" cy="162" r="3" fill="#F2F2F2"/>
<circle cx="707.109" cy="162" r="3" fill="#F2F2F2"/>
<circle cx="619.109" cy="188" r="3" fill="#F2F2F2"/>
<circle cx="641.109" cy="188" r="3" fill="#F2F2F2"/>
<circle cx="663.109" cy="188" r="3" fill="#F2F2F2"/>
<circle cx="685.109" cy="188" r="3" fill="#F2F2F2"/>
<circle cx="707.109" cy="188" r="3" fill="#F2F2F2"/>
<circle cx="619.109" cy="214" r="3" fill="#F2F2F2"/>
<circle cx="641.109" cy="214" r="3" fill="#F2F2F2"/>
<circle cx="663.109" cy="214" r="3" fill="#F2F2F2"/>
<circle cx="685.109" cy="214" r="3" fill="#F2F2F2"/>
<circle cx="707.109" cy="214" r="3" fill="#F2F2F2"/>
</g>
<g opacity="0.6" clip-path="url(#clip7_886_244602)">
<circle cx="718.508" cy="6" r="3" fill="#F2F2F2"/>
<circle cx="740.508" cy="6" r="3" fill="#F2F2F2"/>
<circle cx="762.508" cy="6" r="3" fill="#F2F2F2"/>
<circle cx="784.508" cy="6" r="3" fill="#F2F2F2"/>
<circle cx="806.508" cy="6" r="3" fill="#F2F2F2"/>
<circle cx="718.508" cy="32" r="3" fill="#F2F2F2"/>
<circle cx="740.508" cy="32" r="3" fill="#F2F2F2"/>
<circle cx="762.508" cy="32" r="3" fill="#F2F2F2"/>
<circle cx="784.508" cy="32" r="3" fill="#F2F2F2"/>
<circle cx="806.508" cy="32" r="3" fill="#F2F2F2"/>
<circle cx="718.508" cy="58" r="3" fill="#F2F2F2"/>
<circle cx="740.508" cy="58" r="3" fill="#F2F2F2"/>
<circle cx="762.508" cy="58" r="3" fill="#F2F2F2"/>
<circle cx="784.508" cy="58" r="3" fill="#F2F2F2"/>
<circle cx="806.508" cy="58" r="3" fill="#F2F2F2"/>
<circle cx="718.508" cy="84" r="3" fill="#F2F2F2"/>
<circle cx="740.508" cy="84" r="3" fill="#F2F2F2"/>
<circle cx="762.508" cy="84" r="3" fill="#F2F2F2"/>
<circle cx="784.508" cy="84" r="3" fill="#F2F2F2"/>
<circle cx="806.508" cy="84" r="3" fill="#F2F2F2"/>
<circle cx="718.508" cy="110" r="3" fill="#F2F2F2"/>
<circle cx="740.508" cy="110" r="3" fill="#F2F2F2"/>
<circle cx="762.508" cy="110" r="3" fill="#F2F2F2"/>
<circle cx="784.508" cy="110" r="3" fill="#F2F2F2"/>
<circle cx="806.508" cy="110" r="3" fill="#F2F2F2"/>
<circle cx="718.508" cy="136" r="3" fill="#F2F2F2"/>
<circle cx="740.508" cy="136" r="3" fill="#F2F2F2"/>
<circle cx="762.508" cy="136" r="3" fill="#F2F2F2"/>
<circle cx="784.508" cy="136" r="3" fill="#F2F2F2"/>
<circle cx="806.508" cy="136" r="3" fill="#F2F2F2"/>
<circle cx="718.508" cy="162" r="3" fill="#F2F2F2"/>
<circle cx="740.508" cy="162" r="3" fill="#F2F2F2"/>
<circle cx="762.508" cy="162" r="3" fill="#F2F2F2"/>
<circle cx="784.508" cy="162" r="3" fill="#F2F2F2"/>
<circle cx="806.508" cy="162" r="3" fill="#F2F2F2"/>
<circle cx="718.508" cy="188" r="3" fill="#F2F2F2"/>
<circle cx="740.508" cy="188" r="3" fill="#F2F2F2"/>
<circle cx="762.508" cy="188" r="3" fill="#F2F2F2"/>
<circle cx="784.508" cy="188" r="3" fill="#F2F2F2"/>
<circle cx="806.508" cy="188" r="3" fill="#F2F2F2"/>
<circle cx="718.508" cy="214" r="3" fill="#F2F2F2"/>
<circle cx="740.508" cy="214" r="3" fill="#F2F2F2"/>
<circle cx="762.508" cy="214" r="3" fill="#F2F2F2"/>
<circle cx="784.508" cy="214" r="3" fill="#F2F2F2"/>
<circle cx="806.508" cy="214" r="3" fill="#F2F2F2"/>
</g>
<g opacity="0.6" clip-path="url(#clip8_886_244602)">
<circle cx="817.906" cy="6" r="3" fill="#F2F2F2"/>
<circle cx="839.906" cy="6" r="3" fill="#F2F2F2"/>
<circle cx="861.906" cy="6" r="3" fill="#F2F2F2"/>
<circle cx="883.906" cy="6" r="3" fill="#F2F2F2"/>
<circle cx="905.906" cy="6" r="3" fill="#F2F2F2"/>
<circle cx="817.906" cy="32" r="3" fill="#F2F2F2"/>
<circle cx="839.906" cy="32" r="3" fill="#F2F2F2"/>
<circle cx="861.906" cy="32" r="3" fill="#F2F2F2"/>
<circle cx="883.906" cy="32" r="3" fill="#F2F2F2"/>
<circle cx="905.906" cy="32" r="3" fill="#F2F2F2"/>
<circle cx="817.906" cy="58" r="3" fill="#F2F2F2"/>
<circle cx="839.906" cy="58" r="3" fill="#F2F2F2"/>
<circle cx="861.906" cy="58" r="3" fill="#F2F2F2"/>
<circle cx="883.906" cy="58" r="3" fill="#F2F2F2"/>
<circle cx="905.906" cy="58" r="3" fill="#F2F2F2"/>
<circle cx="817.906" cy="84" r="3" fill="#F2F2F2"/>
<circle cx="839.906" cy="84" r="3" fill="#F2F2F2"/>
<circle cx="861.906" cy="84" r="3" fill="#F2F2F2"/>
<circle cx="883.906" cy="84" r="3" fill="#F2F2F2"/>
<circle cx="905.906" cy="84" r="3" fill="#F2F2F2"/>
<circle cx="817.906" cy="110" r="3" fill="#F2F2F2"/>
<circle cx="839.906" cy="110" r="3" fill="#F2F2F2"/>
<circle cx="861.906" cy="110" r="3" fill="#F2F2F2"/>
<circle cx="883.906" cy="110" r="3" fill="#F2F2F2"/>
<circle cx="905.906" cy="110" r="3" fill="#F2F2F2"/>
<circle cx="817.906" cy="136" r="3" fill="#F2F2F2"/>
<circle cx="839.906" cy="136" r="3" fill="#F2F2F2"/>
<circle cx="861.906" cy="136" r="3" fill="#F2F2F2"/>
<circle cx="883.906" cy="136" r="3" fill="#F2F2F2"/>
<circle cx="905.906" cy="136" r="3" fill="#F2F2F2"/>
<circle cx="817.906" cy="162" r="3" fill="#F2F2F2"/>
<circle cx="839.906" cy="162" r="3" fill="#F2F2F2"/>
<circle cx="861.906" cy="162" r="3" fill="#F2F2F2"/>
<circle cx="883.906" cy="162" r="3" fill="#F2F2F2"/>
<circle cx="905.906" cy="162" r="3" fill="#F2F2F2"/>
<circle cx="817.906" cy="188" r="3" fill="#F2F2F2"/>
<circle cx="839.906" cy="188" r="3" fill="#F2F2F2"/>
<circle cx="861.906" cy="188" r="3" fill="#F2F2F2"/>
<circle cx="883.906" cy="188" r="3" fill="#F2F2F2"/>
<circle cx="905.906" cy="188" r="3" fill="#F2F2F2"/>
<circle cx="817.906" cy="214" r="3" fill="#F2F2F2"/>
<circle cx="839.906" cy="214" r="3" fill="#F2F2F2"/>
<circle cx="861.906" cy="214" r="3" fill="#F2F2F2"/>
<circle cx="883.906" cy="214" r="3" fill="#F2F2F2"/>
<circle cx="905.906" cy="214" r="3" fill="#F2F2F2"/>
</g>
<g opacity="0.6" clip-path="url(#clip9_886_244602)">
<circle cx="917.305" cy="6" r="3" fill="#F2F2F2"/>
<circle cx="939.305" cy="6" r="3" fill="#F2F2F2"/>
<circle cx="961.305" cy="6" r="3" fill="#F2F2F2"/>
<circle cx="983.305" cy="6" r="3" fill="#F2F2F2"/>
<circle cx="1005.3" cy="6" r="3" fill="#F2F2F2"/>
<circle cx="917.305" cy="32" r="3" fill="#F2F2F2"/>
<circle cx="939.305" cy="32" r="3" fill="#F2F2F2"/>
<circle cx="961.305" cy="32" r="3" fill="#F2F2F2"/>
<circle cx="983.305" cy="32" r="3" fill="#F2F2F2"/>
<circle cx="1005.3" cy="32" r="3" fill="#F2F2F2"/>
<circle cx="917.305" cy="58" r="3" fill="#F2F2F2"/>
<circle cx="939.305" cy="58" r="3" fill="#F2F2F2"/>
<circle cx="961.305" cy="58" r="3" fill="#F2F2F2"/>
<circle cx="983.305" cy="58" r="3" fill="#F2F2F2"/>
<circle cx="1005.3" cy="58" r="3" fill="#F2F2F2"/>
<circle cx="917.305" cy="84" r="3" fill="#F2F2F2"/>
<circle cx="939.305" cy="84" r="3" fill="#F2F2F2"/>
<circle cx="961.305" cy="84" r="3" fill="#F2F2F2"/>
<circle cx="983.305" cy="84" r="3" fill="#F2F2F2"/>
<circle cx="1005.3" cy="84" r="3" fill="#F2F2F2"/>
<circle cx="917.305" cy="110" r="3" fill="#F2F2F2"/>
<circle cx="939.305" cy="110" r="3" fill="#F2F2F2"/>
<circle cx="961.305" cy="110" r="3" fill="#F2F2F2"/>
<circle cx="983.305" cy="110" r="3" fill="#F2F2F2"/>
<circle cx="1005.3" cy="110" r="3" fill="#F2F2F2"/>
<circle cx="917.305" cy="136" r="3" fill="#F2F2F2"/>
<circle cx="939.305" cy="136" r="3" fill="#F2F2F2"/>
<circle cx="961.305" cy="136" r="3" fill="#F2F2F2"/>
<circle cx="983.305" cy="136" r="3" fill="#F2F2F2"/>
<circle cx="1005.3" cy="136" r="3" fill="#F2F2F2"/>
<circle cx="917.305" cy="162" r="3" fill="#F2F2F2"/>
<circle cx="939.305" cy="162" r="3" fill="#F2F2F2"/>
<circle cx="961.305" cy="162" r="3" fill="#F2F2F2"/>
<circle cx="983.305" cy="162" r="3" fill="#F2F2F2"/>
<circle cx="1005.3" cy="162" r="3" fill="#F2F2F2"/>
<circle cx="917.305" cy="188" r="3" fill="#F2F2F2"/>
<circle cx="939.305" cy="188" r="3" fill="#F2F2F2"/>
<circle cx="961.305" cy="188" r="3" fill="#F2F2F2"/>
<circle cx="983.305" cy="188" r="3" fill="#F2F2F2"/>
<circle cx="1005.3" cy="188" r="3" fill="#F2F2F2"/>
<circle cx="917.305" cy="214" r="3" fill="#F2F2F2"/>
<circle cx="939.305" cy="214" r="3" fill="#F2F2F2"/>
<circle cx="961.305" cy="214" r="3" fill="#F2F2F2"/>
<circle cx="983.305" cy="214" r="3" fill="#F2F2F2"/>
<circle cx="1005.3" cy="214" r="3" fill="#F2F2F2"/>
</g>
<g opacity="0.6" clip-path="url(#clip10_886_244602)">
<circle cx="1016.7" cy="6" r="3" fill="#F2F2F2"/>
<circle cx="1038.7" cy="6" r="3" fill="#F2F2F2"/>
<circle cx="1060.7" cy="6" r="3" fill="#F2F2F2"/>
<circle cx="1082.7" cy="6" r="3" fill="#F2F2F2"/>
<circle cx="1104.7" cy="6" r="3" fill="#F2F2F2"/>
<circle cx="1016.7" cy="32" r="3" fill="#F2F2F2"/>
<circle cx="1038.7" cy="32" r="3" fill="#F2F2F2"/>
<circle cx="1060.7" cy="32" r="3" fill="#F2F2F2"/>
<circle cx="1082.7" cy="32" r="3" fill="#F2F2F2"/>
<circle cx="1104.7" cy="32" r="3" fill="#F2F2F2"/>
<circle cx="1016.7" cy="58" r="3" fill="#F2F2F2"/>
<circle cx="1038.7" cy="58" r="3" fill="#F2F2F2"/>
<circle cx="1060.7" cy="58" r="3" fill="#F2F2F2"/>
<circle cx="1082.7" cy="58" r="3" fill="#F2F2F2"/>
<circle cx="1104.7" cy="58" r="3" fill="#F2F2F2"/>
<circle cx="1016.7" cy="84" r="3" fill="#F2F2F2"/>
<circle cx="1038.7" cy="84" r="3" fill="#F2F2F2"/>
<circle cx="1060.7" cy="84" r="3" fill="#F2F2F2"/>
<circle cx="1082.7" cy="84" r="3" fill="#F2F2F2"/>
<circle cx="1104.7" cy="84" r="3" fill="#F2F2F2"/>
<circle cx="1016.7" cy="110" r="3" fill="#F2F2F2"/>
<circle cx="1038.7" cy="110" r="3" fill="#F2F2F2"/>
<circle cx="1060.7" cy="110" r="3" fill="#F2F2F2"/>
<circle cx="1082.7" cy="110" r="3" fill="#F2F2F2"/>
<circle cx="1104.7" cy="110" r="3" fill="#F2F2F2"/>
<circle cx="1016.7" cy="136" r="3" fill="#F2F2F2"/>
<circle cx="1038.7" cy="136" r="3" fill="#F2F2F2"/>
<circle cx="1060.7" cy="136" r="3" fill="#F2F2F2"/>
<circle cx="1082.7" cy="136" r="3" fill="#F2F2F2"/>
<circle cx="1104.7" cy="136" r="3" fill="#F2F2F2"/>
<circle cx="1016.7" cy="162" r="3" fill="#F2F2F2"/>
<circle cx="1038.7" cy="162" r="3" fill="#F2F2F2"/>
<circle cx="1060.7" cy="162" r="3" fill="#F2F2F2"/>
<circle cx="1082.7" cy="162" r="3" fill="#F2F2F2"/>
<circle cx="1104.7" cy="162" r="3" fill="#F2F2F2"/>
<circle cx="1016.7" cy="188" r="3" fill="#F2F2F2"/>
<circle cx="1038.7" cy="188" r="3" fill="#F2F2F2"/>
<circle cx="1060.7" cy="188" r="3" fill="#F2F2F2"/>
<circle cx="1082.7" cy="188" r="3" fill="#F2F2F2"/>
<circle cx="1104.7" cy="188" r="3" fill="#F2F2F2"/>
<circle cx="1016.7" cy="214" r="3" fill="#F2F2F2"/>
<circle cx="1038.7" cy="214" r="3" fill="#F2F2F2"/>
<circle cx="1060.7" cy="214" r="3" fill="#F2F2F2"/>
<circle cx="1082.7" cy="214" r="3" fill="#F2F2F2"/>
<circle cx="1104.7" cy="214" r="3" fill="#F2F2F2"/>
</g>
<circle cx="505.117" cy="13" r="3" fill="#F2F2F2"/>
<defs>
<clipPath id="clip0_886_244602">
<rect width="94" height="217" fill="white" transform="translate(19.7188 3)"/>
</clipPath>
<clipPath id="clip1_886_244602">
<rect width="94" height="217" fill="white" transform="translate(119.117 3)"/>
</clipPath>
<clipPath id="clip2_886_244602">
<rect width="94" height="217" fill="white" transform="translate(218.516 3)"/>
</clipPath>
<clipPath id="clip3_886_244602">
<rect width="94" height="217" fill="white" transform="translate(317.914 3)"/>
</clipPath>
<clipPath id="clip4_886_244602">
<rect width="94" height="217" fill="white" transform="translate(417.312 3)"/>
</clipPath>
<clipPath id="clip5_886_244602">
<rect width="94" height="217" fill="white" transform="translate(516.711 3)"/>
</clipPath>
<clipPath id="clip6_886_244602">
<rect width="94" height="217" fill="white" transform="translate(616.109 3)"/>
</clipPath>
<clipPath id="clip7_886_244602">
<rect width="94" height="217" fill="white" transform="translate(715.508 3)"/>
</clipPath>
<clipPath id="clip8_886_244602">
<rect width="94" height="217" fill="white" transform="translate(814.906 3)"/>
</clipPath>
<clipPath id="clip9_886_244602">
<rect width="94" height="217" fill="white" transform="translate(914.305 3)"/>
</clipPath>
<clipPath id="clip10_886_244602">
<rect width="94" height="217" fill="white" transform="translate(1013.7 3)"/>
</clipPath>
</defs>
</svg>
