<svg width="14" height="14" viewBox="0 0 14 14" fill="none" xmlns="http://www.w3.org/2000/svg">
<path d="M7 10.9375C6.76083 10.9375 6.5625 10.7392 6.5625 10.5V8.75C6.5625 8.51083 6.76083 8.3125 7 8.3125C7.23917 8.3125 7.4375 8.51083 7.4375 8.75V10.5C7.4375 10.7392 7.23917 10.9375 7 10.9375Z" fill="white"/>
<path d="M10.2667 13.1608H3.73334C2.67167 13.1608 1.70334 12.3441 1.52834 11.3L0.752507 6.65079C0.624174 5.92746 0.980008 4.99996 1.55751 4.53912L5.60001 1.30162C6.38167 0.671625 7.61251 0.677458 8.40001 1.30746L12.4425 4.53912C13.0142 4.99996 13.3642 5.92746 13.2475 6.65079L12.4717 11.2941C12.2967 12.3266 11.305 13.1608 10.2667 13.1608ZM6.99417 1.70996C6.68501 1.70996 6.37584 1.80329 6.14834 1.98412L2.10584 5.22746C1.77917 5.48996 1.54584 6.09662 1.61584 6.51079L2.39167 11.1541C2.49667 11.7666 3.10917 12.2858 3.73334 12.2858H10.2667C10.8908 12.2858 11.5033 11.7666 11.6083 11.1483L12.3842 6.50496C12.4483 6.09662 12.215 5.47829 11.8942 5.22162L7.85167 1.98996C7.61834 1.80329 7.30334 1.70996 6.99417 1.70996Z" fill="white"/>
</svg>
