<svg width="13" height="14" viewBox="0 0 13 14" fill="none" xmlns="http://www.w3.org/2000/svg">
<path d="M4.89655 10.5717V7.34786C4.89653 7.27935 4.91926 7.21277 4.96119 7.15858C5.00311 7.10439 5.06185 7.06566 5.12817 7.04847C5.1945 7.03128 5.26465 7.03661 5.32762 7.06362C5.39058 7.09063 5.4428 7.13778 5.47605 7.19769L7.26169 10.4121C7.29495 10.472 7.34716 10.5191 7.41013 10.5461C7.47309 10.5731 7.54325 10.5785 7.60957 10.5613C7.6759 10.5441 7.73463 10.5054 7.77656 10.4512C7.81848 10.397 7.84122 10.3304 7.8412 10.2619V7.03809M4.30762 8.21595H8.43013M4.30762 9.39381H8.43013" stroke="white" stroke-width="0.58893" stroke-linecap="round" stroke-linejoin="round"/>
<path d="M4.10197 2.27728L5.31871 3.70103L5.18725 3.84778C2.68303 4.40941 0.8125 6.64592 0.8125 9.3196C0.8125 11.6701 2.72015 13.5777 5.07064 13.5777H7.76529C10.1158 13.5777 12.0234 11.6705 12.0234 9.32004C12.0278 6.64592 10.1573 4.40941 7.65305 3.84778C7.66323 3.75549 7.64655 3.66222 7.605 3.57919L8.64006 2.39433L8.70688 2.29126C8.78491 2.12108 8.80487 1.92998 8.76369 1.74734C8.72251 1.56471 8.62248 1.40066 8.47897 1.28043C8.33547 1.1602 8.15644 1.09044 7.96941 1.08188C7.78239 1.07332 7.59774 1.12643 7.44385 1.23306L7.07568 0.796324C6.9931 0.703903 6.89196 0.629922 6.77887 0.579201C6.66578 0.528481 6.54327 0.50216 6.41933 0.501954C6.29538 0.501748 6.17279 0.527662 6.05953 0.578006C5.94627 0.62835 5.84489 0.701994 5.76199 0.79414L5.37636 1.22476C5.22287 1.11592 5.03779 1.06068 4.84975 1.0676C4.66172 1.07452 4.4812 1.1432 4.33612 1.26302C4.19104 1.38284 4.08948 1.54713 4.04716 1.73047C4.00483 1.91381 4.0241 2.10599 4.10197 2.27728ZM5.76112 2.88216L5.02042 2.02616C5.1925 2.10908 5.38721 2.13263 5.57409 2.09312C5.76098 2.05361 5.9295 1.95327 6.05329 1.8078L6.40268 1.35447L6.7905 1.81391C6.91142 1.95453 7.07454 2.05231 7.25555 2.09269C7.43656 2.13306 7.62577 2.11386 7.79498 2.03796L7.05778 2.88216H5.76112ZM1.68597 9.3196C1.68597 6.70445 3.80499 4.58542 6.42015 4.58542C9.03531 4.58542 11.1543 6.70444 11.15 9.31873V9.3196C11.1496 10.2172 10.7929 11.0779 10.1582 11.7125C9.52356 12.3472 8.66285 12.7039 7.76529 12.7043H5.07064C4.17308 12.7039 3.31237 12.3472 2.6777 11.7125C2.04302 11.0779 1.68631 10.2172 1.68597 9.3196Z" fill="white"/>
</svg>
