<svg width="57" height="19" viewBox="0 0 57 19" fill="none" xmlns="http://www.w3.org/2000/svg">
<path d="M7.32031 9.21875V8.46875C7.32031 7.22375 7.69531 6.21875 9.57031 6.21875C11.4453 6.21875 11.8203 7.22375 11.8203 8.46875V9.21875" stroke="#9CA3AF" stroke-width="1.125" stroke-linecap="round" stroke-linejoin="round"/>
<path d="M9.57108 11.9156C9.8196 11.9156 10.0211 11.7142 10.0211 11.4656C10.0211 11.2171 9.8196 11.0156 9.57108 11.0156C9.32255 11.0156 9.12109 11.2171 9.12109 11.4656C9.12109 11.7142 9.32255 11.9156 9.57108 11.9156Z" stroke="#9CA3AF" stroke-width="1.125" stroke-linecap="round" stroke-linejoin="round"/>
<path d="M11.4453 13.7188H7.69531C6.19531 13.7188 5.82031 13.3438 5.82031 11.8438V11.0938C5.82031 9.59375 6.19531 9.21875 7.69531 9.21875H11.4453C12.9453 9.21875 13.3203 9.59375 13.3203 11.0938V11.8438C13.3203 13.3438 12.9453 13.7188 11.4453 13.7188Z" stroke="#9CA3AF" stroke-width="1.125" stroke-linecap="round" stroke-linejoin="round"/>
<path d="M9.57031 17.4688C13.7124 17.4688 17.0703 14.1109 17.0703 9.96875C17.0703 5.82661 13.7124 2.46875 9.57031 2.46875C5.42818 2.46875 2.07031 5.82661 2.07031 9.96875C2.07031 14.1109 5.42818 17.4688 9.57031 17.4688Z" stroke="#9CA3AF" stroke-width="1.125" stroke-linecap="round" stroke-linejoin="round"/>
<path d="M24.404 13.4688V6.56243H25.4366V12.7772L25.2377 12.5403H28.7335V13.4688H24.404ZM31.5182 13.554C31.1519 13.554 30.8172 13.494 30.514 13.374C30.2172 13.254 29.9614 13.0803 29.7466 12.853C29.5319 12.6256 29.3645 12.354 29.2445 12.0382C29.1245 11.7224 29.0645 11.3687 29.0645 10.9772C29.0645 10.4593 29.1624 10.0077 29.3582 9.62243C29.5603 9.23086 29.8445 8.9277 30.2108 8.71296C30.5835 8.49191 31.0193 8.38138 31.5182 8.38138C31.8845 8.38138 32.2161 8.44138 32.513 8.56138C32.8161 8.67507 33.0751 8.84559 33.2898 9.07296C33.5045 9.30033 33.6687 9.57507 33.7824 9.89717C33.9024 10.213 33.9624 10.5698 33.9624 10.9677C33.9624 11.4793 33.8645 11.9309 33.6687 12.3224C33.473 12.7077 33.1919 13.0109 32.8256 13.2319C32.4593 13.4466 32.0235 13.554 31.5182 13.554ZM31.5182 12.7393C31.8087 12.7393 32.0614 12.673 32.2761 12.5403C32.4972 12.4014 32.6677 12.1993 32.7877 11.934C32.9077 11.6687 32.9677 11.3466 32.9677 10.9677C32.9677 10.6835 32.933 10.434 32.8635 10.2193C32.8003 9.99822 32.7056 9.81191 32.5793 9.66033C32.453 9.50243 32.3014 9.38559 32.1245 9.3098C31.9477 9.2277 31.7456 9.18664 31.5182 9.18664C31.2277 9.18664 30.9719 9.25612 30.7508 9.39507C30.5361 9.53401 30.3656 9.73612 30.2393 10.0014C30.1193 10.2603 30.0593 10.5856 30.0593 10.9772C30.0593 11.2551 30.0908 11.5045 30.154 11.7256C30.2235 11.9403 30.3214 12.1235 30.4477 12.2751C30.5803 12.4266 30.7351 12.5435 30.9119 12.6256C31.0951 12.7014 31.2972 12.7393 31.5182 12.7393ZM37.1705 13.554C36.8042 13.554 36.4695 13.494 36.1663 13.374C35.8695 13.2477 35.6137 13.0709 35.3989 12.8435C35.1905 12.6161 35.0263 12.3445 34.9063 12.0287C34.7926 11.713 34.7358 11.3593 34.7358 10.9677C34.7358 10.4498 34.8368 9.99822 35.0389 9.61296C35.2411 9.22138 35.5284 8.91822 35.9011 8.70349C36.2737 8.48875 36.7095 8.38138 37.2084 8.38138C37.6126 8.38138 37.9726 8.45717 38.2884 8.60875C38.6105 8.76033 38.8663 8.97191 39.0558 9.24349C39.2516 9.51507 39.3621 9.83086 39.3874 10.1909H38.44C38.4021 9.9698 38.3232 9.78664 38.2032 9.64138C38.0832 9.49612 37.9347 9.38559 37.7579 9.3098C37.5874 9.23401 37.3947 9.19612 37.18 9.19612C36.8705 9.19612 36.6084 9.27191 36.3937 9.42349C36.1789 9.56875 36.0147 9.77401 35.9011 10.0393C35.7874 10.3045 35.7305 10.6172 35.7305 10.9772C35.7305 11.3498 35.7905 11.6687 35.9105 11.934C36.0305 12.193 36.1979 12.3919 36.4126 12.5309C36.6274 12.6698 36.88 12.7393 37.1705 12.7393C37.4168 12.7393 37.6316 12.6951 37.8147 12.6066C37.9979 12.5182 38.1432 12.3951 38.2505 12.2372C38.3642 12.073 38.4337 11.8866 38.4589 11.6782H39.4063C39.3811 12.0572 39.2705 12.3887 39.0747 12.673C38.8789 12.9509 38.6168 13.1687 38.2884 13.3266C37.96 13.4782 37.5874 13.554 37.1705 13.554ZM40.3965 13.4688V6.56243H41.3818V10.854L41.8176 10.3803L43.6839 8.45717H44.8965L42.9544 10.4087L44.9723 13.4688H43.826L42.5755 11.574L42.2723 11.0719L41.3818 11.934V13.4688H40.3965ZM47.5784 13.554C47.0795 13.554 46.6468 13.4498 46.2805 13.2414C45.9205 13.0266 45.6426 12.7266 45.4468 12.3414C45.251 11.9498 45.1531 11.4982 45.1531 10.9866C45.1531 10.4561 45.251 9.99507 45.4468 9.60349C45.6426 9.21191 45.9174 8.91191 46.271 8.70349C46.631 8.48875 47.0542 8.38138 47.5405 8.38138C48.09 8.38138 48.5416 8.50454 48.8952 8.75085C49.2552 8.99086 49.5142 9.32243 49.6721 9.74559C49.83 10.1624 49.8837 10.633 49.8331 11.1572H46.1195C46.1258 11.4982 46.1889 11.7919 46.3089 12.0382C46.4289 12.2782 46.5963 12.4614 46.811 12.5877C47.0321 12.714 47.2879 12.7772 47.5784 12.7772C47.9131 12.7772 48.1974 12.7014 48.431 12.5498C48.6647 12.3919 48.8131 12.1835 48.8763 11.9245H49.8047C49.7605 12.253 49.6374 12.5403 49.4352 12.7866C49.2331 13.0266 48.971 13.2161 48.6489 13.3551C48.3331 13.4877 47.9763 13.554 47.5784 13.554ZM46.1289 10.6077L46.0342 10.4656H48.971L48.8763 10.6266C48.8889 10.2793 48.8352 9.99822 48.7152 9.78349C48.6016 9.56243 48.4405 9.40138 48.2321 9.30033C48.03 9.19928 47.7963 9.14875 47.531 9.14875C47.2531 9.14875 47.01 9.20875 46.8016 9.32875C46.5931 9.44243 46.4321 9.6098 46.3184 9.83086C46.2047 10.0519 46.1416 10.3109 46.1289 10.6077ZM52.6857 13.554C52.3825 13.554 52.1046 13.4972 51.852 13.3835C51.6057 13.2698 51.3909 13.1056 51.2078 12.8909C51.0246 12.6698 50.8825 12.3982 50.7815 12.0761C50.6867 11.754 50.6394 11.3814 50.6394 10.9582C50.6394 10.4024 50.7246 9.93191 50.8952 9.54664C51.072 9.16138 51.312 8.87085 51.6152 8.67507C51.9246 8.47296 52.2815 8.37191 52.6857 8.37191C52.9636 8.37191 53.2162 8.41612 53.4436 8.50454C53.6773 8.59296 53.8731 8.71928 54.0309 8.88349C54.1952 9.04138 54.3152 9.2277 54.3909 9.44243H54.4478V6.56243H55.4236V13.4688H54.4857L54.4478 12.474H54.3909C54.2709 12.7961 54.0625 13.0582 53.7657 13.2603C53.4688 13.4561 53.1088 13.554 52.6857 13.554ZM53.0267 12.7487C53.3362 12.7487 53.5952 12.6761 53.8036 12.5309C54.012 12.3856 54.1699 12.1993 54.2773 11.9719C54.3846 11.7445 54.4383 11.5014 54.4383 11.2424V10.674C54.4383 10.4845 54.4067 10.3014 54.3436 10.1245C54.2867 9.94138 54.1983 9.78033 54.0783 9.64138C53.9646 9.49612 53.8194 9.38243 53.6425 9.30033C53.4657 9.21191 53.2604 9.1677 53.0267 9.1677C52.7488 9.1677 52.5057 9.23717 52.2973 9.37612C52.0888 9.50875 51.9278 9.7077 51.8141 9.97296C51.7004 10.2319 51.6436 10.5603 51.6436 10.9582C51.6436 11.3498 51.7004 11.6782 51.8141 11.9435C51.9278 12.2087 52.0888 12.4109 52.2973 12.5498C52.5057 12.6824 52.7488 12.7487 53.0267 12.7487Z" fill="#9CA3AF"/>
</svg>
