<svg width="19" height="20" viewBox="0 0 19 20" fill="none" xmlns="http://www.w3.org/2000/svg">
<path d="M4.83203 8.21596V6.64585C4.83203 4.04733 5.61708 1.93555 9.54234 1.93555C13.4676 1.93555 14.2526 4.04733 14.2526 6.64585V8.21596" stroke="#FFBD00" stroke-width="1.17758" stroke-linecap="round" stroke-linejoin="round"/>
<path d="M9.54075 14.8881C10.6247 14.8881 11.5034 14.0094 11.5034 12.9255C11.5034 11.8416 10.6247 10.9629 9.54075 10.9629C8.45682 10.9629 7.57812 11.8416 7.57812 12.9255C7.57812 14.0094 8.45682 14.8881 9.54075 14.8881Z" stroke="#FFBD00" stroke-width="1.17758" stroke-linecap="round" stroke-linejoin="round"/>
<path d="M13.4672 17.6355H5.61666C2.47646 17.6355 1.69141 16.8504 1.69141 13.7102V12.1401C1.69141 8.99989 2.47646 8.21484 5.61666 8.21484H13.4672C16.6074 8.21484 17.3924 8.99989 17.3924 12.1401V13.7102C17.3924 16.8504 16.6074 17.6355 13.4672 17.6355Z" stroke="#FFBD00" stroke-width="1.17758" stroke-linecap="round" stroke-linejoin="round"/>
</svg>
