<svg width="25" height="25" viewBox="0 0 25 25" fill="none" xmlns="http://www.w3.org/2000/svg">
<path d="M17.3366 14.5C17.4166 13.84 17.4766 13.18 17.4766 12.5C17.4766 11.82 17.4166 11.16 17.3366 10.5H20.7166C20.8766 11.14 20.9766 11.81 20.9766 12.5C20.9766 13.19 20.8766 13.86 20.7166 14.5M15.5666 20.06C16.1666 18.95 16.6266 17.75 16.9466 16.5H19.8966C18.9277 18.1683 17.3907 19.432 15.5666 20.06ZM15.3166 14.5H10.6366C10.5366 13.84 10.4766 13.18 10.4766 12.5C10.4766 11.82 10.5366 11.15 10.6366 10.5H15.3166C15.4066 11.15 15.4766 11.82 15.4766 12.5C15.4766 13.18 15.4066 13.84 15.3166 14.5ZM12.9766 20.46C12.1466 19.26 11.4766 17.93 11.0666 16.5H14.8866C14.4766 17.93 13.8066 19.26 12.9766 20.46ZM8.97656 8.5H6.05656C7.01542 6.82721 8.55136 5.56149 10.3766 4.94C9.77656 6.05 9.32656 7.25 8.97656 8.5ZM6.05656 16.5H8.97656C9.32656 17.75 9.77656 18.95 10.3766 20.06C8.55519 19.4317 7.02141 18.1677 6.05656 16.5ZM5.23656 14.5C5.07656 13.86 4.97656 13.19 4.97656 12.5C4.97656 11.81 5.07656 11.14 5.23656 10.5H8.61656C8.53656 11.16 8.47656 11.82 8.47656 12.5C8.47656 13.18 8.53656 13.84 8.61656 14.5M12.9766 4.53C13.8066 5.73 14.4766 7.07 14.8866 8.5H11.0666C11.4766 7.07 12.1466 5.73 12.9766 4.53ZM19.8966 8.5H16.9466C16.6336 7.26146 16.1701 6.0659 15.5666 4.94C17.4066 5.57 18.9366 6.84 19.8966 8.5ZM12.9766 2.5C7.44656 2.5 2.97656 7 2.97656 12.5C2.97656 15.1522 4.03013 17.6957 5.90549 19.5711C6.83408 20.4997 7.93647 21.2362 9.14973 21.7388C10.363 22.2413 11.6633 22.5 12.9766 22.5C15.6287 22.5 18.1723 21.4464 20.0476 19.5711C21.923 17.6957 22.9766 15.1522 22.9766 12.5C22.9766 11.1868 22.7179 9.88642 22.2154 8.67317C21.7128 7.45991 20.9762 6.35752 20.0476 5.42893C19.119 4.50035 18.0167 3.76375 16.8034 3.2612C15.5901 2.75866 14.2898 2.5 12.9766 2.5Z" fill="#240552"/>
</svg>
