<svg width="14" height="14" viewBox="0 0 14 14" fill="none" xmlns="http://www.w3.org/2000/svg">
<path d="M6.99996 9.77018C6.76663 9.77018 6.53329 9.75268 6.31163 9.71185C5.07496 9.53101 3.94913 8.81935 3.23746 7.76351C2.74163 7.01685 2.47913 6.14768 2.47913 5.24935C2.47913 2.75852 4.50913 0.728516 6.99996 0.728516C9.49079 0.728516 11.5208 2.75852 11.5208 5.24935C11.5208 6.14768 11.2583 7.01685 10.7625 7.76351C10.045 8.82518 8.91913 9.53102 7.67079 9.71768C7.46663 9.75268 7.23329 9.77018 6.99996 9.77018ZM6.99996 1.60352C4.98746 1.60352 3.35413 3.23685 3.35413 5.24935C3.35413 5.97852 3.56413 6.67852 3.96079 7.27352C4.53829 8.12518 5.44246 8.69685 6.44579 8.84268C6.81913 8.90685 7.18663 8.90685 7.53079 8.84268C8.55163 8.69685 9.45579 8.11934 10.0333 7.26768C10.43 6.67268 10.64 5.97268 10.64 5.24351C10.6458 3.23684 9.01246 1.60352 6.99996 1.60352Z" fill="white"/>
<path d="M3.77402 13.1776C3.69235 13.1776 3.61652 13.166 3.53485 13.1485C3.15569 13.061 2.86402 12.7693 2.77652 12.3901L2.57235 11.5326C2.56069 11.4801 2.51985 11.4393 2.46152 11.4218L1.49902 11.1943C1.13735 11.1068 0.85152 10.8385 0.752353 10.4826C0.653186 10.1268 0.752353 9.74181 1.01485 9.47931L3.28985 7.20431C3.38319 7.11098 3.51152 7.06431 3.63985 7.07598C3.76819 7.08765 3.88485 7.15764 3.96069 7.26847C4.53819 8.12014 5.44235 8.69765 6.45152 8.84348C6.82485 8.90765 7.19235 8.90765 7.53652 8.84348C8.55735 8.69765 9.46152 8.12014 10.039 7.26847C10.109 7.15764 10.2315 7.08765 10.3599 7.07598C10.4882 7.06431 10.6165 7.11098 10.7099 7.20431L12.9849 9.47931C13.2474 9.74181 13.3465 10.1268 13.2474 10.4826C13.1482 10.8385 12.8565 11.1126 12.5007 11.1943L11.5382 11.4218C11.4857 11.4335 11.4449 11.4743 11.4274 11.5326L11.2232 12.3901C11.1357 12.7693 10.844 13.061 10.4649 13.1485C10.0857 13.2418 9.69485 13.1076 9.44985 12.8101L6.99985 9.99265L4.54985 12.816C4.35152 13.0493 4.07152 13.1776 3.77402 13.1776ZM3.55235 8.18431L1.63319 10.1035C1.58069 10.156 1.58652 10.2143 1.59819 10.2493C1.60402 10.2785 1.63319 10.3368 1.70319 10.3485L2.66569 10.576C3.04485 10.6635 3.33652 10.9551 3.42402 11.3343L3.62819 12.1918C3.64569 12.2676 3.70402 12.291 3.73902 12.3026C3.77402 12.3085 3.83235 12.3143 3.88485 12.256L6.11902 9.68348C5.12735 9.49098 4.21735 8.96014 3.55235 8.18431ZM7.88069 9.67764L10.1149 12.2443C10.1674 12.3085 10.2315 12.3085 10.2665 12.2968C10.3015 12.291 10.354 12.2618 10.3774 12.186L10.5815 11.3285C10.669 10.9493 10.9607 10.6576 11.3399 10.5701L12.3024 10.3427C12.3724 10.3252 12.4015 10.2726 12.4074 10.2435C12.419 10.2143 12.4249 10.1501 12.3724 10.0976L10.4532 8.17847C9.78235 8.9543 8.87819 9.48514 7.88069 9.67764Z" fill="white"/>
<path d="M8.10262 7.51981C7.95096 7.51981 7.77012 7.47897 7.55429 7.35063L7.00012 7.01813L6.44596 7.3448C5.93846 7.64813 5.60596 7.47313 5.48346 7.38563C5.36096 7.29813 5.09846 7.03563 5.23262 6.45813L5.37262 5.8573L4.90596 5.42562C4.64929 5.16896 4.55596 4.8598 4.64346 4.5798C4.73096 4.2998 4.98762 4.10146 5.34929 4.04313L5.97346 3.93813L6.27096 3.2848C6.44012 2.9523 6.70262 2.76562 7.00012 2.76562C7.29762 2.76562 7.56596 2.95814 7.72929 3.29064L8.07346 3.97897L8.65096 4.04897C9.00679 4.1073 9.26346 4.30562 9.35679 4.58562C9.44429 4.86562 9.35096 5.1748 9.09429 5.43146L8.61012 5.91564L8.76179 6.45813C8.89596 7.03563 8.63346 7.29813 8.51096 7.38563C8.44679 7.43813 8.30679 7.51981 8.10262 7.51981ZM5.60596 4.89481L6.00846 5.29729C6.19512 5.48396 6.28846 5.79897 6.23012 6.05563L6.11929 6.52229L6.58596 6.24813C6.83679 6.10229 7.17512 6.10229 7.42012 6.24813L7.88679 6.52229L7.78179 6.05563C7.72346 5.79313 7.81096 5.48396 7.99762 5.29729L8.40012 4.89481L7.89262 4.80729C7.64762 4.76646 7.40262 4.58564 7.29179 4.36397L7.00012 3.7923L6.70846 4.37563C6.60346 4.59146 6.35846 4.77814 6.11346 4.81897L5.60596 4.89481Z" fill="white"/>
</svg>
