<svg width="14" height="14" viewBox="0 0 14 14" fill="none" xmlns="http://www.w3.org/2000/svg">
<path d="M4.66667 13.0205C4.50334 13.0205 4.33416 12.9797 4.1825 12.898C3.84999 12.723 3.64584 12.373 3.64584 11.9996V11.1713C1.88417 10.9905 0.729172 9.69546 0.729172 7.84046V4.34049C0.729172 2.33383 2.07667 0.986328 4.08334 0.986328H9.91667C11.9233 0.986328 13.2708 2.33383 13.2708 4.34049V7.84046C13.2708 9.84713 11.9233 11.1946 9.91667 11.1946H7.71749L5.23249 12.8513C5.06332 12.9622 4.86501 13.0205 4.66667 13.0205ZM4.08334 1.85549C2.57834 1.85549 1.60417 2.82966 1.60417 4.33466V7.83469C1.60417 9.33969 2.57834 10.3139 4.08334 10.3139C4.3225 10.3139 4.52084 10.5122 4.52084 10.7514V11.9939C4.52084 12.0697 4.56751 12.1047 4.59667 12.1222C4.62584 12.1397 4.68418 12.1572 4.74835 12.1163L7.34419 10.3897C7.41419 10.343 7.50168 10.3139 7.58918 10.3139H9.92251C11.4275 10.3139 12.4017 9.33969 12.4017 7.83469V4.33466C12.4017 2.82966 11.4275 1.85549 9.92251 1.85549H4.08334Z" fill="white"/>
<path d="M6.99989 7.06445C6.76072 7.06445 6.56239 6.86612 6.56239 6.62695V6.50448C6.56239 5.82781 7.05821 5.4953 7.24488 5.36697C7.46071 5.22114 7.53071 5.12197 7.53071 4.97031C7.53071 4.67864 7.29155 4.43945 6.99989 4.43945C6.70822 4.43945 6.46907 4.67864 6.46907 4.97031C6.46907 5.20947 6.27074 5.40781 6.03157 5.40781C5.7924 5.40781 5.59407 5.20947 5.59407 4.97031C5.59407 4.19447 6.22405 3.56445 6.99989 3.56445C7.77572 3.56445 8.40571 4.19447 8.40571 4.97031C8.40571 5.63531 7.91573 5.9678 7.73489 6.0903C7.50739 6.24196 7.43739 6.34114 7.43739 6.50448V6.62695C7.43739 6.87195 7.23905 7.06445 6.99989 7.06445Z" fill="white"/>
<path d="M7 8.51758C6.755 8.51758 6.5625 8.31924 6.5625 8.08008C6.5625 7.84091 6.76083 7.64258 7 7.64258C7.23917 7.64258 7.4375 7.84091 7.4375 8.08008C7.4375 8.31924 7.245 8.51758 7 8.51758Z" fill="white"/>
</svg>
