<svg width="18" height="18" viewBox="0 0 18 18" fill="none" xmlns="http://www.w3.org/2000/svg">
<path d="M12.8447 13.3086H10.0518L6.94457 15.3754C6.48373 15.6826 5.8623 15.3545 5.8623 14.7959V13.3086C3.76758 13.3086 2.37109 11.9122 2.37109 9.81743V5.62793C2.37109 3.5332 3.76758 2.13672 5.8623 2.13672H12.8447C14.9395 2.13672 16.3359 3.5332 16.3359 5.62793V9.81743C16.3359 11.9122 14.9395 13.3086 12.8447 13.3086Z" stroke="#240552" stroke-width="1.04736" stroke-miterlimit="10" stroke-linecap="round" stroke-linejoin="round"/>
<path d="M9.35047 8.37256V8.22596C9.35047 7.75115 9.64375 7.49977 9.93701 7.29728C10.2233 7.10177 10.5095 6.85041 10.5095 6.38957C10.5095 5.74719 9.99285 5.23047 9.35047 5.23047C8.70809 5.23047 8.19141 5.74719 8.19141 6.38957" stroke="#240552" stroke-width="1.04736" stroke-linecap="round" stroke-linejoin="round"/>
<path d="M9.34598 10.0405H9.35226" stroke="#240552" stroke-width="1.04736" stroke-linecap="round" stroke-linejoin="round"/>
</svg>
