<svg width="37" height="37" viewBox="0 0 37 37" fill="none" xmlns="http://www.w3.org/2000/svg">
<path d="M15.0605 18.5C15.0605 19.2956 15.3766 20.0587 15.9392 20.6213C16.5018 21.1839 17.2649 21.5 18.0605 21.5C18.8562 21.5 19.6193 21.1839 20.1819 20.6213C20.7445 20.0587 21.0605 19.2956 21.0605 18.5C21.0605 17.7044 20.7445 16.9413 20.1819 16.3787C19.6193 15.8161 18.8562 15.5 18.0605 15.5C17.2649 15.5 16.5018 15.8161 15.9392 16.3787C15.3766 16.9413 15.0605 17.7044 15.0605 18.5ZM15.0605 9.5C15.0605 10.2956 15.3766 11.0587 15.9392 11.6213C16.5018 12.1839 17.2649 12.5 18.0605 12.5C18.8562 12.5 19.6193 12.1839 20.1819 11.6213C20.7445 11.0587 21.0605 10.2956 21.0605 9.5C21.0605 8.70435 20.7445 7.94129 20.1819 7.37868C19.6193 6.81607 18.8562 6.5 18.0605 6.5C17.2649 6.5 16.5018 6.81607 15.9392 7.37868C15.3766 7.94129 15.0605 8.70435 15.0605 9.5ZM15.0605 27.5C15.0605 28.2956 15.3766 29.0587 15.9392 29.6213C16.5018 30.1839 17.2649 30.5 18.0605 30.5C18.8562 30.5 19.6193 30.1839 20.1819 29.6213C20.7445 29.0587 21.0605 28.2956 21.0605 27.5C21.0605 26.7044 20.7445 25.9413 20.1819 25.3787C19.6193 24.8161 18.8562 24.5 18.0605 24.5C17.2649 24.5 16.5018 24.8161 15.9392 25.3787C15.3766 25.9413 15.0605 26.7044 15.0605 27.5Z" fill="#240552"/>
</svg>
