<svg width="22" height="23" viewBox="0 0 22 23" fill="none" xmlns="http://www.w3.org/2000/svg">
<g clip-path="url(#clip0_3314_100212)">
<path d="M10.819 22.4948C7.95515 22.4948 5.20859 21.3571 3.18354 19.3321C1.15849 17.307 0.0208244 14.5605 0.0208244 11.6966C0.0208244 8.83276 1.15849 6.0862 3.18354 4.06115C5.20859 2.0361 7.95515 0.898438 10.819 0.898437C13.6829 0.898438 16.4294 2.0361 18.4545 4.06115C20.4795 6.0862 21.6172 8.83276 21.6172 11.6966C21.6172 14.5605 20.4795 17.307 18.4545 19.3321C16.4294 21.3571 13.6829 22.4948 10.819 22.4948ZM15.5432 8.99707H12.8437C12.6647 8.99707 12.493 9.06818 12.3664 9.19474C12.2399 9.32131 12.1688 9.49297 12.1688 9.67196C12.1688 9.85095 12.2399 10.0226 12.3664 10.1492C12.493 10.2757 12.6647 10.3468 12.8437 10.3468H15.5432C15.7222 10.3468 15.8939 10.2757 16.0204 10.1492C16.147 10.0226 16.2181 9.85095 16.2181 9.67196C16.2181 9.49297 16.147 9.32131 16.0204 9.19474C15.8939 9.06818 15.7222 8.99707 15.5432 8.99707ZM8.79435 8.99707H6.0948C5.91581 8.99707 5.74415 9.06818 5.61758 9.19474C5.49102 9.32131 5.41991 9.49297 5.41991 9.67196C5.41991 9.85095 5.49102 10.0226 5.61758 10.1492C5.74415 10.2757 5.91581 10.3468 6.0948 10.3468H8.79435C8.97334 10.3468 9.145 10.2757 9.27156 10.1492C9.39813 10.0226 9.46923 9.85095 9.46923 9.67196C9.46923 9.49297 9.39813 9.32131 9.27156 9.19474C9.145 9.06818 8.97334 8.99707 8.79435 8.99707ZM15.5432 14.3962H6.0948C5.91581 14.3962 5.74415 14.4673 5.61758 14.5938C5.49102 14.7204 5.41991 14.8921 5.41991 15.0711C5.41991 15.25 5.49102 15.4217 5.61758 15.5483C5.74415 15.6748 5.91581 15.7459 6.0948 15.7459H15.5432C15.7222 15.7459 15.8939 15.6748 16.0204 15.5483C16.147 15.4217 16.2181 15.25 16.2181 15.0711C16.2181 14.8921 16.147 14.7204 16.0204 14.5938C15.8939 14.4673 15.7222 14.3962 15.5432 14.3962Z" fill="#240552"/>
</g>
<defs>
<clipPath id="clip0_3314_100212">
<rect width="21.5964" height="21.5964" fill="white" transform="matrix(-1 0 0 1 21.6172 0.898438)"/>
</clipPath>
</defs>
</svg>
