<svg width="18" height="17" viewBox="0 0 18 17" fill="none" xmlns="http://www.w3.org/2000/svg">
<path d="M5.50835 8.41565C5.5073 8.40991 5.5073 8.40991 5.50625 8.40417C5.40324 7.80628 5.68425 7.2333 6.21998 6.95187L9.62007 5.17612C10.0807 4.93803 10.6259 4.96913 11.0476 5.26584C11.4682 5.55682 11.6886 6.05031 11.6272 6.55956L11.1659 10.3732C11.0926 10.9795 10.6555 11.4445 10.0597 11.559C9.46391 11.6735 8.89301 11.404 8.60011 10.8704L8.08741 9.94392C8.00857 9.80412 7.87967 9.71495 7.72679 9.68944L6.67227 9.53176C6.06961 9.4459 5.61605 9.00675 5.50835 8.41565ZM10.7543 6.29171C10.7229 6.11955 10.6101 6.0215 10.5491 5.97926C10.393 5.87132 10.1953 5.85991 10.0279 5.94972L6.62776 7.72548C6.3299 7.88055 6.35244 8.16698 6.36813 8.25306C6.38641 8.32088 6.45696 8.61043 6.79142 8.65621L7.84594 8.8139C8.26597 8.87374 8.64589 9.13656 8.85003 9.50849L9.36275 10.4349C9.36275 10.4349 9.36275 10.4349 9.3638 10.4407C9.52461 10.7375 9.80999 10.7092 9.89034 10.6946C9.97642 10.6789 10.2524 10.5989 10.2924 10.2655L10.7538 6.45189C10.7663 6.39032 10.7626 6.33762 10.7543 6.29171Z" fill="white"/>
<path d="M2.85589 9.30807C2.23581 5.90494 4.49792 2.6348 7.90105 2.01472C11.3042 1.39464 14.5743 3.65675 15.1944 7.05988C15.8145 10.463 13.5524 13.7332 10.1492 14.3532C6.7461 14.9733 3.47597 12.7112 2.85589 9.30807ZM14.3336 7.21673C13.8003 4.28992 10.9847 2.34225 8.0579 2.87555C5.13109 3.40884 3.18342 6.22441 3.71671 9.15122C4.25001 12.078 7.06558 14.0257 9.99239 13.4924C12.9192 12.9591 14.8669 10.1435 14.3336 7.21673Z" fill="white"/>
</svg>
