<svg width="62" height="62" viewBox="0 0 62 62" fill="none" xmlns="http://www.w3.org/2000/svg">
<path d="M31.0972 0.163086C48.0042 0.163086 61.7101 13.8693 61.7101 30.7763C61.7101 47.6832 48.0042 61.3888 31.0972 61.3888C14.1903 61.3888 0.484375 47.6832 0.484375 30.7763C0.484375 13.8693 14.1903 0.163086 31.0972 0.163086Z" fill="#F6F1FE"/>
<path d="M42.3396 14.2872L46.7596 17.2902L46.7664 17.3203L43.0614 18.2308L38.607 15.2045L42.3396 14.2872Z" fill="#FCB40C"/>
<path d="M26.9568 18.0685L31.41 21.0948L27.6781 22.012L23.2241 18.985L26.9568 18.0685Z" fill="#FCB40C"/>
<path d="M19.2615 19.9601L23.7154 22.9861L19.9835 23.9034L15.5288 20.8771L19.2615 19.9601Z" fill="#FCB40C"/>
<path d="M34.6512 16.1779L39.1057 19.2044L35.3731 20.1213L30.9195 17.0953L34.6512 16.1779Z" fill="#FCB40C"/>
<path d="M45.8177 13.4348L46.7661 17.2909L42.3461 14.288L45.8177 13.4348Z" fill="#240552"/>
<path d="M38.6106 15.2043L43.0649 18.2307L39.1033 19.204L34.6487 16.1776L38.6106 15.2043Z" fill="#240552"/>
<path d="M30.9145 17.094L35.368 20.1201L31.4066 21.0939L26.9535 18.0676L30.9145 17.094Z" fill="#240552"/>
<path d="M23.2277 18.9846L27.6817 22.0117L23.72 22.9851L19.266 19.9589L23.2277 18.9846Z" fill="#240552"/>
<path d="M42.5741 14.4405L42.9628 14.7049L39.231 15.6221L38.8413 15.3578L42.5741 14.4405Z" fill="#FFFBE8"/>
<path d="M34.8858 16.3312L35.2759 16.5955L31.5433 17.5125L31.1538 17.2482L34.8858 16.3312Z" fill="#FFFBE8"/>
<path d="M27.1826 18.2219L27.5714 18.4862L23.8388 19.4031L23.4507 19.1391L27.1826 18.2219Z" fill="#FFFBE8"/>
<path d="M19.4966 20.1124L19.8846 20.3765L16.1519 21.2937L15.7632 21.0293L19.4966 20.1124Z" fill="#ECECED"/>
<path d="M45.8572 13.6319L45.941 13.971L42.9592 14.7037L42.5704 14.4393L45.8572 13.6319Z" fill="#240552"/>
<path d="M38.8369 15.3577L39.2265 15.622L35.2655 16.5956L34.8753 16.3313L38.8369 15.3577Z" fill="#240552"/>
<path d="M31.1488 17.2483L31.5382 17.5127L27.5766 18.4862L27.1878 18.2219L31.1488 17.2483Z" fill="#240552"/>
<path d="M23.462 19.1389L23.85 19.403L19.8883 20.3766L19.5003 20.1126L23.462 19.1389Z" fill="#240552"/>
<path d="M16.1522 21.2928L15.6332 21.4205L15.5494 21.081L15.7634 21.0285L16.1522 21.2928Z" fill="#240552"/>
<path d="M15.5003 20.884L15.53 20.8769L19.9846 23.9032L16.4563 24.7702L15.5003 20.884Z" fill="#240552"/>
<path d="M17.0312 28.86C17.0312 28.324 17.4651 27.8896 18.0013 27.8896H45.5694C46.1047 27.8896 46.5393 28.324 46.5393 28.86V47.6969C46.5393 48.233 46.1047 48.6673 45.5694 48.6673H18.0013C17.4651 48.6673 17.0312 48.233 17.0312 47.6969V28.86Z" fill="#240552"/>
<path d="M42.4899 44.9333H20.4531V44.625H42.4899V44.9333Z" fill="#FCB40C"/>
<path d="M36.8328 44.9336H36.5234V47.3996H36.8328V44.9336Z" fill="#FCB40C"/>
<path d="M26.418 44.9336H26.1094V47.3996H26.418V44.9336Z" fill="#FCB40C"/>
<path d="M31.5463 31.4102C28.4443 31.4102 25.9297 33.9256 25.9297 37.0267C25.9297 40.1284 28.4443 42.643 31.5463 42.643C34.6479 42.643 37.1623 40.1284 37.1623 37.0267C37.1623 33.9256 34.6479 31.4102 31.5463 31.4102ZM31.5463 41.8859C28.8628 41.8859 26.687 39.7098 26.687 37.0267C26.687 34.3433 28.8628 32.1678 31.5463 32.1678C34.2294 32.1678 36.4051 34.3433 36.4051 37.0267C36.4051 39.7098 34.2294 41.8859 31.5463 41.8859Z" fill="#221F1F"/>
<path d="M26.0312 37.0263C26.0312 40.0672 28.5053 42.5408 31.5461 42.5408C34.5867 42.5408 37.0602 40.0672 37.0602 37.0263C37.0602 33.9852 34.5867 31.5117 31.5461 31.5117C28.5053 31.5117 26.0312 33.9852 26.0312 37.0263ZM26.5852 37.0263C26.5852 34.2911 28.8107 32.0658 31.5461 32.0658C34.2815 32.0658 36.5064 34.2911 36.5064 37.0263C36.5064 39.7617 34.2815 41.987 31.5461 41.987C28.8107 41.987 26.5852 39.7617 26.5852 37.0263Z" fill="#FCB40C"/>
<path d="M45.574 28.6289H18.0058C17.8777 28.6289 17.7734 28.7332 17.7734 28.8613V47.6981C17.7734 47.7947 17.8329 47.8777 17.917 47.9123C19.247 43.5585 22.0159 39.7407 25.7329 36.891C25.8064 33.7453 28.3825 31.2079 31.5455 31.2079C32.8704 31.2079 34.0892 31.658 35.0683 32.4061C37.2106 31.8637 39.4684 31.5691 41.8044 31.5691C43.1662 31.5691 44.5029 31.6692 45.8062 31.8591V28.8613C45.8062 28.7332 45.7012 28.6289 45.574 28.6289Z" fill="#240552"/>
<path d="M30.5403 34.0018C31.5113 33.5559 32.5177 33.1632 33.5573 32.8336C32.948 32.5403 32.2678 32.3711 31.5471 32.3711C29.3423 32.3711 27.4948 33.9124 27.0156 35.9731C27.7302 35.4944 28.4728 35.048 29.2437 34.6395L30.5403 34.0018Z" fill="#424242"/>
<path d="M26.0547 36.5596C26.2584 36.4107 26.4632 36.2635 26.6721 36.1203C27.0993 33.8167 29.1205 32.0657 31.5461 32.0657C32.4123 32.0657 33.2262 32.2899 33.9355 32.6815C34.1745 32.6109 34.4145 32.5415 34.6571 32.4772C33.7707 31.869 32.7 31.5117 31.5461 31.5117C28.6629 31.5117 26.2935 33.7368 26.0547 36.5596Z" fill="#DEC5A4"/>
<path d="M19.8405 24.668L16.2656 28.639V28.6703H20.0813L23.6834 24.668H19.8405Z" fill="#FCB40C"/>
<path d="M35.6821 24.668L32.0781 28.6703H35.9214L39.5258 24.668H35.6821Z" fill="#FCB40C"/>
<path d="M43.61 24.668L40.0078 28.6703H43.8509L47.4537 24.668H43.61Z" fill="#FCB40C"/>
<path d="M27.7599 24.668L24.1562 28.6703H28L31.6028 24.668H27.7599Z" fill="#FCB40C"/>
<path d="M23.6803 24.668L20.0781 28.6703H24.1569L27.7605 24.668H23.6803Z" fill="#240552"/>
<path d="M31.6028 24.668L28 28.6703H32.0789L35.6829 24.668H31.6028Z" fill="#240552"/>
<path d="M39.5263 24.668L35.9219 28.6703H40.002L43.6041 24.668H39.5263Z" fill="#240552"/>
<path d="M47.4774 24.668H47.4466L43.8438 28.6703H47.4774V24.668Z" fill="#240552"/>
<path d="M19.6509 24.873L19.3359 25.2228H23.1789L23.4938 24.873H19.6509Z" fill="#ECECED"/>
<path d="M27.5806 24.873L27.2656 25.2228H31.1087L31.4235 24.873H27.5806Z" fill="#FFFBE8"/>
<path d="M35.5018 24.873L35.1875 25.2228H39.0302L39.3455 24.873H35.5018Z" fill="#FFFBE8"/>
<path d="M43.4167 24.873L43.1016 25.2228H46.9452L47.2601 24.873H43.4167Z" fill="#FFFBE8"/>
<path d="M23.4946 24.873L23.1797 25.2228H27.2598L27.5747 24.873H23.4946Z" fill="#240552"/>
<path d="M31.4164 24.873L31.1016 25.2228H35.1817L35.4959 24.873H31.4164Z" fill="#240552"/>
<path d="M39.3386 24.873L39.0234 25.2228H43.1023L43.4174 24.873H39.3386Z" fill="#240552"/>
<path d="M46.9531 25.2226H47.4892V24.873H47.2679L46.9531 25.2226Z" fill="#240552"/>
<path d="M18.0849 20.1783L17.1386 20.2428C16.3253 20.2981 15.6641 21.0682 15.6641 21.9589V27.2499C15.6641 28.1659 16.3451 28.9113 17.1841 28.9113H22.0251C22.8635 28.9113 23.5458 28.1659 23.5458 27.2499V26.7536C23.5458 26.1101 23.3037 25.2167 22.9832 24.6765L22.9482 24.618L19.9072 21.1158L19.9856 21.2246C19.6028 20.58 18.786 20.1301 18.0849 20.1783Z" fill="#240552"/>
<path d="M17.1873 20.9957C16.733 21.0268 16.3594 21.4601 16.3594 21.9581V27.2491C16.3594 27.7477 16.7338 28.1553 17.1894 28.1553H22.0303C22.4866 28.1553 22.8596 27.7477 22.8596 27.2491V26.7528C22.8596 26.2546 22.6567 25.5046 22.4082 25.0864L19.4115 21.6345C19.163 21.2161 18.5884 20.9003 18.1328 20.9307L17.1873 20.9957Z" fill="#240552"/>
<path d="M18.4454 22.3611C18.4454 22.693 18.1982 22.9625 17.8939 22.9625C17.5895 22.9625 17.3438 22.693 17.3438 22.3611C17.3438 22.0286 17.5895 21.7588 17.8939 21.7588C18.1982 21.7588 18.4454 22.0286 18.4454 22.3611Z" fill="#CCAD8A"/>
<path d="M18.4454 26.8896C18.4454 27.2225 18.1982 27.4918 17.8939 27.4918C17.5895 27.4918 17.3438 27.2225 17.3438 26.8896C17.3438 26.5572 17.5895 26.2881 17.8939 26.2881C18.1982 26.2881 18.4454 26.5572 18.4454 26.8896Z" fill="#CCAD8A"/>
<path d="M22.1016 26.8896C22.1016 27.2225 21.8545 27.4918 21.5514 27.4918C21.2463 27.4918 21 27.2225 21 26.8896C21 26.5572 21.2463 26.2881 21.5514 26.2881C21.8545 26.2881 22.1016 26.5572 22.1016 26.8896Z" fill="#CCAD8A"/>
<path d="M42.1129 29.54H20.4531V29.736H42.1129V29.54Z" fill="#FCB40C"/>
<path d="M18.0933 22.2601C18.0933 22.4269 17.9745 22.5621 17.828 22.5621C17.6814 22.5621 17.5625 22.4269 17.5625 22.2601C17.5625 22.0932 17.6814 21.958 17.828 21.958C17.9745 21.958 18.0933 22.0932 18.0933 22.2601Z" fill="#FCB40C"/>
<path d="M18.0406 26.7861C18.0406 26.9253 17.9424 27.0381 17.8212 27.0381C17.6999 27.0381 17.6016 26.9253 17.6016 26.7861C17.6016 26.6469 17.6999 26.5342 17.8212 26.5342C17.9424 26.5342 18.0406 26.6469 18.0406 26.7861Z" fill="#FCB40C"/>
<path d="M21.7258 26.7761C21.7258 26.9139 21.6141 27.0256 21.4762 27.0256C21.3384 27.0256 21.2266 26.9139 21.2266 26.7761C21.2266 26.6382 21.3384 26.5264 21.4762 26.5264C21.6141 26.5264 21.7258 26.6382 21.7258 26.7761Z" fill="#FCB40C"/>
<path d="M34.8225 37.3477C35.1284 37.1714 35.1284 36.8823 34.8225 36.7066L32.9709 35.6373C32.666 35.4605 32.1655 35.1725 31.8602 34.9959L30.0084 33.9268C29.7034 33.7504 29.4531 33.895 29.4531 34.248V36.3855V37.6689V39.8071C29.4531 40.1598 29.7034 40.3033 30.0084 40.1269L31.8602 39.0586C32.1655 38.8821 32.666 38.593 32.9709 38.4163L34.8225 37.3477Z" fill="#221F1F"/>
<path d="M29.6589 33.9765C29.5874 34.0178 29.5464 34.1169 29.5469 34.2478V39.8068C29.5469 39.9373 29.5874 40.0356 29.6589 40.077C29.7303 40.1183 29.8366 40.1043 29.9496 40.0384L31.8015 38.9704L34.7637 37.2597C34.877 37.1943 34.9421 37.1092 34.9421 37.0265C34.9421 36.9443 34.877 36.8598 34.7637 36.7942L29.9499 34.0147C29.8366 33.9489 29.7303 33.9353 29.6589 33.9765Z" fill="#FCB40C"/>
</svg>
