<svg width="215" height="58" viewBox="0 0 215 58" fill="none" xmlns="http://www.w3.org/2000/svg">
<rect x="2.5" y="6.10156" width="212" height="51" rx="4" fill="#240552"/>
<rect x="1" y="0.601562" width="207" height="51" rx="3.5" fill="white"/>
<g clip-path="url(#clip0_2768_43768)">
<path d="M50.0356 29.7263L46.4688 26.1586L47.6574 24.97L50.0356 27.3473L54.7903 22.5918L55.9798 23.7813L50.0356 29.7247V29.7263Z" fill="#240552"/>
<path fill-rule="evenodd" clip-rule="evenodd" d="M42.2656 26.1006C42.2656 20.9937 46.4058 16.8535 51.5127 16.8535C56.6196 16.8535 60.7598 20.9937 60.7598 26.1006C60.7598 31.2075 56.6196 35.3477 51.5127 35.3477C46.4058 35.3477 42.2656 31.2075 42.2656 26.1006ZM51.5127 33.6664C50.5191 33.6664 49.5353 33.4707 48.6174 33.0905C47.6995 32.7103 46.8654 32.153 46.1629 31.4504C45.4603 30.7479 44.903 29.9138 44.5228 28.9959C44.1426 28.078 43.9469 27.0941 43.9469 26.1006C43.9469 25.107 44.1426 24.1232 44.5228 23.2053C44.903 22.2874 45.4603 21.4533 46.1629 20.7508C46.8654 20.0482 47.6995 19.4909 48.6174 19.1107C49.5353 18.7305 50.5191 18.5348 51.5127 18.5348C53.5193 18.5348 55.4437 19.3319 56.8625 20.7508C58.2814 22.1696 59.0785 24.094 59.0785 26.1006C59.0785 28.1072 58.2814 30.0315 56.8625 31.4504C55.4437 32.8693 53.5193 33.6664 51.5127 33.6664Z" fill="#240552"/>
</g>
<path d="M76.7459 30.6016H75.5939V21.9256H76.7459L79.7339 29.2216L82.7219 21.9256H83.8979V30.6016H82.7459V27.1696C82.7459 25.5496 82.7579 24.9616 82.8179 24.3496L80.2859 30.6016H79.1819L76.6619 24.3736C76.7219 24.7936 76.7459 25.6816 76.7459 26.8936V30.6016ZM85.3422 27.6616C85.3422 25.8496 86.6382 24.5776 88.4022 24.5776C90.1542 24.5776 91.4502 25.8496 91.4502 27.6616C91.4502 29.4736 90.1542 30.7456 88.4022 30.7456C86.6382 30.7456 85.3422 29.4736 85.3422 27.6616ZM86.4822 27.6616C86.4822 28.8856 87.2622 29.7376 88.4022 29.7376C89.5302 29.7376 90.3222 28.8856 90.3222 27.6616C90.3222 26.4376 89.5302 25.5856 88.4022 25.5856C87.2622 25.5856 86.4822 26.4376 86.4822 27.6616ZM91.9356 33.2296V32.3056H92.6916C93.2316 32.3056 93.6636 32.2216 93.9396 31.4776L94.1436 30.9136L91.7796 24.7336H92.9676L94.6716 29.4616L96.4116 24.7336H97.5756L94.8036 31.9216C94.4076 32.9296 93.8196 33.3496 92.9196 33.3496C92.5476 33.3496 92.2356 33.3016 91.9356 33.2296ZM97.8695 27.6616C97.8695 25.8496 99.1655 24.5776 100.93 24.5776C102.682 24.5776 103.978 25.8496 103.978 27.6616C103.978 29.4736 102.682 30.7456 100.93 30.7456C99.1655 30.7456 97.8695 29.4736 97.8695 27.6616ZM99.0095 27.6616C99.0095 28.8856 99.7895 29.7376 100.93 29.7376C102.058 29.7376 102.85 28.8856 102.85 27.6616C102.85 26.4376 102.058 25.5856 100.93 25.5856C99.7895 25.5856 99.0095 26.4376 99.0095 27.6616ZM106.354 30.5896H105.226V21.7696H106.354V25.6336C106.726 24.9976 107.434 24.5656 108.346 24.5656C109.846 24.5656 110.566 25.5136 110.566 27.0136V30.6016H109.438V27.2656C109.438 26.0776 108.874 25.5976 108.034 25.5976C106.942 25.5976 106.354 26.3896 106.354 27.3976V30.5896ZM111.578 28.8976H112.658C112.658 29.4976 113.114 29.8576 113.858 29.8576C114.65 29.8576 115.106 29.5336 115.106 28.9936C115.106 28.5976 114.914 28.3576 114.302 28.2016L113.27 27.9616C112.226 27.7096 111.734 27.1936 111.734 26.3296C111.734 25.2496 112.646 24.5656 113.942 24.5656C115.226 24.5656 116.066 25.2856 116.09 26.4016H115.01C114.986 25.8136 114.59 25.4416 113.906 25.4416C113.198 25.4416 112.802 25.7536 112.802 26.2936C112.802 26.6896 113.09 26.9536 113.666 27.0976L114.698 27.3496C115.694 27.5896 116.186 28.0456 116.186 28.9216C116.186 30.0376 115.226 30.7456 113.834 30.7456C112.454 30.7456 111.578 30.0136 111.578 28.8976ZM117.053 27.6616C117.053 25.8496 118.349 24.5776 120.113 24.5776C121.865 24.5776 123.161 25.8496 123.161 27.6616C123.161 29.4736 121.865 30.7456 120.113 30.7456C118.349 30.7456 117.053 29.4736 117.053 27.6616ZM118.193 27.6616C118.193 28.8856 118.973 29.7376 120.113 29.7376C121.241 29.7376 122.033 28.8856 122.033 27.6616C122.033 26.4376 121.241 25.5856 120.113 25.5856C118.973 25.5856 118.193 26.4376 118.193 27.6616ZM127.77 24.6856V25.7176H127.266C126.198 25.7176 125.538 26.3656 125.538 27.4936V30.6016H124.41V24.7456H125.466L125.538 25.6336C125.778 25.0216 126.366 24.6136 127.17 24.6136C127.374 24.6136 127.542 24.6376 127.77 24.6856ZM131.149 30.7456C129.421 30.7456 128.233 29.4976 128.233 27.6736C128.233 25.8376 129.397 24.5656 131.101 24.5656C132.769 24.5656 133.861 25.7176 133.861 27.4576V27.8776L129.325 27.8896C129.409 29.1256 130.057 29.8096 131.173 29.8096C132.049 29.8096 132.625 29.4496 132.817 28.7776H133.873C133.585 30.0376 132.601 30.7456 131.149 30.7456ZM131.101 25.5136C130.117 25.5136 129.493 26.1016 129.349 27.1336H132.733C132.733 26.1616 132.097 25.5136 131.101 25.5136ZM139.554 30.6016H138.426V21.7696H139.554V27.4936L142.158 24.7336H143.574L141.33 27.0736L143.562 30.6016H142.266L140.55 27.8896L139.554 28.9336V30.6016ZM146.071 30.7456C144.811 30.7456 144.067 30.0376 144.067 28.9696C144.067 27.8896 144.871 27.2176 146.251 27.1096L148.099 26.9656V26.7976C148.099 25.8136 147.511 25.4656 146.719 25.4656C145.771 25.4656 145.231 25.8856 145.231 26.5936H144.247C144.247 25.3696 145.255 24.5656 146.767 24.5656C148.219 24.5656 149.203 25.3336 149.203 26.9176V30.6016H148.243L148.123 29.6536C147.823 30.3256 147.019 30.7456 146.071 30.7456ZM146.395 29.8696C147.463 29.8696 148.111 29.1736 148.111 28.0696V27.7576L146.611 27.8776C145.615 27.9736 145.207 28.3576 145.207 28.9336C145.207 29.5576 145.663 29.8696 146.395 29.8696ZM153.117 30.7456C151.413 30.7456 150.381 29.4736 150.381 27.6856C150.381 25.8856 151.425 24.5656 153.165 24.5656C154.065 24.5656 154.821 24.9616 155.217 25.6816V21.7696H156.333V30.6016H155.325L155.229 29.5336C154.845 30.3376 154.053 30.7456 153.117 30.7456ZM153.345 29.7256C154.497 29.7256 155.205 28.8736 155.205 27.6496C155.205 26.4496 154.497 25.5856 153.345 25.5856C152.193 25.5856 151.521 26.4496 151.521 27.6496C151.521 28.8616 152.193 29.7256 153.345 29.7256ZM158.513 23.3416C158.105 23.3416 157.769 23.0056 157.769 22.5976C157.769 22.1776 158.105 21.8536 158.513 21.8536C158.921 21.8536 159.257 22.1776 159.257 22.5976C159.257 23.0056 158.921 23.3416 158.513 23.3416ZM157.961 30.6016V24.7336H159.089V30.6016H157.961ZM164.086 24.6856V25.7176H163.582C162.514 25.7176 161.854 26.3656 161.854 27.4936V30.6016H160.726V24.7456H161.782L161.854 25.6336C162.094 25.0216 162.682 24.6136 163.486 24.6136C163.69 24.6136 163.858 24.6376 164.086 24.6856ZM165.696 23.3416C165.288 23.3416 164.952 23.0056 164.952 22.5976C164.952 22.1776 165.288 21.8536 165.696 21.8536C166.104 21.8536 166.44 22.1776 166.44 22.5976C166.44 23.0056 166.104 23.3416 165.696 23.3416ZM165.144 30.6016V24.7336H166.272V30.6016H165.144Z" fill="black"/>
<rect x="1" y="0.601562" width="207" height="51" rx="3.5" stroke="#240552"/>
<defs>
<clipPath id="clip0_2768_43768">
<rect width="20.1754" height="20.1754" fill="white" transform="translate(41.4141 16.0137)"/>
</clipPath>
</defs>
</svg>
