<svg width="77" height="26" viewBox="0 0 77 26" fill="none" xmlns="http://www.w3.org/2000/svg">
<path d="M0.657202 19.7108C0.657202 23.0616 3.37358 25.778 6.72441 25.778C10.0752 25.778 12.7916 23.0616 12.7916 19.7108C12.7916 16.3599 10.0752 13.6436 6.72441 13.6436C3.37358 13.6436 0.657202 16.3599 0.657202 19.7108ZM13.55 4.92196L14.3771 4.14086L14.3399 4.10149L14.2991 4.06582L13.55 4.92196ZM22.4893 9.18257C22.1197 9.69069 22.2321 10.4022 22.7402 10.7717C23.2483 11.1412 23.9598 11.0289 24.3293 10.5208L22.4893 9.18257ZM7.81484 19.3866C7.13019 17.0837 6.46291 14.3736 6.03375 11.7755C5.60089 9.15493 5.42618 6.73914 5.67072 4.98416C5.79325 4.10483 6.00859 3.4895 6.26786 3.10497C6.49948 2.76145 6.7563 2.60666 7.09854 2.56873C7.50038 2.52421 8.15236 2.62983 9.13847 3.137C10.1131 3.63828 11.323 4.48494 12.8009 5.77809L14.2991 4.06582C12.7434 2.70457 11.3779 1.73028 10.1791 1.11371C8.99169 0.503025 7.87209 0.193896 6.84798 0.307371C5.76427 0.42745 4.94077 1.00341 4.3814 1.83304C3.84967 2.62166 3.56336 3.62188 3.41729 4.67016C3.12464 6.77038 3.34492 9.458 3.78896 12.1463C4.2367 14.8569 4.92823 17.6611 5.63398 20.035L7.81484 19.3866ZM12.723 5.70306C14.2636 7.3343 15.7213 9.39793 17.0978 11.4656C18.4477 13.4934 19.75 15.575 20.9034 17.0838C21.4823 17.841 22.0742 18.5232 22.6706 19.0092C23.2396 19.473 24.0117 19.9215 24.9023 19.8085C25.8467 19.6886 26.4823 19.0038 26.9046 18.232C27.3309 17.4526 27.664 16.3727 27.9376 15.0044L25.7066 14.5582C25.4494 15.8443 25.1709 16.6603 24.9085 17.14C24.642 17.6273 24.5115 17.5646 24.6158 17.5514C24.6661 17.545 24.524 17.5847 24.108 17.2456C23.7193 16.9288 23.2554 16.4141 22.7109 15.7019C21.6176 14.2719 20.4029 12.3245 18.9917 10.2048C17.6071 8.1249 16.0597 5.92248 14.3771 4.14086L12.723 5.70306ZM27.9376 15.0044C28.474 12.3226 28.6752 10.4019 28.6051 9.08045C28.5703 8.42317 28.465 7.83086 28.2421 7.34662C28.0085 6.83932 27.6069 6.38039 26.9893 6.20007C26.4121 6.03154 25.8694 6.17434 25.4736 6.35127C25.0687 6.53224 24.6891 6.80478 24.354 7.09195C23.6806 7.66914 23.0226 8.44921 22.4893 9.18257L24.3293 10.5208C24.8072 9.86374 25.3468 9.23761 25.8347 8.81941C26.0803 8.60888 26.2723 8.48641 26.402 8.42841C26.5408 8.36636 26.4959 8.42621 26.3516 8.38408C26.1669 8.33016 26.1334 8.20698 26.1754 8.29811C26.2279 8.41229 26.3055 8.68109 26.3331 9.20091C26.3879 10.2337 26.232 11.9311 25.7066 14.5582L27.9376 15.0044Z" fill="#9CA3AF"/>
<path d="M36.6246 17.7109V8.26529H38.3608L43.2456 15.8322H43.3363L43.2586 12.6707V8.26529H44.632V17.7109H42.9735L38.0887 10.2348H38.011L38.0628 13.176V17.7109H36.6246ZM49.6845 17.8276C47.6244 17.8276 46.3675 16.4282 46.3675 14.3162C46.3675 12.1524 47.6244 10.753 49.6327 10.753C51.8872 10.753 52.9756 12.3986 52.7683 14.5494H47.6892C47.7151 15.9617 48.4925 16.7651 49.6845 16.7651C50.6045 16.7651 51.2912 16.3116 51.4596 15.5989H52.7294C52.548 16.9465 51.3042 17.8276 49.6845 17.8276ZM49.6197 11.8025C48.5443 11.8025 47.8187 12.4893 47.7151 13.6036H51.4596C51.4208 12.3338 50.6304 11.8025 49.6197 11.8025ZM56.7992 17.8276C55.1278 17.8276 54.0005 16.5707 54.0005 14.2773C54.0005 11.9839 55.1278 10.7401 56.7992 10.7401C57.9524 10.7401 58.8076 11.3231 59.1315 12.2042H59.2092L59.2611 10.8567H60.5438V17.7109H59.2092V16.3505H59.1315C58.8076 17.2315 57.9524 17.8276 56.7992 17.8276ZM57.2657 16.7262C58.5355 16.7262 59.1963 15.7285 59.1963 14.666V13.8886C59.1963 12.8391 58.5355 11.8285 57.2657 11.8285C56.1255 11.8285 55.374 12.6577 55.374 14.2773C55.374 15.884 56.1255 16.7262 57.2657 16.7262ZM62.5428 17.7109V10.8567H63.7349L63.7997 12.0746H63.8644C64.1625 11.1936 64.9399 10.766 65.8469 10.766C66.0023 10.766 66.1319 10.7789 66.2485 10.7919V12.0487C66.1449 12.0358 65.9894 12.0358 65.8339 12.0358C64.6159 12.0358 63.9292 12.6707 63.8644 13.7979V17.7109H62.5428ZM67.5439 17.7109V8.26529H68.8785V17.7109H67.5439ZM70.4086 19.8748V18.7734H71.1472C71.7562 18.7734 72.0671 18.5272 72.2874 17.983L72.5854 17.2186L69.8904 10.8567H71.3545L72.9223 15.0288L73.2073 15.8451H73.2592L73.5313 15.0288L75.0084 10.8567H76.4207L73.5701 18.307C73.1296 19.499 72.4429 19.8748 71.3674 19.8748H70.4086Z" fill="#9CA3AF"/>
</svg>
