<svg width="28" height="28" viewBox="0 0 28 28" fill="none" xmlns="http://www.w3.org/2000/svg">
<circle cx="13.8965" cy="14" r="13.1784" fill="white" stroke="#F3F4F6" stroke-width="0.85022"/>
<path d="M17.3993 11.176C17.3643 11.1702 17.3235 11.1702 17.2885 11.176C16.4835 11.1469 15.8418 10.4877 15.8418 9.67102C15.8418 8.83685 16.5126 8.16602 17.3468 8.16602C18.181 8.16602 18.8518 8.84268 18.8518 9.67102C18.846 10.4877 18.2043 11.1469 17.3993 11.176Z" stroke="#240552" stroke-width="1.02201" stroke-linecap="round" stroke-linejoin="round"/>
<path d="M16.7988 15.4228C17.5979 15.5569 18.4788 15.4169 19.0971 15.0028C19.9196 14.4544 19.9196 13.5561 19.0971 13.0078C18.4729 12.5936 17.5804 12.4536 16.7812 12.5936" stroke="#240552" stroke-width="1.02201" stroke-linecap="round" stroke-linejoin="round"/>
<path d="M10.3763 11.176C10.4113 11.1702 10.4522 11.1702 10.4872 11.176C11.2922 11.1469 11.9338 10.4877 11.9338 9.67102C11.9338 8.83685 11.263 8.16602 10.4288 8.16602C9.59466 8.16602 8.92383 8.84268 8.92383 9.67102C8.92966 10.4877 9.57133 11.1469 10.3763 11.176Z" stroke="#240552" stroke-width="1.02201" stroke-linecap="round" stroke-linejoin="round"/>
<path d="M10.9777 15.4228C10.1785 15.5569 9.29771 15.4169 8.67938 15.0028C7.85688 14.4544 7.85688 13.5561 8.67938 13.0078C9.30354 12.5936 10.196 12.4536 10.9952 12.5936" stroke="#240552" stroke-width="1.02201" stroke-linecap="round" stroke-linejoin="round"/>
<path d="M13.8973 15.5334C13.8623 15.5276 13.8215 15.5276 13.7865 15.5334C12.9815 15.5043 12.3398 14.8451 12.3398 14.0284C12.3398 13.1943 13.0107 12.5234 13.8448 12.5234C14.679 12.5234 15.3498 13.2001 15.3498 14.0284C15.344 14.8451 14.7023 15.5101 13.8973 15.5334Z" stroke="#8E50E9" stroke-width="1.02201" stroke-linecap="round" stroke-linejoin="round"/>
<path d="M12.1989 17.37C11.3764 17.9183 11.3764 18.8167 12.1989 19.365C13.1322 19.9892 14.6606 19.9892 15.5939 19.365C16.4164 18.8167 16.4164 17.9183 15.5939 17.37C14.6664 16.7517 13.1322 16.7517 12.1989 17.37Z" stroke="#8E50E9" stroke-width="1.02201" stroke-linecap="round" stroke-linejoin="round"/>
</svg>
