<svg width="352" height="103" viewBox="0 0 352 103" fill="none" xmlns="http://www.w3.org/2000/svg">
<g clip-path="url(#clip0_630_284276)">
<rect width="351.184" height="102.088" rx="9.07453" fill="#FFC727"/>
<g opacity="0.03" clip-path="url(#clip1_630_284276)">
<path d="M338.197 250.639C337.017 250.639 335.688 250.639 334.508 250.935C322.11 252.564 309.86 250.935 297.758 247.975C248.906 235.539 214.222 192.016 213.632 140.054C213.632 134.872 213.189 129.691 212.156 124.509C204.629 87.7954 169.797 58.4835 126.259 66.1815C90.837 72.3992 66.0419 102.451 65.304 138.573C65.304 144.495 65.0088 150.416 63.9757 156.338C57.9245 192.46 39.1806 219.847 7.44885 237.612C3.9067 239.684 0.216957 241.461 -3.3252 242.941V282.616C48.036 267.22 89.0659 222.956 99.3972 169.661C101.316 159.891 102.201 150.12 102.349 140.054C102.644 118.44 118.584 102.451 139.542 102.303C142.936 102.599 146.626 102.599 150.168 103.784C166.255 108.965 176.439 122.585 176.587 140.202C176.587 150.712 177.472 161.075 179.981 171.29C195.33 231.986 233.113 270.181 293.625 285.429C302.776 287.797 312.221 288.39 321.52 288.982C328.456 289.426 328.604 289.278 330.227 282.172C331.851 274.918 334.212 267.812 336.721 260.854C337.607 258.337 338.788 255.821 339.673 253.156C340.116 251.824 339.968 250.639 338.05 250.787L338.197 250.639Z" fill="black"/>
<path d="M359.72 73.4221C348.061 67.2044 335.663 64.5397 322.823 64.8358C319.428 64.5397 316.329 64.2436 313.082 64.0956C310.278 64.0956 309.687 64.5397 310.573 66.9083C314.705 77.2711 318.247 87.93 320.609 98.885C321.052 100.809 322.085 101.994 324.151 102.142C325.332 102.142 326.66 102.438 327.841 102.438C346.142 102.882 364.591 120.499 361.934 144.037C359.868 162.986 341.714 178.53 323.265 176.902C302.308 174.977 288.139 159.581 287.844 138.264C287.106 95.332 271.462 58.7661 239.877 29.7503C226.742 17.7591 212.721 8.28451 197.962 1.77075H82.6943C39.1554 18.7953 10.523 52.2524 -3.49805 99.9212V200.292C15.3934 186.969 28.0861 164.911 28.0861 139.744C28.0861 132.786 28.6765 125.828 30.0048 119.018C41.5168 57.7298 99.2244 18.3512 159.589 29.3062C205.784 37.7445 242.091 75.0505 249.323 121.831C250.504 129.529 250.209 137.227 250.947 144.777C255.374 193.779 298.618 218.501 334.63 213.32C366.804 208.731 392.78 184.6 398.241 151.439C403.997 116.502 385.548 86.8937 359.72 73.274V73.4221Z" fill="black"/>
<path d="M382.346 1.61841H268.997C271.359 4.28313 273.868 6.94785 276.819 9.31649C290.398 21.1597 306.485 26.9332 324.343 27.3774C331.723 27.6734 339.102 27.9695 346.482 29.4499C396.662 38.7764 435.183 84.2247 436.216 135.743C436.216 140.924 435.921 146.105 435.921 151.435C435.921 154.692 436.216 154.988 439.316 153.803C449.204 149.806 459.24 146.402 469.719 144.181C472.818 143.589 473.409 141.812 473.409 138.851C473.409 131.598 472.966 124.492 471.933 117.386C464.701 66.1638 429.722 21.6038 382.493 1.76645L382.346 1.61841Z" fill="black"/>
<path d="M-3.49805 1.61841V13.6096C1.37241 10.2047 5.94769 6.20765 9.93261 1.61841H-3.49805Z" fill="black"/>
</g>
<path d="M308.026 85.5137C308.026 88.2798 297.535 90.5218 284.595 90.5218C271.654 90.5218 261.163 88.2798 261.163 85.5137C261.163 82.7472 271.654 80.5049 284.595 80.5049C297.535 80.5049 308.026 82.7472 308.026 85.5137Z" fill="#FFC727"/>
<path d="M256.086 55.9587V50.4149L252.568 51.6198C252.287 51.7126 251.999 51.7779 251.695 51.7316C251.194 51.6561 250.75 51.3918 250.448 50.9817C250.146 50.5748 250.022 50.0751 250.096 49.5722C250.304 48.192 249.353 46.9042 247.972 46.695C246.596 46.515 245.301 47.4396 245.095 48.823C244.817 50.6595 245.275 52.496 246.381 53.9899C247.485 55.4837 249.107 56.4602 250.942 56.7362C251.286 56.7888 251.632 56.8121 251.978 56.8121C252.18 56.8121 252.379 56.769 252.58 56.7514L256.086 55.9587Z" fill="#10A447"/>
<path d="M267.153 79.5959L268.079 84.9375C268.079 86.3354 269.212 87.4658 270.609 87.4658H278.611C280.008 87.4658 281.141 86.3354 281.141 84.9375V84.2949C283.408 84.5363 285.708 84.5567 287.986 84.3503V84.9375C287.986 86.3354 289.119 87.4658 290.516 87.4658H298.518C299.915 87.4658 301.048 86.3354 301.048 84.9375L301.973 79.9506L267.153 79.5959Z" fill="#10A447"/>
<path d="M317.508 47.3382L315.826 46.908C314.28 42.0124 311.403 37.6431 307.573 34.1603L308.339 33.6401C309.047 33.1605 309.464 32.3555 309.447 31.4983C309.431 30.6436 308.983 29.8534 308.256 29.3999C302.988 26.1165 299.068 26.8791 297.005 27.7808C293.345 26.4306 289.356 25.6807 285.174 25.6807C267.538 25.6807 253.241 38.8861 253.241 55.1755C253.241 71.4653 267.538 84.6703 285.174 84.6703C299.547 84.6703 311.699 75.8988 315.706 63.8354L317.508 63.3735C318.904 63.3735 320.037 62.2428 320.037 60.8449V49.8667C320.037 48.4689 318.904 47.3382 317.508 47.3382Z" fill="#22C55E"/>
<path d="M288.233 36.5041C288.596 36.6262 288.963 36.7603 289.338 36.9173C290.618 37.4837 292.107 36.8559 292.649 35.5664C293.189 34.2779 292.585 32.7968 291.299 32.2565C280.546 28.5955 273.941 33.6918 273.941 33.6918C273.372 34.0867 273.041 34.3764 272.981 34.43C271.94 35.3628 271.852 36.9607 272.783 38.0025C273.153 38.4151 273.629 38.678 274.135 38.7867C274.899 38.9511 275.728 38.7609 276.355 38.2001C276.369 38.1881 276.756 37.8522 277.462 37.4336C277.462 37.4336 282.562 34.5917 288.087 36.4547L288.233 36.5041Z" fill="#10A447"/>
<path d="M256.16 67.7412C261.308 77.6487 272.272 84.4894 284.965 84.4894C296.673 84.4894 306.908 78.6686 312.466 69.9896C312.466 69.9896 304.595 80.5799 285.073 80.5799C265.551 80.5799 256.16 67.7412 256.16 67.7412Z" fill="#10A447"/>
<path d="M292.549 35.4587C292.007 36.7483 290.517 37.3761 289.237 36.8097C288.862 36.6526 288.495 36.5189 288.132 36.3968L287.986 36.3474C282.461 34.4844 277.362 37.3263 277.362 37.3263C276.656 37.7449 276.269 38.0801 276.255 38.0925C275.627 38.6529 274.798 38.8435 274.034 38.679C273.528 38.5703 273.053 38.3074 272.682 37.8945L258.095 46.4024L258.673 66.0966L309.647 68.3005V42.4551L292.549 35.4587Z" fill="#22C55E"/>
<path d="M301.391 45.2014C298.747 45.2014 298.095 47.8089 298.276 48.7685C298.458 49.7281 299.037 51.4669 301.572 51.4669C304.107 51.4669 304.468 49.7285 304.468 48.5205C304.468 46.5054 303.311 45.2014 301.391 45.2014Z" stroke="#10A447" stroke-width="3.03316" stroke-linecap="round" stroke-linejoin="round"/>
<path d="M291.201 23.5182C291.149 23.3827 291.1 23.2465 291.042 23.1138L290.595 23.4798L290.538 23.4102L290.48 23.3404L290.961 22.9458C290.896 22.8039 290.83 22.6624 290.758 22.5244L290.311 22.8908L290.254 22.8209L290.197 22.751L290.675 22.3593C290.594 22.2118 290.502 22.0717 290.414 21.9294L289.921 22.3328C290.237 22.8276 290.507 23.3534 290.726 23.9064L291.201 23.5182Z" fill="black"/>
<path d="M281.013 17.6633C280.779 17.7018 280.548 17.7487 280.32 17.8045L279.617 18.3769C279.866 18.3081 280.116 18.246 280.372 18.198L280.366 18.1906L281.013 17.6633Z" fill="black"/>
<path d="M289.659 20.8696L289.149 21.2875C289.248 21.4032 289.342 21.5229 289.435 21.6432L289.936 21.2328C289.844 21.1114 289.756 20.9868 289.659 20.8696Z" fill="black"/>
<path d="M279.9 17.9116C279.74 17.9586 279.585 18.0147 279.43 18.0697L278.655 18.6972C278.887 18.6044 279.121 18.5151 279.362 18.441L279.317 18.3863L279.9 17.9116Z" fill="black"/>
<path d="M285.311 17.9524L284.743 18.4179C284.919 18.4705 285.09 18.5329 285.262 18.5954L285.819 18.1387C285.65 18.0749 285.484 18.0067 285.311 17.9524Z" fill="black"/>
<path d="M285.097 17.8957C284.92 17.8445 284.74 17.7979 284.559 17.7573L283.988 18.2242C284.202 18.2687 284.41 18.3276 284.619 18.3862L284.57 18.3273L285.097 17.8957Z" fill="black"/>
<path d="M283.818 18.1316L284.336 17.7077C284.16 17.6732 283.98 17.6506 283.801 17.6262L283.216 18.1051C283.439 18.1319 283.662 18.164 283.88 18.2064L283.875 18.2015L283.818 18.1316Z" fill="black"/>
<path d="M291.348 26.6267L291.787 26.2667C291.779 26.1189 291.777 25.9696 291.761 25.8235L291.309 26.194C291.326 26.3373 291.338 26.4817 291.348 26.6267Z" fill="black"/>
<path d="M290.765 24.0057C290.834 24.1882 290.908 24.3696 290.966 24.5573L291.43 24.1776C291.382 24.0139 291.324 23.8547 291.267 23.6948L290.814 24.0657L290.765 24.0057Z" fill="black"/>
<path d="M281.888 17.5605C281.712 17.5725 281.538 17.587 281.366 17.6089L280.706 18.1464C280.937 18.1114 281.169 18.0832 281.405 18.0659L281.351 17.9999L281.888 17.5605Z" fill="black"/>
<path d="M283.56 17.5906C283.351 17.5677 283.138 17.5592 282.925 17.55L282.953 17.5846L282.388 18.0476C282.621 18.0547 282.854 18.0621 283.083 18.0865L283.031 18.024L283.56 17.5906Z" fill="black"/>
<path d="M282.723 17.5367C282.657 17.5353 282.594 17.5269 282.529 17.5269C282.39 17.5269 282.255 17.5417 282.118 17.5477L282.146 17.5812L281.565 18.0562C281.742 18.046 281.917 18.0294 282.097 18.0294C282.127 18.0294 282.157 18.0336 282.188 18.034L282.158 17.9983L282.723 17.5367Z" fill="black"/>
<path d="M290.043 21.373L289.541 21.7835C289.637 21.9119 289.735 22.0379 289.824 22.1713L290.317 21.7679C290.23 21.6331 290.137 21.5029 290.043 21.373Z" fill="black"/>
<path d="M286.622 18.4893L286.076 18.9371C286.213 19.0024 286.353 19.0631 286.486 19.1344L287.026 18.6922C286.895 18.6195 286.758 18.5556 286.622 18.4893Z" fill="black"/>
<path d="M275.251 21.0552C275.429 20.8604 275.614 20.6733 275.809 20.4944L275.774 20.4531C275.592 20.6469 275.416 20.8463 275.251 21.0552Z" fill="black"/>
<path d="M287.575 19.0272C287.449 18.9453 287.319 18.8684 287.188 18.7925L286.652 19.2318C286.801 19.3158 286.946 19.4055 287.09 19.4976L287.053 19.4538L287.575 19.0272Z" fill="black"/>
<path d="M289.222 20.3911L288.713 20.8082C288.822 20.9194 288.924 21.038 289.028 21.1548L289.538 20.7373C289.435 20.6194 289.331 20.5037 289.222 20.3911Z" fill="black"/>
<path d="M291.339 28.1604L291.758 27.8177C291.778 27.6338 291.782 27.4457 291.791 27.259L291.367 27.6066C291.361 27.7919 291.355 27.9775 291.339 28.1604Z" fill="black"/>
<path d="M288.275 19.5298L287.748 19.9614C287.865 20.0514 287.982 20.14 288.094 20.2349L288.612 19.8103C288.502 19.7144 288.39 19.6205 288.275 19.5298Z" fill="black"/>
<path d="M291.798 26.4897L291.358 26.8501C291.366 27.005 291.382 27.1582 291.382 27.3152C291.382 27.3314 291.38 27.347 291.379 27.3628L291.804 27.0152C291.805 26.9475 291.814 26.8811 291.814 26.813C291.814 26.704 291.802 26.5981 291.798 26.4897Z" fill="black"/>
<path d="M287.737 19.1274L287.202 19.5654C287.339 19.6554 287.468 19.7531 287.6 19.8502L288.127 19.4186C287.997 19.3208 287.872 19.2185 287.737 19.1274Z" fill="black"/>
<path d="M288.748 19.9321L288.229 20.3567C288.349 20.4615 288.469 20.5663 288.582 20.6775L289.1 20.2536C288.988 20.141 288.865 20.0387 288.748 19.9321Z" fill="black"/>
<path d="M291.151 25.282L291.614 24.9019C291.576 24.722 291.525 24.5466 291.477 24.3701L291.014 24.7502C291.064 24.9256 291.11 25.1024 291.151 25.282Z" fill="black"/>
<path d="M291.276 25.9879L291.728 25.618C291.706 25.4469 291.682 25.2768 291.651 25.1091L291.198 25.4797C291.232 25.6466 291.252 25.8178 291.276 25.9879Z" fill="black"/>
<path d="M278.905 18.259C278.673 18.3575 278.448 18.4697 278.226 18.5862L277.283 19.3834C277.535 19.2299 277.794 19.0891 278.061 18.9599L278.053 18.9497L278.905 18.259Z" fill="black"/>
<path d="M286.018 18.2112L285.46 18.6678C285.607 18.7254 285.753 18.785 285.897 18.8492L286.443 18.4014C286.302 18.3358 286.162 18.2698 286.018 18.2112Z" fill="black"/>
<path d="M291.38 27.3634C291.38 27.4043 291.375 27.4442 291.374 27.4851C291.373 27.5261 291.369 27.5659 291.368 27.6069L291.792 27.2593C291.794 27.2187 291.797 27.1785 291.799 27.1375C291.8 27.0969 291.803 27.0571 291.804 27.0161L291.38 27.3634Z" fill="black"/>
<path d="M289.16 20.3213C289.139 20.2998 289.121 20.2758 289.1 20.2546L288.582 20.6781C288.604 20.6993 288.628 20.7184 288.65 20.7399C288.671 20.7611 288.691 20.7844 288.712 20.8059L289.221 20.3884C289.2 20.3665 289.182 20.3429 289.16 20.3213Z" fill="black"/>
<path d="M289.598 20.7964C289.578 20.7735 289.557 20.7523 289.537 20.7297L289.027 21.1469C289.047 21.1695 289.069 21.191 289.088 21.2139C289.108 21.2365 289.13 21.258 289.149 21.281L289.659 20.8631C289.64 20.8402 289.618 20.8194 289.598 20.7964Z" fill="black"/>
<path d="M289.99 21.3015L289.936 21.2295L289.435 21.6396C289.453 21.6632 289.471 21.6879 289.489 21.7119C289.507 21.7359 289.525 21.7599 289.543 21.7843L290.044 21.3742C290.026 21.3495 290.008 21.3258 289.99 21.3015Z" fill="black"/>
<path d="M290.366 21.848C290.35 21.8222 290.335 21.7954 290.319 21.77L289.826 22.1737C289.843 22.1992 289.857 22.2263 289.873 22.2517C289.89 22.2771 289.905 22.3043 289.921 22.3297L290.413 21.926C290.398 21.8999 290.382 21.8738 290.366 21.848Z" fill="black"/>
<path d="M290.311 22.8899L290.758 22.5236C290.744 22.496 290.732 22.4671 290.718 22.4399C290.703 22.4127 290.689 22.3852 290.674 22.3584L290.196 22.7501L290.253 22.82L290.311 22.8899Z" fill="black"/>
<path d="M290.538 23.4071L290.595 23.477L291.042 23.1106C291.03 23.0821 291.015 23.0552 291.002 23.027C290.989 22.9984 290.975 22.9712 290.961 22.9434L290.48 23.3372L290.538 23.4071Z" fill="black"/>
<path d="M290.759 23.9941C290.761 23.9983 290.762 24.0022 290.763 24.0064L290.812 24.0671L291.266 23.6959C291.255 23.6659 291.244 23.6359 291.233 23.6062C291.222 23.5762 291.212 23.5455 291.2 23.5159L290.726 23.9044C290.737 23.9341 290.748 23.9644 290.759 23.9941Z" fill="black"/>
<path d="M290.991 24.6551C291 24.6869 291.006 24.7201 291.015 24.7518L291.479 24.3718C291.47 24.3396 291.463 24.3072 291.454 24.2754C291.445 24.2433 291.439 24.2105 291.43 24.1787L290.966 24.5591C290.975 24.5906 290.981 24.6234 290.991 24.6551Z" fill="black"/>
<path d="M291.177 25.3796C291.184 25.4125 291.192 25.4453 291.199 25.4781L291.651 25.1075C291.645 25.0737 291.642 25.038 291.635 25.0041C291.629 24.9703 291.623 24.9371 291.616 24.9036L291.152 25.2833C291.159 25.3158 291.17 25.3468 291.177 25.3796Z" fill="black"/>
<path d="M291.292 26.0922C291.297 26.1272 291.304 26.161 291.308 26.196L291.761 25.8254C291.757 25.7905 291.749 25.7566 291.745 25.7217C291.741 25.6867 291.733 25.6529 291.729 25.6179L291.276 25.9885C291.281 26.0231 291.288 26.0573 291.292 26.0922Z" fill="black"/>
<path d="M291.353 26.7381C291.355 26.7755 291.357 26.8129 291.358 26.8503L291.798 26.4903C291.797 26.4526 291.794 26.4159 291.792 26.3785C291.79 26.3411 291.789 26.304 291.786 26.2666L291.347 26.6266C291.35 26.6636 291.35 26.701 291.353 26.7381Z" fill="black"/>
<path d="M284.336 17.7095L283.818 18.1333L283.876 18.2032L283.88 18.2085C283.916 18.2152 283.953 18.2198 283.989 18.2275L284.559 17.7606C284.523 17.7525 284.487 17.7402 284.451 17.7324C284.413 17.7246 284.374 17.7169 284.336 17.7095Z" fill="black"/>
<path d="M285.205 17.9217C285.169 17.9111 285.132 17.904 285.096 17.8938L284.569 18.3258L284.618 18.3847C284.623 18.3861 284.629 18.3875 284.634 18.3889C284.67 18.3992 284.707 18.4066 284.743 18.4168L285.311 17.9517C285.276 17.9407 285.24 17.9323 285.205 17.9217Z" fill="black"/>
<path d="M285.918 18.1765C285.886 18.1638 285.852 18.1528 285.82 18.1401L285.263 18.5971C285.295 18.6095 285.328 18.6211 285.361 18.6331C285.394 18.6459 285.427 18.6568 285.46 18.6695L286.017 18.2125C285.984 18.1994 285.951 18.1892 285.918 18.1765Z" fill="black"/>
<path d="M286.531 18.446C286.501 18.4315 286.472 18.4167 286.442 18.4026L285.896 18.8504C285.926 18.8638 285.955 18.8797 285.985 18.8935C286.015 18.9076 286.045 18.9224 286.075 18.9369L286.621 18.4894C286.591 18.4746 286.561 18.4605 286.531 18.446Z" fill="black"/>
<path d="M287.107 18.7375C287.079 18.722 287.053 18.7033 287.025 18.6877L286.485 19.1299C286.514 19.1455 286.542 19.1613 286.57 19.1772C286.599 19.1928 286.625 19.2111 286.653 19.227L287.189 18.7873C287.161 18.771 287.135 18.7534 287.107 18.7375Z" fill="black"/>
<path d="M287.656 19.0744C287.63 19.0568 287.601 19.042 287.574 19.0247L287.053 19.4513L287.089 19.4947C287.099 19.5011 287.11 19.5071 287.12 19.5138C287.147 19.5307 287.175 19.5455 287.201 19.5632L287.737 19.1256C287.71 19.1076 287.683 19.0917 287.656 19.0744Z" fill="black"/>
<path d="M288.201 19.472C288.177 19.453 288.151 19.4353 288.126 19.4163L287.6 19.8479C287.624 19.8666 287.649 19.8849 287.674 19.9036C287.699 19.9223 287.724 19.941 287.749 19.9597L288.276 19.5278C288.252 19.5087 288.226 19.4911 288.201 19.472Z" fill="black"/>
<path d="M288.681 19.8695C288.658 19.8494 288.636 19.8282 288.613 19.8081L288.095 20.233C288.118 20.2524 288.139 20.2743 288.162 20.2944C288.185 20.3142 288.207 20.3357 288.23 20.3558L288.748 19.9309C288.725 19.9104 288.703 19.8896 288.681 19.8695Z" fill="black"/>
<path d="M283.56 17.5891L283.031 18.0225L283.082 18.0849C283.086 18.0853 283.091 18.0864 283.095 18.0871C283.136 18.0913 283.175 18.1005 283.215 18.1051L283.8 17.6258C283.76 17.6202 283.72 17.6124 283.68 17.6075C283.639 17.6025 283.6 17.5937 283.56 17.5891Z" fill="black"/>
<path d="M282.856 17.5443C282.811 17.5429 282.767 17.5383 282.722 17.5376L282.157 17.9992L282.187 18.0352C282.209 18.0355 282.231 18.0377 282.253 18.038C282.298 18.0387 282.342 18.044 282.387 18.0451L282.952 17.5824L282.924 17.5482C282.901 17.5471 282.879 17.545 282.856 17.5443Z" fill="black"/>
<path d="M282.04 17.5503C281.989 17.5531 281.938 17.5545 281.888 17.558L281.352 17.997L281.406 18.063C281.408 18.0627 281.412 18.0627 281.414 18.0627C281.465 18.0588 281.516 18.0577 281.566 18.0549L282.146 17.5799L282.118 17.5464C282.092 17.5474 282.066 17.5492 282.04 17.5503Z" fill="black"/>
<path d="M281.19 17.6352C281.131 17.6437 281.072 17.6525 281.013 17.662L280.366 18.1889L280.372 18.1963C280.424 18.1865 280.477 18.1812 280.53 18.1723C280.588 18.1625 280.647 18.1543 280.706 18.1455L281.366 17.6084C281.307 17.6158 281.249 17.6267 281.19 17.6352Z" fill="black"/>
<path d="M279.899 17.909L279.316 18.3837L279.361 18.4384C279.376 18.4342 279.391 18.4313 279.406 18.4271C279.475 18.4063 279.546 18.3925 279.615 18.3731L280.318 17.8018C280.248 17.8191 280.178 17.8363 280.109 17.855C280.039 17.8738 279.968 17.8886 279.899 17.909Z" fill="black"/>
<path d="M279.168 18.1633C279.081 18.1971 278.99 18.2243 278.904 18.261L278.052 18.9517L278.06 18.9619C278.161 18.9132 278.26 18.8613 278.363 18.8161C278.459 18.7734 278.557 18.7343 278.656 18.6951L279.43 18.0676C279.343 18.0983 279.255 18.1297 279.168 18.1633Z" fill="black"/>
<path d="M277.794 18.8339C277.605 18.9458 277.419 19.0598 277.239 19.1847C276.754 19.5218 276.302 19.9033 275.89 20.325L275.759 20.4361L275.773 20.4534L275.809 20.4947C276.065 20.2586 276.334 20.037 276.615 19.8302C276.831 19.6717 277.054 19.5235 277.283 19.3838L278.226 18.5869C278.078 18.6642 277.936 18.7489 277.794 18.8339Z" fill="black"/>
<path d="M291.057 27.3552C291.057 32.2683 287.074 36.251 282.161 36.251C277.248 36.251 273.265 32.2683 273.265 27.3552C273.265 22.442 277.248 18.4593 282.161 18.4593C287.074 18.4593 291.057 22.442 291.057 27.3552Z" fill="black" stroke="black" stroke-width="0.907453"/>
<path d="M280.07 31.2351V28.1083H279.121V27.3296H280.07V26.3319H279.121V25.5533H280.07V22.5481H281.335L282.491 25.5533H283.927V22.5481H284.888V25.5533H285.837V26.3319H284.888V27.3296H285.837V28.1083H284.888V31.2351H283.61L282.454 28.1083H281.019V31.2351H280.07ZM281.019 27.3296H282.162L281.797 26.3319H280.994L281.019 27.3296ZM283.927 29.5196H283.975L283.939 28.1083H283.428L283.927 29.5196ZM280.994 25.5533H281.505L280.994 24.0446H280.946L280.994 25.5533ZM283.136 27.3296H283.951L283.927 26.3319H282.771L283.136 27.3296Z" fill="black"/>
<path d="M157.005 84.4906L157.555 81.9133C157.624 81.5896 157.987 81.4251 158.276 81.5863L159.952 82.5211C160.257 82.691 160.637 82.4988 160.68 82.1528L160.931 80.1556C160.969 79.8576 161.262 79.6624 161.552 79.7431L164.101 80.4537C164.414 80.5411 164.725 80.3053 164.725 79.9797V78.2994C164.725 78.0045 164.982 77.7758 165.275 77.8108L168.034 78.1405C168.327 78.1755 168.585 77.9468 168.585 77.6519V75.6118" stroke="black" stroke-width="0.738057" stroke-linecap="round"/>
</g>
<path d="M193.44 60.8134C191.738 66.9323 186.53 70.8284 183.301 72.8304C190.664 73.3189 195.702 78.9937 196.512 82.2304C196.634 78.1729 200.721 70.0218 205.451 68.8062C199.202 68.4764 195.616 64.8097 193.44 60.8134Z" fill="#FCB40C" stroke="black" stroke-width="1.18811"/>
<path d="M27.6009 34.0034C27.6009 31.6592 29.5422 30.0293 32.3624 30.0293C35.0728 30.0293 36.7943 31.531 36.8675 33.9484H34.5234C34.4685 32.7947 33.6444 32.1171 32.3258 32.1171C30.879 32.1171 29.9451 32.813 29.9451 33.9301C29.9451 34.8824 30.4578 35.4135 31.575 35.6699L33.681 36.1277C35.9702 36.6222 37.0873 37.7942 37.0873 39.7904C37.0873 42.281 35.1461 43.8926 32.1976 43.8926C29.3407 43.8926 27.4727 42.3726 27.4178 39.9735H29.7619C29.7802 41.109 30.6959 41.7866 32.1976 41.7866C33.7543 41.7866 34.7432 41.109 34.7432 39.9919C34.7432 39.0945 34.2854 38.5634 33.1865 38.3253L31.0622 37.8492C28.7913 37.3547 27.6009 36.0545 27.6009 34.0034ZM41.5704 43.8926C39.6475 43.8926 38.4754 42.7755 38.4754 41.0723C38.4754 39.4058 39.6841 38.362 41.8268 38.1971L44.5372 37.9957V37.7942C44.5372 36.5672 43.8046 36.0728 42.6692 36.0728C41.3506 36.0728 40.6181 36.6222 40.6181 37.5745H38.7135C38.7135 35.6149 40.3251 34.333 42.7791 34.333C45.2148 34.333 46.7165 35.6516 46.7165 38.1605V43.6545H44.7569L44.5921 42.3177C44.2075 43.2516 42.9805 43.8926 41.5704 43.8926ZM42.3029 42.2078C43.6764 42.2078 44.5555 41.3837 44.5555 39.9919V39.5157L42.6692 39.6622C41.2774 39.7904 40.7463 40.2482 40.7463 40.9808C40.7463 41.8049 41.2957 42.2078 42.3029 42.2078ZM51.1176 43.6545L47.5281 34.6077H49.9089L51.4838 38.7649C51.8684 39.8453 52.1797 40.7793 52.2896 41.2738C52.4178 40.7061 52.7474 39.7538 53.132 38.7649L54.7802 34.6077H57.0877L53.3152 43.6545H51.1176ZM61.9723 43.8926C59.2802 43.8926 57.3939 41.9331 57.3939 39.1311C57.3939 36.2925 59.2436 34.333 61.899 34.333C64.6094 34.333 66.3309 36.146 66.3309 38.9663V39.6439L59.5183 39.6622C59.6831 41.2555 60.5255 42.0613 62.0089 42.0613C63.2359 42.0613 64.0417 41.5851 64.2981 40.7244H66.3675C65.9829 42.7022 64.3347 43.8926 61.9723 43.8926ZM61.9173 36.1643C60.5988 36.1643 59.793 36.8786 59.5732 38.2338H64.1149C64.1149 36.9884 63.2542 36.1643 61.9173 36.1643ZM72.524 39.1128C72.524 36.2925 74.5568 34.3513 77.3587 34.3513C80.1607 34.3513 82.1935 36.2925 82.1935 39.1128C82.1935 41.9331 80.1607 43.8743 77.3587 43.8743C74.5568 43.8743 72.524 41.9331 72.524 39.1128ZM74.7582 39.1128C74.7582 40.761 75.8204 41.8781 77.3587 41.8781C78.897 41.8781 79.9592 40.761 79.9592 39.1128C79.9592 37.4646 78.897 36.3475 77.3587 36.3475C75.8204 36.3475 74.7582 37.4646 74.7582 39.1128ZM86.1987 43.6545H83.9644V34.6077H86.0339L86.217 35.7798C86.7847 34.8641 87.8835 34.333 89.1105 34.333C91.3814 34.333 92.5534 35.7431 92.5534 38.0873V43.6545H90.3192V38.6183C90.3192 37.0983 89.5683 36.3658 88.4146 36.3658C87.0411 36.3658 86.1987 37.3181 86.1987 38.7832V43.6545ZM177.773 43.8926C175.081 43.8926 173.194 41.9331 173.194 39.1311C173.194 36.2925 175.044 34.333 177.699 34.333C180.41 34.333 182.131 36.146 182.131 38.9663V39.6439L175.319 39.6622C175.483 41.2555 176.326 42.0613 177.809 42.0613C179.036 42.0613 179.842 41.5851 180.098 40.7244H182.168C181.783 42.7022 180.135 43.8926 177.773 43.8926ZM177.718 36.1643C176.399 36.1643 175.593 36.8786 175.374 38.2338H179.915C179.915 36.9884 179.055 36.1643 177.718 36.1643ZM186.522 43.8926C184.599 43.8926 183.427 42.7755 183.427 41.0723C183.427 39.4058 184.636 38.362 186.778 38.1971L189.489 37.9957V37.7942C189.489 36.5672 188.756 36.0728 187.621 36.0728C186.302 36.0728 185.57 36.6222 185.57 37.5745H183.665C183.665 35.6149 185.277 34.333 187.731 34.333C190.166 34.333 191.668 35.6516 191.668 38.1605V43.6545H189.709L189.544 42.3177C189.159 43.2516 187.932 43.8926 186.522 43.8926ZM187.255 42.2078C188.628 42.2078 189.507 41.3837 189.507 39.9919V39.5157L187.621 39.6622C186.229 39.7904 185.698 40.2482 185.698 40.9808C185.698 41.8049 186.247 42.2078 187.255 42.2078ZM199.54 34.5711V36.6405H198.716C197.104 36.6405 196.097 37.5012 196.097 39.2593V43.6545H193.863V34.626H195.969L196.097 35.9446C196.482 35.0472 197.343 34.4429 198.551 34.4429C198.863 34.4429 199.174 34.4795 199.54 34.5711ZM203.287 43.6545H201.052V34.6077H203.122L203.305 35.7798C203.873 34.8641 204.972 34.333 206.199 34.333C208.469 34.333 209.641 35.7431 209.641 38.0873V43.6545H207.407V38.6183C207.407 37.0983 206.656 36.3658 205.503 36.3658C204.129 36.3658 203.287 37.3181 203.287 38.7832V43.6545Z" fill="black"/>
<mask id="path-72-outside-1_630_284276" maskUnits="userSpaceOnUse" x="23.0479" y="55.6323" width="127" height="21" fill="black">
<rect fill="white" x="23.0479" y="55.6323" width="127" height="21"/>
<path d="M27.8937 70.8704C25.9708 70.8704 24.7987 69.7533 24.7987 68.0501C24.7987 66.3836 26.0074 65.3397 28.1501 65.1749L30.8605 64.9735V64.772C30.8605 63.545 30.1279 63.0506 28.9925 63.0506C27.6739 63.0506 26.9414 63.6 26.9414 64.5523H25.0368C25.0368 62.5927 26.6484 61.3108 29.1024 61.3108C31.5381 61.3108 33.0398 62.6293 33.0398 65.1383V70.6323H31.0802L30.9154 69.2954C30.5308 70.2294 29.3038 70.8704 27.8937 70.8704ZM28.6262 69.1856C29.9997 69.1856 30.8788 68.3615 30.8788 66.9696V66.4935L28.9925 66.64C27.6007 66.7682 27.0696 67.226 27.0696 67.9586C27.0696 68.7827 27.619 69.1856 28.6262 69.1856ZM37.8352 70.6323H35.6009V61.5855H37.652L37.8352 62.6477C38.293 61.8968 39.2087 61.3108 40.5089 61.3108C41.8824 61.3108 42.8347 61.9884 43.3109 63.0322C43.7687 61.9884 44.8309 61.3108 46.2044 61.3108C48.402 61.3108 49.6107 62.6293 49.6107 64.7171V70.6323H47.3948V65.3031C47.3948 64.0029 46.6989 63.3253 45.6367 63.3253C44.5562 63.3253 43.7321 64.0212 43.7321 65.5046V70.6323H41.4978V65.2848C41.4978 64.0212 40.8202 63.3436 39.7581 63.3436C38.6959 63.3436 37.8352 64.0395 37.8352 65.5046V70.6323ZM54.8624 70.8704C52.9395 70.8704 51.7674 69.7533 51.7674 68.0501C51.7674 66.3836 52.9761 65.3397 55.1188 65.1749L57.8291 64.9735V64.772C57.8291 63.545 57.0966 63.0506 55.9612 63.0506C54.6426 63.0506 53.9101 63.6 53.9101 64.5523H52.0055C52.0055 62.5927 53.6171 61.3108 56.0711 61.3108C58.5067 61.3108 60.0084 62.6293 60.0084 65.1383V70.6323H58.0489L57.8841 69.2954C57.4995 70.2294 56.2725 70.8704 54.8624 70.8704ZM55.5949 69.1856C56.9684 69.1856 57.8475 68.3615 57.8475 66.9696V66.4935L55.9612 66.64C54.5694 66.7682 54.0383 67.226 54.0383 67.9586C54.0383 68.7827 54.5877 69.1856 55.5949 69.1856ZM69.4005 70.6323H62.0935V68.801L66.5986 63.4535H62.0935V61.5855H69.4005V63.4351L64.8222 68.7644H69.4005V70.6323ZM72.709 59.7725C71.9398 59.7725 71.3355 59.1681 71.3355 58.4173C71.3355 57.6664 71.9398 57.0804 72.709 57.0804C73.4415 57.0804 74.0458 57.6664 74.0458 58.4173C74.0458 59.1681 73.4415 59.7725 72.709 59.7725ZM71.5918 70.6323V61.5855H73.8261V70.6323H71.5918ZM78.7349 70.6323H76.5007V61.5855H78.5701L78.7533 62.7575C79.321 61.8419 80.4198 61.3108 81.6468 61.3108C83.9176 61.3108 85.0897 62.7209 85.0897 65.065V70.6323H82.8555V65.5961C82.8555 64.0761 82.1046 63.3436 80.9509 63.3436C79.5774 63.3436 78.7349 64.2959 78.7349 65.7609V70.6323ZM87.1384 65.9075C87.1384 63.2703 88.8598 61.2925 91.442 61.2925C92.7972 61.2925 93.8594 61.8602 94.3905 62.8308L94.5187 61.5855H96.5881V70.1745C96.5881 73.1962 94.7751 75.0825 91.8449 75.0825C89.2444 75.0825 87.468 73.5991 87.1933 71.1817H89.4276C89.5741 72.3538 90.4714 73.0497 91.8449 73.0497C93.3833 73.0497 94.3722 72.0791 94.3722 70.5774V69.0757C93.8045 69.9181 92.6874 70.4492 91.3871 70.4492C88.8232 70.4492 87.1384 68.5263 87.1384 65.9075ZM89.3909 65.8525C89.3909 67.3725 90.3615 68.508 91.8266 68.508C93.365 68.508 94.3173 67.4275 94.3173 65.8525C94.3173 64.3142 93.3833 63.252 91.8266 63.252C90.3432 63.252 89.3909 64.3691 89.3909 65.8525ZM108.287 70.8704C105.668 70.8704 104.038 68.9475 104.038 66.1455C104.038 63.3253 105.686 61.3108 108.415 61.3108C109.678 61.3108 110.795 61.8419 111.363 62.7392V57.0071H113.579V70.6323H111.528L111.382 69.2222C110.832 70.2661 109.66 70.8704 108.287 70.8704ZM108.781 68.8193C110.338 68.8193 111.345 67.7022 111.345 66.0723C111.345 64.4424 110.338 63.3069 108.781 63.3069C107.224 63.3069 106.272 64.4607 106.272 66.0723C106.272 67.6839 107.224 68.8193 108.781 68.8193ZM120.321 70.8704C117.629 70.8704 115.743 68.9109 115.743 66.1089C115.743 63.2703 117.592 61.3108 120.248 61.3108C122.958 61.3108 124.68 63.1238 124.68 65.9441V66.6217L117.867 66.64C118.032 68.2333 118.874 69.0391 120.358 69.0391C121.585 69.0391 122.39 68.5629 122.647 67.7022H124.716C124.332 69.68 122.683 70.8704 120.321 70.8704ZM120.266 63.1421C118.948 63.1421 118.142 63.8563 117.922 65.2115H122.464C122.464 63.9662 121.603 63.1421 120.266 63.1421ZM129.437 70.8704C127.514 70.8704 126.342 69.7533 126.342 68.0501C126.342 66.3836 127.55 65.3397 129.693 65.1749L132.403 64.9735V64.772C132.403 63.545 131.671 63.0506 130.536 63.0506C129.217 63.0506 128.484 63.6 128.484 64.5523H126.58C126.58 62.5927 128.191 61.3108 130.645 61.3108C133.081 61.3108 134.583 62.6293 134.583 65.1383V70.6323H132.623L132.458 69.2954C132.074 70.2294 130.847 70.8704 129.437 70.8704ZM130.169 69.1856C131.543 69.1856 132.422 68.3615 132.422 66.9696V66.4935L130.536 66.64C129.144 66.7682 128.613 67.226 128.613 67.9586C128.613 68.7827 129.162 69.1856 130.169 69.1856ZM139.397 70.6323H137.181V57.0071H139.397V70.6323ZM141.411 67.8853H143.535C143.553 68.6728 144.139 69.1672 145.165 69.1672C146.209 69.1672 146.776 68.746 146.776 68.0868C146.776 67.6289 146.538 67.2993 145.733 67.1161L144.103 66.7316C142.473 66.3653 141.685 65.5961 141.685 64.1494C141.685 62.373 143.187 61.3108 145.275 61.3108C147.307 61.3108 148.681 62.4828 148.699 64.2409H146.575C146.557 63.4718 146.044 62.9773 145.183 62.9773C144.304 62.9773 143.791 63.3802 143.791 64.0578C143.791 64.5706 144.194 64.9002 144.963 65.0834L146.593 65.4679C148.113 65.8159 148.882 66.5118 148.882 67.9036C148.882 69.735 147.326 70.8704 145.092 70.8704C142.839 70.8704 141.411 69.6617 141.411 67.8853Z"/>
</mask>
<path d="M28.1501 65.1749L28.0828 64.27L28.0805 64.2701L28.1501 65.1749ZM30.8605 64.9735L30.9277 65.8784L31.7679 65.816V64.9735H30.8605ZM26.9414 64.5523V65.4597H27.8488V64.5523H26.9414ZM25.0368 64.5523H24.1293V65.4597H25.0368V64.5523ZM33.0398 70.6323V71.5398H33.9472V70.6323H33.0398ZM31.0802 70.6323L30.1796 70.7434L30.2778 71.5398H31.0802V70.6323ZM30.9154 69.2954L31.816 69.1844L31.3929 65.7524L30.0763 68.9499L30.9154 69.2954ZM30.8788 66.4935H31.7862V65.5128L30.8085 65.5888L30.8788 66.4935ZM28.9925 66.64L28.9222 65.7352L28.9093 65.7364L28.9925 66.64ZM27.8937 69.9629C27.1056 69.9629 26.57 69.7361 26.2405 69.432C25.9184 69.1348 25.7062 68.6847 25.7062 68.0501H23.8912C23.8912 69.1187 24.265 70.0787 25.0097 70.7659C25.747 71.4462 26.7589 71.7779 27.8937 71.7779V69.9629ZM25.7062 68.0501C25.7062 67.458 25.91 67.0404 26.2624 66.7376C26.6393 66.4136 27.269 66.1528 28.2197 66.0797L28.0805 64.2701C26.8885 64.3618 25.8425 64.7054 25.0794 65.3612C24.2918 66.0381 23.8912 66.9757 23.8912 68.0501H25.7062ZM28.2173 66.0799L30.9277 65.8784L30.7932 64.0685L28.0828 64.27L28.2173 66.0799ZM31.7679 64.9735V64.772H29.953V64.9735H31.7679ZM31.7679 64.772C31.7679 63.9726 31.522 63.2557 30.9408 62.7605C30.3868 62.2883 29.6719 62.1431 28.9925 62.1431V63.958C29.4485 63.958 29.6676 64.06 29.7637 64.1419C29.8326 64.2006 29.953 64.3444 29.953 64.772H31.7679ZM28.9925 62.1431C28.2258 62.1431 27.4956 62.3001 26.9342 62.7137C26.3336 63.1563 26.0339 63.8142 26.0339 64.5523H27.8488C27.8488 64.338 27.9155 64.2451 28.0108 64.1748C28.1453 64.0757 28.4406 63.958 28.9925 63.958V62.1431ZM26.9414 63.6448H25.0368V65.4597H26.9414V63.6448ZM25.9442 64.5523C25.9442 63.8453 26.2239 63.2975 26.7148 62.9064C27.2248 62.5001 28.0247 62.2182 29.1024 62.2182V60.4033C27.726 60.4033 26.4931 60.7625 25.5838 61.487C24.6554 62.2267 24.1293 63.2997 24.1293 64.5523H25.9442ZM29.1024 62.2182C30.1632 62.2182 30.8969 62.504 31.3608 62.9429C31.8166 63.3742 32.1323 64.0673 32.1323 65.1383H33.9472C33.9472 63.7003 33.512 62.4797 32.6081 61.6245C31.7122 60.7768 30.4773 60.4033 29.1024 60.4033V62.2182ZM32.1323 65.1383V70.6323H33.9472V65.1383H32.1323ZM33.0398 69.7249H31.0802V71.5398H33.0398V69.7249ZM31.9808 70.5213L31.816 69.1844L30.0148 69.4065L30.1796 70.7434L31.9808 70.5213ZM30.0763 68.9499C29.8873 69.4089 29.108 69.9629 27.8937 69.9629V71.7779C29.4996 71.7779 31.1743 71.0499 31.7545 69.641L30.0763 68.9499ZM28.6262 70.093C29.4937 70.093 30.3029 69.8299 30.8996 69.2506C31.5001 68.6678 31.7862 67.8608 31.7862 66.9696H29.9713C29.9713 67.4703 29.818 67.7713 29.6355 67.9484C29.4493 68.1292 29.1322 68.2781 28.6262 68.2781V70.093ZM31.7862 66.9696V66.4935H29.9713V66.9696H31.7862ZM30.8085 65.5888L28.9222 65.7353L29.0628 67.5447L30.949 67.3982L30.8085 65.5888ZM28.9093 65.7364C28.1537 65.806 27.4794 65.9739 26.977 66.3376C26.4111 66.7472 26.1621 67.3314 26.1621 67.9586H27.977C27.977 67.8862 27.9897 67.8599 27.9913 67.8566C27.9914 67.8562 27.9977 67.8392 28.0412 67.8077C28.1523 67.7273 28.4394 67.6022 29.0757 67.5436L28.9093 65.7364ZM26.1621 67.9586C26.1621 68.5901 26.3851 69.1888 26.9148 69.5987C27.4028 69.9764 28.0246 70.093 28.6262 70.093V68.2781C28.2206 68.2781 28.0641 68.1933 28.0256 68.1635C28.0131 68.1538 28.0083 68.1474 28.0025 68.1341C27.9946 68.1162 27.977 68.0645 27.977 67.9586H26.1621ZM37.8352 70.6323V71.5398H38.7426V70.6323H37.8352ZM35.6009 70.6323H34.6935V71.5398H35.6009V70.6323ZM35.6009 61.5855V60.678H34.6935V61.5855H35.6009ZM37.652 61.5855L38.5463 61.4313L38.4164 60.678H37.652V61.5855ZM37.8352 62.6477L36.9409 62.8018L37.3516 65.1838L38.6099 63.1201L37.8352 62.6477ZM43.3109 63.0322L42.4853 63.4088L43.3271 65.2545L44.1419 63.3967L43.3109 63.0322ZM49.6107 70.6323V71.5398H50.5182V70.6323H49.6107ZM47.3948 70.6323H46.4873V71.5398H47.3948V70.6323ZM43.7321 70.6323V71.5398H44.6395V70.6323H43.7321ZM41.4978 70.6323H40.5904V71.5398H41.4978V70.6323ZM37.8352 69.7249H35.6009V71.5398H37.8352V69.7249ZM36.5084 70.6323V61.5855H34.6935V70.6323H36.5084ZM35.6009 62.4929H37.652V60.678H35.6009V62.4929ZM36.7578 61.7397L36.9409 62.8018L38.7294 62.4935L38.5463 61.4313L36.7578 61.7397ZM38.6099 63.1201C38.889 62.6625 39.4971 62.2182 40.5089 62.2182V60.4033C38.9202 60.4033 37.697 61.1312 37.0604 62.1752L38.6099 63.1201ZM40.5089 62.2182C41.5311 62.2182 42.1583 62.692 42.4853 63.4088L44.1365 62.6556C43.5112 61.2848 42.2338 60.4033 40.5089 60.4033V62.2182ZM44.1419 63.3967C44.4361 62.726 45.1414 62.2182 46.2044 62.2182V60.4033C44.5204 60.4033 43.1013 61.2507 42.4798 62.6678L44.1419 63.3967ZM46.2044 62.2182C47.12 62.2182 47.7148 62.4887 48.0825 62.8651C48.4536 63.2451 48.7032 63.8458 48.7032 64.7171H50.5182C50.5182 63.5007 50.1634 62.3982 49.3808 61.597C48.5947 60.7922 47.4864 60.4033 46.2044 60.4033V62.2182ZM48.7032 64.7171V70.6323H50.5182V64.7171H48.7032ZM49.6107 69.7249H47.3948V71.5398H49.6107V69.7249ZM48.3022 70.6323V65.3031H46.4873V70.6323H48.3022ZM48.3022 65.3031C48.3022 64.4971 48.0852 63.7568 47.5805 63.2107C47.0678 62.6559 46.3657 62.4178 45.6367 62.4178V64.2327C45.9699 64.2327 46.1468 64.3334 46.2476 64.4425C46.3564 64.5602 46.4873 64.8088 46.4873 65.3031H48.3022ZM45.6367 62.4178C44.8992 62.4178 44.166 62.6597 43.621 63.234C43.079 63.805 42.8246 64.5974 42.8246 65.5046H44.6395C44.6395 64.9283 44.7972 64.6311 44.9374 64.4833C45.0746 64.3388 45.2937 64.2327 45.6367 64.2327V62.4178ZM42.8246 65.5046V70.6323H44.6395V65.5046H42.8246ZM43.7321 69.7249H41.4978V71.5398H43.7321V69.7249ZM42.4053 70.6323V65.2848H40.5904V70.6323H42.4053ZM42.4053 65.2848C42.4053 64.4969 42.1928 63.7661 41.6931 63.2248C41.185 62.6745 40.4874 62.4361 39.7581 62.4361V64.251C40.0909 64.251 40.2632 64.3515 40.3595 64.4558C40.4641 64.5692 40.5904 64.8091 40.5904 65.2848H42.4053ZM39.7581 62.4361C39.0277 62.4361 38.2965 62.6788 37.7484 63.2414C37.1991 63.8051 36.9277 64.5929 36.9277 65.5046H38.7426C38.7426 64.9512 38.9016 64.6585 39.0482 64.5079C39.196 64.3563 39.4262 64.251 39.7581 64.251V62.4361ZM36.9277 65.5046V70.6323H38.7426V65.5046H36.9277ZM55.1188 65.1749L55.0515 64.27L55.0492 64.2701L55.1188 65.1749ZM57.8291 64.9735L57.8964 65.8784L58.7366 65.816V64.9735H57.8291ZM53.9101 64.5523V65.4597H54.8175V64.5523H53.9101ZM52.0055 64.5523H51.098V65.4597H52.0055V64.5523ZM60.0084 70.6323V71.5398H60.9159V70.6323H60.0084ZM58.0489 70.6323L57.1483 70.7434L57.2465 71.5398H58.0489V70.6323ZM57.8841 69.2954L58.7847 69.1844L58.3616 65.7524L57.045 68.9499L57.8841 69.2954ZM57.8475 66.4935H58.7549V65.5128L57.7772 65.5888L57.8475 66.4935ZM55.9612 66.64L55.8909 65.7352L55.8779 65.7364L55.9612 66.64ZM54.8624 69.9629C54.0743 69.9629 53.5387 69.7361 53.2092 69.432C52.8871 69.1348 52.6748 68.6847 52.6748 68.0501H50.8599C50.8599 69.1187 51.2337 70.0787 51.9784 70.7659C52.7157 71.4462 53.7276 71.7779 54.8624 71.7779V69.9629ZM52.6748 68.0501C52.6748 67.458 52.8787 67.0404 53.231 66.7376C53.608 66.4136 54.2377 66.1528 55.1884 66.0797L55.0492 64.2701C53.8572 64.3618 52.8112 64.7054 52.0481 65.3612C51.2605 66.0381 50.8599 66.9757 50.8599 68.0501H52.6748ZM55.186 66.0799L57.8964 65.8784L57.7619 64.0685L55.0515 64.27L55.186 66.0799ZM58.7366 64.9735V64.772H56.9217V64.9735H58.7366ZM58.7366 64.772C58.7366 63.9726 58.4907 63.2557 57.9095 62.7605C57.3555 62.2883 56.6406 62.1431 55.9612 62.1431V63.958C56.4172 63.958 56.6363 64.06 56.7324 64.1419C56.8013 64.2006 56.9217 64.3444 56.9217 64.772H58.7366ZM55.9612 62.1431C55.1945 62.1431 54.4643 62.3001 53.9029 62.7137C53.3023 63.1563 53.0026 63.8142 53.0026 64.5523H54.8175C54.8175 64.338 54.8841 64.2451 54.9795 64.1748C55.114 64.0757 55.4093 63.958 55.9612 63.958V62.1431ZM53.9101 63.6448H52.0055V65.4597H53.9101V63.6448ZM52.9129 64.5523C52.9129 63.8453 53.1926 63.2975 53.6835 62.9064C54.1935 62.5001 54.9934 62.2182 56.0711 62.2182V60.4033C54.6947 60.4033 53.4618 60.7625 52.5525 61.487C51.6241 62.2267 51.098 63.2997 51.098 64.5523H52.9129ZM56.0711 62.2182C57.1319 62.2182 57.8656 62.504 58.3295 62.9429C58.7853 63.3742 59.101 64.0673 59.101 65.1383H60.9159C60.9159 63.7003 60.4807 62.4797 59.5768 61.6245C58.6809 60.7768 57.4459 60.4033 56.0711 60.4033V62.2182ZM59.101 65.1383V70.6323H60.9159V65.1383H59.101ZM60.0084 69.7249H58.0489V71.5398H60.0084V69.7249ZM58.9495 70.5213L58.7847 69.1844L56.9835 69.4065L57.1483 70.7434L58.9495 70.5213ZM57.045 68.9499C56.856 69.4089 56.0767 69.9629 54.8624 69.9629V71.7779C56.4683 71.7779 58.143 71.0499 58.7232 69.641L57.045 68.9499ZM55.5949 70.093C56.4624 70.093 57.2716 69.8299 57.8683 69.2506C58.4688 68.6678 58.7549 67.8608 58.7549 66.9696H56.94C56.94 67.4703 56.7866 67.7713 56.6042 67.9484C56.418 68.1292 56.1009 68.2781 55.5949 68.2781V70.093ZM58.7549 66.9696V66.4935H56.94V66.9696H58.7549ZM57.7772 65.5888L55.8909 65.7353L56.0314 67.5447L57.9177 67.3982L57.7772 65.5888ZM55.8779 65.7364C55.1224 65.806 54.4481 65.9739 53.9457 66.3376C53.3798 66.7472 53.1308 67.3314 53.1308 67.9586H54.9457C54.9457 67.8862 54.9584 67.8599 54.9599 67.8566C54.9601 67.8562 54.9664 67.8392 55.0099 67.8077C55.121 67.7273 55.4081 67.6022 56.0444 67.5436L55.8779 65.7364ZM53.1308 67.9586C53.1308 68.5901 53.3538 69.1888 53.8835 69.5987C54.3715 69.9764 54.9933 70.093 55.5949 70.093V68.2781C55.1893 68.2781 55.0328 68.1933 54.9943 68.1635C54.9818 68.1538 54.977 68.1474 54.9712 68.1341C54.9633 68.1162 54.9457 68.0645 54.9457 67.9586H53.1308ZM69.4005 70.6323V71.5398H70.308V70.6323H69.4005ZM62.0935 70.6323H61.186V71.5398H62.0935V70.6323ZM62.0935 68.801L61.3995 68.2163L61.186 68.4697V68.801H62.0935ZM66.5986 63.4535L67.2926 64.0381L68.5496 62.546H66.5986V63.4535ZM62.0935 63.4535H61.186V64.3609H62.0935V63.4535ZM62.0935 61.5855V60.678H61.186V61.5855H62.0935ZM69.4005 61.5855H70.308V60.678H69.4005V61.5855ZM69.4005 63.4351L70.0888 64.0265L70.308 63.7714V63.4351H69.4005ZM64.8222 68.7644L64.1338 68.173L62.8462 69.6718H64.8222V68.7644ZM69.4005 68.7644H70.308V67.8569H69.4005V68.7644ZM69.4005 69.7249H62.0935V71.5398H69.4005V69.7249ZM63.0009 70.6323V68.801H61.186V70.6323H63.0009ZM62.7875 69.3856L67.2926 64.0381L65.9046 62.8688L61.3995 68.2163L62.7875 69.3856ZM66.5986 62.546H62.0935V64.3609H66.5986V62.546ZM63.0009 63.4535V61.5855H61.186V63.4535H63.0009ZM62.0935 62.4929H69.4005V60.678H62.0935V62.4929ZM68.4931 61.5855V63.4351H70.308V61.5855H68.4931ZM68.7122 62.8438L64.1338 68.173L65.5105 69.3557L70.0888 64.0265L68.7122 62.8438ZM64.8222 69.6718H69.4005V67.8569H64.8222V69.6718ZM68.4931 68.7644V70.6323H70.308V68.7644H68.4931ZM71.5918 70.6323H70.6844V71.5398H71.5918V70.6323ZM71.5918 61.5855V60.678H70.6844V61.5855H71.5918ZM73.8261 61.5855H74.7335V60.678H73.8261V61.5855ZM73.8261 70.6323V71.5398H74.7335V70.6323H73.8261ZM72.709 58.865C72.433 58.865 72.2429 58.659 72.2429 58.4173H70.428C70.428 59.6772 71.4466 60.6799 72.709 60.6799V58.865ZM72.2429 58.4173C72.2429 58.1915 72.4167 57.9878 72.709 57.9878V56.1729C71.4629 56.1729 70.428 57.1413 70.428 58.4173H72.2429ZM72.709 57.9878C72.9485 57.9878 73.1384 58.1757 73.1384 58.4173H74.9533C74.9533 57.1571 73.9345 56.1729 72.709 56.1729V57.9878ZM73.1384 58.4173C73.1384 58.675 72.9323 58.865 72.709 58.865V60.6799C73.9507 60.6799 74.9533 59.6612 74.9533 58.4173H73.1384ZM72.4993 70.6323V61.5855H70.6844V70.6323H72.4993ZM71.5918 62.4929H73.8261V60.678H71.5918V62.4929ZM72.9186 61.5855V70.6323H74.7335V61.5855H72.9186ZM73.8261 69.7249H71.5918V71.5398H73.8261V69.7249ZM78.7349 70.6323V71.5398H79.6424V70.6323H78.7349ZM76.5007 70.6323H75.5933V71.5398H76.5007V70.6323ZM76.5007 61.5855V60.678H75.5933V61.5855H76.5007ZM78.5701 61.5855L79.4667 61.4454L79.3468 60.678H78.5701V61.5855ZM78.7533 62.7575L77.8567 62.8976L78.2346 65.3162L79.5245 63.2357L78.7533 62.7575ZM85.0897 70.6323V71.5398H85.9972V70.6323H85.0897ZM82.8555 70.6323H81.948V71.5398H82.8555V70.6323ZM78.7349 69.7249H76.5007V71.5398H78.7349V69.7249ZM77.4082 70.6323V61.5855H75.5933V70.6323H77.4082ZM76.5007 62.4929H78.5701V60.678H76.5007V62.4929ZM77.6735 61.7256L77.8567 62.8976L79.6498 62.6175L79.4667 61.4454L77.6735 61.7256ZM79.5245 63.2357C79.8933 62.6409 80.6646 62.2182 81.6468 62.2182V60.4033C80.1749 60.4033 78.7487 61.0428 77.982 62.2794L79.5245 63.2357ZM81.6468 62.2182C82.588 62.2182 83.177 62.5038 83.5432 62.9135C83.9239 63.3396 84.1823 64.0327 84.1823 65.065H85.9972C85.9972 63.7532 85.6694 62.5692 84.8965 61.7042C84.1089 60.8229 82.9765 60.4033 81.6468 60.4033V62.2182ZM84.1823 65.065V70.6323H85.9972V65.065H84.1823ZM85.0897 69.7249H82.8555V71.5398H85.0897V69.7249ZM83.7629 70.6323V65.5961H81.948V70.6323H83.7629ZM83.7629 65.5961C83.7629 64.6977 83.5412 63.8895 83.0138 63.2967C82.4731 62.6888 81.726 62.4361 80.9509 62.4361V64.251C81.3294 64.251 81.5347 64.3646 81.6578 64.503C81.7943 64.6565 81.948 64.9746 81.948 65.5961H83.7629ZM80.9509 62.4361C80.0435 62.4361 79.2326 62.7576 78.6559 63.393C78.0885 64.0181 77.8275 64.8584 77.8275 65.7609H79.6424C79.6424 65.1984 79.8026 64.83 79.9998 64.6127C80.1877 64.4057 80.4847 64.251 80.9509 64.251V62.4361ZM77.8275 65.7609V70.6323H79.6424V65.7609H77.8275ZM94.3905 62.8308L93.5944 63.2664L94.9945 65.8252L95.2932 62.9237L94.3905 62.8308ZM94.5187 61.5855V60.678H93.6999L93.616 61.4926L94.5187 61.5855ZM96.5881 61.5855H97.4956V60.678H96.5881V61.5855ZM87.1933 71.1817V70.2743H86.1769L86.2917 71.2842L87.1933 71.1817ZM89.4276 71.1817L90.328 71.0692L90.2286 70.2743H89.4276V71.1817ZM94.3722 69.0757H95.2796V66.1054L93.6197 68.5685L94.3722 69.0757ZM88.0458 65.9075C88.0458 64.7857 88.4104 63.8593 88.9917 63.2232C89.5665 62.5943 90.396 62.1999 91.442 62.1999V60.385C89.9059 60.385 88.5836 60.9795 87.652 61.9989C86.7271 63.011 86.2309 64.3921 86.2309 65.9075H88.0458ZM91.442 62.1999C92.5412 62.1999 93.2558 62.6475 93.5944 63.2664L95.1866 62.3952C94.463 61.0729 93.0533 60.385 91.442 60.385V62.1999ZM95.2932 62.9237L95.4214 61.6784L93.616 61.4926L93.4878 62.7379L95.2932 62.9237ZM94.5187 62.4929H96.5881V60.678H94.5187V62.4929ZM95.6807 61.5855V70.1745H97.4956V61.5855H95.6807ZM95.6807 70.1745C95.6807 71.5044 95.2846 72.4867 94.6623 73.1315C94.0437 73.7726 93.1104 74.175 91.8449 74.175V75.9899C93.5096 75.9899 94.9479 75.4493 95.9683 74.3918C96.9851 73.338 97.4956 71.8663 97.4956 70.1745H95.6807ZM91.8449 74.175C90.7172 74.175 89.8412 73.8552 89.2296 73.343C88.6234 72.8351 88.2089 72.0821 88.095 71.0793L86.2917 71.2842C86.4524 72.6987 87.0635 73.8961 88.0643 74.7343C89.0597 75.5681 90.3722 75.9899 91.8449 75.9899V74.175ZM87.1933 72.0892H89.4276V70.2743H87.1933V72.0892ZM88.5271 71.2943C88.6276 72.0978 88.9986 72.7917 89.6209 73.273C90.2312 73.7451 91.0096 73.9572 91.8449 73.9572V72.1422C91.3068 72.1422 90.9497 72.0064 90.7313 71.8374C90.525 71.6778 90.3741 71.4377 90.328 71.0692L88.5271 71.2943ZM91.8449 73.9572C92.807 73.9572 93.6819 73.6502 94.3203 73.0251C94.9606 72.3981 95.2796 71.5325 95.2796 70.5774H93.4647C93.4647 71.124 93.2893 71.4946 93.0506 71.7283C92.81 71.9639 92.4212 72.1422 91.8449 72.1422V73.9572ZM95.2796 70.5774V69.0757H93.4647V70.5774H95.2796ZM93.6197 68.5685C93.26 69.1022 92.4636 69.5417 91.3871 69.5417V71.3566C92.9111 71.3566 94.3489 70.734 95.1247 69.5828L93.6197 68.5685ZM91.3871 69.5417C90.3448 69.5417 89.5301 69.1571 88.9698 68.5468C88.4029 67.9291 88.0458 67.0229 88.0458 65.9075H86.2309C86.2309 67.4108 86.7163 68.7755 87.6327 69.774C88.5559 70.7798 89.8656 71.3566 91.3871 71.3566V69.5417ZM88.4835 65.8525C88.4835 66.804 88.7886 67.6937 89.3844 68.3568C89.9878 69.0283 90.8449 69.4154 91.8266 69.4154V67.6005C91.3432 67.6005 90.9825 67.4199 90.7344 67.1437C90.4786 66.8591 90.2984 66.4211 90.2984 65.8525H88.4835ZM91.8266 69.4154C92.8191 69.4154 93.6945 69.0603 94.3161 68.3858C94.9301 67.7196 95.2247 66.8208 95.2247 65.8525H93.4098C93.4098 66.4592 93.2283 66.8881 92.9815 67.1559C92.7424 67.4153 92.3725 67.6005 91.8266 67.6005V69.4154ZM95.2247 65.8525C95.2247 64.9015 94.9339 64.0138 94.3185 63.3556C93.6961 62.6899 92.8208 62.3446 91.8266 62.3446V64.1595C92.3891 64.1595 92.7591 64.3452 92.9928 64.5951C93.2336 64.8527 93.4098 65.2652 93.4098 65.8525H95.2247ZM91.8266 62.3446C90.8434 62.3446 89.9863 62.7214 89.3818 63.3847C88.7849 64.0397 88.4835 64.9181 88.4835 65.8525H90.2984C90.2984 65.3036 90.4731 64.8817 90.7232 64.6072C90.9657 64.3412 91.3264 64.1595 91.8266 64.1595V62.3446ZM111.363 62.7392L110.596 63.2244L112.271 65.8709V62.7392H111.363ZM111.363 57.0071V56.0997H110.456V57.0071H111.363ZM113.579 57.0071H114.487V56.0997H113.579V57.0071ZM113.579 70.6323V71.5398H114.487V70.6323H113.579ZM111.528 70.6323L110.625 70.7261L110.71 71.5398H111.528V70.6323ZM111.382 69.2222L112.284 69.1284L111.974 66.1473L110.578 68.7995L111.382 69.2222ZM108.287 69.9629C107.214 69.9629 106.408 69.5769 105.86 68.9576C105.302 68.3263 104.945 67.3748 104.945 66.1455H103.13C103.13 67.7182 103.589 69.1291 104.5 70.1598C105.422 71.2024 106.74 71.7779 108.287 71.7779V69.9629ZM104.945 66.1455C104.945 64.9074 105.306 63.9272 105.884 63.2699C106.451 62.6255 107.289 62.2182 108.415 62.2182V60.4033C106.812 60.4033 105.461 61.0033 104.522 62.0712C103.594 63.1262 103.13 64.5634 103.13 66.1455H104.945ZM108.415 62.2182C109.446 62.2182 110.233 62.6501 110.596 63.2244L112.13 62.2541C111.358 61.0336 109.911 60.4033 108.415 60.4033V62.2182ZM112.271 62.7392V57.0071H110.456V62.7392H112.271ZM111.363 57.9146H113.579V56.0997H111.363V57.9146ZM112.672 57.0071V70.6323H114.487V57.0071H112.672ZM113.579 69.7249H111.528V71.5398H113.579V69.7249ZM112.431 70.5385L112.284 69.1284L110.479 69.316L110.625 70.7261L112.431 70.5385ZM110.578 68.7995C110.222 69.4769 109.408 69.9629 108.287 69.9629V71.7779C109.912 71.7779 111.442 71.0552 112.185 69.6448L110.578 68.7995ZM108.781 69.7267C109.787 69.7267 110.679 69.3594 111.313 68.6729C111.941 67.9935 112.252 67.0732 112.252 66.0723H110.437C110.437 66.7013 110.245 67.1545 109.98 67.4411C109.722 67.7206 109.331 67.9118 108.781 67.9118V69.7267ZM112.252 66.0723C112.252 65.0718 111.941 64.1487 111.316 63.4656C110.683 62.7747 109.792 62.3995 108.781 62.3995V64.2144C109.327 64.2144 109.717 64.4069 109.977 64.6912C110.245 64.9833 110.437 65.4429 110.437 66.0723H112.252ZM108.781 62.3995C107.763 62.3995 106.881 62.7847 106.263 63.4846C105.655 64.1723 105.365 65.092 105.365 66.0723H107.18C107.18 65.4409 107.365 64.978 107.623 64.686C107.87 64.4061 108.242 64.2144 108.781 64.2144V62.3995ZM105.365 66.0723C105.365 67.0529 105.656 67.9699 106.265 68.654C106.886 69.3496 107.768 69.7267 108.781 69.7267V67.9118C108.238 67.9118 107.865 67.7213 107.62 67.4463C107.365 67.1598 107.18 66.7033 107.18 66.0723H105.365ZM124.68 66.6217L124.682 67.5291L125.587 67.5267V66.6217H124.68ZM117.867 66.64L117.865 65.7325L116.861 65.7352L116.964 66.7334L117.867 66.64ZM122.647 67.7022V66.7947H121.97L121.777 67.4431L122.647 67.7022ZM124.716 67.7022L125.607 67.8754L125.817 66.7947H124.716V67.7022ZM117.922 65.2115L117.026 65.0663L116.856 66.119H117.922V65.2115ZM122.464 65.2115V66.119H123.371V65.2115H122.464ZM120.321 69.9629C119.204 69.9629 118.301 69.5608 117.676 68.9113C117.049 68.2593 116.65 67.3031 116.65 66.1089H114.835C114.835 67.7166 115.379 69.1412 116.368 70.1695C117.36 71.2002 118.746 71.7779 120.321 71.7779V69.9629ZM116.65 66.1089C116.65 64.8883 117.045 63.9213 117.661 63.267C118.272 62.6169 119.153 62.2182 120.248 62.2182V60.4033C118.687 60.4033 117.316 60.9844 116.338 62.0237C115.365 63.0589 114.835 64.4909 114.835 66.1089H116.65ZM120.248 62.2182C121.394 62.2182 122.251 62.5963 122.824 63.1964C123.401 63.8011 123.772 64.7185 123.772 65.9441H125.587C125.587 64.3494 125.098 62.9502 124.137 61.9433C123.171 60.9318 121.812 60.4033 120.248 60.4033V62.2182ZM123.772 65.9441V66.6217H125.587V65.9441H123.772ZM124.677 65.7142L117.865 65.7325L117.869 67.5474L124.682 67.5291L124.677 65.7142ZM116.964 66.7334C117.061 67.6635 117.368 68.4943 117.989 69.0911C118.618 69.6964 119.45 69.9465 120.358 69.9465V68.1316C119.782 68.1316 119.451 67.9788 119.247 67.7829C119.034 67.5785 118.838 67.2098 118.77 66.5466L116.964 66.7334ZM120.358 69.9465C121.807 69.9465 123.102 69.3546 123.517 67.9612L121.777 67.4431C121.679 67.7712 121.362 68.1316 120.358 68.1316V69.9465ZM122.647 68.6096H124.716V66.7947H122.647V68.6096ZM123.826 67.529C123.676 68.3002 123.291 68.8873 122.73 69.292C122.159 69.7035 121.353 69.9629 120.321 69.9629V71.7779C121.652 71.7779 122.851 71.4421 123.791 70.764C124.741 70.079 125.372 69.082 125.607 67.8754L123.826 67.529ZM120.266 62.2347C119.44 62.2347 118.678 62.4616 118.081 62.9887C117.489 63.5118 117.16 64.2433 117.026 65.0663L118.818 65.3568C118.904 64.8246 119.087 64.5214 119.283 64.3486C119.474 64.1798 119.774 64.0496 120.266 64.0496V62.2347ZM117.922 66.119H122.464V64.3041H117.922V66.119ZM123.371 65.2115C123.371 64.3718 123.076 63.6048 122.49 63.0507C121.909 62.501 121.121 62.2347 120.266 62.2347V64.0496C120.748 64.0496 121.059 64.1953 121.243 64.369C121.422 64.5383 121.556 64.8059 121.556 65.2115H123.371ZM129.693 65.1749L129.626 64.27L129.624 64.2701L129.693 65.1749ZM132.403 64.9735L132.471 65.8784L133.311 65.816V64.9735H132.403ZM128.484 64.5523V65.4597H129.392V64.5523H128.484ZM126.58 64.5523H125.672V65.4597H126.58V64.5523ZM134.583 70.6323V71.5398H135.49V70.6323H134.583ZM132.623 70.6323L131.723 70.7434L131.821 71.5398H132.623V70.6323ZM132.458 69.2954L133.359 69.1844L132.936 65.7524L131.619 68.9499L132.458 69.2954ZM132.422 66.4935H133.329V65.5128L132.352 65.5888L132.422 66.4935ZM130.536 66.64L130.465 65.7352L130.452 65.7364L130.536 66.64ZM129.437 69.9629C128.649 69.9629 128.113 69.7361 127.784 69.432C127.461 69.1348 127.249 68.6847 127.249 68.0501H125.434C125.434 69.1187 125.808 70.0787 126.553 70.7659C127.29 71.4462 128.302 71.7779 129.437 71.7779V69.9629ZM127.249 68.0501C127.249 67.458 127.453 67.0404 127.805 66.7376C128.182 66.4136 128.812 66.1528 129.763 66.0797L129.624 64.2701C128.432 64.3618 127.386 64.7054 126.622 65.3612C125.835 66.0381 125.434 66.9757 125.434 68.0501H127.249ZM129.76 66.0799L132.471 65.8784L132.336 64.0685L129.626 64.27L129.76 66.0799ZM133.311 64.9735V64.772H131.496V64.9735H133.311ZM133.311 64.772C133.311 63.9726 133.065 63.2557 132.484 62.7605C131.93 62.2883 131.215 62.1431 130.536 62.1431V63.958C130.992 63.958 131.211 64.06 131.307 64.1419C131.376 64.2006 131.496 64.3444 131.496 64.772H133.311ZM130.536 62.1431C129.769 62.1431 129.039 62.3001 128.477 62.7137C127.877 63.1563 127.577 63.8142 127.577 64.5523H129.392C129.392 64.338 129.458 64.2451 129.554 64.1748C129.688 64.0757 129.984 63.958 130.536 63.958V62.1431ZM128.484 63.6448H126.58V65.4597H128.484V63.6448ZM127.487 64.5523C127.487 63.8453 127.767 63.2975 128.258 62.9064C128.768 62.5001 129.568 62.2182 130.645 62.2182V60.4033C129.269 60.4033 128.036 60.7625 127.127 61.487C126.198 62.2267 125.672 63.2997 125.672 64.5523H127.487ZM130.645 62.2182C131.706 62.2182 132.44 62.504 132.904 62.9429C133.36 63.3742 133.675 64.0673 133.675 65.1383H135.49C135.49 63.7003 135.055 62.4797 134.151 61.6245C133.255 60.7768 132.02 60.4033 130.645 60.4033V62.2182ZM133.675 65.1383V70.6323H135.49V65.1383H133.675ZM134.583 69.7249H132.623V71.5398H134.583V69.7249ZM133.524 70.5213L133.359 69.1844L131.558 69.4065L131.723 70.7434L133.524 70.5213ZM131.619 68.9499C131.43 69.4089 130.651 69.9629 129.437 69.9629V71.7779C131.043 71.7779 132.717 71.0499 133.298 69.641L131.619 68.9499ZM130.169 70.093C131.037 70.093 131.846 69.8299 132.443 69.2506C133.043 68.6678 133.329 67.8608 133.329 66.9696H131.514C131.514 67.4703 131.361 67.7713 131.179 67.9484C130.992 68.1292 130.675 68.2781 130.169 68.2781V70.093ZM133.329 66.9696V66.4935H131.514V66.9696H133.329ZM132.352 65.5888L130.465 65.7353L130.606 67.5447L132.492 67.3982L132.352 65.5888ZM130.452 65.7364C129.697 65.806 129.022 65.9739 128.52 66.3376C127.954 66.7472 127.705 67.3314 127.705 67.9586H129.52C129.52 67.8862 129.533 67.8599 129.534 67.8566C129.534 67.8562 129.541 67.8392 129.584 67.8077C129.695 67.7273 129.982 67.6022 130.619 67.5436L130.452 65.7364ZM127.705 67.9586C127.705 68.5901 127.928 69.1888 128.458 69.5987C128.946 69.9764 129.568 70.093 130.169 70.093V68.2781C129.764 68.2781 129.607 68.1933 129.569 68.1635C129.556 68.1538 129.551 68.1474 129.546 68.1341C129.538 68.1162 129.52 68.0645 129.52 67.9586H127.705ZM139.397 70.6323V71.5398H140.304V70.6323H139.397ZM137.181 70.6323H136.273V71.5398H137.181V70.6323ZM137.181 57.0071V56.0997H136.273V57.0071H137.181ZM139.397 57.0071H140.304V56.0997H139.397V57.0071ZM139.397 69.7249H137.181V71.5398H139.397V69.7249ZM138.088 70.6323V57.0071H136.273V70.6323H138.088ZM137.181 57.9146H139.397V56.0997H137.181V57.9146ZM138.489 57.0071V70.6323H140.304V57.0071H138.489ZM141.411 67.8853V66.9779H140.503V67.8853H141.411ZM143.535 67.8853L144.442 67.8642L144.422 66.9779H143.535V67.8853ZM145.733 67.1161L145.524 67.9994L145.531 68.001L145.733 67.1161ZM144.103 66.7316L144.311 65.8483L144.302 65.8462L144.103 66.7316ZM148.699 64.2409V65.1484H149.616L149.607 64.2315L148.699 64.2409ZM146.575 64.2409L145.668 64.2625L145.689 65.1484H146.575V64.2409ZM144.963 65.0834L144.753 65.9661L144.755 65.9666L144.963 65.0834ZM146.593 65.4679L146.385 66.3512L146.391 66.3525L146.593 65.4679ZM141.411 68.7928H143.535V66.9779H141.411V68.7928ZM142.628 67.9064C142.642 68.5389 142.897 69.1226 143.405 69.5296C143.891 69.9192 144.517 70.0747 145.165 70.0747V68.2598C144.787 68.2598 144.608 68.168 144.54 68.1136C144.494 68.0765 144.446 68.0192 144.442 67.8642L142.628 67.9064ZM145.165 70.0747C145.791 70.0747 146.399 69.9511 146.877 69.6215C147.395 69.2648 147.684 68.7155 147.684 68.0868H145.869C145.869 68.1183 145.863 68.1211 145.868 68.1113C145.873 68.1015 145.874 68.1084 145.847 68.127C145.781 68.1727 145.583 68.2598 145.165 68.2598V70.0747ZM147.684 68.0868C147.684 67.685 147.571 67.2353 147.203 66.8613C146.868 66.5213 146.412 66.34 145.934 66.2313L145.531 68.001C145.688 68.0365 145.788 68.0729 145.849 68.1018C145.909 68.13 145.92 68.1455 145.91 68.1355C145.897 68.122 145.881 68.098 145.872 68.0718C145.864 68.0505 145.869 68.0499 145.869 68.0868H147.684ZM145.941 66.2329L144.311 65.8484L143.894 67.6148L145.524 67.9993L145.941 66.2329ZM144.302 65.8462C143.573 65.6824 143.165 65.4554 142.939 65.2185C142.735 65.0061 142.593 64.697 142.593 64.1494H140.778C140.778 65.0485 141.029 65.8474 141.627 66.4728C142.202 67.0737 143.003 67.4145 143.904 67.6169L144.302 65.8462ZM142.593 64.1494C142.593 63.5465 142.834 63.1019 143.249 62.7842C143.687 62.4484 144.374 62.2182 145.275 62.2182V60.4033C144.088 60.4033 142.98 60.7042 142.145 61.3436C141.287 62.0011 140.778 62.9759 140.778 64.1494H142.593ZM145.275 62.2182C146.121 62.2182 146.749 62.4612 147.153 62.8063C147.545 63.1416 147.785 63.6219 147.792 64.2504L149.607 64.2315C149.595 63.1018 149.14 62.1171 148.332 61.4268C147.536 60.7464 146.461 60.4033 145.275 60.4033V62.2182ZM148.699 63.3335H146.575V65.1484H148.699V63.3335ZM147.482 64.2193C147.468 63.6318 147.258 63.0673 146.81 62.6539C146.368 62.2453 145.786 62.0699 145.183 62.0699V63.8848C145.441 63.8848 145.546 63.9566 145.579 63.9875C145.608 64.0136 145.663 64.0809 145.668 64.2625L147.482 64.2193ZM145.183 62.0699C144.619 62.0699 144.05 62.1974 143.6 62.5475C143.121 62.9208 142.884 63.4662 142.884 64.0578H144.699C144.699 64.0304 144.701 64.012 144.704 64.0012C144.706 63.9905 144.708 63.9859 144.708 63.9854C144.708 63.985 144.708 63.9856 144.708 63.9861C144.707 63.9865 144.709 63.9841 144.715 63.9794C144.742 63.9587 144.868 63.8848 145.183 63.8848V62.0699ZM142.884 64.0578C142.884 64.5909 143.109 65.0486 143.497 65.382C143.85 65.6856 144.302 65.8586 144.753 65.9661L145.174 64.2006C144.856 64.1249 144.722 64.0416 144.681 64.0063C144.667 63.9943 144.676 63.9988 144.687 64.0224C144.699 64.047 144.699 64.0636 144.699 64.0578H142.884ZM144.755 65.9666L146.385 66.3511L146.802 64.5847L145.172 64.2002L144.755 65.9666ZM146.391 66.3525C147.073 66.5087 147.451 66.7153 147.659 66.9284C147.84 67.1136 147.975 67.3879 147.975 67.9036H149.79C149.79 67.0275 149.541 66.258 148.957 65.6603C148.401 65.0904 147.633 64.7751 146.796 64.5834L146.391 66.3525ZM147.975 67.9036C147.975 68.5332 147.72 69.0103 147.273 69.3538C146.802 69.7146 146.065 69.9629 145.092 69.9629V71.7779C146.352 71.7779 147.511 71.4585 148.377 70.7938C149.266 70.1117 149.79 69.1054 149.79 67.9036H147.975ZM145.092 69.9629C144.121 69.9629 143.421 69.7026 142.982 69.3426C142.559 68.9957 142.318 68.5098 142.318 67.8853H140.503C140.503 69.0372 140.976 70.0439 141.831 70.7454C142.669 71.4339 143.81 71.7779 145.092 71.7779V69.9629Z" fill="black" mask="url(#path-72-outside-1_630_284276)"/>
<g filter="url(#filter0_d_630_284276)">
<circle cx="165.244" cy="39.4889" r="10.4455" transform="rotate(-15.0547 165.244 39.4889)" fill="#FCB40C" stroke="black" stroke-width="0.835639"/>
<path d="M165.343 42.8145C164.906 42.932 164.501 42.9558 164.127 42.886C163.751 42.8095 163.428 42.6514 163.158 42.4118C162.892 42.1637 162.707 41.8444 162.602 41.4538C162.513 41.1228 162.495 40.8188 162.548 40.5417C162.6 40.2581 162.692 40.0062 162.824 39.786C162.955 39.5592 163.094 39.3621 163.24 39.1949C163.387 39.0276 163.511 38.8949 163.613 38.7966L164.127 38.296C164.296 38.1301 164.452 37.9602 164.597 37.7863C164.742 37.6124 164.85 37.4309 164.919 37.2417C164.989 37.0526 164.997 36.8587 164.944 36.6601C164.88 36.4217 164.747 36.2445 164.545 36.1284C164.342 36.0056 164.121 35.9762 163.883 36.0404C163.645 36.1045 163.467 36.2373 163.351 36.4389C163.235 36.6406 163.211 36.8672 163.278 37.1188C163.325 37.2909 163.41 37.449 163.534 37.5932C163.664 37.7355 163.806 37.8644 163.957 37.9798C164.114 38.0867 164.265 38.188 164.412 38.2835L169.551 41.5548L168.151 41.9314L163.759 39.1832C163.554 39.0538 163.346 38.9144 163.136 38.7652C162.93 38.6075 162.742 38.4238 162.572 38.2139C162.409 38.0023 162.288 37.7509 162.209 37.4596C162.108 37.0822 162.106 36.7313 162.203 36.407C162.307 36.0808 162.481 35.8033 162.725 35.5745C162.975 35.3439 163.272 35.1823 163.616 35.0897C163.967 34.9953 164.307 34.9893 164.634 35.0716C164.96 35.1473 165.242 35.2986 165.48 35.5255C165.725 35.7507 165.894 36.0354 165.987 36.3796C166.083 36.7371 166.083 37.0672 165.987 37.3699C165.891 37.6727 165.748 37.9454 165.557 38.1883C165.374 38.4294 165.196 38.6404 165.025 38.8214L164.515 39.3418C164.381 39.4773 164.244 39.6385 164.102 39.8256C163.966 40.0043 163.863 40.2024 163.794 40.4198C163.722 40.6306 163.721 40.8618 163.788 41.1134C163.872 41.4246 164.033 41.6404 164.271 41.7609C164.516 41.8796 164.798 41.8962 165.115 41.8107C165.321 41.7555 165.494 41.6735 165.635 41.5645C165.776 41.4556 165.892 41.3321 165.983 41.1941C166.08 41.0544 166.158 40.9091 166.217 40.7584C166.28 40.5993 166.337 40.4528 166.386 40.3189L167.084 38.3208L168.286 37.9976L167.51 40.4211C167.447 40.6085 167.37 40.8211 167.277 41.0589C167.183 41.29 167.058 41.5226 166.901 41.7565C166.742 41.9839 166.535 42.1921 166.281 42.3812C166.033 42.5686 165.72 42.713 165.343 42.8145Z" fill="black"/>
</g>
<g clip-path="url(#clip2_630_284276)">
<rect x="95.7109" y="29.2883" width="57.5087" height="22.8819" transform="rotate(-13.5665 95.7109 29.2883)" fill="black"/>
<path d="M108.827 42.7492L106.985 43.1936L108.198 32.1898L110.012 31.7521L116.11 40.9917L114.241 41.4428L112.859 39.2999L109.079 40.212L108.827 42.7492ZM109.605 35.0446L109.245 38.5897L111.986 37.9281L110.034 34.941C109.888 34.698 109.717 34.4168 109.64 34.2157C109.645 34.4196 109.635 34.7443 109.605 35.0446ZM119.765 32.842L120.143 34.4067L119.52 34.557C118.301 34.851 117.697 35.6856 118.017 37.0148L118.819 40.338L117.13 40.7456L115.483 33.9193L117.075 33.5351L117.413 34.5086C117.54 33.76 118.08 33.146 118.994 32.9255C119.23 32.8687 119.472 32.8396 119.765 32.842ZM125.19 38.9911C123.21 39.4689 121.627 38.3124 121.116 36.1939C120.601 34.0616 121.48 32.2378 123.543 31.7399C124.498 31.5094 125.44 31.7071 126.033 32.282L124.987 27.9481L126.663 27.5438L129.148 37.8455L127.598 38.2197L127.23 37.1803C127.005 38.0697 126.229 38.7405 125.19 38.9911ZM125.19 37.3501C126.367 37.0661 126.925 36.0377 126.627 34.8054C126.33 33.573 125.361 32.8983 124.184 33.1823C123.007 33.4663 122.498 34.5124 122.792 35.7309C123.086 36.9494 124.013 37.6341 125.19 37.3501ZM129.772 29.006C129.191 29.1463 128.623 28.7996 128.486 28.2319C128.349 27.6642 128.699 27.1109 129.281 26.9706C129.835 26.8369 130.399 27.1697 130.536 27.7374C130.673 28.3051 130.326 28.8723 129.772 29.006ZM130.909 37.4207L129.258 30.5806L130.948 30.173L132.598 37.0131L130.909 37.4207ZM136.047 36.1809L134.371 36.5852L131.885 26.2835L133.561 25.8792L136.047 36.1809ZM139.522 35.3424L137.846 35.7467L135.36 25.445L137.036 25.0407L139.522 35.3424ZM143.372 34.6036C141.919 34.9544 140.829 34.3237 140.518 33.0359C140.214 31.7759 140.937 30.7662 142.527 30.2506L144.54 29.6038L144.503 29.4515C144.279 28.5238 143.635 28.2836 142.777 28.4907C141.78 28.7313 141.326 29.2804 141.5 30.0004L140.06 30.3479C139.702 28.8663 140.687 27.603 142.542 27.1553C144.384 26.7109 145.76 27.4339 146.218 29.3308L147.22 33.4847L145.738 33.8422L145.37 32.8615C145.249 33.6379 144.439 34.3463 143.372 34.6036ZM143.619 33.1961C144.657 32.9455 145.172 32.162 144.918 31.1097L144.831 30.7497L143.431 31.2046C142.403 31.5555 142.084 31.9985 142.218 32.5524C142.369 33.1755 142.857 33.3799 143.619 33.1961Z" fill="black"/>
</g>
<rect x="96.2115" y="29.1987" width="56.4913" height="22.3434" rx="3.56095" transform="rotate(-13.5665 96.2115 29.1987)" stroke="black" stroke-width="1.01741"/>
<g clip-path="url(#clip3_630_284276)">
<rect x="94.7012" y="29.1616" width="57.5087" height="22.8819" transform="rotate(-13.5665 94.7012 29.1616)" fill="#22C55E"/>
<path d="M107.818 42.6227L105.977 43.0671L107.19 32.0633L109.003 31.6256L115.101 40.8653L113.232 41.3163L111.85 39.1734L108.07 40.0856L107.818 42.6227ZM108.596 34.9181L108.236 38.4632L110.977 37.8016L109.026 34.8146C108.879 34.5715 108.709 34.2903 108.631 34.0893C108.636 34.2931 108.627 34.6178 108.596 34.9181ZM118.756 32.7156L119.134 34.2802L118.511 34.4305C117.292 34.7246 116.688 35.5591 117.009 36.8884L117.811 40.2115L116.121 40.6191L114.474 33.7929L116.066 33.4086L116.404 34.3822C116.531 33.6335 117.071 33.0196 117.985 32.7991C118.221 32.7423 118.463 32.7131 118.756 32.7156ZM124.181 38.8646C122.201 39.3424 120.618 38.1859 120.107 36.0674C119.593 33.9351 120.471 32.1113 122.534 31.6135C123.49 31.3829 124.431 31.5806 125.024 32.1555L123.978 27.8216L125.654 27.4173L128.14 37.719L126.589 38.0932L126.221 37.0538C125.996 37.9433 125.22 38.6141 124.181 38.8646ZM124.181 37.2236C125.358 36.9396 125.916 35.9112 125.618 34.6789C125.321 33.4466 124.352 32.7719 123.175 33.0559C121.998 33.3399 121.489 34.3859 121.783 35.6044C122.077 36.8229 123.004 37.5076 124.181 37.2236ZM128.763 28.8795C128.182 29.0198 127.615 28.6732 127.478 28.1055C127.341 27.5378 127.691 26.9844 128.272 26.8441C128.826 26.7104 129.39 27.0433 129.527 27.611C129.664 28.1787 129.317 28.7459 128.763 28.8795ZM129.9 37.2942L128.25 30.4541L129.939 30.0465L131.589 36.8866L129.9 37.2942ZM135.038 36.0545L133.362 36.4588L130.876 26.1571L132.552 25.7528L135.038 36.0545ZM138.513 35.2159L136.837 35.6202L134.352 25.3185L136.027 24.9142L138.513 35.2159ZM142.364 34.4772C140.91 34.828 139.82 34.1972 139.509 32.9095C139.205 31.6495 139.928 30.6397 141.518 30.1242L143.531 29.4773L143.494 29.325C143.27 28.3973 142.626 28.1571 141.768 28.3643C140.771 28.6048 140.317 29.1539 140.491 29.8739L139.051 30.2214C138.693 28.7398 139.678 27.4766 141.533 27.0288C143.375 26.5844 144.751 27.3074 145.209 29.2044L146.211 33.3583L144.73 33.7158L144.361 32.7351C144.241 33.5114 143.43 34.2199 142.364 34.4772ZM142.61 33.0696C143.649 32.819 144.163 32.0356 143.909 30.9833L143.822 30.6233L142.423 31.0782C141.394 31.429 141.076 31.8721 141.209 32.4259C141.36 33.049 141.849 33.2534 142.61 33.0696Z" fill="black"/>
</g>
<rect x="95.2027" y="29.0717" width="56.4913" height="22.3434" rx="3.56095" transform="rotate(-13.5665 95.2027 29.0717)" stroke="black" stroke-width="1.01741"/>
<defs>
<filter id="filter0_d_630_284276" x="153.006" y="28.6228" width="24.4761" height="24.4769" filterUnits="userSpaceOnUse" color-interpolation-filters="sRGB">
<feFlood flood-opacity="0" result="BackgroundImageFix"/>
<feColorMatrix in="SourceAlpha" type="matrix" values="0 0 0 0 0 0 0 0 0 0 0 0 0 0 0 0 0 0 127 0" result="hardAlpha"/>
<feOffset dy="1.37234"/>
<feGaussianBlur stdDeviation="0.68617"/>
<feComposite in2="hardAlpha" operator="out"/>
<feColorMatrix type="matrix" values="0 0 0 0 0 0 0 0 0 0 0 0 0 0 0 0 0 0 0.15 0"/>
<feBlend mode="normal" in2="BackgroundImageFix" result="effect1_dropShadow_630_284276"/>
<feBlend mode="normal" in="SourceGraphic" in2="effect1_dropShadow_630_284276" result="shape"/>
</filter>
<clipPath id="clip0_630_284276">
<rect width="351.184" height="102.088" fill="white"/>
</clipPath>
<clipPath id="clip1_630_284276">
<rect width="355.722" height="100.727" fill="white" transform="translate(-4.08398 1.81494)"/>
</clipPath>
<clipPath id="clip2_630_284276">
<rect x="95.5977" y="28.8235" width="57.5087" height="23.3608" rx="4.06965" transform="rotate(-13.5665 95.5977 28.8235)" fill="white"/>
</clipPath>
<clipPath id="clip3_630_284276">
<rect x="94.5889" y="28.6965" width="57.5087" height="23.3608" rx="4.06965" transform="rotate(-13.5665 94.5889 28.6965)" fill="white"/>
</clipPath>
</defs>
</svg>
