<svg width="47" height="13" viewBox="0 0 47 13" fill="none" xmlns="http://www.w3.org/2000/svg">
<path d="M2.38963 12.5H1.59763V4.624H2.40063L6.73463 11.18V4.624H7.51562V12.5H6.73463L2.38963 5.944V12.5ZM8.86742 8.562C8.86742 6.12 10.0664 4.47 12.0244 4.47C13.9714 4.47 15.1704 6.12 15.1704 8.562C15.1704 11.015 13.9934 12.643 12.0244 12.643C10.0444 12.643 8.86742 11.015 8.86742 8.562ZM9.64842 8.562C9.64842 10.608 10.5174 11.928 12.0244 11.928C13.5314 11.928 14.4004 10.608 14.4004 8.562C14.4004 6.505 13.5314 5.196 12.0244 5.196C10.5174 5.196 9.64842 6.505 9.64842 8.562ZM16.4873 12.621C16.1133 12.621 15.7943 12.313 15.7943 11.95C15.7943 11.576 16.1133 11.257 16.4873 11.257C16.8613 11.257 17.1803 11.576 17.1803 11.95C17.1803 12.313 16.8613 12.621 16.4873 12.621ZM17.8054 8.562C17.8054 6.12 19.0044 4.47 20.9624 4.47C22.9094 4.47 24.1084 6.12 24.1084 8.562C24.1084 11.015 22.9314 12.643 20.9624 12.643C18.9824 12.643 17.8054 11.015 17.8054 8.562ZM18.5864 8.562C18.5864 10.608 19.4554 11.928 20.9624 11.928C22.4694 11.928 23.3384 10.608 23.3384 8.562C23.3384 6.505 22.4694 5.196 20.9624 5.196C19.4554 5.196 18.5864 6.505 18.5864 8.562ZM25.0941 8.562C25.0941 6.12 26.2931 4.47 28.2511 4.47C30.1981 4.47 31.3971 6.12 31.3971 8.562C31.3971 11.015 30.2201 12.643 28.2511 12.643C26.2711 12.643 25.0941 11.015 25.0941 8.562ZM25.8751 8.562C25.8751 10.608 26.7441 11.928 28.2511 11.928C29.7581 11.928 30.6271 10.608 30.6271 8.562C30.6271 6.505 29.7581 5.196 28.2511 5.196C26.7441 5.196 25.8751 6.505 25.8751 8.562Z" fill="#FF823B"/>
<path d="M46.3165 6.99814C46.1839 6.99814 46.0567 7.05082 45.9629 7.14459C45.8692 7.23835 45.8165 7.36553 45.8165 7.49814V8.79314L42.6715 5.64314C42.625 5.59628 42.5697 5.55908 42.5088 5.53369C42.4479 5.50831 42.3825 5.49524 42.3165 5.49524C42.2505 5.49524 42.1851 5.50831 42.1242 5.53369C42.0633 5.55908 42.008 5.59628 41.9615 5.64314L40.3165 7.29314L37.6715 4.64314C37.5773 4.54899 37.4496 4.49609 37.3165 4.49609C37.1833 4.49609 37.0557 4.54899 36.9615 4.64314C36.8673 4.73729 36.8145 4.86499 36.8145 4.99814C36.8145 5.13129 36.8673 5.25899 36.9615 5.35314L39.9615 8.35314C40.008 8.4 40.0633 8.4372 40.1242 8.46259C40.1851 8.48797 40.2505 8.50104 40.3165 8.50104C40.3825 8.50104 40.4479 8.48797 40.5088 8.46259C40.5697 8.4372 40.625 8.4 40.6715 8.35314L42.3165 6.70314L45.1115 9.49814H43.8165C43.6839 9.49814 43.5567 9.55082 43.4629 9.64459C43.3692 9.73835 43.3165 9.86553 43.3165 9.99814C43.3165 10.1307 43.3692 10.2579 43.4629 10.3517C43.5567 10.4455 43.6839 10.4981 43.8165 10.4981H46.3165C46.3818 10.4973 46.4464 10.4838 46.5065 10.4581C46.6287 10.4074 46.7258 10.3103 46.7765 10.1881C46.8021 10.128 46.8157 10.0635 46.8165 9.99814V7.49814C46.8165 7.36553 46.7638 7.23835 46.6701 7.14459C46.5763 7.05082 46.4491 6.99814 46.3165 6.99814Z" fill="#FF823B"/>
</svg>
