<svg width="30" height="31" viewBox="0 0 30 31" fill="none" xmlns="http://www.w3.org/2000/svg">
<circle cx="14.6974" cy="15.1061" r="14.1974" stroke="#240552"/>
<path d="M14.703 9.12088L19.578 11.0709C19.7676 11.1467 19.9193 11.3742 19.9193 11.5746V13.3729C19.9193 13.6709 19.6755 13.9146 19.3776 13.9146H9.6276C9.32969 13.9146 9.08594 13.6709 9.08594 13.3729V11.5746C9.08594 11.3742 9.23761 11.1467 9.42719 11.0709L14.3022 9.12088C14.4105 9.07755 14.5947 9.07755 14.703 9.12088Z" stroke="#240552" stroke-width="0.8125" stroke-miterlimit="10" stroke-linecap="round" stroke-linejoin="round"/>
<path d="M19.9193 19.8742H9.08594V18.2492C9.08594 17.9513 9.32969 17.7075 9.6276 17.7075H19.3776C19.6755 17.7075 19.9193 17.9513 19.9193 18.2492V19.8742Z" stroke="#240552" stroke-width="0.8125" stroke-miterlimit="10" stroke-linecap="round" stroke-linejoin="round"/>
<path d="M10.1641 17.7082V13.9165" stroke="#240552" stroke-width="0.8125" stroke-miterlimit="10" stroke-linecap="round" stroke-linejoin="round"/>
<path d="M12.3359 17.7082V13.9165" stroke="#240552" stroke-width="0.8125" stroke-miterlimit="10" stroke-linecap="round" stroke-linejoin="round"/>
<path d="M14.5 17.7082V13.9165" stroke="#240552" stroke-width="0.8125" stroke-miterlimit="10" stroke-linecap="round" stroke-linejoin="round"/>
<path d="M16.6641 17.7082V13.9165" stroke="#240552" stroke-width="0.8125" stroke-miterlimit="10" stroke-linecap="round" stroke-linejoin="round"/>
<path d="M18.8359 17.7082V13.9165" stroke="#240552" stroke-width="0.8125" stroke-miterlimit="10" stroke-linecap="round" stroke-linejoin="round"/>
<path d="M8.53906 19.8735H20.4557" stroke="#240552" stroke-width="0.8125" stroke-miterlimit="10" stroke-linecap="round" stroke-linejoin="round"/>
<path d="M14.5 12.561C14.9487 12.561 15.3125 12.1973 15.3125 11.7485C15.3125 11.2998 14.9487 10.936 14.5 10.936C14.0513 10.936 13.6875 11.2998 13.6875 11.7485C13.6875 12.1973 14.0513 12.561 14.5 12.561Z" stroke="#240552" stroke-width="0.8125" stroke-miterlimit="10" stroke-linecap="round" stroke-linejoin="round"/>
</svg>
