<svg width="67" height="68" viewBox="0 0 67 68" fill="none" xmlns="http://www.w3.org/2000/svg">
<circle cx="33.2412" cy="34.085" r="32.6162" fill="url(#paint0_linear_2650_47359)" stroke="url(#paint1_linear_2650_47359)"/>
<circle cx="33.2422" cy="34.085" r="19.6" fill="white" stroke="#EDEDED" stroke-width="0.8"/>
<path d="M35.3646 41.6994H31.1146C27.2683 41.6994 25.625 40.056 25.625 36.2098V31.9598C25.625 28.1135 27.2683 26.4702 31.1146 26.4702H35.3646C39.2108 26.4702 40.8542 28.1135 40.8542 31.9598V36.2098C40.8542 40.056 39.2108 41.6994 35.3646 41.6994ZM31.1146 27.5327C27.8492 27.5327 26.6875 28.6944 26.6875 31.9598V36.2098C26.6875 39.4752 27.8492 40.6369 31.1146 40.6369H35.3646C38.63 40.6369 39.7917 39.4752 39.7917 36.2098V31.9598C39.7917 28.6944 38.63 27.5327 35.3646 27.5327H31.1146Z" fill="#240552"/>
<path d="M35.2455 34.5668C34.9551 34.5668 34.7143 34.326 34.7143 34.0356V31.5635H32.2422C31.9518 31.5635 31.7109 31.3226 31.7109 31.0322C31.7109 30.7418 31.9518 30.501 32.2422 30.501H35.2455C35.5359 30.501 35.7768 30.7418 35.7768 31.0322V34.0356C35.7768 34.326 35.5359 34.5668 35.2455 34.5668Z" fill="#240552"/>
<path d="M31.2404 35.5655C31.1058 35.5655 30.9712 35.5159 30.865 35.4097C30.6596 35.2043 30.6596 34.8643 30.865 34.6588L34.8742 30.6497C35.0796 30.4443 35.4196 30.4443 35.625 30.6497C35.8304 30.8551 35.8304 31.1951 35.625 31.4005L31.6158 35.4097C31.5167 35.5159 31.375 35.5655 31.2404 35.5655Z" fill="#240552"/>
<path d="M33.2411 38.4978C31.7465 38.4978 30.2449 38.257 28.8211 37.7824C28.5449 37.6903 28.3961 37.3857 28.4882 37.1095C28.5803 36.8332 28.8849 36.6774 29.1611 36.7766C31.7961 37.6549 34.6932 37.6549 37.3282 36.7766C37.6045 36.6845 37.909 36.8332 38.0011 37.1095C38.0932 37.3857 37.9444 37.6903 37.6682 37.7824C36.2374 38.2641 34.7357 38.4978 33.2411 38.4978Z" fill="#240552"/>
<defs>
<linearGradient id="paint0_linear_2650_47359" x1="33.2422" y1="-15.0823" x2="33.2422" y2="57.0622" gradientUnits="userSpaceOnUse">
<stop stop-color="#EFEFEF"/>
<stop offset="1" stop-color="#D9D9D9" stop-opacity="0"/>
</linearGradient>
<linearGradient id="paint1_linear_2650_47359" x1="33.2412" y1="0.96875" x2="33.2422" y2="55.2203" gradientUnits="userSpaceOnUse">
<stop stop-color="#DDDDDD"/>
<stop offset="1" stop-color="#DDDDDD" stop-opacity="0"/>
</linearGradient>
</defs>
</svg>
