<svg width="12" height="12" viewBox="0 0 12 12" fill="none" xmlns="http://www.w3.org/2000/svg">
<g clip-path="url(#clip0_2385_32917)">
<path d="M10.565 0.25H0.833245C0.503859 0.25 0.234375 0.519993 0.234375 0.85V1.92999C0.234375 2.26 0.503859 2.52999 0.833245 2.52999H10.535C10.8644 2.52999 11.1339 2.26 11.1339 1.92999V0.85C11.1638 0.519993 10.8943 0.25 10.565 0.25ZM10.565 6.27997H0.833245C0.503859 6.27997 0.234375 6.54996 0.234375 6.87997V7.95996C0.234375 8.28997 0.503859 8.55996 0.833245 8.55996H10.535C10.8644 8.55996 11.1339 8.28997 11.1339 7.95996V6.87997C11.1638 6.54996 10.8943 6.27997 10.565 6.27997ZM6.31295 9.30996H0.833245C0.503859 9.30996 0.234375 9.57995 0.234375 9.90996V10.9899C0.234375 11.32 0.503859 11.5899 0.833245 11.5899H6.31295C6.64233 11.5899 6.91182 11.32 6.91182 10.9899V9.90996C6.91182 9.57995 6.64233 9.30996 6.31295 9.30996ZM11.1638 3.27999H0.833245C0.503859 3.27999 0.234375 3.54998 0.234375 3.87997V4.95998C0.234375 5.28997 0.503859 5.55998 0.833245 5.55998H11.1638C11.4932 5.55998 11.7627 5.28997 11.7627 4.95998V3.87997C11.7627 3.54998 11.4932 3.27999 11.1638 3.27999Z" fill="#0BA4DB"/>
</g>
<defs>
<clipPath id="clip0_2385_32917">
<rect width="11.5283" height="11.3399" fill="white" transform="translate(0.234375 0.25)"/>
</clipPath>
</defs>
</svg>
