<svg width="16" height="16" viewBox="0 0 16 16" fill="none" xmlns="http://www.w3.org/2000/svg">
<path d="M2.52977 14.9609L11.7719 0.409053H13.3089L4.0668 14.9609H2.52977ZM3.16853 8.33374C2.55638 8.33374 2.03073 8.17405 1.59158 7.85467C1.15243 7.53528 0.813084 7.08283 0.573546 6.49729C0.347317 5.89845 0.234202 5.19314 0.234202 4.38138C0.234202 3.55631 0.353971 2.851 0.593508 2.26547C0.846353 1.67993 1.19235 1.24078 1.6315 0.948012C2.08396 0.641937 2.60961 0.488899 3.20846 0.488899C3.8073 0.488899 4.3263 0.648591 4.76545 0.967973C5.2046 1.27405 5.53729 1.71985 5.76352 2.30539C5.98975 2.89092 6.10286 3.58957 6.10286 4.40134C6.10286 5.25303 5.97644 5.97164 5.7236 6.55717C5.48406 7.1294 5.14471 7.56855 4.70556 7.87463C4.26641 8.1807 3.75407 8.33374 3.16853 8.33374ZM3.18849 7.09613C3.48126 7.09613 3.73411 7.01629 3.94703 6.8566C4.17326 6.6836 4.34626 6.40414 4.46603 6.01822C4.58579 5.61899 4.64568 5.08003 4.64568 4.40134C4.64568 3.72265 4.58579 3.19035 4.46603 2.80443C4.34626 2.4052 4.17326 2.12574 3.94703 1.96605C3.73411 1.80635 3.48126 1.72651 3.18849 1.72651C2.89573 1.72651 2.63623 1.81301 2.41 1.98601C2.18377 2.1457 2.00412 2.4185 1.87104 2.80443C1.75127 3.19035 1.69139 3.72265 1.69139 4.40134C1.69139 4.90703 1.72466 5.33287 1.79119 5.67887C1.87104 6.02487 1.9775 6.30433 2.11058 6.51725C2.24365 6.71687 2.39669 6.86325 2.56969 6.9564C2.756 7.04956 2.96226 7.09613 3.18849 7.09613ZM12.6702 15.0408C12.058 15.0408 11.5324 14.8811 11.0932 14.5617C10.6541 14.2423 10.3147 13.7899 10.0752 13.2043C9.84896 12.6188 9.73584 11.9135 9.73584 11.0884C9.73584 10.25 9.85561 9.54474 10.0951 8.97251C10.348 8.38697 10.694 7.94117 11.1331 7.63509C11.5856 7.32902 12.1113 7.17598 12.7101 7.17598C13.3089 7.17598 13.8213 7.33567 14.2471 7.65505C14.6863 7.97444 15.019 8.4269 15.2452 9.01243C15.4847 9.59797 15.6045 10.3033 15.6045 11.1283C15.6045 11.9667 15.4781 12.6787 15.2252 13.2642C14.9857 13.8498 14.6464 14.2956 14.2072 14.6016C13.7681 14.8944 13.2557 15.0408 12.6702 15.0408ZM12.6901 13.8032C12.9696 13.8032 13.2158 13.7233 13.4287 13.5636C13.6549 13.3906 13.8279 13.1112 13.9477 12.7253C14.0675 12.326 14.1274 11.7871 14.1274 11.1084C14.1274 10.4297 14.0675 9.89739 13.9477 9.51147C13.8279 9.11224 13.6549 8.83278 13.4287 8.67309C13.2158 8.51339 12.9696 8.43355 12.6901 8.43355C12.3974 8.43355 12.1379 8.51339 11.9116 8.67309C11.6854 8.83278 11.5058 9.10558 11.3727 9.4915C11.2529 9.87743 11.193 10.4164 11.193 11.1084C11.193 11.7871 11.2529 12.326 11.3727 12.7253C11.5058 13.1112 11.6854 13.3906 11.9116 13.5636C12.1379 13.7233 12.3974 13.8032 12.6901 13.8032Z" fill="#240552"/>
</svg>
