<svg width="42" height="41" viewBox="0 0 42 41" fill="none" xmlns="http://www.w3.org/2000/svg">
<circle cx="20.9487" cy="20.2462" r="20.2095" fill="#FCB40C"/>
<path d="M20.9493 20.4961C20.2076 20.4961 19.4826 20.2762 18.8659 19.8641C18.2492 19.4521 17.7686 18.8664 17.4847 18.1812C17.2009 17.4959 17.1266 16.7419 17.2713 16.0145C17.416 15.2871 17.7732 14.6189 18.2976 14.0944C18.8221 13.57 19.4903 13.2128 20.2177 13.0682C20.9451 12.9235 21.6991 12.9977 22.3843 13.2815C23.0696 13.5654 23.6552 14.046 24.0673 14.6627C24.4793 15.2794 24.6993 16.0044 24.6993 16.7461C24.6993 17.7407 24.3042 18.6945 23.6009 19.3977C22.8977 20.101 21.9438 20.4961 20.9493 20.4961ZM20.9493 14.4961C20.5043 14.4961 20.0693 14.6281 19.6992 14.8753C19.3292 15.1225 19.0408 15.4739 18.8706 15.8851C18.7003 16.2962 18.6557 16.7486 18.7425 17.185C18.8293 17.6215 19.0436 18.0224 19.3583 18.3371C19.673 18.6518 20.0739 18.866 20.5103 18.9529C20.9468 19.0397 21.3992 18.9951 21.8103 18.8248C22.2215 18.6545 22.5729 18.3661 22.8201 17.9961C23.0673 17.6261 23.1993 17.1911 23.1993 16.7461C23.1993 16.1494 22.9622 15.5771 22.5403 15.1551C22.1183 14.7331 21.546 14.4961 20.9493 14.4961ZM27.9493 27.4961C27.7512 27.4935 27.5619 27.4137 27.4218 27.2736C27.2817 27.1335 27.2019 26.9442 27.1993 26.7461C27.1993 24.7961 26.1393 23.4961 20.9493 23.4961C15.7593 23.4961 14.6993 24.7961 14.6993 26.7461C14.6993 26.945 14.6203 27.1358 14.4796 27.2764C14.339 27.4171 14.1482 27.4961 13.9493 27.4961C13.7504 27.4961 13.5596 27.4171 13.4189 27.2764C13.2783 27.1358 13.1993 26.945 13.1993 26.7461C13.1993 21.9961 18.6293 21.9961 20.9493 21.9961C23.2693 21.9961 28.6993 21.9961 28.6993 26.7461C28.6967 26.9442 28.6168 27.1335 28.4767 27.2736C28.3367 27.4137 28.1474 27.4935 27.9493 27.4961Z" fill="white"/>
</svg>
