<svg width="67" height="67" viewBox="0 0 67 67" fill="none" xmlns="http://www.w3.org/2000/svg">
<circle cx="33.2412" cy="33.585" r="32.6162" fill="url(#paint0_linear_2762_44969)" stroke="url(#paint1_linear_2762_44969)"/>
<circle cx="33.2422" cy="33.585" r="19.6" fill="white" stroke="#EDEDED" stroke-width="0.8"/>
<path d="M33.3403 32.2145C33.2839 32.2065 33.2114 32.2065 33.1469 32.2145C31.7293 32.1662 30.6016 31.0063 30.6016 29.5805C30.6016 28.1226 31.7776 26.9385 33.2436 26.9385C34.7016 26.9385 35.8857 28.1226 35.8857 29.5805C35.8776 31.0063 34.7579 32.1662 33.3403 32.2145Z" stroke="#240552" stroke-linecap="round" stroke-linejoin="round"/>
<path d="M38.6707 37.5302C37.2369 38.8432 35.3359 39.6407 33.2416 39.6407C31.1473 39.6407 29.2463 38.8432 27.8125 37.5302C27.8931 36.7731 28.3764 36.032 29.2382 35.452C31.4453 33.986 35.054 33.986 37.2449 35.452C38.1068 36.032 38.5901 36.7731 38.6707 37.5302Z" stroke="#240552" stroke-linecap="round" stroke-linejoin="round"/>
<defs>
<linearGradient id="paint0_linear_2762_44969" x1="33.2422" y1="-15.5823" x2="33.2422" y2="56.5622" gradientUnits="userSpaceOnUse">
<stop stop-color="#EFEFEF"/>
<stop offset="1" stop-color="#D9D9D9" stop-opacity="0"/>
</linearGradient>
<linearGradient id="paint1_linear_2762_44969" x1="33.2412" y1="0.46875" x2="33.2422" y2="54.7203" gradientUnits="userSpaceOnUse">
<stop stop-color="#DDDDDD"/>
<stop offset="1" stop-color="#DDDDDD" stop-opacity="0"/>
</linearGradient>
</defs>
</svg>
