<svg width="28" height="28" viewBox="0 0 28 28" fill="none" xmlns="http://www.w3.org/2000/svg">
<circle cx="13.8965" cy="14" r="13.1784" fill="white" stroke="#F3F4F6" stroke-width="0.85022"/>
<path d="M13.9677 14.4556C13.9269 14.4498 13.8744 14.4498 13.8277 14.4556C12.801 14.4206 11.9844 13.5806 11.9844 12.5481C11.9844 11.4923 12.836 10.6348 13.8977 10.6348C14.9535 10.6348 15.811 11.4923 15.811 12.5481C15.8052 13.5806 14.9944 14.4206 13.9677 14.4556Z" stroke="#8E50E9" stroke-width="1.02201" stroke-linecap="round" stroke-linejoin="round"/>
<path d="M17.8321 18.3052C16.7938 19.256 15.4171 19.8335 13.9004 19.8335C12.3838 19.8335 11.0071 19.256 9.96875 18.3052C10.0271 17.7568 10.3771 17.2202 11.0013 16.8002C12.5996 15.7385 15.2129 15.7385 16.7996 16.8002C17.4238 17.2202 17.7738 17.7568 17.8321 18.3052Z" stroke="#8E50E9" stroke-width="1.02201" stroke-linecap="round" stroke-linejoin="round"/>
<path d="M13.8997 19.8327C17.1214 19.8327 19.7331 17.221 19.7331 13.9993C19.7331 10.7777 17.1214 8.16602 13.8997 8.16602C10.6781 8.16602 8.06641 10.7777 8.06641 13.9993C8.06641 17.221 10.6781 19.8327 13.8997 19.8327Z" stroke="#240552" stroke-width="1.02201" stroke-linecap="round" stroke-linejoin="round"/>
</svg>
