<svg width="21" height="21" viewBox="0 0 21 21" fill="none" xmlns="http://www.w3.org/2000/svg">
<path d="M17.0574 10.0567C17.0876 10.2894 17.1032 10.5367 17.1032 10.7995C17.1032 12.2939 16.6505 13.2986 16.2172 13.9227C16.0461 14.1704 15.8468 14.3975 15.6234 14.5993C15.5504 14.6647 15.4737 14.7258 15.3936 14.7823L15.3849 14.7881C15.3148 14.8319 15.2571 14.8927 15.2171 14.965C15.1771 15.0372 15.1561 15.1184 15.1561 15.2009V16.8277C15.1561 16.9568 15.1048 17.0806 15.0135 17.1719C14.9222 17.2632 14.7984 17.3145 14.6693 17.3145H13.3219C13.292 17.3145 13.2632 17.3026 13.2421 17.2814C13.2209 17.2602 13.209 17.2315 13.209 17.2016C13.209 16.6009 12.7222 16.1141 12.1225 16.1141H10.4013C9.80158 16.1141 9.31481 16.6009 9.31481 17.2016C9.31481 17.2315 9.30291 17.2602 9.28173 17.2814C9.26055 17.3026 9.23183 17.3145 9.20188 17.3145H7.85449C7.72539 17.3145 7.60158 17.2632 7.51029 17.1719C7.419 17.0806 7.36772 16.9568 7.36772 16.8277V16.0002C7.36744 15.8982 7.33515 15.799 7.27541 15.7163C7.21567 15.6337 7.1315 15.5719 7.03477 15.5397L6.99583 15.5212C6.91851 15.4832 6.84372 15.4403 6.77191 15.3927C6.55773 15.2545 6.21991 14.9975 5.76721 14.5389C5.35888 14.1186 5.03004 13.6278 4.79659 13.0903C4.61746 12.6794 4.24264 12.3183 3.74127 12.2336C3.66664 12.2209 3.59885 12.1824 3.54987 12.1247C3.50089 12.067 3.47386 11.9938 3.47354 11.9181V10.451C3.47354 10.3842 3.49721 10.3196 3.54035 10.2686C3.58348 10.2177 3.64329 10.1836 3.70914 10.1726C4.24459 10.082 4.62427 9.67217 4.77225 9.22045C4.89881 8.83297 5.12662 8.32479 5.50436 7.94218C5.8229 7.62453 6.17929 7.34726 6.56552 7.11662C6.72027 7.02355 6.87947 6.9381 7.04256 6.86058L7.06787 6.84889L7.07274 6.84695C7.16051 6.80932 7.23527 6.74671 7.28772 6.66691C7.34018 6.58711 7.368 6.49364 7.36772 6.39814V4.35662C7.61403 4.5708 7.90122 4.8025 8.21081 5.00889C8.63333 5.29317 9.13665 5.55992 9.6536 5.6563C9.77311 5.33161 9.92993 5.02189 10.1209 4.73338C10.0615 4.72708 10.0021 4.72091 9.94274 4.71488C9.59714 4.67984 9.18143 4.48805 8.7521 4.20085C8.36555 3.93503 8.00239 3.63669 7.6666 3.30909C7.56152 3.20884 7.42963 3.14122 7.28689 3.11444C7.14416 3.08766 6.99672 3.10285 6.86245 3.15819C6.72466 3.21228 6.60632 3.30657 6.52281 3.42879C6.4393 3.55102 6.39448 3.69553 6.39418 3.84356V6.09634C5.81247 6.40386 5.27912 6.79519 4.81119 7.25778C4.28256 7.79323 3.99536 8.46498 3.84739 8.91767C3.78897 9.09096 3.66241 9.19319 3.54753 9.21266C3.25488 9.26189 2.98911 9.41317 2.79736 9.63967C2.6056 9.86617 2.50026 10.1533 2.5 10.45V11.9172C2.49985 12.2232 2.60811 12.5194 2.80557 12.7532C3.00303 12.9871 3.27694 13.1434 3.57869 13.1945C3.70038 13.2139 3.83181 13.3132 3.90385 13.4797C4.1852 14.1266 4.5817 14.7171 5.07405 15.2223C5.56958 15.7247 5.96095 16.0275 6.24133 16.2095C6.29682 16.2455 6.34842 16.2767 6.39418 16.304V16.8277C6.39418 17.0195 6.43195 17.2094 6.50534 17.3866C6.57872 17.5637 6.68629 17.7247 6.82189 17.8603C6.9575 17.9959 7.11848 18.1035 7.29565 18.1769C7.47283 18.2503 7.66272 18.288 7.85449 18.288H9.20188C9.80158 18.288 10.2884 17.8013 10.2884 17.2016C10.2884 17.1383 10.339 17.0877 10.4013 17.0877H12.1225C12.1848 17.0877 12.2354 17.1383 12.2354 17.2016C12.2354 17.8013 12.7222 18.288 13.3219 18.288H14.6693C15.0566 18.288 15.428 18.1342 15.7019 17.8603C15.9758 17.5865 16.1296 17.215 16.1296 16.8277V15.4463C16.4676 15.1656 16.7657 14.84 17.0155 14.4786C17.5559 13.7026 18.0767 12.5062 18.0767 10.7995C18.0767 10.0927 17.9784 9.45994 17.7915 8.89431C17.6093 9.31792 17.3616 9.7102 17.0574 10.0567ZM16.9114 5.85783C17.2035 6.56389 17.2498 7.34765 17.0429 8.0832C16.8359 8.81876 16.3878 9.46341 15.7704 9.91361C15.3518 10.2174 14.7998 10.1959 14.3227 9.99831L11.3631 8.77261C10.8861 8.57499 10.4801 8.20017 10.3993 7.69003C10.2734 6.86789 10.4524 6.02807 10.9028 5.32882C11.3532 4.62958 12.0438 4.11922 12.8444 3.89392C13.6451 3.66862 14.5005 3.74394 15.2494 4.10569C15.9984 4.46744 16.5901 5.09064 16.9114 5.85783ZM15.1979 9.12699C15.5475 8.87245 15.823 8.52937 15.996 8.13303C16.169 7.73669 16.2333 7.30142 16.1822 6.87199C16.1312 6.44257 15.9666 6.0345 15.7055 5.68979C15.4444 5.34507 15.0961 5.07615 14.6966 4.91069C14.297 4.74524 13.8606 4.68922 13.4323 4.74842C13.0039 4.80761 12.599 4.97987 12.2593 5.24747C11.9196 5.51508 11.6573 5.86836 11.4995 6.27097C11.3416 6.67358 11.2939 7.11098 11.3612 7.53816C11.3726 7.59339 11.4008 7.64373 11.442 7.68225C11.5043 7.74845 11.6036 7.81854 11.736 7.87306L14.6956 9.09973C14.8038 9.14645 14.9204 9.17063 15.0383 9.17079C15.0947 9.17303 15.1505 9.15773 15.1979 9.12699ZM7.12433 10.0129C7.31798 10.0129 7.5037 9.93598 7.64063 9.79905C7.77757 9.66212 7.85449 9.4764 7.85449 9.28275C7.85449 9.0891 7.77757 8.90338 7.64063 8.76645C7.5037 8.62952 7.31798 8.55259 7.12433 8.55259C6.93068 8.55259 6.74497 8.62952 6.60803 8.76645C6.4711 8.90338 6.39418 9.0891 6.39418 9.28275C6.39418 9.4764 6.4711 9.66212 6.60803 9.79905C6.74497 9.93598 6.93068 10.0129 7.12433 10.0129Z" fill="white"/>
</svg>
