<svg width="88" height="29" viewBox="0 0 88 29" fill="none" xmlns="http://www.w3.org/2000/svg">
<path d="M62.0278 17.2236L60.2051 17.5005L60.185 17.5039C60.0205 17.5291 59.908 17.6818 59.9332 17.8463C59.9584 18.0108 60.1111 18.1232 60.2756 18.098L62.1386 17.8161C62.3031 17.7909 62.4172 17.6382 62.3921 17.4737C62.3669 17.3092 62.2142 17.1951 62.0497 17.2202L62.0295 17.2236H62.0278Z" fill="white"/>
<path d="M58.3772 17.6565L56.5327 17.6918H56.5125C56.3464 17.6951 56.2155 17.8311 56.2188 17.9972C56.2222 18.1634 56.3581 18.2943 56.5243 18.291L58.4074 18.2574C58.5736 18.254 58.7045 18.1181 58.7028 17.9519C58.6995 17.7858 58.5635 17.6548 58.3974 17.6565H58.3772Z" fill="white"/>
<path d="M54.686 17.606L52.8347 17.4315C52.6702 17.4164 52.5259 17.5372 52.5091 17.7C52.494 17.8645 52.6148 18.0105 52.7793 18.0256L54.6373 18.2018C54.8018 18.217 54.9478 18.0961 54.9629 17.9316C54.978 17.7671 54.8572 17.6211 54.6927 17.606H54.6843H54.686Z" fill="white"/>
<path d="M50.9701 17.2683L49.1087 17.1307C48.9443 17.119 48.8033 17.2415 48.7898 17.406C48.7781 17.5705 48.9006 17.7114 49.0651 17.7249H49.0685L50.9214 17.8625H50.9248C51.0892 17.8743 51.2319 17.7517 51.2437 17.5872C51.2554 17.4228 51.1329 17.2801 50.9684 17.2683H50.9701Z" fill="white"/>
<path d="M47.2554 17.0168L45.389 16.9261C45.2262 16.9178 45.0869 17.0436 45.0785 17.2081C45.0701 17.3709 45.196 17.5102 45.3605 17.5186H45.3639L47.2218 17.6109H47.2252C47.388 17.6193 47.5273 17.4934 47.5357 17.329C47.5441 17.1645 47.4182 17.0268 47.2537 17.0185L47.2554 17.0168Z" fill="white"/>
<path d="M43.5201 16.8603L41.6521 16.82C41.4893 16.8167 41.355 16.9459 41.3516 17.1087C41.3483 17.2715 41.4775 17.4058 41.6403 17.4091H41.6437L43.5033 17.4511H43.5067C43.6695 17.4545 43.8054 17.3252 43.8088 17.1624C43.8122 16.9996 43.6829 16.8637 43.5201 16.8603Z" fill="white"/>
<path d="M39.7851 16.8054L37.917 16.8188C37.7542 16.8188 37.625 16.9531 37.625 17.1142C37.625 17.277 37.7593 17.4062 37.9204 17.4062H37.9254L39.7851 17.3945H39.7901C39.9529 17.3945 40.0839 17.2602 40.0822 17.0991C40.0822 16.9363 39.9479 16.8054 39.7868 16.8071L39.7851 16.8054Z" fill="white"/>
<path d="M36.047 16.8672L34.179 16.9411C34.0179 16.9478 33.892 17.0837 33.8987 17.2448C33.9054 17.406 34.0414 17.5318 34.2025 17.5251H34.2075L36.0655 17.453H36.0705C36.2317 17.4463 36.3575 17.3103 36.3525 17.1492C36.3458 16.988 36.2098 16.8622 36.0487 16.8672H36.047Z" fill="white"/>
<path d="M32.3137 17.0431L30.449 17.1841C30.2879 17.1959 30.1687 17.3352 30.1805 17.4963C30.1922 17.6574 30.3315 17.7766 30.4927 17.7648H30.4977L32.3507 17.6255H32.3557C32.5168 17.6138 32.6377 17.4728 32.6242 17.3117C32.6125 17.1505 32.4715 17.0297 32.3121 17.0431H32.3137Z" fill="white"/>
<path d="M28.5838 17.3604L26.7258 17.5769C26.5664 17.5954 26.4522 17.7397 26.4707 17.8992C26.4892 18.0586 26.6335 18.1728 26.793 18.1543H26.7997L28.6459 17.9411H28.6526C28.8121 17.9227 28.9262 17.7783 28.9077 17.6189C28.8893 17.4594 28.7449 17.3453 28.5855 17.3638L28.5838 17.3604Z" fill="white"/>
<path d="M24.879 17.8345L23.0311 18.1366C22.8733 18.1618 22.7676 18.3111 22.7928 18.4689C22.8179 18.6267 22.9673 18.7324 23.1251 18.7072H23.1318L24.9646 18.4085H24.9713C25.1291 18.3816 25.2365 18.2322 25.2097 18.0745C25.1845 17.9167 25.0351 17.8093 24.8773 17.8361L24.879 17.8345Z" fill="white"/>
<path d="M21.1965 18.4793L19.367 18.8804C19.2126 18.914 19.1136 19.0684 19.1472 19.2228C19.1807 19.3772 19.3351 19.4762 19.4896 19.4427H19.498L21.3123 19.0449H21.3207C21.4768 19.0097 21.5741 18.8552 21.5406 18.7008C21.507 18.5447 21.3526 18.4474 21.1982 18.481L21.1965 18.4793Z" fill="white"/>
<path d="M17.5415 19.339L15.7389 19.8543C15.5861 19.8979 15.4988 20.0557 15.5425 20.2084C15.5861 20.3611 15.7439 20.4484 15.8966 20.4048L15.9067 20.4014L17.6908 19.8929L17.7009 19.8895C17.8536 19.8459 17.9409 19.6881 17.899 19.5354C17.8553 19.3826 17.6975 19.2954 17.5448 19.3373L17.5415 19.339Z" fill="white"/>
<path d="M13.9631 20.4322L12.2024 21.0801C12.0547 21.1338 11.9792 21.2983 12.0329 21.446C12.0866 21.5937 12.2511 21.6692 12.3988 21.6155L12.4089 21.6122L14.1477 20.9727L14.1578 20.9693C14.3055 20.9156 14.3827 20.7511 14.3273 20.6034C14.2736 20.4557 14.1091 20.3785 13.9614 20.4339L13.9631 20.4322Z" fill="white"/>
<path d="M10.4632 21.8035L8.76463 22.6058C8.62364 22.6729 8.56154 22.8424 8.62868 22.9834C8.69581 23.1244 8.86533 23.1865 9.00632 23.1194L9.01807 23.1143L10.6931 22.3255L10.7049 22.3205C10.8475 22.2533 10.9079 22.0838 10.8408 21.9411C10.7737 21.7985 10.6042 21.738 10.4615 21.8052L10.4632 21.8035Z" fill="white"/>
<path d="M7.11013 23.4891L5.50295 24.4665C5.37028 24.5471 5.32661 24.7218 5.4089 24.8545C5.48951 24.9871 5.66417 25.0308 5.79684 24.9485L5.81027 24.9401L7.39059 23.9795L7.40402 23.9711C7.53837 23.8905 7.58036 23.7158 7.49975 23.5815C7.41914 23.4471 7.24448 23.4052 7.11013 23.4858V23.4891Z" fill="white"/>
<path d="M3.95037 25.5379L2.47418 26.7101C2.35158 26.8075 2.33143 26.9838 2.42884 27.1064C2.52624 27.2273 2.70258 27.2492 2.82517 27.1518L2.84029 27.14L4.28793 25.993L4.30304 25.9812C4.42564 25.8838 4.44579 25.7075 4.34838 25.5849C4.25098 25.4623 4.07464 25.4421 3.95205 25.5395L3.95037 25.5379Z" fill="white"/>
<path d="M1.08459 27.9826L0.644404 28.4262C0.535199 28.5371 0.535199 28.7135 0.644404 28.8243C0.75529 28.9336 0.931701 28.9336 1.04259 28.8243L1.04763 28.8193L1.47941 28.3858L1.48445 28.3808C1.59365 28.2699 1.59365 28.0935 1.48445 27.9826C1.37356 27.8734 1.19715 27.8734 1.08627 27.9826H1.08459Z" fill="white"/>
<path d="M63.494 10.3145L64.877 15.8599L68.0391 12.54L63.494 10.3145Z" fill="white"/>
<path d="M87.6484 0.910156L75.9466 17.7831C75.7234 18.1054 75.376 18.3236 74.9883 18.3873C74.6006 18.4494 74.2028 18.3521 73.8889 18.1154L57.3903 5.72716C57.2006 5.5845 57.1167 5.34281 57.1788 5.11455C57.2392 4.88629 57.4322 4.71677 57.6672 4.68823L87.6484 0.910156Z" fill="white"/>
<path d="M63.503 10.3125L87.6484 0.910156L66.1599 12.3199L66.4771 13.8741L63.503 10.3125Z" fill="white"/>
<path d="M67.7422 13.5005L64.8822 15.8603L66.1578 12.3223L67.7422 13.5005Z" fill="white"/>
</svg>
