<svg width="92" height="30" viewBox="0 0 92 30" fill="none" xmlns="http://www.w3.org/2000/svg">
<path d="M64.5906 17.4748L62.6932 17.763L62.6722 17.7665C62.501 17.7927 62.384 17.9517 62.4102 18.1229C62.4364 18.2942 62.5954 18.4112 62.7666 18.385L64.7059 18.0915C64.8771 18.0653 64.9959 17.9063 64.9697 17.7351C64.9435 17.5639 64.7845 17.4451 64.6133 17.4713L64.5923 17.4748H64.5906Z" fill="#240552"/>
<path d="M60.7864 17.9235L58.8663 17.9602H58.8454C58.6724 17.9637 58.5361 18.1052 58.5396 18.2782C58.5431 18.4511 58.6846 18.5874 58.8576 18.5839L60.8179 18.549C60.9908 18.5455 61.1271 18.404 61.1254 18.231C61.1219 18.058 60.9803 17.9218 60.8074 17.9235H60.7864Z" fill="#240552"/>
<path d="M56.9504 17.8726L55.0234 17.6909C54.8522 17.6752 54.7019 17.801 54.6844 17.9704C54.6687 18.1416 54.7945 18.2936 54.9657 18.3094L56.8998 18.4928C57.071 18.5085 57.223 18.3827 57.2387 18.2115C57.2544 18.0403 57.1287 17.8883 56.9574 17.8726H56.9487H56.9504Z" fill="#240552"/>
<path d="M53.0811 17.5213L51.1436 17.3781C50.9723 17.3658 50.8256 17.4934 50.8116 17.6646C50.7994 17.8358 50.9269 17.9826 51.0981 17.9965H51.1016L53.0304 18.1398H53.0339C53.2052 18.152 53.3537 18.0245 53.3659 17.8533C53.3781 17.6821 53.2506 17.5336 53.0794 17.5213H53.0811Z" fill="#240552"/>
<path d="M49.2103 17.2581L47.2675 17.1637C47.098 17.155 46.953 17.286 46.9443 17.4572C46.9355 17.6267 47.0666 17.7717 47.2378 17.7804H47.2413L49.1753 17.8765H49.1788C49.3483 17.8853 49.4933 17.7542 49.502 17.583C49.5108 17.4118 49.3797 17.2685 49.2085 17.2598L49.2103 17.2581Z" fill="#240552"/>
<path d="M45.3238 17.0959L43.3792 17.054C43.2097 17.0505 43.07 17.185 43.0665 17.3545C43.063 17.5239 43.1975 17.6637 43.367 17.6672H43.3705L45.3063 17.7109H45.3098C45.4792 17.7144 45.6208 17.5798 45.6243 17.4104C45.6278 17.2409 45.4932 17.0994 45.3238 17.0959Z" fill="#240552"/>
<path d="M41.4375 17.0386L39.493 17.0526C39.3235 17.0526 39.189 17.1923 39.189 17.3601C39.189 17.5295 39.3287 17.6641 39.4965 17.6641H39.5017L41.4375 17.6518H41.4428C41.6122 17.6518 41.7485 17.5121 41.7467 17.3443C41.7467 17.1749 41.607 17.0386 41.4393 17.0403L41.4375 17.0386Z" fill="#240552"/>
<path d="M37.5427 17.102L35.5982 17.1788C35.4305 17.1858 35.2994 17.3273 35.3064 17.4951C35.3134 17.6628 35.4549 17.7938 35.6226 17.7868H35.6279L37.562 17.7117H37.5672C37.7349 17.7047 37.866 17.5632 37.8607 17.3955C37.8537 17.2278 37.7122 17.0967 37.5445 17.102H37.5427Z" fill="#240552"/>
<path d="M33.6557 17.285L31.7147 17.4318C31.547 17.444 31.4229 17.589 31.4352 17.7567C31.4474 17.9245 31.5924 18.0485 31.7601 18.0363H31.7654L33.6942 17.8913H33.6994C33.8672 17.879 33.9929 17.7323 33.979 17.5646C33.9667 17.3968 33.82 17.271 33.654 17.285H33.6557Z" fill="#240552"/>
<path d="M29.7793 17.6169L27.8452 17.8423C27.6793 17.8615 27.5605 18.0117 27.5797 18.1777C27.5989 18.3437 27.7491 18.4625 27.9151 18.4433H27.9221L29.8439 18.2214H29.8509C30.0169 18.2022 30.1357 18.0519 30.1165 17.8859C30.0973 17.72 29.947 17.6012 29.7811 17.6204L29.7793 17.6169Z" fill="#240552"/>
<path d="M25.9175 18.1091L23.9939 18.4236C23.8297 18.4498 23.7196 18.6053 23.7458 18.7695C23.772 18.9338 23.9275 19.0438 24.0917 19.0176H24.0987L26.0066 18.7066H26.0136C26.1778 18.6787 26.2896 18.5232 26.2617 18.359C26.2354 18.1947 26.08 18.0829 25.9157 18.1109L25.9175 18.1091Z" fill="#240552"/>
<path d="M22.088 18.7814L20.1837 19.1989C20.0229 19.2339 19.9199 19.3946 19.9548 19.5553C19.9897 19.7161 20.1505 19.8192 20.3112 19.7842H20.32L22.2086 19.3701H22.2173C22.3798 19.3335 22.4811 19.1727 22.4462 19.012C22.4113 18.8495 22.2505 18.7482 22.0898 18.7831L22.088 18.7814Z" fill="#240552"/>
<path d="M18.2832 19.6758L16.4068 20.2121C16.2478 20.2576 16.1569 20.4218 16.2024 20.5808C16.2478 20.7398 16.412 20.8306 16.571 20.7852L16.5815 20.7817L18.4387 20.2523L18.4492 20.2488C18.6082 20.2034 18.699 20.0392 18.6553 19.8802C18.6099 19.7212 18.4457 19.6303 18.2867 19.674L18.2832 19.6758Z" fill="#240552"/>
<path d="M14.5543 20.8147L12.7216 21.4891C12.5678 21.545 12.4892 21.7162 12.5451 21.87C12.601 22.0237 12.7722 22.1024 12.926 22.0465L12.9365 22.043L14.7465 21.3773L14.757 21.3738C14.9107 21.3179 14.9911 21.1467 14.9334 20.9929C14.8775 20.8392 14.7063 20.7588 14.5525 20.8165L14.5543 20.8147Z" fill="#240552"/>
<path d="M10.9163 22.2407L9.14826 23.0758C9.0015 23.1457 8.93685 23.3222 9.00674 23.4689C9.07662 23.6157 9.25308 23.6803 9.39984 23.6104L9.41207 23.6052L11.1557 22.7841L11.1679 22.7788C11.3164 22.7089 11.3793 22.5325 11.3094 22.384C11.2396 22.2355 11.0631 22.1726 10.9146 22.2425L10.9163 22.2407Z" fill="#240552"/>
<path d="M7.42173 23.996L5.74874 25.0135C5.61064 25.0974 5.56518 25.2792 5.65084 25.4173C5.73475 25.5554 5.91656 25.6008 6.05467 25.5152L6.06865 25.5064L7.71367 24.5065L7.72765 24.4977C7.86751 24.4138 7.91121 24.232 7.8273 24.0922C7.74339 23.9523 7.56158 23.9086 7.42173 23.9925V23.996Z" fill="#240552"/>
<path d="M4.13458 26.1275L2.59795 27.3477C2.47033 27.4491 2.44935 27.6326 2.55075 27.7603C2.65214 27.8861 2.83569 27.9089 2.96331 27.8075L2.97905 27.7952L4.48596 26.6012L4.50169 26.589C4.6293 26.4876 4.65028 26.304 4.54889 26.1764C4.4475 26.0488 4.26394 26.0278 4.13632 26.1292L4.13458 26.1275Z" fill="#240552"/>
<path d="M1.15138 28.6733L0.693168 29.135C0.579491 29.2505 0.579491 29.4341 0.693168 29.5495C0.808594 29.6632 0.992228 29.6632 1.10765 29.5495L1.1129 29.5443L1.56236 29.0931L1.56761 29.0878C1.68128 28.9724 1.68128 28.7887 1.56761 28.6733C1.45218 28.5596 1.26855 28.5596 1.15312 28.6733H1.15138Z" fill="#240552"/>
<path d="M66.1191 10.2812L67.5588 16.0537L70.8503 12.5979L66.1191 10.2812Z" fill="#240552"/>
<path d="M91.2603 0.492188L79.0793 18.056C78.847 18.3915 78.4853 18.6186 78.0817 18.685C77.6781 18.7496 77.2641 18.6483 76.9374 18.4019L59.7631 5.50643C59.5657 5.35792 59.4784 5.10634 59.543 4.86873C59.6059 4.63112 59.8068 4.45466 60.0514 4.42496L91.2603 0.492188Z" fill="#240552"/>
<path d="M66.1262 10.2796L91.2603 0.492188L68.8919 12.3691L69.2221 13.987L66.1262 10.2796Z" fill="#240552"/>
<path d="M70.5425 13.5976L67.5654 16.054L68.8932 12.3711L70.5425 13.5976Z" fill="#240552"/>
</svg>
