<svg width="28" height="28" viewBox="0 0 28 28" fill="none" xmlns="http://www.w3.org/2000/svg">
<circle cx="13.8965" cy="13.998" r="13.1784" fill="white" stroke="#F3F4F6" stroke-width="0.85022"/>
<path d="M11.5625 8.16602V9.91602" stroke="#240552" stroke-width="1.24817" stroke-miterlimit="10" stroke-linecap="round" stroke-linejoin="round"/>
<path d="M16.2305 8.16602V9.91602" stroke="#240552" stroke-width="1.24817" stroke-miterlimit="10" stroke-linecap="round" stroke-linejoin="round"/>
<path d="M19.1484 11.9577V14.9502C18.6293 14.536 17.9701 14.291 17.2526 14.291C16.5351 14.291 15.8643 14.5418 15.3393 14.9677C14.6334 15.5218 14.1901 16.391 14.1901 17.3535C14.1901 17.9252 14.3534 18.4735 14.6334 18.9285C14.8493 19.2844 15.1293 19.5935 15.4618 19.8327H11.5651C9.52344 19.8327 8.64844 18.666 8.64844 16.916V11.9577C8.64844 10.2077 9.52344 9.04102 11.5651 9.04102H16.2318C18.2734 9.04102 19.1484 10.2077 19.1484 11.9577Z" stroke="#240552" stroke-width="1.24817" stroke-miterlimit="10" stroke-linecap="round" stroke-linejoin="round"/>
<path d="M10.9805 13.416H14.4805" stroke="#955BEB" stroke-width="1.24817" stroke-miterlimit="10" stroke-linecap="round" stroke-linejoin="round"/>
<path d="M10.9805 16.332H12.5088" stroke="#955BEB" stroke-width="1.24817" stroke-miterlimit="10" stroke-linecap="round" stroke-linejoin="round"/>
<path d="M20.3164 17.3535C20.3164 17.9252 20.1531 18.4735 19.8731 18.9285C19.7097 19.2085 19.5056 19.4535 19.2664 19.6519C18.7297 20.1302 18.0297 20.416 17.2539 20.416C16.5831 20.416 15.9647 20.2002 15.4631 19.8327C15.1306 19.5935 14.8506 19.2844 14.6347 18.9285C14.3547 18.4735 14.1914 17.9252 14.1914 17.3535C14.1914 16.391 14.6347 15.5218 15.3406 14.9677C15.8656 14.5418 16.5364 14.291 17.2539 14.291C17.9714 14.291 18.6306 14.536 19.1497 14.9502C19.8614 15.5102 20.3164 16.3793 20.3164 17.3535Z" stroke="#240552" stroke-width="1.24817" stroke-miterlimit="10" stroke-linecap="round" stroke-linejoin="round"/>
<path d="M17.2513 18.8132C17.2513 18.0082 17.9046 17.3548 18.7096 17.3548C17.9046 17.3548 17.2513 16.7015 17.2513 15.8965C17.2513 16.7015 16.598 17.3548 15.793 17.3548C16.598 17.3548 17.2513 18.0082 17.2513 18.8132Z" stroke="#955BEB" stroke-width="1.24817" stroke-linecap="round" stroke-linejoin="round"/>
</svg>
