<svg width="28" height="28" viewBox="0 0 28 28" fill="none" xmlns="http://www.w3.org/2000/svg">
<circle cx="13.8965" cy="14" r="13.1784" fill="white" stroke="#F3F4F6" stroke-width="0.85022"/>
<path d="M11.5664 8.16602V9.91602" stroke="#240552" stroke-width="1.24817" stroke-miterlimit="10" stroke-linecap="round" stroke-linejoin="round"/>
<path d="M16.2305 8.16602V9.91602" stroke="#240552" stroke-width="1.24817" stroke-miterlimit="10" stroke-linecap="round" stroke-linejoin="round"/>
<path d="M19.1465 11.9577V14.9502C18.6273 14.536 17.9682 14.291 17.2507 14.291C16.5332 14.291 15.8623 14.5418 15.3373 14.9677C14.6315 15.5218 14.1882 16.391 14.1882 17.3535C14.1882 17.9252 14.3515 18.4735 14.6315 18.9285C14.8473 19.2844 15.1273 19.5935 15.4598 19.8327H11.5632C9.52148 19.8327 8.64648 18.666 8.64648 16.916V11.9577C8.64648 10.2077 9.52148 9.04102 11.5632 9.04102H16.2298C18.2715 9.04102 19.1465 10.2077 19.1465 11.9577Z" stroke="#240552" stroke-width="1.24817" stroke-miterlimit="10" stroke-linecap="round" stroke-linejoin="round"/>
<path d="M10.9805 13.416H14.4805" stroke="#955BEB" stroke-width="1.24817" stroke-miterlimit="10" stroke-linecap="round" stroke-linejoin="round"/>
<path d="M10.9805 16.334H12.5088" stroke="#955BEB" stroke-width="1.24817" stroke-miterlimit="10" stroke-linecap="round" stroke-linejoin="round"/>
<path d="M20.3145 17.3535C20.3145 17.9252 20.1511 18.4735 19.8711 18.9285C19.7078 19.2085 19.5036 19.4535 19.2645 19.6519C18.7278 20.1302 18.0278 20.416 17.252 20.416C16.5811 20.416 15.9628 20.2002 15.4611 19.8327C15.1286 19.5935 14.8486 19.2844 14.6328 18.9285C14.3528 18.4735 14.1895 17.9252 14.1895 17.3535C14.1895 16.391 14.6328 15.5218 15.3386 14.9677C15.8636 14.5418 16.5345 14.291 17.252 14.291C17.9695 14.291 18.6286 14.536 19.1478 14.9502C19.8595 15.5102 20.3145 16.3793 20.3145 17.3535Z" stroke="#240552" stroke-width="1.24817" stroke-miterlimit="10" stroke-linecap="round" stroke-linejoin="round"/>
<path d="M17.2533 18.8132C17.2533 18.0082 17.9066 17.3548 18.7116 17.3548C17.9066 17.3548 17.2533 16.7015 17.2533 15.8965C17.2533 16.7015 16.5999 17.3548 15.7949 17.3548C16.5999 17.3548 17.2533 18.0082 17.2533 18.8132Z" stroke="#955BEB" stroke-width="1.24817" stroke-linecap="round" stroke-linejoin="round"/>
</svg>
