<svg width="28" height="28" viewBox="0 0 28 28" fill="none" xmlns="http://www.w3.org/2000/svg">
<circle cx="13.8965" cy="14" r="13.1784" fill="white" stroke="#F3F4F6" stroke-width="0.85022"/>
<path d="M15.8373 13.9997C15.8373 15.0722 14.9707 15.9389 13.8982 15.9389C12.8257 15.9389 11.959 15.0722 11.959 13.9997C11.959 12.9272 12.8257 12.0605 13.8982 12.0605C14.9707 12.0605 15.8373 12.9272 15.8373 13.9997Z" stroke="#8E50E9" stroke-width="0.996643" stroke-linecap="round" stroke-linejoin="round"/>
<path d="M13.8998 18.4802C15.8119 18.4802 17.594 17.3535 18.8344 15.4035C19.3219 14.6398 19.3219 13.356 18.8344 12.5923C17.594 10.6423 15.8119 9.51562 13.8998 9.51562C11.9877 9.51562 10.2057 10.6423 8.96523 12.5923C8.47773 13.356 8.47773 14.6398 8.96523 15.4035C10.2057 17.3535 11.9877 18.4802 13.8998 18.4802Z" stroke="#292D32" stroke-width="0.996643" stroke-linecap="round" stroke-linejoin="round"/>
</svg>
