<svg width="30" height="31" viewBox="0 0 30 31" fill="none" xmlns="http://www.w3.org/2000/svg">
<circle cx="14.6974" cy="15.6036" r="14.1974" stroke="#240552"/>
<path d="M12.6669 8.83203C10.7725 8.87535 9.66599 9.0563 8.90998 9.81232C8.15396 10.5683 7.973 11.6748 7.92969 13.5692M16.739 8.83203C18.6334 8.87535 19.7399 9.0563 20.4959 9.81232C21.252 10.5683 21.4329 11.6748 21.4762 13.5692M16.739 22.3786C18.6334 22.3353 19.7399 22.1543 20.4959 21.3983C21.252 20.6423 21.4329 19.5358 21.4762 17.6414M12.6669 22.3786C10.7725 22.3353 9.66599 22.1543 8.90998 21.3983C8.15396 20.6423 7.973 19.5358 7.92969 17.6414" stroke="#240552" stroke-width="1.01599" stroke-linecap="round" stroke-linejoin="round"/>
<path d="M18.0858 12.2188H18.0919" stroke="#240552" stroke-width="1.35465" stroke-linecap="round" stroke-linejoin="round"/>
<path d="M15.3819 11.543V13.575C15.3819 14.8521 15.3819 15.4907 14.9851 15.8875C14.5884 16.2843 13.9498 16.2843 12.6726 16.2843H10.6406" stroke="#240552" stroke-width="1.01599" stroke-linecap="round"/>
<path d="M10.839 11.7414C10.6406 11.9397 10.6406 12.259 10.6406 12.8976C10.6406 13.5362 10.6406 13.8555 10.839 14.0539M10.839 11.7414C11.0374 11.543 11.3567 11.543 11.9953 11.543C12.6339 11.543 12.9532 11.543 13.1516 11.7414M10.839 11.7414C10.839 11.7414 10.839 11.7414 10.839 11.7414ZM10.839 14.0539C11.0374 14.2523 11.3567 14.2523 11.9953 14.2523C12.6339 14.2523 12.9532 14.2523 13.1516 14.0539M10.839 14.0539C10.839 14.0539 10.839 14.0539 10.839 14.0539ZM13.1516 14.0539C13.3499 13.8555 13.3499 13.5362 13.3499 12.8976C13.3499 12.259 13.3499 11.9397 13.1516 11.7414M13.1516 14.0539C13.1516 14.0539 13.1516 14.0539 13.1516 14.0539ZM13.1516 11.7414C13.1516 11.7414 13.1516 11.7414 13.1516 11.7414Z" stroke="#240552" stroke-width="1.01599"/>
<path d="M18.0867 17.6367C18.406 17.6367 18.5656 17.6367 18.6648 17.7359C18.764 17.8351 18.764 17.9948 18.764 18.314V18.9914C18.764 19.3107 18.764 19.4703 18.6648 19.5695C18.5656 19.6687 18.406 19.6687 18.0867 19.6687H16.732C16.4127 19.6687 16.2531 19.6687 16.1539 19.5695C16.0547 19.4703 16.0547 19.3107 16.0547 18.9914L16.0547 18.314C16.0547 17.9948 16.0547 17.8351 16.1539 17.7359C16.2531 17.6367 16.4127 17.6367 16.732 17.6367L18.0867 17.6367Z" stroke="#240552" stroke-width="1.01599"/>
<path d="M10.6406 19.668H14.0273" stroke="#240552" stroke-width="1.01599" stroke-linecap="round"/>
<path d="M18.0859 14.25L18.0859 15.6047" stroke="#240552" stroke-width="1.01599" stroke-linecap="round"/>
</svg>
