<svg width="28" height="28" viewBox="0 0 28 28" fill="none" xmlns="http://www.w3.org/2000/svg">
<circle cx="13.8965" cy="14.002" r="13.1784" fill="white" stroke="#F3F4F6" stroke-width="0.85022"/>
<path d="M11.7787 20.7122H7.33203C7.0587 20.7122 6.83203 20.4856 6.83203 20.2122V16.2122C6.83203 15.1989 7.65203 14.3789 8.66536 14.3789H11.7787C12.052 14.3789 12.2787 14.6056 12.2787 14.8789V20.2122C12.2787 20.4856 12.052 20.7122 11.7787 20.7122ZM7.83203 19.7122H11.2787V15.3789H8.66536C8.20536 15.3789 7.83203 15.7522 7.83203 16.2122V19.7122Z" fill="#240552"/>
<path d="M16.2201 20.7148H11.7734C11.5001 20.7148 11.2734 20.4882 11.2734 20.2148V13.5482C11.2734 12.5348 12.0934 11.7148 13.1068 11.7148H14.8868C15.9001 11.7148 16.7201 12.5348 16.7201 13.5482V20.2148C16.7201 20.4882 16.5001 20.7148 16.2201 20.7148ZM12.2801 19.7148H15.7268V13.5482C15.7268 13.0882 15.3534 12.7148 14.8934 12.7148H13.1134C12.6534 12.7148 12.2801 13.0882 12.2801 13.5482V19.7148Z" fill="#240552"/>
<path d="M20.6654 20.7122H16.2188C15.9454 20.7122 15.7188 20.4856 15.7188 20.2122V16.8789C15.7188 16.6056 15.9454 16.3789 16.2188 16.3789H19.3321C20.3454 16.3789 21.1654 17.1989 21.1654 18.2122V20.2122C21.1654 20.4856 20.9387 20.7122 20.6654 20.7122ZM16.7188 19.7122H20.1654V18.2122C20.1654 17.7522 19.7921 17.3789 19.3321 17.3789H16.7188V19.7122Z" fill="#240552"/>
<path d="M15.1339 11.1124C14.9739 11.1124 14.7739 11.0657 14.5472 10.9324L14.0006 10.6057L13.4606 10.9257C12.9139 11.2524 12.5539 11.0591 12.4206 10.9657C12.2872 10.8724 12.0006 10.5791 12.1406 9.96573L12.2672 9.41238L11.8139 8.95905C11.5339 8.67905 11.4339 8.34572 11.5339 8.03905C11.6339 7.73238 11.9072 7.51905 12.2939 7.45238L12.8739 7.35238L13.2006 6.69906C13.5606 5.98573 14.4339 5.98573 14.7872 6.69906L15.1139 7.35238L15.6939 7.45238C16.0806 7.51905 16.3606 7.73238 16.4539 8.03905C16.5539 8.34572 16.4472 8.67905 16.1739 8.95905L15.7206 9.41238L15.8472 9.96573C15.9872 10.5857 15.7006 10.8724 15.5672 10.9724C15.5072 11.0257 15.3539 11.1124 15.1339 11.1124ZM14.0006 9.59905C14.1606 9.59905 14.3206 9.63906 14.4539 9.71906L14.8272 9.93905L14.7472 9.57905C14.6806 9.29905 14.7806 8.95905 14.9872 8.75239L15.3272 8.41238L14.9072 8.33906C14.6406 8.29239 14.3806 8.09906 14.2606 7.85906L14.0006 7.35906L13.7472 7.85906C13.6272 8.09906 13.3672 8.29239 13.1006 8.33906L12.6806 8.40573L13.0206 8.74571C13.2272 8.95238 13.3206 9.29239 13.2606 9.57239L13.1806 9.93238L13.5539 9.71239C13.6806 9.63239 13.8406 9.59905 14.0006 9.59905Z" fill="#8E50E9"/>
</svg>
