<svg width="54" height="54" viewBox="0 0 54 54" fill="none" xmlns="http://www.w3.org/2000/svg">
<g filter="url(#filter0_d_630_265317)">
<circle cx="25.6406" cy="25.4844" r="22.6164" fill="#FCB40C" stroke="black" stroke-width="1.56402"/>
<path d="M17.8203 26.428C17.8203 24.1283 17.8203 22.9776 18.5351 22.2636C19.2491 21.5488 20.3998 21.5488 22.6995 21.5488H29.205C31.5047 21.5488 32.6554 21.5488 33.3694 22.2636C34.0842 22.9776 34.0842 24.1283 34.0842 26.428C34.0842 28.7277 34.0842 29.8784 33.3694 30.5924C32.6554 31.3072 31.5047 31.3072 29.205 31.3072H22.6995C20.3998 31.3072 19.2491 31.3072 18.5351 30.5924C17.8203 29.8784 17.8203 28.7277 17.8203 26.428Z" stroke="black" stroke-width="1.21979"/>
<path d="M21.0742 21.5466V19.9202C21.0742 18.6261 21.5883 17.3851 22.5033 16.4701C23.4183 15.5551 24.6593 15.041 25.9534 15.041C27.2474 15.041 28.4884 15.5551 29.4035 16.4701C30.3185 17.3851 30.8325 18.6261 30.8325 19.9202V21.5466" stroke="black" stroke-width="1.21979" stroke-linecap="round"/>
</g>
<defs>
<filter id="filter0_d_630_265317" x="0.678168" y="0.521918" width="53.053" height="53.053" filterUnits="userSpaceOnUse" color-interpolation-filters="sRGB">
<feFlood flood-opacity="0" result="BackgroundImageFix"/>
<feColorMatrix in="SourceAlpha" type="matrix" values="0 0 0 0 0 0 0 0 0 0 0 0 0 0 0 0 0 0 127 0" result="hardAlpha"/>
<feOffset dx="1.56402" dy="1.56402"/>
<feGaussianBlur stdDeviation="1.56402"/>
<feComposite in2="hardAlpha" operator="out"/>
<feColorMatrix type="matrix" values="0 0 0 0 0 0 0 0 0 0 0 0 0 0 0 0 0 0 0.1 0"/>
<feBlend mode="normal" in2="BackgroundImageFix" result="effect1_dropShadow_630_265317"/>
<feBlend mode="normal" in="SourceGraphic" in2="effect1_dropShadow_630_265317" result="shape"/>
</filter>
</defs>
</svg>
