<svg width="28" height="28" viewBox="0 0 28 28" fill="none" xmlns="http://www.w3.org/2000/svg">
<circle cx="13.8965" cy="14" r="13.1784" fill="white" stroke="#F3F4F6" stroke-width="0.85022"/>
<path d="M17.9805 16.7708C17.7413 16.7708 17.543 16.5725 17.543 16.3333V10.7917C17.543 10.3892 17.2163 10.0625 16.8138 10.0625H13.6055C13.3663 10.0625 13.168 9.86417 13.168 9.625C13.168 9.38583 13.3663 9.1875 13.6055 9.1875H16.8138C17.7005 9.1875 18.418 9.905 18.418 10.7917V16.3333C18.418 16.5725 18.2196 16.7708 17.9805 16.7708Z" fill="#240552"/>
<path d="M15.0664 11.521C14.9672 11.521 14.8681 11.486 14.7864 11.4219L13.0364 9.96355C12.9372 9.88188 12.8789 9.75937 12.8789 9.6252C12.8789 9.49104 12.9372 9.37436 13.0364 9.28686L14.7864 7.82853C14.9731 7.67103 15.2472 7.70022 15.4047 7.88688C15.5622 8.07355 15.5331 8.34771 15.3464 8.50521L13.9989 9.6252L15.3464 10.7452C15.5331 10.9027 15.5564 11.1769 15.4047 11.3635C15.3172 11.4685 15.1889 11.521 15.0664 11.521Z" fill="#240552"/>
<path d="M17.9805 20.271C16.773 20.271 15.793 19.291 15.793 18.0835C15.793 16.876 16.773 15.896 17.9805 15.896C19.188 15.896 20.168 16.876 20.168 18.0835C20.168 19.291 19.188 20.271 17.9805 20.271ZM17.9805 16.771C17.2571 16.771 16.668 17.3602 16.668 18.0835C16.668 18.8068 17.2571 19.396 17.9805 19.396C18.7038 19.396 19.293 18.8068 19.293 18.0835C19.293 17.3602 18.7038 16.771 17.9805 16.771Z" fill="#240552"/>
<path d="M14.1914 18.8123H10.9831C10.0964 18.8123 9.37891 18.0948 9.37891 17.2082V11.6665C9.37891 11.4273 9.57724 11.229 9.81641 11.229C10.0556 11.229 10.2539 11.4273 10.2539 11.6665V17.2082C10.2539 17.6107 10.5806 17.9373 10.9831 17.9373H14.1914C14.4306 17.9373 14.6289 18.1357 14.6289 18.3748C14.6289 18.614 14.4306 18.8123 14.1914 18.8123Z" fill="#240552"/>
<path d="M12.7333 20.2706C12.6108 20.2706 12.4824 20.2181 12.3949 20.1131C12.2374 19.9264 12.2666 19.6522 12.4533 19.4947L13.8008 18.3747L12.4533 17.2547C12.2666 17.0972 12.2433 16.8231 12.3949 16.6364C12.5524 16.4497 12.8266 16.4264 13.0133 16.5781L14.7633 18.0364C14.8624 18.1181 14.9208 18.2406 14.9208 18.3747C14.9208 18.5089 14.8624 18.6256 14.7633 18.7131L13.0133 20.1714C12.9316 20.2356 12.8324 20.2706 12.7333 20.2706Z" fill="#240552"/>
<path d="M9.81641 12.104C8.60891 12.104 7.62891 11.124 7.62891 9.9165C7.62891 8.709 8.60891 7.729 9.81641 7.729C11.0239 7.729 12.0039 8.709 12.0039 9.9165C12.0039 11.124 11.0239 12.104 9.81641 12.104ZM9.81641 8.604C9.09307 8.604 8.50391 9.19317 8.50391 9.9165C8.50391 10.6398 9.09307 11.229 9.81641 11.229C10.5397 11.229 11.1289 10.6398 11.1289 9.9165C11.1289 9.19317 10.5397 8.604 9.81641 8.604Z" fill="#240552"/>
</svg>
