<svg width="28" height="28" viewBox="0 0 28 28" fill="none" xmlns="http://www.w3.org/2000/svg">
<circle cx="13.8965" cy="14.002" r="13.1784" fill="white" stroke="#F3F4F6" stroke-width="0.85022"/>
<path d="M16.332 19.819H11.6654C9.9037 19.819 8.89453 18.8098 8.89453 17.0482V11.3607C8.89453 9.52318 9.82786 8.58984 11.6654 8.58984C11.9045 8.58984 12.1029 8.78818 12.1029 9.02734C12.1029 9.26068 12.1962 9.48234 12.3595 9.64568C12.5229 9.80901 12.7445 9.90234 12.9779 9.90234H15.0195C15.5037 9.90234 15.8945 9.51151 15.8945 9.02734C15.8945 8.78818 16.0929 8.58984 16.332 8.58984C18.1695 8.58984 19.1029 9.52318 19.1029 11.3607V17.0482C19.1029 18.8098 18.0937 19.819 16.332 19.819ZM11.2862 9.47651C10.3645 9.55235 9.76953 9.96651 9.76953 11.3607V17.0482C9.76953 18.3432 10.3704 18.944 11.6654 18.944H16.332C17.627 18.944 18.2279 18.3432 18.2279 17.0482V11.3607C18.2279 9.96651 17.6329 9.55818 16.7112 9.47651C16.5129 10.2232 15.8304 10.7773 15.0195 10.7773H12.9779C12.5112 10.7773 12.0737 10.5965 11.7412 10.264C11.5195 10.0423 11.3679 9.77401 11.2862 9.47651Z" fill="#240552"/>
<path d="M15.0221 10.7773H12.9805C12.5138 10.7773 12.0763 10.5965 11.7438 10.264C11.4113 9.93151 11.2305 9.49401 11.2305 9.02734C11.2305 8.06484 12.018 7.27734 12.9805 7.27734H15.0221C15.4888 7.27734 15.9263 7.45818 16.2588 7.79068C16.5913 8.12318 16.7721 8.56068 16.7721 9.02734C16.7721 9.98984 15.9846 10.7773 15.0221 10.7773ZM12.9805 8.15234C12.4963 8.15234 12.1055 8.54318 12.1055 9.02734C12.1055 9.26068 12.1988 9.48234 12.3621 9.64568C12.5255 9.80901 12.7471 9.90234 12.9805 9.90234H15.0221C15.5063 9.90234 15.8971 9.51151 15.8971 9.02734C15.8971 8.79401 15.8038 8.57235 15.6405 8.40901C15.4771 8.24568 15.2555 8.15234 15.0221 8.15234H12.9805Z" fill="#240552"/>
<path d="M14.0013 14.5664H11.668C11.4288 14.5664 11.2305 14.3681 11.2305 14.1289C11.2305 13.8897 11.4288 13.6914 11.668 13.6914H14.0013C14.2405 13.6914 14.4388 13.8897 14.4388 14.1289C14.4388 14.3681 14.2405 14.5664 14.0013 14.5664Z" fill="#8E50E9"/>
<path d="M16.3346 16.9023H11.668C11.4288 16.9023 11.2305 16.704 11.2305 16.4648C11.2305 16.2257 11.4288 16.0273 11.668 16.0273H16.3346C16.5738 16.0273 16.7721 16.2257 16.7721 16.4648C16.7721 16.704 16.5738 16.9023 16.3346 16.9023Z" fill="#8E50E9"/>
</svg>
