<svg width="67" height="67" viewBox="0 0 67 67" fill="none" xmlns="http://www.w3.org/2000/svg">
<circle cx="33.2412" cy="33.585" r="32.6162" fill="url(#paint0_linear_2883_79187)" stroke="url(#paint1_linear_2883_79187)"/>
<circle cx="33.2422" cy="33.5859" r="19.6" fill="white" stroke="#EDEDED" stroke-width="0.8"/>
<path d="M34.9922 40.4441H30.3449C26.4722 40.4441 24.9231 38.895 24.9231 35.0222V30.375C24.9231 26.5022 26.4722 24.9531 30.3449 24.9531H34.9922C38.865 24.9531 40.4141 26.5022 40.4141 30.375V35.0222C40.4141 38.895 38.865 40.4441 34.9922 40.4441Z" stroke="#240552" stroke-width="0.856079" stroke-linecap="round" stroke-linejoin="round"/>
<path d="M33.7578 33.7372H30.4737V30.4531" stroke="#240552" stroke-width="0.856079" stroke-linecap="round" stroke-linejoin="round"/>
<path d="M30.4754 33.7355L34.8594 29.3516" stroke="#240552" stroke-width="0.856079" stroke-linecap="round" stroke-linejoin="round"/>
<path d="M37.3203 36.1875C34.3073 37.1944 31.0387 37.1944 28.0257 36.1875" stroke="#240552" stroke-width="0.856079" stroke-linecap="round" stroke-linejoin="round"/>
<defs>
<linearGradient id="paint0_linear_2883_79187" x1="33.2422" y1="-15.5823" x2="33.2422" y2="56.5622" gradientUnits="userSpaceOnUse">
<stop stop-color="#EFEFEF"/>
<stop offset="1" stop-color="#D9D9D9" stop-opacity="0"/>
</linearGradient>
<linearGradient id="paint1_linear_2883_79187" x1="33.2412" y1="0.46875" x2="33.2422" y2="54.7203" gradientUnits="userSpaceOnUse">
<stop stop-color="#DDDDDD"/>
<stop offset="1" stop-color="#DDDDDD" stop-opacity="0"/>
</linearGradient>
</defs>
</svg>
