<svg width="28" height="28" viewBox="0 0 28 28" fill="none" xmlns="http://www.w3.org/2000/svg">
<circle cx="13.8965" cy="14" r="13.1784" fill="white" stroke="#F3F4F6" stroke-width="0.85022"/>
<path d="M12.1484 13.4173V12.834C12.1484 11.8657 12.4401 11.084 13.8984 11.084C15.3568 11.084 15.6484 11.8657 15.6484 12.834V13.4173" stroke="#955BEB" stroke-width="1.07592" stroke-linecap="round" stroke-linejoin="round"/>
<path d="M13.8988 15.5164C14.0921 15.5164 14.2488 15.3597 14.2488 15.1664C14.2488 14.9731 14.0921 14.8164 13.8988 14.8164C13.7055 14.8164 13.5488 14.9731 13.5488 15.1664C13.5488 15.3597 13.7055 15.5164 13.8988 15.5164Z" stroke="#955BEB" stroke-width="1.07592" stroke-linecap="round" stroke-linejoin="round"/>
<path d="M15.3574 16.916H12.4408C11.2741 16.916 10.9824 16.6243 10.9824 15.4577V14.8743C10.9824 13.7077 11.2741 13.416 12.4408 13.416H15.3574C16.5241 13.416 16.8158 13.7077 16.8158 14.8743V15.4577C16.8158 16.6243 16.5241 16.916 15.3574 16.916Z" stroke="#955BEB" stroke-width="1.07592" stroke-linecap="round" stroke-linejoin="round"/>
<path d="M13.8978 19.8327C17.1194 19.8327 19.7311 17.221 19.7311 13.9993C19.7311 10.7777 17.1194 8.16602 13.8978 8.16602C10.6761 8.16602 8.06445 10.7777 8.06445 13.9993C8.06445 17.221 10.6761 19.8327 13.8978 19.8327Z" stroke="#240552" stroke-width="1.07592" stroke-linecap="round" stroke-linejoin="round"/>
</svg>
