<svg width="28" height="28" viewBox="0 0 28 28" fill="none" xmlns="http://www.w3.org/2000/svg">
<circle cx="13.8965" cy="14" r="13.1784" fill="white" stroke="#F3F4F6" stroke-width="0.85022"/>
<path d="M12.1497 19.8327H15.6497C18.5664 19.8327 19.7331 18.666 19.7331 15.7493V12.2493C19.7331 9.33268 18.5664 8.16602 15.6497 8.16602H12.1497C9.23307 8.16602 8.06641 9.33268 8.06641 12.2493V15.7493C8.06641 18.666 9.23307 19.8327 12.1497 19.8327Z" stroke="#240552" stroke-width="1.07592" stroke-linecap="round" stroke-linejoin="round"/>
<path d="M16.3987 14.9395C15.7396 15.5987 14.7946 15.8029 13.9604 15.5404L12.4496 17.0454C12.3446 17.1562 12.1287 17.2262 11.9712 17.2029L11.2712 17.1095C11.0379 17.0804 10.8279 16.8587 10.7929 16.6312L10.6996 15.9312C10.6762 15.7795 10.7521 15.5637 10.8571 15.4529L12.3621 13.9479C12.1054 13.1137 12.3037 12.1687 12.9629 11.5095C13.9079 10.5645 15.4479 10.5645 16.3987 11.5095C17.3437 12.4487 17.3437 13.9887 16.3987 14.9395Z" stroke="#8E50E9" stroke-width="1.07592" stroke-miterlimit="10" stroke-linecap="round" stroke-linejoin="round"/>
<path d="M12.9958 16.4958L12.5 15.9941" stroke="#8E50E9" stroke-width="1.07592" stroke-miterlimit="10" stroke-linecap="round" stroke-linejoin="round"/>
<path d="M14.7123 13.2409H14.7175" stroke="#8E50E9" stroke-width="1.43456" stroke-linecap="round" stroke-linejoin="round"/>
</svg>
