<svg width="28" height="28" viewBox="0 0 28 28" fill="none" xmlns="http://www.w3.org/2000/svg">
<circle cx="13.8965" cy="14" r="13.1784" fill="white" stroke="#F3F4F6" stroke-width="0.85022"/>
<path d="M17.5013 7.66699C16.9763 7.66699 16.3346 8.25033 16.3346 8.83366H11.668C11.668 8.25033 11.0263 7.66699 10.5013 7.66699H8.16797V12.917C8.16797 13.5003 8.7513 14.0837 9.33464 14.0837H10.618C10.8513 15.2503 11.6096 16.242 13.418 16.417V17.6303C11.668 17.8987 11.668 19.3337 11.668 19.3337H16.3346C16.3346 19.3337 16.3346 17.8987 14.5846 17.6303V16.417C16.393 16.242 17.1513 15.2503 17.3846 14.0837H18.668C19.2513 14.0837 19.8346 13.5003 19.8346 12.917V7.66699H17.5013ZM10.5013 12.917H9.33464V8.83366H10.5013V12.917ZM16.3346 13.2087C16.3346 14.3345 15.9963 15.2503 14.0013 15.2503C12.0121 15.2503 11.668 14.3345 11.668 13.2087V10.0003H16.3346V13.2087ZM18.668 12.917H17.5013V8.83366H18.668V12.917Z" fill="#240552"/>
</svg>
