<svg width="27" height="27" viewBox="0 0 27 27" fill="none" xmlns="http://www.w3.org/2000/svg">
<circle cx="12.7185" cy="12.7185" r="12.314" transform="matrix(-1 0 0 1 26.0977 0.78125)" stroke="#240553" stroke-width="0.80887"/>
<path d="M11.7099 17.749C11.8128 17.749 11.9156 17.7111 11.9968 17.6299L15.5266 14.1001C16.1005 13.5262 16.1005 12.5842 15.5266 12.0104L11.9968 8.48054C11.8398 8.32354 11.58 8.32354 11.423 8.48054C11.266 8.63754 11.266 8.89741 11.423 9.05441L14.9528 12.5842C15.2126 12.8441 15.2126 13.2664 14.9528 13.5262L11.423 17.056C11.266 17.213 11.266 17.4729 11.423 17.6299C11.5042 17.7057 11.607 17.749 11.7099 17.749Z" fill="#240553"/>
</svg>
