<svg width="42" height="41" viewBox="0 0 42 41" fill="none" xmlns="http://www.w3.org/2000/svg">
<circle cx="20.9487" cy="20.7515" r="20.2095" fill="white"/>
<path d="M20.9493 21.0015C20.2076 21.0015 19.4826 20.7815 18.8659 20.3695C18.2492 19.9574 17.7686 19.3718 17.4847 18.6865C17.2009 18.0013 17.1266 17.2473 17.2713 16.5199C17.416 15.7924 17.7732 15.1243 18.2976 14.5998C18.8221 14.0754 19.4903 13.7182 20.2177 13.5735C20.9451 13.4288 21.6991 13.5031 22.3843 13.7869C23.0696 14.0707 23.6552 14.5514 24.0673 15.1681C24.4793 15.7848 24.6993 16.5098 24.6993 17.2515C24.6993 18.246 24.3042 19.1999 23.6009 19.9031C22.8977 20.6064 21.9438 21.0015 20.9493 21.0015ZM20.9493 15.0015C20.5043 15.0015 20.0693 15.1334 19.6992 15.3807C19.3292 15.6279 19.0408 15.9793 18.8706 16.3904C18.7003 16.8016 18.6557 17.254 18.7425 17.6904C18.8293 18.1269 19.0436 18.5278 19.3583 18.8425C19.673 19.1571 20.0739 19.3714 20.5103 19.4582C20.9468 19.5451 21.3992 19.5005 21.8103 19.3302C22.2215 19.1599 22.5729 18.8715 22.8201 18.5015C23.0673 18.1315 23.1993 17.6965 23.1993 17.2515C23.1993 16.6547 22.9622 16.0824 22.5403 15.6605C22.1183 15.2385 21.546 15.0015 20.9493 15.0015ZM27.9493 28.0015C27.7512 27.9989 27.5619 27.919 27.4218 27.7789C27.2817 27.6388 27.2019 27.4496 27.1993 27.2515C27.1993 25.3015 26.1393 24.0015 20.9493 24.0015C15.7593 24.0015 14.6993 25.3015 14.6993 27.2515C14.6993 27.4504 14.6203 27.6411 14.4796 27.7818C14.339 27.9225 14.1482 28.0015 13.9493 28.0015C13.7504 28.0015 13.5596 27.9225 13.4189 27.7818C13.2783 27.6411 13.1993 27.4504 13.1993 27.2515C13.1993 22.5015 18.6293 22.5015 20.9493 22.5015C23.2693 22.5015 28.6993 22.5015 28.6993 27.2515C28.6967 27.4496 28.6168 27.6388 28.4767 27.7789C28.3367 27.919 28.1474 27.9989 27.9493 28.0015Z" fill="#FCB40C"/>
</svg>
