<svg width="30" height="31" viewBox="0 0 30 31" fill="none" xmlns="http://www.w3.org/2000/svg">
<circle cx="14.6974" cy="15.4518" r="14.1974" stroke="#240552"/>
<path d="M12.9088 10.8662C12.9088 11.7976 12.9088 12.7317 12.9142 13.6631C12.9142 14.4668 12.6535 15.2489 11.9068 15.6616C11.0351 16.1396 9.79685 16.0174 8.82472 15.9169C8.78671 15.9169 8.75412 15.9088 8.71882 15.906C8.75141 15.2353 8.73783 14.5565 8.70524 13.8885C8.66451 12.9815 9.21303 11.9008 10.1879 11.7487C11.2442 11.583 12.1647 11.469 12.6644 10.8852C12.6807 10.8689 12.6969 10.8499 12.7105 10.8309C12.7838 10.7304 12.8626 10.6354 12.9413 10.5376C12.9169 10.6435 12.9088 10.7548 12.9088 10.8635V10.8662Z" fill="#240552"/>
<path d="M9.71365 21.9909C10.4414 22.0371 11.1746 22.0262 11.9023 22.0398C12.7522 22.0534 13.6239 22.1593 14.444 22.0099C15.6225 21.7954 16.9476 21.0269 17.3848 19.8892C17.7894 18.8356 17.5993 17.5783 16.9014 16.6931C16.8526 16.6334 16.801 16.5736 16.7439 16.5139C16.0379 15.7427 14.9436 15.3381 13.9009 15.4766C12.6056 15.6476 11.4651 16.6659 11.1284 17.9286C10.9193 18.7161 11.1012 19.5525 10.9791 20.3535C10.8786 21.0161 10.3111 21.6949 9.71094 21.9909H9.71365Z" fill="#240552"/>
<path d="M16.9971 7.85986C16.9319 8.05809 17.0107 8.27261 17.0949 8.46269C18.1756 10.8713 21.0703 12.5006 20.9698 15.3952C20.9236 16.7041 20.2719 18.241 19.1776 19.0176C19.0989 19.0747 19.0255 19.1235 18.9332 19.1507C18.7241 18.7597 18.7024 18.1894 18.5259 17.7604C18.3032 17.22 18.01 16.6905 17.5999 16.2723C17.2062 15.8731 16.7147 15.6423 16.321 15.2513C15.4955 14.4258 14.9741 13.2962 14.9062 12.1285C14.8085 10.4667 15.6394 8.8157 16.9998 7.86529L16.9971 7.85986Z" fill="#240552"/>
<path d="M9.47689 13.6719C9.47689 13.6719 9.43887 12.9469 10.1829 12.9822C10.1829 12.9822 10.4545 13.7751 9.47689 13.6719Z" fill="white" stroke="#240552" stroke-width="0.114176" stroke-miterlimit="10"/>
<path d="M9.23281 19.8177C9.91368 19.8177 10.4656 19.2657 10.4656 18.5849C10.4656 17.904 9.91368 17.3521 9.23281 17.3521C8.55195 17.3521 8 17.904 8 18.5849C8 19.2657 8.55195 19.8177 9.23281 19.8177Z" fill="#240552"/>
</svg>
