<svg width="30" height="31" viewBox="0 0 30 31" fill="none" xmlns="http://www.w3.org/2000/svg">
<circle cx="14.6974" cy="15.2789" r="14.1974" stroke="#240552"/>
<path d="M14.7934 13.9826C14.737 13.9745 14.6645 13.9745 14.6001 13.9826C13.1824 13.9342 12.0547 12.7743 12.0547 11.3486C12.0547 9.89063 13.2307 8.70654 14.6967 8.70654C16.1547 8.70654 17.3388 9.89063 17.3388 11.3486C17.3307 12.7743 16.2111 13.9342 14.7934 13.9826Z" stroke="#240552" stroke-linecap="round" stroke-linejoin="round"/>
<path d="M20.1238 19.2983C18.69 20.6113 16.789 21.4087 14.6947 21.4087C12.6004 21.4087 10.6994 20.6113 9.26562 19.2983C9.34618 18.5411 9.82948 17.8001 10.6914 17.2201C12.8984 15.7541 16.5071 15.7541 18.698 17.2201C19.5599 17.8001 20.0432 18.5411 20.1238 19.2983Z" stroke="#240552" stroke-linecap="round" stroke-linejoin="round"/>
</svg>
