<svg width="23" height="22" viewBox="0 0 23 22" fill="none" xmlns="http://www.w3.org/2000/svg">
<path d="M11.7604 21.862C8.89656 21.862 6.15 20.7243 4.12494 18.6993C2.09989 16.6742 0.962231 13.9277 0.962231 11.0638C0.962231 8.19995 2.09989 5.45339 4.12494 3.42834C6.15 1.40329 8.89656 0.265625 11.7604 0.265625C14.6243 0.265625 17.3708 1.40329 19.3959 3.42834C21.4209 5.45339 22.5586 8.19995 22.5586 11.0638C22.5586 13.9277 21.4209 16.6742 19.3959 18.6993C17.3708 20.7243 14.6243 21.862 11.7604 21.862ZM13.1102 9.03915C13.1102 10.1568 13.7149 11.0638 14.46 11.0638C15.205 11.0638 15.8097 10.1568 15.8097 9.03915C15.8097 7.92154 15.205 7.01449 14.46 7.01449C13.7149 7.01449 13.1102 7.92154 13.1102 9.03915ZM16.7748 17.0473C16.9298 16.9578 17.0429 16.8104 17.0892 16.6376C17.1356 16.4647 17.1113 16.2805 17.0218 16.1255C16.4888 15.2017 15.7219 14.4347 14.7983 13.9016C13.8747 13.3684 12.8269 13.088 11.7604 13.0885C10.694 13.0883 9.64633 13.3688 8.72274 13.9019C7.79916 14.435 7.0322 15.2019 6.499 16.1255C6.41092 16.2804 6.38769 16.4639 6.43438 16.6358C6.48107 16.8078 6.5939 16.9544 6.74824 17.0435C6.90258 17.1326 7.08589 17.157 7.25819 17.1115C7.43049 17.0659 7.57777 16.9541 7.6679 16.8003C8.08243 16.0818 8.67895 15.4852 9.3974 15.0705C10.1159 14.6558 10.9309 14.4377 11.7604 14.4382C12.5899 14.4377 13.405 14.6558 14.1234 15.0705C14.8419 15.4852 15.4384 16.0818 15.8529 16.8003C15.9424 16.9553 16.0898 17.0684 16.2627 17.1148C16.4356 17.1611 16.6198 17.1368 16.7748 17.0473ZM9.06087 11.0638C9.80594 11.0638 10.4106 10.1568 10.4106 9.03915C10.4106 7.92154 9.80594 7.01449 9.06087 7.01449C8.31579 7.01449 7.71109 7.92154 7.71109 9.03915C7.71109 10.1568 8.31579 11.0638 9.06087 11.0638Z" fill="#240552"/>
</svg>
