<svg width="37" height="37" viewBox="0 0 37 37" fill="none" xmlns="http://www.w3.org/2000/svg">
<circle cx="18.7712" cy="18.6481" r="17.4534" stroke="#240552" stroke-width="1.22934"/>
<g clip-path="url(#clip0_2301_30158)">
<path d="M20.1555 13.0795C19.0742 12.8682 17.9555 12.9604 16.9234 13.3459C16.8733 13.3657 16.8276 13.3952 16.7889 13.4327C16.7502 13.4703 16.7192 13.515 16.6978 13.5645C16.6546 13.6644 16.6528 13.7774 16.6929 13.8786C16.733 13.9798 16.8116 14.0609 16.9115 14.1042C17.0114 14.1474 17.1244 14.1492 17.2256 14.1091C18.1143 13.7731 19.0783 13.688 20.0121 13.8632C20.0668 13.8776 20.124 13.8805 20.1799 13.8718C20.2358 13.863 20.2893 13.8427 20.337 13.8123C20.3847 13.7818 20.4256 13.7418 20.457 13.6947C20.4885 13.6477 20.5099 13.5946 20.5198 13.5389C20.5297 13.4832 20.528 13.426 20.5148 13.3709C20.5015 13.3159 20.477 13.2642 20.4428 13.2192C20.4086 13.1741 20.3654 13.1366 20.3159 13.109C20.2665 13.0814 20.2119 13.0644 20.1555 13.059V13.0795Z" fill="#240552"/>
<path d="M23.0482 16.9724C23.4329 16.9724 23.7448 16.6605 23.7448 16.2757C23.7448 15.891 23.4329 15.5791 23.0482 15.5791C22.6635 15.5791 22.3516 15.891 22.3516 16.2757C22.3516 16.6605 22.6635 16.9724 23.0482 16.9724Z" fill="#240552"/>
<path d="M28.2437 17.259C28.1962 17.1888 28.132 17.1314 28.0569 17.0921C27.9818 17.0527 27.8982 17.0326 27.8134 17.0336C27.3995 16.9762 27.0199 16.7727 26.7428 16.4599C26.2098 15.8772 25.7567 15.2261 25.3957 14.5237L26.8709 12.2187C26.9604 12.0851 27.0153 11.9314 27.0305 11.7713C27.0457 11.6112 27.0208 11.4499 26.958 11.3018C26.8951 11.1672 26.8001 11.05 26.6813 10.9607C26.5625 10.8714 26.4236 10.8126 26.2767 10.7896C25.3386 10.6632 24.3838 10.796 23.5158 11.1738C23.0184 11.3929 22.5504 11.6734 22.1226 12.0087C21.2848 11.633 20.3927 11.3927 19.4795 11.2967C15.8478 10.9433 12.5286 13.2995 12.1035 16.4241C11.9378 16.3495 11.7894 16.2414 11.6677 16.1065C11.546 15.9716 11.4537 15.8128 11.3966 15.6404C11.3601 15.5221 11.3476 15.3977 11.3599 15.2746C11.3723 15.1514 11.4091 15.0319 11.4683 14.9233C11.5214 14.832 11.5973 14.7561 11.6886 14.703C11.7508 14.6653 11.805 14.6158 11.8481 14.5572C11.8911 14.4985 11.9222 14.432 11.9396 14.3614C11.957 14.2908 11.9602 14.2174 11.9493 14.1455C11.9383 14.0736 11.9132 14.0046 11.8755 13.9423C11.8379 13.8801 11.7883 13.8259 11.7297 13.7829C11.6711 13.7398 11.6046 13.7087 11.5339 13.6913C11.4633 13.674 11.39 13.6707 11.3181 13.6817C11.2462 13.6927 11.1771 13.7177 11.1149 13.7554C10.8669 13.9076 10.6623 14.121 10.5207 14.3752C10.3891 14.6137 10.3063 14.8761 10.2773 15.147C10.2483 15.4179 10.2736 15.6918 10.3517 15.9528C10.4479 16.2691 10.6073 16.5625 10.8204 16.8152C11.0335 17.068 11.2958 17.2747 11.5913 17.4229L12.0625 17.6585C12.1214 18.9054 12.4388 20.1264 12.9948 21.2441L13.0818 21.4387C13.5261 22.3783 14.0928 23.255 14.7671 24.046C14.8151 24.1006 14.8741 24.1444 14.9404 24.1744C15.0066 24.2044 15.0785 24.22 15.1512 24.2201H17.4665C17.5504 24.2197 17.6329 24.1987 17.7067 24.1589C17.7806 24.1191 17.8436 24.0618 17.8901 23.992C17.9367 23.9222 17.9653 23.8421 17.9736 23.7586C17.9819 23.6751 17.9696 23.5909 17.9377 23.5132L17.738 23.0522L18.3424 23.1188C19.0237 23.1862 19.71 23.1862 20.3913 23.1188C20.5808 23.4262 20.7857 23.7335 21.0111 24.0357C21.0582 24.1003 21.1199 24.1529 21.191 24.1894C21.2622 24.2258 21.3409 24.2451 21.4208 24.2457H23.6439C23.7284 24.2457 23.8116 24.2247 23.8861 24.1846C23.9606 24.1446 24.024 24.0867 24.0706 24.0162C24.1173 23.9457 24.1458 23.8648 24.1535 23.7806C24.1613 23.6964 24.1481 23.6116 24.1151 23.5337C24.0281 23.3288 23.941 23.1086 23.8744 22.9191C23.7822 22.6476 23.7105 22.4068 23.6541 22.1763C24.2198 21.8709 24.739 21.4863 25.1959 21.0341C25.7063 21.0958 26.2222 21.0958 26.7326 21.0341C26.8211 21.0207 26.9046 20.9843 26.9747 20.9286C27.0448 20.8729 27.0991 20.7997 27.1321 20.7165L28.2898 17.7405C28.3223 17.6626 28.3352 17.578 28.3271 17.494C28.3191 17.41 28.2904 17.3292 28.2437 17.259ZM26.3075 20.0455C25.9053 20.0684 25.5019 20.0495 25.1037 19.9891C24.6503 19.9126 24.2125 19.762 23.8078 19.5435C23.688 19.4841 23.5496 19.4739 23.4224 19.5151C23.2951 19.5564 23.189 19.6458 23.1268 19.7642C23.0646 19.8826 23.0512 20.0207 23.0894 20.1488C23.1276 20.277 23.2145 20.3852 23.3314 20.4502C23.5455 20.5624 23.7662 20.6616 23.9922 20.7472C23.7129 20.9857 23.4028 21.1856 23.0702 21.3414L22.5272 21.5873C22.5272 21.5873 22.7782 22.7091 22.9473 23.2059H21.7282C21.6052 23.0318 20.9854 21.9971 20.9854 21.9971L20.6423 22.0432C19.9214 22.1471 19.1909 22.1677 18.4653 22.1046C18.1272 22.0739 17.5638 22.0022 17.1233 21.9254L16.3293 21.7871C16.3293 21.7871 16.652 23.0318 16.7135 23.1905H15.392C14.8521 22.5296 14.3946 21.8054 14.0295 21.0341L13.9373 20.8343C13.2717 19.5532 12.9907 18.1071 13.1279 16.6699C13.4045 14.0115 16.2627 12.0036 19.3719 12.2955C20.2764 12.3969 21.1566 12.6534 21.974 13.0536L22.2916 13.2022L22.5477 12.9614C22.9466 12.605 23.3974 12.3114 23.8846 12.0907C24.5293 11.8111 25.2335 11.6966 25.9335 11.7577L24.2022 14.4674L24.3303 14.7235C24.7776 15.6246 25.3483 16.459 26.0257 17.2027C26.3404 17.5102 26.713 17.7522 27.1219 17.9146L26.3075 20.0455Z" fill="#240552"/>
</g>
<defs>
<clipPath id="clip0_2301_30158">
<rect width="18.4401" height="18.4401" fill="white" transform="translate(10.0547 7.7168)"/>
</clipPath>
</defs>
</svg>
