<svg width="16" height="15" viewBox="0 0 16 15" fill="none" xmlns="http://www.w3.org/2000/svg">
<path d="M7.62715 2.56836C4.14775 2.56836 1.32715 4.91886 1.32715 7.81836C1.32715 9.25938 2.02384 10.5648 3.15185 11.5135C3.32097 11.6557 3.42715 11.8617 3.42715 12.0827V13.7684H4.82715L5.38284 12.9755C5.46907 12.8525 5.62401 12.799 5.76953 12.8364C6.97981 13.1476 8.27449 13.1476 9.48477 12.8364C9.63028 12.799 9.78522 12.8525 9.87146 12.9755L10.4271 13.7684H11.8271V12.0992C11.8271 11.869 11.9403 11.6535 12.1298 11.5229C12.8822 11.0041 15.3271 9.98933 15.3271 8.90912V7.81836C15.3271 7.40415 15.0137 7.06836 14.6271 7.06836C14.2025 7.06836 13.8558 6.90337 13.7157 6.46461C12.9993 4.22121 10.5448 2.56836 7.62715 2.56836Z" stroke="white" stroke-width="1.3406" stroke-linejoin="round"/>
<path d="M6.57718 4.66836C7.01957 4.44087 7.48975 4.31836 7.97718 4.31836C8.46461 4.31836 8.9348 4.44087 9.37718 4.66836" stroke="white" stroke-width="1.3406" stroke-linecap="round" stroke-linejoin="round"/>
<path d="M11.4769 6.76758H11.4706" stroke="white" stroke-width="1.78747" stroke-linecap="round" stroke-linejoin="round"/>
<path d="M2.02709 5.01758C1.67709 4.66758 1.32709 4.01165 1.32709 3.14895C1.32709 2.05467 2.26729 1.16758 3.42709 1.16758C3.67254 1.16758 3.90815 1.20731 4.12709 1.28032" stroke="white" stroke-width="1.3406" stroke-linecap="round"/>
</svg>
