<svg width="24" height="24" viewBox="0 0 24 24" fill="none" xmlns="http://www.w3.org/2000/svg">
<path d="M16.6155 11.4384C16.6372 11.6057 16.6484 11.7835 16.6484 11.9725C16.6484 13.047 16.3229 13.7694 16.0114 14.2181C15.8884 14.3962 15.7451 14.5595 15.5844 14.7046C15.532 14.7516 15.4768 14.7956 15.4192 14.8362L15.4129 14.8404C15.3626 14.8719 15.3211 14.9156 15.2923 14.9675C15.2635 15.0195 15.2484 15.0779 15.2484 15.1372V16.3069C15.2484 16.3997 15.2116 16.4888 15.1459 16.5544C15.0803 16.62 14.9913 16.6569 14.8984 16.6569H13.9296C13.9081 16.6569 13.8874 16.6484 13.8722 16.6331C13.857 16.6179 13.8484 16.5973 13.8484 16.5757C13.8484 16.1438 13.4984 15.7938 13.0672 15.7938H11.8296C11.3984 15.7938 11.0484 16.1438 11.0484 16.5757C11.0484 16.5973 11.0399 16.6179 11.0247 16.6331C11.0094 16.6484 10.9888 16.6569 10.9672 16.6569H9.99844C9.90561 16.6569 9.81659 16.62 9.75095 16.5544C9.68531 16.4888 9.64844 16.3997 9.64844 16.3069V15.7119C9.64824 15.6386 9.62502 15.5672 9.58207 15.5078C9.53911 15.4484 9.47859 15.404 9.40904 15.3808L9.38104 15.3675C9.32545 15.3402 9.27167 15.3093 9.22004 15.2751C9.06604 15.1757 8.82314 14.9909 8.49764 14.6612C8.20404 14.359 7.96759 14.0061 7.79974 13.6196C7.67094 13.3242 7.40144 13.0645 7.04094 13.0036C6.98728 12.9945 6.93854 12.9668 6.90332 12.9253C6.8681 12.8838 6.84867 12.8312 6.84844 12.7768V11.7219C6.84844 11.6739 6.86546 11.6274 6.89647 11.5908C6.92748 11.5541 6.97049 11.5297 7.01784 11.5217C7.40284 11.4566 7.67584 11.1619 7.78224 10.8371C7.87324 10.5585 8.03704 10.1931 8.30864 9.91802C8.53768 9.68962 8.79393 9.49026 9.07164 9.32441C9.18291 9.2575 9.29737 9.19606 9.41464 9.14032L9.43284 9.13192L9.43634 9.13052C9.49945 9.10346 9.55321 9.05844 9.59092 9.00106C9.62863 8.94368 9.64864 8.87648 9.64844 8.80782V7.33991C9.82554 7.49391 10.032 7.66052 10.2546 7.80892C10.5584 8.01332 10.9203 8.20512 11.292 8.27442C11.378 8.04095 11.4907 7.81826 11.628 7.61082C11.5853 7.60628 11.5426 7.60185 11.4999 7.59751C11.2514 7.57231 10.9525 7.43441 10.6438 7.22791C10.3659 7.03678 10.1048 6.82227 9.86334 6.58671C9.78779 6.51463 9.69295 6.46602 9.59032 6.44676C9.48769 6.4275 9.38168 6.43843 9.28514 6.47821C9.18606 6.51711 9.10098 6.5849 9.04093 6.67279C8.98089 6.76067 8.94866 6.86458 8.94844 6.97101V8.59082C8.53018 8.81193 8.14668 9.0933 7.81024 9.42592C7.43014 9.81091 7.22364 10.2939 7.11724 10.6194C7.07524 10.744 6.98424 10.8175 6.90164 10.8315C6.69121 10.8669 6.50012 10.9757 6.36224 11.1385C6.22437 11.3014 6.14862 11.5078 6.14844 11.7212V12.7761C6.14833 12.9962 6.22617 13.2091 6.36815 13.3773C6.51013 13.5454 6.70707 13.6578 6.92404 13.6945C7.01154 13.7085 7.10604 13.7799 7.15784 13.8996C7.36014 14.3648 7.64523 14.7893 7.99924 15.1526C8.35554 15.5138 8.63694 15.7315 8.83854 15.8624C8.87844 15.8883 8.91554 15.9107 8.94844 15.9303V16.3069C8.94844 16.4448 8.9756 16.5813 9.02836 16.7087C9.08113 16.8361 9.15847 16.9519 9.25598 17.0494C9.35348 17.1469 9.46923 17.2242 9.59662 17.277C9.72401 17.3298 9.86055 17.3569 9.99844 17.3569H10.9672C11.3984 17.3569 11.7484 17.0069 11.7484 16.5757C11.7484 16.5302 11.7848 16.4938 11.8296 16.4938H13.0672C13.112 16.4938 13.1484 16.5302 13.1484 16.5757C13.1484 17.0069 13.4984 17.3569 13.9296 17.3569H14.8984C15.1769 17.3569 15.444 17.2463 15.6409 17.0494C15.8378 16.8525 15.9484 16.5854 15.9484 16.3069V15.3136C16.1915 15.1118 16.4058 14.8777 16.5854 14.6178C16.9739 14.0599 17.3484 13.1996 17.3484 11.9725C17.3484 11.4643 17.2777 11.0093 17.1433 10.6026C17.0124 10.9072 16.8343 11.1893 16.6155 11.4384ZM16.5105 8.41931C16.7206 8.92699 16.7539 9.49053 16.6051 10.0194C16.4563 10.5483 16.1341 11.0118 15.6901 11.3355C15.3891 11.5539 14.9922 11.5385 14.6492 11.3964L12.5212 10.5151C12.1782 10.373 11.8863 10.1035 11.8282 9.73671C11.7377 9.14558 11.8664 8.54172 12.1903 8.03895C12.5141 7.53618 13.0106 7.16922 13.5863 7.00722C14.162 6.84523 14.777 6.89939 15.3156 7.15949C15.8541 7.4196 16.2795 7.86769 16.5105 8.41931ZM15.2785 10.7699C15.5299 10.5869 15.728 10.3402 15.8524 10.0552C15.9768 9.77026 16.023 9.45729 15.9863 9.14853C15.9496 8.83976 15.8312 8.54635 15.6435 8.29849C15.4557 8.05063 15.2053 7.85727 14.9181 7.7383C14.6308 7.61934 14.317 7.57906 14.009 7.62163C13.701 7.66419 13.4099 7.78805 13.1656 7.98046C12.9213 8.17287 12.7328 8.42689 12.6193 8.71638C12.5058 9.00586 12.4714 9.32036 12.5198 9.62752C12.528 9.66723 12.5483 9.70342 12.5779 9.73112C12.6227 9.77871 12.6941 9.82912 12.7893 9.86831L14.9173 10.7503C14.9951 10.7839 15.079 10.8013 15.1637 10.8014C15.2043 10.803 15.2444 10.792 15.2785 10.7699ZM9.47344 11.4069C9.61268 11.4069 9.74621 11.3516 9.84467 11.2531C9.94313 11.1547 9.99844 11.0212 9.99844 10.8819C9.99844 10.7427 9.94313 10.6091 9.84467 10.5107C9.74621 10.4122 9.61268 10.3569 9.47344 10.3569C9.3342 10.3569 9.20066 10.4122 9.10221 10.5107C9.00375 10.6091 8.94844 10.7427 8.94844 10.8819C8.94844 11.0212 9.00375 11.1547 9.10221 11.2531C9.20066 11.3516 9.3342 11.4069 9.47344 11.4069Z" fill="#240552"/>
<circle cx="11.75" cy="11.7578" r="11.1" stroke="#E5E7EB" stroke-width="0.8"/>
</svg>
