<svg width="33" height="34" viewBox="0 0 33 34" fill="none" xmlns="http://www.w3.org/2000/svg">
<circle cx="16.7384" cy="16.8282" r="15.686" stroke="#240552" stroke-width="1.10485"/>
<path d="M23.1574 16.9219C23.1869 17.1498 23.2022 17.392 23.2022 17.6495C23.2022 19.1133 22.7588 20.0974 22.3344 20.7086C22.1668 20.9513 21.9716 21.1737 21.7527 21.3714C21.6812 21.4354 21.6061 21.4953 21.5277 21.5506L21.5191 21.5563C21.4505 21.5992 21.394 21.6588 21.3548 21.7295C21.3156 21.8003 21.295 21.8798 21.295 21.9607V23.5541C21.295 23.6806 21.2448 23.8018 21.1554 23.8912C21.066 23.9807 20.9447 24.0309 20.8182 24.0309H19.4985C19.4691 24.0309 19.441 24.0192 19.4203 23.9985C19.3995 23.9778 19.3879 23.9496 19.3879 23.9203C19.3879 23.3319 18.9111 22.8551 18.3237 22.8551H16.6377C16.0503 22.8551 15.5735 23.3319 15.5735 23.9203C15.5735 23.9496 15.5619 23.9778 15.5411 23.9985C15.5204 24.0192 15.4922 24.0309 15.4629 24.0309H14.1431C14.0167 24.0309 13.8954 23.9807 13.806 23.8912C13.7166 23.8018 13.6664 23.6806 13.6664 23.5541V22.7436C13.6661 22.6437 13.6345 22.5464 13.5759 22.4655C13.5174 22.3846 13.435 22.3241 13.3402 22.2925L13.3021 22.2744C13.2264 22.2372 13.1531 22.1951 13.0828 22.1485C12.873 22.0131 12.5421 21.7614 12.0987 21.3122C11.6987 20.9005 11.3766 20.4198 11.1479 19.8933C10.9725 19.4909 10.6054 19.1371 10.1143 19.0541C10.0412 19.0418 9.97476 19.004 9.92679 18.9475C9.87881 18.891 9.85233 18.8193 9.85202 18.7452V17.3081C9.85202 17.2427 9.87521 17.1794 9.91745 17.1295C9.9597 17.0796 10.0183 17.0462 10.0828 17.0354C10.6073 16.9467 10.9792 16.5453 11.1241 16.1028C11.2481 15.7233 11.4712 15.2255 11.8412 14.8507C12.1532 14.5396 12.5023 14.268 12.8806 14.0421C13.0322 13.951 13.1881 13.8673 13.3479 13.7913L13.3727 13.7799L13.3774 13.778C13.4634 13.7411 13.5366 13.6798 13.588 13.6016C13.6394 13.5235 13.6666 13.4319 13.6664 13.3384V11.3387C13.9076 11.5485 14.1889 11.7754 14.4922 11.9776C14.906 12.256 15.399 12.5173 15.9054 12.6117C16.0224 12.2937 16.176 11.9903 16.3631 11.7077C16.3049 11.7016 16.2468 11.6955 16.1886 11.6896C15.8501 11.6553 15.4429 11.4674 15.0224 11.1861C14.6437 10.9258 14.288 10.6335 13.9591 10.3126C13.8562 10.2145 13.727 10.1482 13.5872 10.122C13.4474 10.0958 13.303 10.1106 13.1714 10.1648C13.0365 10.2178 12.9206 10.3102 12.8388 10.4299C12.757 10.5496 12.7131 10.6912 12.7128 10.8362V13.0428C12.143 13.344 11.6206 13.7273 11.1622 14.1804C10.6444 14.7049 10.3631 15.3628 10.2182 15.8062C10.161 15.976 10.037 16.0761 9.92449 16.0952C9.63784 16.1434 9.37752 16.2916 9.1897 16.5134C9.00188 16.7353 8.89869 17.0165 8.89844 17.3072V18.7442C8.89829 19.044 9.00433 19.3341 9.19774 19.5632C9.39116 19.7922 9.65944 19.9453 9.95501 19.9953C10.0742 20.0144 10.2029 20.1117 10.2735 20.2747C10.5491 20.9084 10.9375 21.4868 11.4197 21.9816C11.9051 22.4737 12.2884 22.7703 12.5631 22.9486C12.6174 22.9839 12.668 23.0144 12.7128 23.0411V23.5541C12.7128 23.7419 12.7498 23.9279 12.8217 24.1015C12.8935 24.275 12.9989 24.4327 13.1317 24.5655C13.2645 24.6984 13.4222 24.8037 13.5958 24.8756C13.7693 24.9475 13.9553 24.9845 14.1431 24.9845H15.4629C16.0503 24.9845 16.5271 24.5077 16.5271 23.9203C16.5271 23.8583 16.5767 23.8087 16.6377 23.8087H18.3237C18.3847 23.8087 18.4343 23.8583 18.4343 23.9203C18.4343 24.5077 18.9111 24.9845 19.4985 24.9845H20.8182C21.1976 24.9845 21.5614 24.8338 21.8297 24.5655C22.0979 24.2973 22.2486 23.9335 22.2486 23.5541V22.201C22.5797 21.926 22.8717 21.6071 23.1164 21.2531C23.6456 20.4931 24.1558 19.3211 24.1558 17.6495C24.1558 16.9572 24.0595 16.3374 23.8764 15.7834C23.698 16.1983 23.4553 16.5825 23.1574 16.9219ZM23.0143 12.8091C23.3005 13.5007 23.3458 14.2684 23.1431 14.9889C22.9404 15.7094 22.5015 16.3408 21.8967 16.7818C21.4867 17.0793 20.946 17.0583 20.4788 16.8647L17.5799 15.6642C17.1126 15.4706 16.715 15.1034 16.6358 14.6038C16.5124 13.7985 16.6878 12.9759 17.129 12.291C17.5701 11.6061 18.2466 11.1062 19.0308 10.8855C19.815 10.6648 20.6529 10.7386 21.3865 11.0929C22.1201 11.4473 22.6997 12.0577 23.0143 12.8091ZM21.336 16.0113C21.6785 15.7619 21.9483 15.4259 22.1178 15.0377C22.2872 14.6495 22.3502 14.2231 22.3001 13.8025C22.2501 13.3819 22.089 12.9822 21.8332 12.6445C21.5774 12.3069 21.2363 12.0435 20.845 11.8814C20.4536 11.7193 20.0261 11.6645 19.6066 11.7225C19.187 11.7804 18.7904 11.9492 18.4576 12.2113C18.1249 12.4734 17.868 12.8194 17.7134 13.2138C17.5588 13.6082 17.512 14.0366 17.578 14.455C17.5891 14.5091 17.6168 14.5584 17.6571 14.5961C17.7181 14.661 17.8154 14.7296 17.9451 14.783L20.844 15.9846C20.95 16.0303 21.0642 16.054 21.1796 16.0542C21.235 16.0564 21.2896 16.0414 21.336 16.0113ZM13.428 16.879C13.6176 16.879 13.7996 16.8037 13.9337 16.6695C14.0678 16.5354 14.1431 16.3535 14.1431 16.1638C14.1431 15.9742 14.0678 15.7922 13.9337 15.6581C13.7996 15.524 13.6176 15.4486 13.428 15.4486C13.2383 15.4486 13.0564 15.524 12.9222 15.6581C12.7881 15.7922 12.7128 15.9742 12.7128 16.1638C12.7128 16.3535 12.7881 16.5354 12.9222 16.6695C13.0564 16.8037 13.2383 16.879 13.428 16.879Z" fill="#240552"/>
</svg>
