<svg width="67" height="67" viewBox="0 0 67 67" fill="none" xmlns="http://www.w3.org/2000/svg">
<circle cx="33.2412" cy="33.585" r="32.6162" fill="url(#paint0_linear_3034_80829)" stroke="url(#paint1_linear_3034_80829)"/>
<circle cx="33.2422" cy="33.5859" r="19.6" fill="white" stroke="#EDEDED" stroke-width="0.8"/>
<g clip-path="url(#clip0_3034_80829)">
<path d="M31.206 26.8086C29.3116 26.8519 28.2051 27.0329 27.449 27.7889C26.693 28.5449 26.5121 29.6514 26.4688 31.5458M35.2781 26.8086C37.1725 26.8519 38.279 27.0329 39.035 27.7889C39.791 28.5449 39.972 29.6514 40.0153 31.5458M35.2781 40.3551C37.1725 40.3118 38.279 40.1309 39.035 39.3749C39.791 38.6188 39.972 37.5123 40.0153 35.6179M31.206 40.3551C29.3116 40.3118 28.2051 40.1309 27.449 39.3749C26.693 38.6188 26.5121 37.5123 26.4688 35.6179" stroke="#240552" stroke-width="1.01599" stroke-linecap="round" stroke-linejoin="round"/>
<path d="M36.6249 30.1953H36.631" stroke="#240552" stroke-width="1.35465" stroke-linecap="round" stroke-linejoin="round"/>
<path d="M33.921 29.5195V31.5515C33.921 32.8287 33.921 33.4673 33.5242 33.8641C33.1274 34.2608 32.4889 34.2608 31.2117 34.2608H29.1797" stroke="#240552" stroke-width="1.01599" stroke-linecap="round"/>
<path d="M29.3781 29.7179C29.1797 29.9163 29.1797 30.2356 29.1797 30.8742C29.1797 31.5128 29.1797 31.8321 29.3781 32.0305M29.3781 29.7179C29.5765 29.5195 29.8958 29.5195 30.5343 29.5195C31.1729 29.5195 31.4922 29.5195 31.6906 29.7179M29.3781 29.7179C29.3781 29.7179 29.3781 29.7179 29.3781 29.7179ZM29.3781 32.0305C29.5765 32.2288 29.8958 32.2288 30.5343 32.2288C31.1729 32.2288 31.4922 32.2288 31.6906 32.0305M29.3781 32.0305C29.3781 32.0305 29.3781 32.0305 29.3781 32.0305ZM31.6906 32.0305C31.889 31.8321 31.889 31.5128 31.889 30.8742C31.889 30.2356 31.889 29.9163 31.6906 29.7179M31.6906 32.0305C31.6906 32.0305 31.6906 32.0305 31.6906 32.0305ZM31.6906 29.7179C31.6906 29.7179 31.6906 29.7179 31.6906 29.7179Z" stroke="#240552" stroke-width="1.01599"/>
<path d="M36.6257 35.6133C36.945 35.6133 37.1047 35.6133 37.2039 35.7125C37.3031 35.8117 37.3031 35.9713 37.3031 36.2906V36.9679C37.3031 37.2872 37.3031 37.4469 37.2039 37.5461C37.1047 37.6453 36.945 37.6453 36.6257 37.6453H35.2711C34.9518 37.6453 34.7921 37.6453 34.6929 37.5461C34.5937 37.4469 34.5937 37.2872 34.5938 36.9679L34.5938 36.2906C34.5938 35.9713 34.5938 35.8117 34.6929 35.7125C34.7921 35.6133 34.9518 35.6133 35.2711 35.6133L36.6257 35.6133Z" stroke="#240552" stroke-width="1.01599"/>
<path d="M29.1797 37.6445H32.5663" stroke="#240552" stroke-width="1.01599" stroke-linecap="round"/>
<path d="M36.625 32.2266L36.625 33.5812" stroke="#240552" stroke-width="1.01599" stroke-linecap="round"/>
</g>
<defs>
<linearGradient id="paint0_linear_3034_80829" x1="33.2422" y1="-15.5823" x2="33.2422" y2="56.5622" gradientUnits="userSpaceOnUse">
<stop stop-color="#EFEFEF"/>
<stop offset="1" stop-color="#D9D9D9" stop-opacity="0"/>
</linearGradient>
<linearGradient id="paint1_linear_3034_80829" x1="33.2412" y1="0.46875" x2="33.2422" y2="54.7203" gradientUnits="userSpaceOnUse">
<stop stop-color="#DDDDDD"/>
<stop offset="1" stop-color="#DDDDDD" stop-opacity="0"/>
</linearGradient>
<clipPath id="clip0_3034_80829">
<rect width="16.2559" height="16.2559" fill="white" transform="translate(25.1094 25.4531)"/>
</clipPath>
</defs>
</svg>
