<svg width="21" height="21" viewBox="0 0 21 21" fill="none" xmlns="http://www.w3.org/2000/svg">
<path d="M10.2205 18.8198C5.4351 18.8198 1.53906 14.9238 1.53906 10.1384C1.53906 5.35307 5.4351 1.45703 10.2205 1.45703C15.0058 1.45703 18.9019 5.35307 18.9019 10.1384C18.9019 14.9238 15.0058 18.8198 10.2205 18.8198ZM10.2205 2.72748C6.12962 2.72748 2.80951 6.05605 2.80951 10.1384C2.80951 14.2208 6.12962 17.5494 10.2205 17.5494C14.3113 17.5494 17.6314 14.2208 17.6314 10.1384C17.6314 6.05605 14.3113 2.72748 10.2205 2.72748Z" fill="#9CA3AF"/>
<path d="M19.1083 19.6673C18.9474 19.6673 18.7864 19.6081 18.6594 19.481L16.9655 17.7871C16.7198 17.5415 16.7198 17.1349 16.9655 16.8893C17.2111 16.6437 17.6176 16.6437 17.8632 16.8893L19.5572 18.5832C19.8028 18.8288 19.8028 19.2354 19.5572 19.481C19.4301 19.6081 19.2692 19.6673 19.1083 19.6673Z" fill="#9CA3AF"/>
</svg>
