<svg width="149" height="62" viewBox="0 0 149 62" fill="none" xmlns="http://www.w3.org/2000/svg">
<rect x="4.10156" y="18.894" width="144.094" height="42.3357" rx="3.32426" fill="#240552"/>
<rect x="1.28125" y="14.0601" width="143.774" height="43.2154" rx="3.32426" fill="white"/>
<path d="M26.0907 33.9023C26.0907 32.6657 27.088 31.828 28.574 31.828C29.9502 31.828 30.8378 32.5959 30.9176 33.8425H29.9303C29.8804 33.1245 29.3718 32.7056 28.564 32.7056C27.6565 32.7056 27.0681 33.1643 27.0681 33.8724C27.0681 34.4508 27.3972 34.7999 28.0753 34.9595L29.2621 35.2387C30.4389 35.508 31.0372 36.1462 31.0372 37.1634C31.0372 38.4599 30.03 39.2876 28.4942 39.2876C27.0282 39.2876 26.0508 38.5197 25.991 37.2831H26.9883C27.0082 37.9712 27.5867 38.41 28.4942 38.41C29.4516 38.41 30.0599 37.9613 30.0599 37.2432C30.0599 36.6748 29.7507 36.3158 29.0626 36.1562L27.8759 35.8869C26.6991 35.6177 26.0907 34.9395 26.0907 33.9023ZM34.2101 39.2876C32.774 39.2876 31.7867 38.2505 31.7867 36.7346C31.7867 35.2088 32.754 34.1517 34.1702 34.1517C35.5564 34.1517 36.4639 35.109 36.4639 36.5551V36.9041L32.6942 36.9141C32.764 37.9413 33.3025 38.5098 34.23 38.5098C34.958 38.5098 35.4367 38.2106 35.5963 37.6521H36.4739C36.2345 38.6992 35.4168 39.2876 34.2101 39.2876ZM34.1702 34.9395C33.3524 34.9395 32.8338 35.4282 32.7141 36.2858H35.5265C35.5265 35.478 34.9979 34.9395 34.1702 34.9395ZM37.1918 36.7346C37.1918 35.2088 38.1592 34.1517 39.5853 34.1517C40.812 34.1517 41.6696 34.8498 41.8392 35.9368H40.9017C40.7422 35.3185 40.2435 34.9894 39.6152 34.9894C38.7277 34.9894 38.1193 35.6675 38.1193 36.7246C38.1193 37.7718 38.6878 38.4499 39.5753 38.4499C40.2435 38.4499 40.7422 38.1009 40.9117 37.5225H41.8491C41.6597 38.5796 40.7521 39.2876 39.5753 39.2876C38.1393 39.2876 37.1918 38.2704 37.1918 36.7346ZM46.209 34.2913H47.1365V39.168H46.2988L46.1991 38.43C45.9198 38.9386 45.2716 39.2876 44.5536 39.2876C43.4167 39.2876 42.7784 38.5197 42.7784 37.323V34.2913H43.7158V37.0138C43.7158 38.061 44.1646 38.4599 44.8827 38.4599C45.7403 38.4599 46.209 37.9114 46.209 36.8643V34.2913ZM51.289 34.2514V35.109H50.8702C49.9826 35.109 49.4341 35.6476 49.4341 36.585V39.168H48.4966V34.3012H49.3742L49.4341 35.0392C49.6335 34.5306 50.1222 34.1915 50.7904 34.1915C50.9599 34.1915 51.0995 34.2115 51.289 34.2514ZM54.0972 39.2876C52.6611 39.2876 51.6738 38.2505 51.6738 36.7346C51.6738 35.2088 52.6412 34.1517 54.0573 34.1517C55.4435 34.1517 56.3511 35.109 56.3511 36.5551V36.9041L52.5813 36.9141C52.6512 37.9413 53.1897 38.5098 54.1172 38.5098C54.8452 38.5098 55.3239 38.2106 55.4834 37.6521H56.361C56.1217 38.6992 55.3039 39.2876 54.0972 39.2876ZM54.0573 34.9395C53.2395 34.9395 52.721 35.4282 52.6013 36.2858H55.4136C55.4136 35.478 54.8851 34.9395 54.0573 34.9395ZM59.3528 39.2876C57.9367 39.2876 57.079 38.2305 57.079 36.7446C57.079 35.2487 57.9466 34.1517 59.3927 34.1517C60.1406 34.1517 60.7689 34.4808 61.098 35.0791V31.828H62.0255V39.168H61.1878L61.108 38.2804C60.7889 38.9486 60.1307 39.2876 59.3528 39.2876ZM59.5423 38.44C60.4997 38.44 61.0881 37.7319 61.0881 36.7147C61.0881 35.7174 60.4997 34.9993 59.5423 34.9993C58.5849 34.9993 58.0264 35.7174 58.0264 36.7147C58.0264 37.7219 58.5849 38.44 59.5423 38.44ZM67.5309 39.2876C66.4838 39.2876 65.8655 38.6992 65.8655 37.8117C65.8655 36.9141 66.5337 36.3556 67.6805 36.2659L69.2163 36.1462V36.0066C69.2163 35.1888 68.7277 34.8996 68.0695 34.8996C67.2816 34.8996 66.8329 35.2487 66.8329 35.8371H66.0151C66.0151 34.8198 66.8528 34.1517 68.1094 34.1517C69.3161 34.1517 70.1338 34.7899 70.1338 36.1063V39.168H69.336L69.2363 38.3801C68.987 38.9386 68.3188 39.2876 67.5309 39.2876ZM67.8002 38.5596C68.6878 38.5596 69.2263 37.9812 69.2263 37.0637V36.8044L67.9797 36.9041C67.152 36.9839 66.8129 37.3031 66.8129 37.7818C66.8129 38.3003 67.1919 38.5596 67.8002 38.5596ZM72.3695 39.168H71.4321V34.2913H72.2798L72.3795 35.0392C72.6887 34.4808 73.307 34.1517 73.9951 34.1517C75.2816 34.1517 75.87 34.9395 75.87 36.1861V39.168H74.9325V36.3955C74.9325 35.4082 74.4738 35.0093 73.7558 35.0093C72.8782 35.0093 72.3695 35.6376 72.3695 36.585V39.168ZM79.1231 39.2876C77.7069 39.2876 76.8493 38.2305 76.8493 36.7446C76.8493 35.2487 77.7169 34.1517 79.163 34.1517C79.9109 34.1517 80.5392 34.4808 80.8683 35.0791V31.828H81.7958V39.168H80.9581L80.8783 38.2804C80.5592 38.9486 79.9009 39.2876 79.1231 39.2876ZM79.3126 38.44C80.2699 38.44 80.8583 37.7319 80.8583 36.7147C80.8583 35.7174 80.2699 34.9993 79.3126 34.9993C78.3552 34.9993 77.7967 35.7174 77.7967 36.7147C77.7967 37.7219 78.3552 38.44 79.3126 38.44ZM87.012 39.168H86.0347V31.9576H88.7573C90.303 31.9576 91.2205 32.7754 91.2205 34.1217C91.2205 35.119 90.7219 35.8371 89.8243 36.1263L91.2903 39.168H90.2033L88.857 36.3158H87.012V39.168ZM87.012 32.8352V35.4481H88.7672C89.6747 35.4481 90.1933 34.9595 90.1933 34.1317C90.1933 33.294 89.6548 32.8352 88.7573 32.8352H87.012ZM94.1539 39.2876C92.7178 39.2876 91.7305 38.2505 91.7305 36.7346C91.7305 35.2088 92.6979 34.1517 94.114 34.1517C95.5003 34.1517 96.4078 35.109 96.4078 36.5551V36.9041L92.6381 36.9141C92.7079 37.9413 93.2464 38.5098 94.1739 38.5098C94.9019 38.5098 95.3806 38.2106 95.5401 37.6521H96.4178C96.1784 38.6992 95.3606 39.2876 94.1539 39.2876ZM94.114 34.9395C93.2963 34.9395 92.7777 35.4282 92.658 36.2858H95.4703C95.4703 35.478 94.9418 34.9395 94.114 34.9395ZM98.4122 39.168H97.4748V31.828H98.4122V39.168ZM100.251 33.1344C99.9119 33.1344 99.6327 32.8552 99.6327 32.5161C99.6327 32.1671 99.9119 31.8978 100.251 31.8978C100.59 31.8978 100.869 32.1671 100.869 32.5161C100.869 32.8552 100.59 33.1344 100.251 33.1344ZM99.7922 39.168V34.2913H100.73V39.168H99.7922ZM103.517 39.2876C102.47 39.2876 101.851 38.6992 101.851 37.8117C101.851 36.9141 102.519 36.3556 103.666 36.2659L105.202 36.1462V36.0066C105.202 35.1888 104.713 34.8996 104.055 34.8996C103.267 34.8996 102.819 35.2487 102.819 35.8371H102.001C102.001 34.8198 102.839 34.1517 104.095 34.1517C105.302 34.1517 106.12 34.7899 106.12 36.1063V39.168H105.322L105.222 38.3801C104.973 38.9386 104.305 39.2876 103.517 39.2876ZM103.786 38.5596C104.674 38.5596 105.212 37.9812 105.212 37.0637V36.8044L103.966 36.9041C103.138 36.9839 102.799 37.3031 102.799 37.7818C102.799 38.3003 103.178 38.5596 103.786 38.5596ZM108.266 39.168H107.418V31.828H108.355V35.129C108.674 34.4907 109.333 34.1517 110.13 34.1517C111.527 34.1517 112.364 35.2487 112.364 36.7546C112.364 38.2305 111.487 39.2876 110.071 39.2876C109.303 39.2876 108.655 38.9486 108.335 38.2804L108.266 39.168ZM108.365 36.7147C108.365 37.7319 108.944 38.44 109.901 38.44C110.859 38.44 111.427 37.7219 111.427 36.7147C111.427 35.7174 110.859 34.9993 109.901 34.9993C108.944 34.9993 108.365 35.7174 108.365 36.7147ZM114.355 39.168H113.418V31.828H114.355V39.168ZM117.839 39.2876C116.403 39.2876 115.416 38.2505 115.416 36.7346C115.416 35.2088 116.383 34.1517 117.799 34.1517C119.186 34.1517 120.093 35.109 120.093 36.5551V36.9041L116.323 36.9141C116.393 37.9413 116.932 38.5098 117.859 38.5098C118.587 38.5098 119.066 38.2106 119.226 37.6521H120.103C119.864 38.6992 119.046 39.2876 117.839 39.2876ZM117.799 34.9395C116.982 34.9395 116.463 35.4282 116.343 36.2858H119.156C119.156 35.478 118.627 34.9395 117.799 34.9395Z" fill="#240552"/>
<rect x="1.28125" y="14.0601" width="143.774" height="43.2154" rx="3.32426" stroke="#240552" stroke-width="1.2466"/>
<path d="M124.094 23.0499C130.304 23.0499 135.337 18.2563 135.337 12.3431C135.337 6.42985 130.304 1.63623 124.094 1.63623C117.885 1.63623 112.852 6.42985 112.852 12.3431C112.852 18.2563 117.885 23.0499 124.094 23.0499Z" fill="white" stroke="#240552" stroke-width="1.2466"/>
<g clip-path="url(#clip0_2664_38024)">
<rect width="11.2429" height="11.2429" transform="translate(118.477 6.15967)" fill="white"/>
<path d="M124.106 6.3667L128.791 8.00629V11.782C128.791 13.7154 127.604 15.0668 126.497 15.9059C125.83 16.4076 125.097 16.8165 124.319 17.1215C124.306 17.1267 124.292 17.1319 124.278 17.137L124.267 17.1412L124.263 17.1421L124.262 17.1426C124.261 17.1426 124.261 17.1426 124.106 16.7008L123.951 17.143L123.949 17.1421L123.946 17.1412L123.935 17.1365C123.872 17.1134 123.81 17.0892 123.748 17.0639C123.024 16.7653 122.341 16.376 121.715 15.9054C120.609 15.0673 119.422 13.7158 119.422 11.7825V8.00629L124.106 6.3667ZM124.106 16.7008L123.951 17.143L124.106 17.1974L124.261 17.143L124.106 16.7008ZM124.106 16.1986L124.111 16.1968C124.759 15.929 125.371 15.5804 125.932 15.1591C126.933 14.4007 127.854 13.2919 127.854 11.782V8.6715L124.106 7.35982L120.359 8.6715V11.782C120.359 13.2919 121.28 14.3998 122.281 15.1596C122.843 15.5815 123.457 15.931 124.106 16.1986ZM126.951 10.0689L123.638 13.3813L121.651 11.3942L122.314 10.7313L123.638 12.0566L126.288 9.4065L126.95 10.0689H126.951Z" fill="#240552"/>
</g>
<defs>
<clipPath id="clip0_2664_38024">
<rect width="11.2429" height="11.2429" fill="white" transform="translate(118.477 6.15967)"/>
</clipPath>
</defs>
</svg>
