<svg width="28" height="28" viewBox="0 0 28 28" fill="none" xmlns="http://www.w3.org/2000/svg">
<circle cx="13.8965" cy="14" r="13.1784" fill="white" stroke="#F3F4F6" stroke-width="0.85022"/>
<path d="M12.8312 7.12648L9.32015 8.44223C8.511 8.74478 7.84961 9.7017 7.84961 10.5671V15.795C7.84961 16.6252 8.39843 17.7158 9.06686 18.2154L12.0924 20.474C13.0845 21.2198 14.7168 21.2198 15.7089 20.474L18.7345 18.2154C19.4029 17.7158 19.9517 16.6252 19.9517 15.795V10.5671C19.9517 9.7017 19.2903 8.74478 18.4812 8.44223L14.9701 7.12648C14.3721 6.90836 13.4152 6.90836 12.8312 7.12648Z" stroke="#240552" stroke-width="1.05542" stroke-linecap="round" stroke-linejoin="round"/>
<path d="M14.0081 14.8053C14.5206 14.8053 14.9361 14.3898 14.9361 13.8773C14.9361 13.3647 14.5206 12.9492 14.0081 12.9492C13.4956 12.9492 13.0801 13.3647 13.0801 13.8773C13.0801 14.3898 13.4956 14.8053 14.0081 14.8053Z" stroke="#8E50E9" stroke-width="0.464017" stroke-miterlimit="10" stroke-linecap="round" stroke-linejoin="round"/>
<path d="M10.916 14.1491V13.6047C10.916 13.283 11.179 13.0169 11.5038 13.0169C12.0637 13.0169 12.2926 12.621 12.0111 12.1353C11.8502 11.8569 11.9461 11.495 12.2276 11.3341L12.7628 11.0278C13.0072 10.8824 13.3227 10.9691 13.4681 11.2134L13.5021 11.2722C13.7805 11.7579 14.2384 11.7579 14.5199 11.2722L14.5539 11.2134C14.6993 10.9691 15.0148 10.8824 15.2592 11.0278L15.7944 11.3341C16.0759 11.495 16.1718 11.8569 16.0109 12.1353C15.7294 12.621 15.9583 13.0169 16.5182 13.0169C16.84 13.0169 17.106 13.2799 17.106 13.6047V14.1491C17.106 14.4708 16.8431 14.7369 16.5182 14.7369C15.9583 14.7369 15.7294 15.1328 16.0109 15.6185C16.1718 15.9 16.0759 16.2589 15.7944 16.4197L15.2592 16.726C15.0148 16.8714 14.6993 16.7847 14.5539 16.5404L14.5199 16.4816C14.2415 15.9959 13.7836 15.9959 13.5021 16.4816L13.4681 16.5404C13.3227 16.7847 13.0072 16.8714 12.7628 16.726L12.2276 16.4197C11.9461 16.2589 11.8502 15.8969 12.0111 15.6185C12.2926 15.1328 12.0637 14.7369 11.5038 14.7369C11.179 14.7369 10.916 14.4708 10.916 14.1491Z" stroke="#8E50E9" stroke-width="0.464017" stroke-miterlimit="10" stroke-linecap="round" stroke-linejoin="round"/>
</svg>
