<svg width="14" height="14" viewBox="0 0 14 14" fill="none" xmlns="http://www.w3.org/2000/svg">
<path d="M8.74996 13.2702H5.24996C2.08246 13.2702 0.729126 11.9168 0.729126 8.74935V5.24935C0.729126 2.08185 2.08246 0.728516 5.24996 0.728516H8.74996C11.9175 0.728516 13.2708 2.08185 13.2708 5.24935V8.74935C13.2708 11.9168 11.9175 13.2702 8.74996 13.2702ZM5.24996 1.60352C2.56079 1.60352 1.60413 2.56018 1.60413 5.24935V8.74935C1.60413 11.4385 2.56079 12.3952 5.24996 12.3952H8.74996C11.4391 12.3952 12.3958 11.4385 12.3958 8.74935V5.24935C12.3958 2.56018 11.4391 1.60352 8.74996 1.60352H5.24996Z" fill="white"/>
<path d="M8.6507 7.39716C8.41154 7.39716 8.2132 7.19882 8.2132 6.95966V4.92383H6.17737C5.9382 4.92383 5.73987 4.72549 5.73987 4.48633C5.73987 4.24716 5.9382 4.04883 6.17737 4.04883H8.6507C8.88987 4.04883 9.0882 4.24716 9.0882 4.48633V6.95966C9.0882 7.19882 8.88987 7.39716 8.6507 7.39716Z" fill="white"/>
<path d="M5.34913 8.22013C5.23829 8.22013 5.12746 8.1793 5.03996 8.0918C4.87079 7.92263 4.87079 7.64263 5.03996 7.47347L8.34163 4.1718C8.5108 4.00263 8.7908 4.00263 8.95996 4.1718C9.12913 4.34096 9.12913 4.62097 8.95996 4.79014L5.65829 8.0918C5.57663 8.1793 5.45996 8.22013 5.34913 8.22013Z" fill="white"/>
<path d="M6.99997 10.6336C5.76914 10.6336 4.53247 10.4353 3.35997 10.0444C3.13247 9.96861 3.00997 9.71778 3.0858 9.49028C3.16163 9.26278 3.41248 9.13444 3.63998 9.21611C5.80998 9.93944 8.19581 9.93944 10.3658 9.21611C10.5933 9.14028 10.8441 9.26278 10.92 9.49028C10.9958 9.71778 10.8733 9.96861 10.6458 10.0444C9.46747 10.4411 8.2308 10.6336 6.99997 10.6336Z" fill="white"/>
</svg>
