<svg width="67" height="68" viewBox="0 0 67 68" fill="none" xmlns="http://www.w3.org/2000/svg">
<circle cx="33.7412" cy="34.085" r="32.6162" fill="url(#paint0_linear_2655_37689)" stroke="url(#paint1_linear_2655_37689)"/>
<circle cx="33.7422" cy="34.085" r="19.6" fill="white" stroke="#EDEDED" stroke-width="0.8"/>
<path d="M32.1887 39.8536H36.0804C39.3234 39.8536 40.6207 38.5564 40.6207 35.3133V31.4216C40.6207 28.1786 39.3234 26.8813 36.0804 26.8813H32.1887C28.9457 26.8813 27.6484 28.1786 27.6484 31.4216V35.3133C27.6484 38.5564 28.9457 39.8536 32.1887 39.8536Z" stroke="#240552" stroke-width="0.875" stroke-linecap="round" stroke-linejoin="round"/>
<path d="M32.1875 31.7525L34.1333 29.8066L36.0792 31.7525" stroke="#240552" stroke-width="0.875" stroke-linecap="round" stroke-linejoin="round"/>
<path d="M34.1328 29.8066V34.9955" stroke="#240552" stroke-width="0.875" stroke-linecap="round" stroke-linejoin="round"/>
<path d="M30.2422 36.2935C32.7653 37.1367 35.5024 37.1367 38.0255 36.2935" stroke="#240552" stroke-width="0.875" stroke-linecap="round" stroke-linejoin="round"/>
<defs>
<linearGradient id="paint0_linear_2655_37689" x1="33.7422" y1="-15.0823" x2="33.7422" y2="57.0622" gradientUnits="userSpaceOnUse">
<stop stop-color="#EFEFEF"/>
<stop offset="1" stop-color="#D9D9D9" stop-opacity="0"/>
</linearGradient>
<linearGradient id="paint1_linear_2655_37689" x1="33.7412" y1="0.96875" x2="33.7422" y2="55.2203" gradientUnits="userSpaceOnUse">
<stop stop-color="#DDDDDD"/>
<stop offset="1" stop-color="#DDDDDD" stop-opacity="0"/>
</linearGradient>
</defs>
</svg>
