<svg width="28" height="28" viewBox="0 0 28 28" fill="none" xmlns="http://www.w3.org/2000/svg">
<circle cx="13.8965" cy="14.002" r="13.1784" fill="white" stroke="#F3F4F6" stroke-width="0.85022"/>
<path d="M11.668 19.5654C11.5046 19.5654 11.3355 19.5246 11.1838 19.4429C10.8513 19.2679 10.6471 18.9179 10.6471 18.5445V17.7163C8.88547 17.5354 7.73047 16.2404 7.73047 14.3854V10.8854C7.73047 8.87875 9.07797 7.53125 11.0846 7.53125H16.918C18.9246 7.53125 20.2721 8.87875 20.2721 10.8854V14.3854C20.2721 16.392 18.9246 17.7395 16.918 17.7395H14.7188L12.2338 19.3963C12.0646 19.5071 11.8663 19.5654 11.668 19.5654ZM11.0846 8.40041C9.57964 8.40041 8.60547 9.37458 8.60547 10.8796V14.3796C8.60547 15.8846 9.57964 16.8588 11.0846 16.8588C11.3238 16.8588 11.5221 17.0571 11.5221 17.2963V18.5388C11.5221 18.6146 11.5688 18.6496 11.598 18.6671C11.6271 18.6846 11.6855 18.7021 11.7496 18.6613L14.3455 16.9346C14.4155 16.8879 14.503 16.8588 14.5905 16.8588H16.9238C18.4288 16.8588 19.403 15.8846 19.403 14.3796V10.8796C19.403 9.37458 18.4288 8.40041 16.9238 8.40041H11.0846Z" fill="#240552"/>
<path d="M13.9996 13.6094C13.7604 13.6094 13.5621 13.411 13.5621 13.1719V13.0494C13.5621 12.3727 14.0579 12.0402 14.2446 11.9119C14.4604 11.7661 14.5304 11.6669 14.5304 11.5152C14.5304 11.2236 14.2912 10.9844 13.9996 10.9844C13.7079 10.9844 13.4688 11.2236 13.4688 11.5152C13.4688 11.7544 13.2704 11.9527 13.0313 11.9527C12.7921 11.9527 12.5938 11.7544 12.5938 11.5152C12.5938 10.7394 13.2237 10.1094 13.9996 10.1094C14.7754 10.1094 15.4054 10.7394 15.4054 11.5152C15.4054 12.1802 14.9154 12.5127 14.7346 12.6352C14.5071 12.7869 14.4371 12.8861 14.4371 13.0494V13.1719C14.4371 13.4169 14.2387 13.6094 13.9996 13.6094Z" fill="#7A38DD"/>
<path d="M14 15.0625C13.755 15.0625 13.5625 14.8642 13.5625 14.625C13.5625 14.3858 13.7608 14.1875 14 14.1875C14.2392 14.1875 14.4375 14.3858 14.4375 14.625C14.4375 14.8642 14.245 15.0625 14 15.0625Z" fill="#240552"/>
</svg>
