<svg width="18" height="18" viewBox="0 0 18 18" fill="none" xmlns="http://www.w3.org/2000/svg">
<path d="M3.06641 6.89038V10.915C3.06641 12.3937 3.06641 12.3937 4.46143 13.3354L8.29773 15.5535C8.87666 15.8883 9.8183 15.8883 10.3903 15.5535L14.2266 13.3354C15.6216 12.3937 15.6216 12.3937 15.6216 10.922V6.89038C15.6216 5.41863 15.6216 5.41864 14.2266 4.477L10.3903 2.25892C9.8183 1.92411 8.87666 1.92411 8.29773 2.25892L4.46143 4.477C3.06641 5.41864 3.06641 5.41863 3.06641 6.89038Z" stroke="#240552" stroke-width="1.04626" stroke-linecap="round" stroke-linejoin="round"/>
<path d="M9.33862 11.0054C10.4943 11.0054 11.4312 10.0685 11.4312 8.91284C11.4312 7.75717 10.4943 6.82031 9.33862 6.82031C8.18295 6.82031 7.24609 7.75717 7.24609 8.91284C7.24609 10.0685 8.18295 11.0054 9.33862 11.0054Z" stroke="#240552" stroke-width="1.04626" stroke-linecap="round" stroke-linejoin="round"/>
</svg>
