<svg width="22" height="23" viewBox="0 0 22 23" fill="none" xmlns="http://www.w3.org/2000/svg">
<path fill-rule="evenodd" clip-rule="evenodd" d="M14.9452 2.9375C14.5278 2.93736 14.1154 3.02883 13.7371 3.20545C13.3588 3.38207 13.0239 3.63954 12.756 3.9597C12.4881 4.27986 12.2937 4.65491 12.1865 5.05839C12.0793 5.46187 12.062 5.88395 12.1357 6.29486L7.98294 9.2027C7.96217 9.21706 7.94224 9.2326 7.92324 9.24923C7.50193 8.91989 6.99655 8.71557 6.46474 8.65956C5.93292 8.60356 5.39607 8.69813 4.9154 8.93248C4.43473 9.16684 4.02959 9.53156 3.74618 9.98504C3.46277 10.4385 3.3125 10.9625 3.3125 11.4973C3.3125 12.032 3.46277 12.556 3.74618 13.0095C4.02959 13.463 4.43473 13.8277 4.9154 14.0621C5.39607 14.2964 5.93292 14.391 6.46474 14.335C6.99655 14.279 7.50193 14.0747 7.92324 13.7453C7.94221 13.7623 7.96214 13.7781 7.98294 13.7927L12.1357 16.7006C12.0125 17.3878 12.1454 18.0964 12.5095 18.6922C12.8735 19.288 13.4434 19.7296 14.1112 19.9335C14.7789 20.1373 15.4983 20.0893 16.133 19.7984C16.7678 19.5075 17.2738 18.994 17.5554 18.3551C17.837 17.7162 17.8745 16.9963 17.6609 16.3315C17.4473 15.6668 16.9974 15.1034 16.3964 14.7481C15.7954 14.3928 15.0849 14.2702 14.3996 14.4035C13.7142 14.5368 13.1015 14.9167 12.6774 15.4714L8.74502 12.719C8.92061 12.3485 9.01894 11.9349 9.01894 11.4977C9.01894 11.0605 8.92061 10.6461 8.74502 10.2765L12.6783 7.52314C12.973 7.90881 13.3611 8.21295 13.806 8.4068C14.251 8.60066 14.738 8.67782 15.2211 8.631C15.7041 8.58417 16.1673 8.41491 16.5667 8.13921C16.9661 7.86351 17.2886 7.49049 17.5037 7.05541C17.7188 6.62034 17.8193 6.1376 17.7958 5.65284C17.7723 5.16808 17.6256 4.69731 17.3695 4.28507C17.1133 3.87282 16.7563 3.53272 16.3321 3.29692C15.9079 3.06112 15.4306 2.93741 14.9452 2.9375ZM13.4088 5.7909C13.4088 5.38341 13.5707 4.99261 13.8588 4.70447C14.147 4.41633 14.5378 4.25446 14.9452 4.25446C15.3527 4.25446 15.7435 4.41633 16.0317 4.70447C16.3198 4.99261 16.4817 5.38341 16.4817 5.7909C16.4817 6.1984 16.3198 6.5892 16.0317 6.87734C15.7435 7.16548 15.3527 7.32735 14.9452 7.32735C14.5378 7.32735 14.147 7.16548 13.8588 6.87734C13.5707 6.5892 13.4088 6.1984 13.4088 5.7909ZM6.16554 9.96126C5.75805 9.96126 5.36725 10.1231 5.07911 10.4113C4.79097 10.6994 4.62909 11.0902 4.62909 11.4977C4.62909 11.9052 4.79097 12.296 5.07911 12.5841C5.36725 12.8723 5.75805 13.0342 6.16554 13.0342C6.57303 13.0342 6.96383 12.8723 7.25197 12.5841C7.54011 12.296 7.70199 11.9052 7.70199 11.4977C7.70199 11.0902 7.54011 10.6994 7.25197 10.4113C6.96383 10.1231 6.57303 9.96126 6.16554 9.96126ZM14.9452 15.6681C14.5378 15.6681 14.147 15.8299 13.8588 16.1181C13.5707 16.4062 13.4088 16.797 13.4088 17.2045C13.4088 17.612 13.5707 18.0028 13.8588 18.291C14.147 18.5791 14.5378 18.741 14.9452 18.741C15.3527 18.741 15.7435 18.5791 16.0317 18.291C16.3198 18.0028 16.4817 17.612 16.4817 17.2045C16.4817 16.797 16.3198 16.4062 16.0317 16.1181C15.7435 15.8299 15.3527 15.6681 14.9452 15.6681Z" fill="white"/>
</svg>
