<svg width="21" height="20" viewBox="0 0 21 20" fill="none" xmlns="http://www.w3.org/2000/svg">
<path d="M4.82812 7.68555C4.82812 5.03666 4.82812 3.71221 5.65103 2.88931C6.47393 2.06641 7.79838 2.06641 10.4473 2.06641C13.0961 2.06641 14.4206 2.06641 15.2435 2.88931C16.0664 3.71221 16.0664 5.03666 16.0664 7.68555V12.502C16.0664 15.1508 16.0664 16.4752 15.2435 17.2982C14.4206 18.1211 13.0961 18.1211 10.4473 18.1211C7.79838 18.1211 6.47393 18.1211 5.65103 17.2982C4.82812 16.4752 4.82812 15.1508 4.82812 12.502V7.68555Z" stroke="#240552" stroke-width="1.2041" stroke-linecap="round"/>
<path d="M9.64844 15.7129H11.2539" stroke="#240552" stroke-width="1.2041" stroke-linecap="round" stroke-linejoin="round"/>
<path d="M8.03906 2.06641L8.11051 2.49508C8.26534 3.42406 8.34275 3.88856 8.66133 4.17121C8.99367 4.46605 9.4648 4.47461 10.4473 4.47461C11.4297 4.47461 11.9009 4.46605 12.2332 4.17121C12.5518 3.88856 12.6292 3.42406 12.784 2.49508L12.8555 2.06641" stroke="#240552" stroke-width="1.2041" stroke-linejoin="round"/>
</svg>
