<svg width="18" height="17" viewBox="0 0 18 17" fill="none" xmlns="http://www.w3.org/2000/svg">
<path d="M14.2776 2.73438H3.71629C3.43619 2.73438 3.16755 2.84565 2.96949 3.04371C2.77143 3.24177 2.66016 3.5104 2.66016 3.79051V7.6652C2.66016 13.5663 7.66359 15.5268 8.66691 15.8568C8.87977 15.9363 9.11414 15.9363 9.327 15.8568C10.3303 15.5268 15.3338 13.5663 15.3338 7.6652V3.79051C15.3338 3.5104 15.2225 3.24177 15.0244 3.04371C14.8264 2.84565 14.5577 2.73438 14.2776 2.73438ZM11.6703 8.75433L9.84846 9.34841L10.9772 10.8996C11.018 10.9554 11.0472 11.0186 11.0633 11.0858C11.0794 11.1529 11.082 11.2226 11.0709 11.2908C11.0599 11.3589 11.0354 11.4242 10.9989 11.4829C10.9624 11.5415 10.9147 11.5923 10.8584 11.6323C10.7697 11.7012 10.6605 11.7384 10.5482 11.7379C10.4647 11.7371 10.3825 11.7171 10.3081 11.6793C10.2337 11.6415 10.169 11.587 10.1191 11.5201L8.99696 9.96889L7.87481 11.5201C7.82494 11.587 7.76026 11.6415 7.68582 11.6793C7.61139 11.7171 7.52923 11.7371 7.44576 11.7379C7.33344 11.7384 7.2242 11.7012 7.13552 11.6323C7.07925 11.5923 7.03148 11.5415 6.99499 11.4829C6.9585 11.4242 6.93402 11.3589 6.92297 11.2908C6.91191 11.2226 6.91451 11.1529 6.9306 11.0858C6.94669 11.0186 6.97596 10.9554 7.01671 10.8996L8.14545 9.34841L6.32362 8.75433C6.19088 8.71187 6.08031 8.61865 6.01601 8.49501C5.95172 8.37136 5.93891 8.2273 5.98038 8.09425C6.02426 7.96102 6.11875 7.85038 6.24346 7.78617C6.36817 7.72196 6.51312 7.70933 6.64706 7.75101L8.46889 8.34508V6.43084C8.46889 6.29079 8.52453 6.15647 8.62356 6.05744C8.72259 5.95841 8.8569 5.90278 8.99696 5.90278C9.13701 5.90278 9.27132 5.95841 9.37036 6.05744C9.46939 6.15647 9.52502 6.29079 9.52502 6.43084V8.34508L11.3469 7.75101C11.4808 7.70933 11.6257 7.72196 11.7505 7.78617C11.8752 7.85038 11.9697 7.96102 12.0135 8.09425C12.055 8.2273 12.0422 8.37136 11.9779 8.49501C11.9136 8.61865 11.803 8.71187 11.6703 8.75433Z" fill="#240552"/>
</svg>
