<svg width="139" height="33" viewBox="0 0 139 33" fill="none" xmlns="http://www.w3.org/2000/svg">
<path d="M12.0978 24.2732C11.5493 24.2732 11.0944 23.8183 11.0944 23.2697V17.6638L10.1311 18.6271C9.74307 19.0151 9.10087 19.0151 8.71287 18.6271C8.32488 18.2391 8.32488 17.5969 8.71287 17.2089L11.3887 14.5331C11.6697 14.2521 12.1112 14.1585 12.4858 14.319C12.8604 14.4662 13.1013 14.8408 13.1013 15.2422V23.2697C13.1013 23.8183 12.6464 24.2732 12.0978 24.2732Z" fill="#240552"/>
<path d="M14.7775 18.9216C14.5233 18.9216 14.2691 18.8279 14.0684 18.6272L11.3926 15.9514C11.0046 15.5634 11.0046 14.9212 11.3926 14.5332C11.7806 14.1452 12.4228 14.1452 12.8108 14.5332L15.4866 17.209C15.8746 17.597 15.8746 18.2392 15.4866 18.6272C15.2859 18.8279 15.0317 18.9216 14.7775 18.9216Z" fill="#240552"/>
<path d="M20.1269 30.9626H12.0994C4.83445 30.9626 1.73047 27.8586 1.73047 20.5937V12.5662C1.73047 5.30125 4.83445 2.19727 12.0994 2.19727H18.789C19.3375 2.19727 19.7924 2.65216 19.7924 3.20071C19.7924 3.74926 19.3375 4.20415 18.789 4.20415H12.0994C5.93155 4.20415 3.73735 6.39834 3.73735 12.5662V20.5937C3.73735 26.7615 5.93155 28.9557 12.0994 28.9557H20.1269C26.2947 28.9557 28.4889 26.7615 28.4889 20.5937V13.9041C28.4889 13.3555 28.9438 12.9007 29.4924 12.9007C30.0409 12.9007 30.4958 13.3555 30.4958 13.9041V20.5937C30.4958 27.8586 27.3918 30.9626 20.1269 30.9626Z" fill="#240552"/>
<path d="M29.492 14.907H24.1403C19.5646 14.907 17.7852 13.1276 17.7852 8.55189V3.2002C17.7852 2.79882 18.026 2.4242 18.4006 2.27703C18.7752 2.11648 19.2034 2.21013 19.4977 2.4911L30.2011 13.1945C30.482 13.4754 30.5757 13.917 30.4152 14.2916C30.2546 14.6662 29.8934 14.907 29.492 14.907ZM19.792 5.62184V8.55189C19.792 12.0037 20.6884 12.9001 24.1403 12.9001H27.0703L19.792 5.62184Z" fill="#240552"/>
<path d="M45.0088 19.3123V10.6673H46.8268V19.201C46.8268 21.353 48.0141 22.5403 50.1476 22.5403C52.2624 22.5403 53.4312 21.3344 53.4312 19.201V10.6673H55.2678V19.3123C55.2678 22.3919 53.3013 24.3027 50.1476 24.3027C46.9752 24.3027 45.0088 22.4104 45.0088 19.3123ZM57.9937 28.1429V15.0084H59.5706L59.7005 16.6409C60.3127 15.3979 61.5371 14.7486 62.9841 14.7486C65.5813 14.7486 67.1953 16.6966 67.1953 19.4793C67.1953 22.2435 65.6741 24.3212 62.9841 24.3212C61.5371 24.3212 60.3312 23.709 59.7376 22.596V28.1429H57.9937ZM59.7561 19.5535C59.7561 21.4087 60.8321 22.7444 62.6131 22.7444C64.394 22.7444 65.4514 21.4087 65.4514 19.5535C65.4514 17.6798 64.394 16.3441 62.6131 16.3441C60.8321 16.3441 59.7561 17.6612 59.7561 19.5535ZM70.8984 24.0801H69.1545V10.4261H70.8984V24.0801ZM72.8718 19.5349C72.8718 16.7337 74.8753 14.7672 77.6024 14.7672C80.311 14.7672 82.3145 16.7337 82.3145 19.5349C82.3145 22.3362 80.311 24.3027 77.6024 24.3027C74.8753 24.3027 72.8718 22.3362 72.8718 19.5349ZM74.6342 19.5349C74.6342 21.4272 75.84 22.7444 77.6024 22.7444C79.3463 22.7444 80.5707 21.4272 80.5707 19.5349C80.5707 17.6427 79.3463 16.3255 77.6024 16.3255C75.84 16.3255 74.6342 17.6427 74.6342 19.5349ZM86.8978 24.3027C84.9499 24.3027 83.7997 23.2082 83.7997 21.5571C83.7997 19.8874 85.0426 18.8485 87.1761 18.6816L90.033 18.459V18.1992C90.033 16.678 89.124 16.14 87.8996 16.14C86.434 16.14 85.5992 16.7893 85.5992 17.8839H84.0779C84.0779 15.9916 85.6363 14.7486 87.9738 14.7486C90.2185 14.7486 91.7397 15.9359 91.7397 18.3847V24.0801H90.2556L90.0701 22.6145C89.6063 23.6534 88.3634 24.3027 86.8978 24.3027ZM87.3987 22.9484C89.0498 22.9484 90.0515 21.8724 90.0515 20.1657V19.6834L87.7326 19.8689C86.1928 20.0173 85.5621 20.6109 85.5621 21.5014C85.5621 22.4661 86.267 22.9484 87.3987 22.9484ZM97.7909 24.3027C95.1566 24.3027 93.5611 22.3362 93.5611 19.572C93.5611 16.7893 95.1751 14.7486 97.8651 14.7486C99.2565 14.7486 100.425 15.3608 101.037 16.4739V10.4261H102.763V24.0801H101.204L101.056 22.429C100.462 23.6719 99.2379 24.3027 97.7909 24.3027ZM98.1434 22.7258C99.9243 22.7258 101.019 21.4087 101.019 19.5164C101.019 17.6612 99.9243 16.3255 98.1434 16.3255C96.3624 16.3255 95.3235 17.6612 95.3235 19.5164C95.3235 21.3901 96.3624 22.7258 98.1434 22.7258ZM117.735 18.3847H112.466V24.0801H110.648V10.6673H118.736V12.3369H112.466V16.7337H117.735V18.3847ZM121.495 12.8564C120.864 12.8564 120.345 12.3369 120.345 11.7062C120.345 11.0569 120.864 10.556 121.495 10.556C122.126 10.556 122.645 11.0569 122.645 11.7062C122.645 12.3369 122.126 12.8564 121.495 12.8564ZM120.641 24.0801V15.0084H122.385V24.0801H120.641ZM126.698 24.0801H124.954V10.4261H126.698V24.0801ZM133.179 24.3027C130.508 24.3027 128.671 22.3733 128.671 19.5535C128.671 16.7151 130.471 14.7486 133.105 14.7486C135.684 14.7486 137.372 16.5296 137.372 19.2196V19.8689L130.36 19.8874C130.489 21.7982 131.491 22.8557 133.217 22.8557C134.571 22.8557 135.461 22.2991 135.758 21.2602H137.391C136.945 23.2082 135.424 24.3027 133.179 24.3027ZM133.105 16.2142C131.584 16.2142 130.619 17.1232 130.397 18.7187H135.628C135.628 17.216 134.645 16.2142 133.105 16.2142Z" fill="#240552"/>
</svg>
