<svg width="18" height="18" viewBox="0 0 18 18" fill="none" xmlns="http://www.w3.org/2000/svg">
<path d="M10.1081 9.5306C7.86266 9.5306 6.03516 7.7031 6.03516 5.45768C6.03516 3.21227 7.86266 1.38477 10.1081 1.38477C12.3535 1.38477 14.181 3.21227 14.181 5.45768C14.181 7.7031 12.3535 9.5306 10.1081 9.5306ZM10.1081 2.44727C8.45057 2.44727 7.09766 3.80018 7.09766 5.45768C7.09766 7.11518 8.45057 8.4681 10.1081 8.4681C11.7656 8.4681 13.1185 7.11518 13.1185 5.45768C13.1185 3.80018 11.7656 2.44727 10.1081 2.44727Z" fill="black"/>
<path d="M4.02344 16.6146C3.73302 16.6146 3.49219 16.3737 3.49219 16.0833C3.49219 13.0587 6.46012 10.5938 10.108 10.5938C10.8235 10.5938 11.5247 10.6859 12.2047 10.8771C12.4881 10.955 12.6509 11.2454 12.573 11.5288C12.4951 11.8121 12.2047 11.975 11.9214 11.8971C11.3405 11.7342 10.7314 11.6562 10.108 11.6562C7.04804 11.6562 4.55469 13.6396 4.55469 16.0833C4.55469 16.3737 4.31385 16.6146 4.02344 16.6146Z" fill="black"/>
<path d="M14.3529 16.6139C13.517 16.6139 12.7237 16.3023 12.1075 15.7427C11.8595 15.5302 11.6399 15.2681 11.4699 14.9777C11.1583 14.4677 10.9883 13.8656 10.9883 13.2493C10.9883 12.3639 11.3283 11.5352 11.9375 10.9048C12.575 10.246 13.432 9.88477 14.3529 9.88477C15.3162 9.88477 16.23 10.2956 16.8533 11.0039C17.4058 11.6202 17.7174 12.4135 17.7174 13.2493C17.7174 13.5185 17.682 13.7877 17.6112 14.0427C17.5403 14.3614 17.4058 14.6944 17.2216 14.9848C16.6337 15.9906 15.5287 16.6139 14.3529 16.6139ZM14.3529 10.9473C13.7224 10.9473 13.1416 11.1952 12.7024 11.6414C12.2845 12.0735 12.0508 12.6402 12.0508 13.2493C12.0508 13.6673 12.1641 14.0781 12.3837 14.4323C12.497 14.6306 12.6458 14.8077 12.8158 14.9564C13.2408 15.346 13.7862 15.5585 14.3529 15.5585C15.1533 15.5585 15.9112 15.1335 16.3221 14.4464C16.4425 14.2481 16.5345 14.0215 16.5841 13.8019C16.6337 13.6177 16.6549 13.4406 16.6549 13.2564C16.6549 12.6898 16.4424 12.1444 16.0599 11.7194C15.6349 11.2235 15.0116 10.9473 14.3529 10.9473Z" fill="black"/>
<path d="M15.4187 13.7676H13.3008C13.0104 13.7676 12.7695 13.5267 12.7695 13.2363C12.7695 12.9459 13.0104 12.7051 13.3008 12.7051H15.4187C15.7091 12.7051 15.9499 12.9459 15.9499 13.2363C15.9499 13.5267 15.7091 13.7676 15.4187 13.7676Z" fill="black"/>
</svg>
