<svg width="20" height="20" viewBox="0 0 20 20" fill="none" xmlns="http://www.w3.org/2000/svg">
<path d="M10.2378 10.4032C12.4056 10.4032 14.163 8.64585 14.163 6.47799C14.163 4.31013 12.4056 2.55273 10.2378 2.55273C8.0699 2.55273 6.3125 4.31013 6.3125 6.47799C6.3125 8.64585 8.0699 10.4032 10.2378 10.4032Z" stroke="#EF4444" stroke-width="1.17758" stroke-linecap="round" stroke-linejoin="round"/>
<path d="M3.49414 18.2532C3.49414 15.215 6.51661 12.7578 10.2378 12.7578C10.9914 12.7578 11.7215 12.8599 12.4045 13.0483" stroke="#EF4444" stroke-width="1.17758" stroke-linecap="round" stroke-linejoin="round"/>
<path d="M18.087 15.1129C18.087 15.3641 18.0557 15.6074 17.9928 15.843C17.9222 16.157 17.7966 16.4631 17.6317 16.7301C17.09 17.6407 16.093 18.2531 14.9468 18.2531C14.1382 18.2531 13.4082 17.9469 12.8586 17.4444C12.6231 17.2403 12.419 16.997 12.262 16.7301C11.9715 16.259 11.8066 15.7016 11.8066 15.1129C11.8066 14.265 12.1442 13.4878 12.6938 12.9226C13.2668 12.3338 14.0676 11.9727 14.9468 11.9727C15.8732 11.9727 16.7132 12.373 17.2784 13.0168C17.7809 13.5742 18.087 14.3121 18.087 15.1129Z" stroke="#EF4444" stroke-width="1.17758" stroke-miterlimit="10" stroke-linecap="round" stroke-linejoin="round"/>
<path d="M16.1168 15.0977H13.7773" stroke="#EF4444" stroke-width="1.17758" stroke-miterlimit="10" stroke-linecap="round" stroke-linejoin="round"/>
</svg>
