<svg width="30" height="30" viewBox="0 0 30 30" fill="none" xmlns="http://www.w3.org/2000/svg">
<circle cx="15.1974" cy="15.0919" r="14.1974" stroke="#240552"/>
<path d="M12.2883 14.2417L10.6803 15.1297V14.8657L12.2883 15.7537L11.8203 16.5697L10.2723 15.6697L10.4283 15.5857L10.4403 17.3017H9.52828L9.54028 15.5857L9.69628 15.6697L8.16028 16.5697L7.68028 15.7537L9.30028 14.8657V15.1297L7.68028 14.2417L8.16028 13.4137L9.69628 14.3257L9.54028 14.4217L9.52828 12.6937H10.4403L10.4283 14.4217L10.2723 14.3257L11.8203 13.4137L12.2883 14.2417ZM17.5148 14.2417L15.9068 15.1297V14.8657L17.5148 15.7537L17.0468 16.5697L15.4988 15.6697L15.6548 15.5857L15.6668 17.3017H14.7548L14.7668 15.5857L14.9228 15.6697L13.3868 16.5697L12.9068 15.7537L14.5268 14.8657V15.1297L12.9068 14.2417L13.3868 13.4137L14.9228 14.3257L14.7668 14.4217L14.7548 12.6937H15.6668L15.6548 14.4217L15.4988 14.3257L17.0468 13.4137L17.5148 14.2417ZM22.7414 14.2417L21.1334 15.1297V14.8657L22.7414 15.7537L22.2734 16.5697L20.7254 15.6697L20.8814 15.5857L20.8934 17.3017H19.9814L19.9934 15.5857L20.1494 15.6697L18.6134 16.5697L18.1334 15.7537L19.7534 14.8657V15.1297L18.1334 14.2417L18.6134 13.4137L20.1494 14.3257L19.9934 14.4217L19.9814 12.6937H20.8934L20.8814 14.4217L20.7254 14.3257L22.2734 13.4137L22.7414 14.2417Z" fill="#240552"/>
</svg>
