<svg width="20" height="20" viewBox="0 0 20 20" fill="none" xmlns="http://www.w3.org/2000/svg">
<circle cx="9.9149" cy="9.9149" r="8.9149" fill="#22C55E" stroke="black" stroke-width="0.827045"/>
<g clip-path="url(#clip0_776_248068)">
<path d="M11.035 6.83203H8.58497C7.43793 6.83203 6.86462 6.83203 6.4526 7.10726C6.27418 7.22646 6.12099 7.37964 6.00179 7.55807C5.72656 7.97009 5.72656 8.543 5.72656 9.69044C5.72656 10.8375 5.72656 11.4108 6.00179 11.8228C6.12099 12.0012 6.27418 12.1544 6.4526 12.2736C6.59429 12.3684 6.75477 12.4304 6.9516 12.4713M8.58497 12.5489H11.035C12.1821 12.5489 12.7554 12.5489 13.1674 12.2736C13.3458 12.1544 13.499 12.0012 13.6182 11.8228C13.8935 11.4108 13.8935 10.8379 13.8935 9.69044C13.8935 8.5434 13.8935 7.97009 13.6182 7.55807C13.499 7.37966 13.3458 7.22647 13.1674 7.10726C13.0257 7.01252 12.8652 6.95045 12.6684 6.90962" stroke="white" stroke-width="0.612517" stroke-linecap="round"/>
<path d="M8.58441 8.46484C8.25951 8.46484 7.94792 8.59391 7.71818 8.82365C7.48844 9.05339 7.35938 9.36498 7.35938 9.68988C7.35938 10.0148 7.48844 10.3264 7.71818 10.5561C7.94792 10.7858 8.25951 10.9149 8.58441 10.9149M11.0345 8.46484C11.3594 8.46484 11.671 8.59391 11.9007 8.82365C12.1304 9.05339 12.2595 9.36498 12.2595 9.68988C12.2595 10.0148 12.1304 10.3264 11.9007 10.5561C11.671 10.7858 11.3594 10.9149 11.0345 10.9149" stroke="white" stroke-width="0.612517"/>
<path d="M8.57812 6.83203V12.5489M11.0282 6.83203V12.5489" stroke="white" stroke-width="0.612517" stroke-linecap="round"/>
</g>
<defs>
<clipPath id="clip0_776_248068">
<rect width="9.80027" height="9.80027" fill="white" transform="translate(4.91406 4.79102)"/>
</clipPath>
</defs>
</svg>
