<svg width="55" height="55" viewBox="0 0 55 55" fill="none" xmlns="http://www.w3.org/2000/svg">
<circle cx="27.6167" cy="27.2573" r="26.9682" fill="#5342F2"/>
<path d="M27.2133 33.32L27.2092 33.3184C27.1418 33.2928 27.0682 33.2512 26.9888 33.186C26.1596 32.4513 25.4982 31.5343 25.0075 30.4249L25.0074 30.4248C24.5141 29.3103 24.2722 28.2025 24.2722 27.0971C24.2722 25.9917 24.5141 24.8834 25.0075 23.768C25.4989 22.6578 26.1509 21.7407 26.9599 21.0062C27.0405 20.9403 27.1254 20.8889 27.2154 20.8504C27.2853 20.8204 27.3634 20.8035 27.4556 20.8035C27.548 20.8035 27.6149 20.8204 27.6661 20.8439C27.7492 20.8824 27.8347 20.9359 27.9223 21.0081C28.7517 21.7429 29.4131 22.6595 29.9039 23.7682C30.3972 24.8835 30.6391 25.9918 30.6391 27.0971C30.6391 28.2025 30.3972 29.3103 29.9039 30.4248L29.9038 30.4249C29.4104 31.5404 28.7551 32.4608 27.9418 33.1967L27.931 33.2065L27.9206 33.2169C27.8876 33.2499 27.8386 33.2834 27.7586 33.3099L27.7569 33.3105C27.66 33.343 27.5604 33.3593 27.4556 33.3593C27.35 33.3593 27.2718 33.3427 27.2133 33.32ZM30.9463 35.1609L30.9462 35.1609C30.7911 35.1305 30.6376 35.0954 30.4854 35.0555C31.3594 34.2389 32.0656 33.1616 32.6148 31.847C33.3269 30.1424 33.6968 28.5564 33.6968 27.0971C33.6968 25.6378 33.3269 24.0518 32.6148 22.3473C32.0656 21.0326 31.3594 19.9553 30.4854 19.1387C30.6376 19.0988 30.7911 19.0637 30.9462 19.0333L30.9463 19.0333C31.4413 18.9362 31.953 18.8872 32.4821 18.8872C34.7797 18.8872 36.7082 19.6805 38.3028 21.2752C39.8983 22.8707 40.692 24.7996 40.692 27.0971C40.692 29.3946 39.8983 31.323 38.3029 32.9177L38.3027 32.9179C36.708 34.5133 34.7796 35.307 32.4821 35.307C31.953 35.307 31.4413 35.2581 30.9463 35.1609ZM23.9649 19.0333L23.9651 19.0333C24.1201 19.0637 24.2737 19.0988 24.4258 19.1387C23.5519 19.9553 22.8456 21.0326 22.2964 22.3473C21.5844 24.0518 21.2144 25.6378 21.2144 27.0971C21.2144 28.5564 21.5844 30.1424 22.2964 31.847C22.8456 33.1616 23.5519 34.2389 24.4258 35.0555C24.2737 35.0954 24.1201 35.1305 23.9651 35.1609L23.9649 35.1609C23.4699 35.2581 22.9582 35.307 22.4291 35.307C20.1317 35.307 18.2032 34.5133 16.6086 32.9179L16.6084 32.9177C15.0129 31.323 14.2192 29.3946 14.2192 27.0971C14.2192 24.7996 15.0129 22.8707 16.6085 21.2752C18.2031 19.6805 20.1316 18.8872 22.4291 18.8872C22.9582 18.8872 23.4699 18.9362 23.9649 19.0333Z" stroke="white" stroke-width="1.17284"/>
</svg>
