<svg width="55" height="55" viewBox="0 0 55 55" fill="none" xmlns="http://www.w3.org/2000/svg">
<circle cx="27.7885" cy="27.2573" r="26.9682" fill="#3B82F6"/>
<path d="M27.3852 33.32L27.3811 33.3184C27.3137 33.2928 27.2401 33.2512 27.1607 33.186C26.3314 32.4513 25.67 31.5343 25.1793 30.4249L25.1793 30.4248C24.686 29.3103 24.4441 28.2025 24.4441 27.0971C24.4441 25.9917 24.686 24.8834 25.1793 23.768C25.6708 22.6578 26.3228 21.7407 27.1317 21.0062C27.2124 20.9403 27.2973 20.8889 27.3873 20.8504C27.4572 20.8204 27.5353 20.8035 27.6275 20.8035C27.7199 20.8035 27.7868 20.8204 27.838 20.8439C27.921 20.8824 28.0065 20.9359 28.0942 21.0081C28.9236 21.7429 29.585 22.6595 30.0757 23.7682C30.569 24.8835 30.8109 25.9918 30.8109 27.0971C30.8109 28.2025 30.569 29.3103 30.0757 30.4248L30.0757 30.4249C29.5823 31.5404 28.927 32.4608 28.1137 33.1967L28.1028 33.2065L28.0925 33.2169C28.0594 33.2499 28.0105 33.2834 27.9305 33.3099L27.9287 33.3105C27.8318 33.343 27.7323 33.3593 27.6275 33.3593C27.5218 33.3593 27.4437 33.3427 27.3852 33.32ZM31.1182 35.1609L31.118 35.1609C30.963 35.1305 30.8094 35.0954 30.6573 35.0555C31.5313 34.2389 32.2375 33.1616 32.7867 31.847C33.4987 30.1424 33.8687 28.5564 33.8687 27.0971C33.8687 25.6378 33.4987 24.0518 32.7867 22.3473C32.2375 21.0326 31.5313 19.9553 30.6573 19.1387C30.8094 19.0988 30.963 19.0637 31.118 19.0333L31.1182 19.0333C31.6132 18.9362 32.1249 18.8872 32.654 18.8872C34.9515 18.8872 36.88 19.6805 38.4747 21.2752C40.0702 22.8707 40.8639 24.7996 40.8639 27.0971C40.8639 29.3946 40.0702 31.323 38.4748 32.9177L38.4746 32.9179C36.8799 34.5133 34.9514 35.307 32.654 35.307C32.1249 35.307 31.6132 35.2581 31.1182 35.1609ZM24.1368 19.0333L24.137 19.0333C24.292 19.0637 24.4456 19.0988 24.5977 19.1387C23.7237 19.9553 23.0175 21.0326 22.4683 22.3473C21.7563 24.0518 21.3863 25.6378 21.3863 27.0971C21.3863 28.5564 21.7563 30.1424 22.4683 31.847C23.0175 33.1616 23.7237 34.2389 24.5977 35.0555C24.4456 35.0954 24.292 35.1305 24.137 35.1609L24.1368 35.1609C23.6418 35.2581 23.1301 35.307 22.601 35.307C20.3036 35.307 18.3751 34.5133 16.7804 32.9179L16.7802 32.9177C15.1848 31.323 14.3911 29.3946 14.3911 27.0971C14.3911 24.7996 15.1848 22.8707 16.7803 21.2752C18.375 19.6805 20.3035 18.8872 22.601 18.8872C23.1301 18.8872 23.6418 18.9362 24.1368 19.0333Z" stroke="white" stroke-width="1.17284"/>
</svg>
