<svg width="33" height="34" viewBox="0 0 33 34" fill="none" xmlns="http://www.w3.org/2000/svg">
<circle cx="16.0957" cy="17.0723" r="16.0957" fill="#3B82F6"/>
<path d="M15.8554 20.6906L15.8529 20.6897C15.8127 20.6744 15.7688 20.6496 15.7214 20.6106C15.2265 20.1722 14.8317 19.6249 14.5388 18.9627L14.5388 18.9626C14.2444 18.2975 14.1 17.6363 14.1 16.9766C14.1 16.3168 14.2444 15.6554 14.5388 14.9897C14.8321 14.3271 15.2213 13.7796 15.7041 13.3413C15.7523 13.3019 15.8029 13.2713 15.8566 13.2483C15.8984 13.2304 15.945 13.2203 16 13.2203C16.0551 13.2203 16.095 13.2304 16.1256 13.2443C16.1752 13.2673 16.2262 13.2993 16.2785 13.3424C16.7735 13.7809 17.1683 14.328 17.4612 14.9896C17.7556 15.6553 17.9 16.3168 17.9 16.9766C17.9 17.6363 17.7556 18.2975 17.4612 18.9626L17.4612 18.9627C17.1667 19.6285 16.7756 20.1778 16.2902 20.617L16.2837 20.6229L16.2775 20.6291C16.2578 20.6488 16.2286 20.6688 16.1809 20.6846L16.1798 20.6849C16.122 20.7043 16.0625 20.7141 16 20.7141C15.9369 20.7141 15.8903 20.7042 15.8554 20.6906ZM18.0834 21.7894L18.0833 21.7893C17.9908 21.7712 17.8991 21.7503 17.8083 21.7265C18.3299 21.2391 18.7514 20.5961 19.0792 19.8115C19.5042 18.7941 19.725 17.8475 19.725 16.9766C19.725 16.1056 19.5042 15.159 19.0792 14.1417C18.7514 13.357 18.3299 12.7141 17.8083 12.2267C17.8991 12.2029 17.9908 12.1819 18.0833 12.1638L18.0834 12.1638C18.3788 12.1058 18.6842 12.0766 19 12.0766C20.3713 12.0766 21.5223 12.5501 22.474 13.5018C23.4263 14.4541 23.9 15.6053 23.9 16.9766C23.9 18.3478 23.4263 19.4988 22.4741 20.4505L22.474 20.4506C21.5222 21.4029 20.3712 21.8766 19 21.8766C18.6842 21.8766 18.3788 21.8473 18.0834 21.7894ZM9.52605 20.4506L9.52593 20.4505C8.57371 19.4988 8.1 18.3478 8.1 16.9766C8.1 15.6053 8.57371 14.4541 9.52599 13.5018C10.4777 12.5501 11.6287 12.0766 13 12.0766C13.3158 12.0766 13.6212 12.1058 13.9166 12.1638L13.9167 12.1638C14.0092 12.1819 14.1009 12.2029 14.1917 12.2267C13.6701 12.714 13.2486 13.357 12.9208 14.1417C12.4958 15.159 12.275 16.1056 12.275 16.9766C12.275 17.8475 12.4958 18.7941 12.9208 19.8115C13.2486 20.5961 13.6701 21.2391 14.1917 21.7265C14.1009 21.7503 14.0092 21.7712 13.9167 21.7893L13.9166 21.7894C13.6212 21.8473 13.3158 21.8766 13 21.8766C11.6288 21.8766 10.4778 21.4029 9.52605 20.4506Z" stroke="black" stroke-width="0.7"/>
</svg>
