<svg width="55" height="55" viewBox="0 0 55 55" fill="none" xmlns="http://www.w3.org/2000/svg">
<circle cx="27.082" cy="27.1309" r="26.9805" fill="#22C55E"/>
<path d="M26.6804 33.1979L26.6804 33.1979L26.6763 33.1963C26.6089 33.1707 26.5353 33.1291 26.4558 33.0638C25.6262 32.3288 24.9645 31.4114 24.4736 30.3015L24.4735 30.3014C23.98 29.1864 23.738 28.0781 23.738 26.9722C23.738 25.8663 23.98 24.7576 24.4735 23.6418C24.9652 22.531 25.6175 21.6134 26.4268 20.8785C26.5076 20.8126 26.5925 20.7612 26.6825 20.7226C26.7525 20.6926 26.8306 20.6758 26.9228 20.6758C27.0152 20.6758 27.0822 20.6926 27.1334 20.7161C27.2165 20.7546 27.302 20.8082 27.3897 20.8804C28.2195 21.6155 28.8812 22.5325 29.3721 23.6416C29.8657 24.7575 30.1077 25.8663 30.1077 26.9722C30.1077 28.0781 29.8657 29.1864 29.3722 30.3014L29.3721 30.3015C28.8785 31.4175 28.2229 32.3383 27.4093 33.0745L27.3984 33.0844L27.388 33.0947C27.355 33.1278 27.306 33.1613 27.226 33.1878L27.2242 33.1884C27.1273 33.2209 27.0276 33.2372 26.9228 33.2372C26.8171 33.2372 26.739 33.2207 26.6804 33.1979ZM30.4151 35.0397L30.415 35.0396C30.2599 35.0092 30.1062 34.9741 29.954 34.9342C30.8284 34.1173 31.535 33.0395 32.0844 31.7242C32.7967 30.0189 33.1669 28.4322 33.1669 26.9722C33.1669 25.5122 32.7967 23.9255 32.0844 22.2202C31.535 20.9049 30.8284 19.8272 29.954 19.0102C30.1062 18.9703 30.2599 18.9352 30.415 18.9048L30.4151 18.9047C30.9104 18.8076 31.4223 18.7586 31.9516 18.7586C34.2502 18.7586 36.1796 19.5523 37.7749 21.1476C39.3712 22.7439 40.1652 24.6737 40.1652 26.9722C40.1652 29.2707 39.3712 31.2 37.775 32.7954L37.7748 32.7956C36.1794 34.3918 34.2501 35.1858 31.9516 35.1858C31.4223 35.1858 30.9104 35.1369 30.4151 35.0397ZM16.0709 32.7956L16.0707 32.7954C14.4745 31.2 13.6804 29.2707 13.6804 26.9722C13.6804 24.6737 14.4745 22.7439 16.0708 21.1476C17.6661 19.5523 19.5955 18.7586 21.8941 18.7586C22.4234 18.7586 22.9353 18.8076 23.4305 18.9047L23.4307 18.9048C23.5858 18.9352 23.7395 18.9703 23.8917 19.0102C23.0173 19.8272 22.3107 20.9049 21.7613 22.2202C21.0489 23.9255 20.6788 25.5122 20.6788 26.9722C20.6788 28.4322 21.0489 30.0189 21.7613 31.7242C22.3107 33.0395 23.0173 34.1173 23.8917 34.9342C23.7395 34.9741 23.5858 35.0092 23.4307 35.0396L23.4305 35.0397C22.9353 35.1369 22.4234 35.1858 21.8941 35.1858C19.5956 35.1858 17.6662 34.3918 16.0709 32.7956Z" stroke="white" stroke-width="1.17338"/>
</svg>
