<svg width="66" height="67" viewBox="0 0 66 67" fill="none" xmlns="http://www.w3.org/2000/svg">
<path d="M32.8908 0.621094C50.9699 0.621094 65.6487 15.2999 65.6487 33.379C65.6487 51.4581 50.9699 66.137 32.8908 66.137C14.8116 66.137 0.132812 51.4581 0.132812 33.379C0.132812 15.2999 14.8116 0.621094 32.8908 0.621094Z" fill="#FFB700"/>
<path d="M35.4704 19.1152H30.2969L32.8836 42.2319L35.4704 19.1152Z" fill="white"/>
<path d="M35.4704 19.1152H30.2969L32.8836 42.2319L35.4704 19.1152Z" stroke="white" stroke-width="3.28093" stroke-linecap="round" stroke-linejoin="round"/>
<path d="M32.886 45.7695C34.039 45.7695 34.9752 46.7057 34.9752 47.8587C34.9752 49.0117 34.039 49.9478 32.886 49.9478C31.733 49.9478 30.7969 49.0117 30.7969 47.8587C30.7969 46.7057 31.733 45.7695 32.886 45.7695Z" fill="white"/>
<path d="M32.886 45.7695C34.039 45.7695 34.9752 46.7057 34.9752 47.8587C34.9752 49.0117 34.039 49.9478 32.886 49.9478C31.733 49.9478 30.7969 49.0117 30.7969 47.8587C30.7969 46.7057 31.733 45.7695 32.886 45.7695Z" stroke="white" stroke-width="0.835662"/>
</svg>
