<svg width="107" height="17" viewBox="0 0 107 17" fill="none" xmlns="http://www.w3.org/2000/svg">
<path d="M13.0763 14.714C13.0946 14.6804 13.1094 14.645 13.1256 14.6105L18.9884 1.86862C19.0364 1.76472 19.0849 1.66125 19.132 1.55691C19.1486 1.52111 19.1652 1.48967 19.2132 1.49011C19.321 1.49011 19.4293 1.49011 19.5524 1.49011C19.5254 1.5556 19.5088 1.60406 19.4861 1.65077C17.3957 6.20804 15.3056 10.7652 13.2155 15.3222C13.1321 15.5038 13.0461 15.6849 12.9658 15.8679C12.8951 16.0294 12.9056 16.1866 13.0226 16.3237C13.0735 16.3876 13.1417 16.4356 13.2191 16.462C13.2965 16.4883 13.3798 16.4918 13.4591 16.4721C13.6338 16.4367 13.7211 16.3158 13.7892 16.1665C15.8751 11.627 17.9604 7.08833 20.0449 2.55055C20.244 2.11747 20.4378 1.68308 20.643 1.25174C20.7556 1.0125 20.6644 0.675895 20.3501 0.610845V0.582031H18.7758C18.7773 0.586467 18.7778 0.59118 18.7774 0.59585C18.7769 0.60052 18.7755 0.605038 18.7731 0.609099C18.602 0.646644 18.5112 0.767576 18.4409 0.914702C18.2081 1.42171 17.9752 1.92858 17.7424 2.4353C16.0869 6.0484 14.4296 9.66063 12.7707 13.272C12.7471 13.3239 12.7222 13.375 12.6938 13.4353C12.6283 13.3916 12.6275 13.3191 12.5921 13.2681C12.4707 13.0934 12.5004 12.9323 12.5882 12.7416C14.2961 9.02687 15.9987 5.31001 17.6961 1.59096C17.7494 1.47396 17.8044 1.35739 17.8572 1.2417C17.9821 0.964035 17.8489 0.686373 17.5542 0.606479C17.5528 0.598147 17.5495 0.590242 17.5446 0.583341H16.0013C16.0037 0.592332 16.0024 0.6019 15.9978 0.609972C15.8276 0.644462 15.7267 0.757099 15.6577 0.907717C15.3917 1.48836 15.1253 2.06872 14.8584 2.64878L11.3505 10.2889C11.3343 10.3234 11.3177 10.3574 11.2959 10.4019C11.2252 10.3268 11.2086 10.2308 11.1606 10.1544C11.0706 10.0121 11.085 9.88503 11.1562 9.73092C12.4409 6.94877 13.7215 4.16487 14.9981 1.37922C15.0526 1.26047 15.0937 1.14216 15.0636 1.00726C15.0467 0.920145 15.003 0.840501 14.9385 0.779505C14.8741 0.71851 14.7922 0.679224 14.7042 0.667163C14.6521 0.66097 14.5996 0.65849 14.5471 0.659742C14.1463 0.659742 13.7455 0.667164 13.3452 0.656686C13.0859 0.649701 12.9256 0.760591 12.8213 0.991103C12.1181 2.52902 11.4122 4.0662 10.7035 5.60266C10.4529 6.14838 10.2023 6.6941 9.95168 7.23982C9.93422 7.27867 9.91326 7.31578 9.88445 7.37297C9.8146 7.22017 9.75347 7.08309 9.68843 6.94557C9.66441 6.89274 9.70152 6.85389 9.72029 6.81459C9.92723 6.35881 10.1352 5.9036 10.3442 5.44898C10.9752 4.07115 11.606 2.69317 12.2367 1.31504C12.324 1.12557 12.2983 0.937404 12.1682 0.796827C12.1324 0.75493 12.088 0.721176 12.0381 0.697834C11.9882 0.674491 11.9338 0.662099 11.8787 0.661488C11.4064 0.661488 10.934 0.657559 10.4616 0.661488C10.2586 0.661488 10.1272 0.781547 10.0451 0.960106L9.5736 1.9865C9.23395 2.72693 8.89386 3.46664 8.55333 4.20561C8.5363 4.24316 8.52888 4.28856 8.48129 4.31607L8.1281 3.55075C7.74435 2.71514 7.35754 1.88041 6.97947 1.04218C6.89215 0.845286 6.78912 0.672402 6.58262 0.583341H6.38223C6.346 0.630491 6.28531 0.63835 6.23991 0.670656C6.09191 0.777181 6.01769 0.916449 6.03996 1.10068C6.05315 1.1661 6.07627 1.22911 6.1085 1.28754C6.71971 2.6223 7.33091 3.95662 7.94212 5.29051C7.96255 5.32723 7.97367 5.36839 7.97451 5.4104C7.97534 5.45241 7.96587 5.49399 7.94692 5.5315C7.20445 7.14072 6.46431 8.75066 5.7265 10.3613C5.7153 10.3975 5.69536 10.4303 5.66843 10.4569C5.63225 10.4094 5.60395 10.3563 5.58461 10.2998C4.16224 7.20358 2.74002 4.10709 1.31795 1.01031C1.29588 0.957642 1.2696 0.906835 1.23936 0.858384C1.10839 0.662798 0.870894 0.596438 0.675745 0.701216C0.448725 0.821711 0.36403 1.05048 0.46226 1.28186C0.479286 1.32159 0.498059 1.36001 0.515522 1.3993L5.20784 11.6414C5.22638 11.6861 5.24721 11.7298 5.27027 11.7724C5.44796 12.078 5.84655 12.0858 6.03646 11.7903C6.07027 11.7328 6.10017 11.6732 6.12596 11.6117L8.41144 6.65044C8.42905 6.59896 8.45501 6.55073 8.48828 6.50768C8.55507 6.60329 8.58476 6.71505 8.64152 6.81328C8.68779 6.89274 8.67688 6.96128 8.63933 7.04118C8.44113 7.46422 8.24641 7.88944 8.05345 8.3138C7.35493 9.83395 6.6564 11.3541 5.95788 12.8743C5.92761 12.9339 5.91165 12.9999 5.91128 13.0668C5.9109 13.1337 5.92611 13.1998 5.9557 13.2598C5.99281 13.3375 6.02817 13.4156 6.06353 13.4938C6.24995 13.9063 6.43724 14.3185 6.62148 14.7319C6.68347 14.8707 6.7769 14.9707 6.92708 15.0091C7.16851 15.0707 7.36846 14.9755 7.4776 14.7415C7.70462 14.253 7.92859 13.7636 8.15386 13.2742C8.70686 12.0704 9.26073 10.8669 9.81547 9.66369C9.83337 9.62483 9.83948 9.57638 9.89143 9.55105C9.93815 9.65278 9.97569 9.75144 10.0268 9.84225C10.0779 9.93306 10.0678 10.0051 10.0268 10.0955C9.14925 12.0039 8.2729 13.9135 7.39771 15.8242C7.37588 15.8718 7.35187 15.919 7.33484 15.9683C7.3134 16.0256 7.3045 16.0869 7.30875 16.1479C7.313 16.2089 7.33029 16.2684 7.35946 16.3222C7.38864 16.376 7.42901 16.4229 7.47786 16.4597C7.52671 16.4966 7.58289 16.5225 7.64263 16.5358C7.85437 16.5904 8.05214 16.4922 8.15342 16.2739C8.38626 15.7718 8.61707 15.2695 8.84583 14.7668C9.39534 13.5718 9.94513 12.3769 10.4952 11.1821C10.5153 11.1384 10.5214 11.0821 10.5799 11.0564C10.6144 11.1301 10.6467 11.1991 10.6786 11.2681C10.7445 11.4109 10.8061 11.5562 10.8777 11.696C10.9127 11.7699 10.9678 11.8326 11.0368 11.8767C11.1057 11.9209 11.1857 11.9448 11.2675 11.9457C11.447 11.9522 11.5731 11.8584 11.6648 11.7095C11.6905 11.6638 11.7136 11.6167 11.7342 11.5685L16.0275 2.24102C16.1291 2.02011 16.231 1.79935 16.3331 1.57873C16.3532 1.53508 16.3667 1.48749 16.4296 1.49142C16.5335 1.49622 16.6383 1.48225 16.7444 1.50059C16.7487 1.57612 16.7051 1.63156 16.6784 1.68962C15.3204 4.6531 13.9615 7.616 12.6017 10.5783C12.2597 11.3234 11.9176 12.0684 11.5753 12.8132C11.547 12.8658 11.5308 12.9242 11.528 12.9839C11.5251 13.0437 11.5356 13.1033 11.5587 13.1585C11.7916 13.6763 12.0253 14.193 12.2599 14.7088C12.3398 14.8834 12.4856 14.9598 12.6742 14.9611C12.758 14.9638 12.8408 14.9418 12.9123 14.8979C12.9837 14.8539 13.0408 14.79 13.0763 14.714ZM9.02483 5.31103C9.20674 4.91287 9.38981 4.51486 9.57404 4.11699C9.94906 3.30365 10.3258 2.49118 10.696 1.67565C10.7397 1.57699 10.7938 1.5377 10.8991 1.54992C10.9837 1.55441 11.0685 1.55441 11.1531 1.54992L9.18243 5.84583C9.11083 5.69085 9.05452 5.56642 8.99645 5.44331C8.97244 5.39179 9.0078 5.3525 9.02658 5.31103H9.02483ZM9.34222 8.56264C9.08027 9.13456 8.81833 9.70589 8.55638 10.2766C8.09041 11.2936 7.62415 12.3114 7.15759 13.3301C7.13227 13.3855 7.10608 13.4401 7.07246 13.5121C7.06298 13.5021 7.05422 13.4915 7.04627 13.4802C6.98558 13.3458 6.8891 13.2152 6.87513 13.076C6.86203 12.945 6.96986 12.8223 7.02706 12.6975C7.71801 11.1843 8.41013 9.67228 9.10341 8.16143C9.12125 8.10588 9.15106 8.05491 9.19073 8.01212C9.25621 8.15532 9.3217 8.29197 9.38107 8.42949C9.40203 8.48013 9.36536 8.52073 9.34397 8.56264H9.34222ZM10.5786 8.88746C10.5088 8.7364 10.4542 8.61503 10.3961 8.49454C10.3656 8.43123 10.4018 8.38321 10.4249 8.33301C10.6493 7.84317 10.8746 7.35391 11.1007 6.86524C11.8936 5.14222 12.6862 3.41905 13.4788 1.69574C13.4927 1.66561 13.5085 1.63593 13.5224 1.60493C13.5286 1.58728 13.5407 1.57227 13.5565 1.56235C13.5724 1.55244 13.5912 1.54821 13.6098 1.55036C13.7141 1.55036 13.818 1.55036 13.9437 1.55036L10.5786 8.88746Z" fill="#990D81"/>
<path d="M39.3546 4.61262L37.1311 10.6741L36.4303 12.5337C36.4213 12.5589 35.0237 12.6101 35.0237 12.6101C35.0185 12.5756 35.0104 12.5417 34.9994 12.5086C34.3519 10.9071 33.7033 9.30596 33.0536 7.70506C33.0349 7.65877 33.0268 7.60355 32.9659 7.58975C32.9561 7.60491 32.9471 7.62063 32.9391 7.63684L30.9243 12.6101H29.5438C29.5624 12.5061 29.5015 12.4217 29.4691 12.3323C29.1014 11.3416 28.7336 10.3533 28.3654 9.36741C27.8635 8.01392 27.3614 6.66206 26.859 5.31183L26.8525 5.29397L26.6381 4.72306L26.6016 4.62399C27.1895 4.62399 27.7791 4.62399 28.367 4.60938C28.5222 4.60938 28.5579 4.69058 28.6009 4.8059C29.0037 5.86541 29.4084 6.92464 29.815 7.98361C29.9677 8.37828 30.1195 8.77296 30.2925 9.22204C30.342 9.10998 30.3737 9.04338 30.4005 8.97842C30.9598 7.6049 31.5193 6.23301 32.0791 4.86275C32.1977 4.57364 32.1351 4.61912 32.46 4.61343C32.866 4.61343 33.2721 4.61343 33.6838 4.61343C33.9185 4.61343 33.9193 4.61343 34.0086 4.83432C34.543 6.2035 35.0771 7.57323 35.6109 8.9435C35.6417 9.02471 35.6783 9.10592 35.7311 9.22935C35.7774 9.12053 35.8123 9.05394 35.835 8.98573L37.4738 4.86112C37.5721 4.61262 37.5729 4.61262 37.8279 4.61262H39.3546Z" fill="#990D81"/>
<path d="M57.8862 9.68824C57.8862 8.04836 57.8862 6.40821 57.8862 4.76779C57.8862 4.53229 57.8862 4.53066 57.6556 4.52985C57.1683 4.52985 56.6811 4.54203 56.1938 4.52335C55.9624 4.51442 55.8332 4.58426 55.7147 4.79134C54.97 6.09068 54.2099 7.38109 53.453 8.67313C53.4067 8.75434 53.3775 8.84692 53.2776 8.90295C53.2248 8.81281 53.1785 8.74053 53.1363 8.65932C52.4054 7.35024 51.6794 6.04277 50.9591 4.72962C50.9315 4.66146 50.8823 4.60423 50.8191 4.56668C50.7559 4.52913 50.6821 4.51334 50.6091 4.52173C50.0771 4.53472 49.5452 4.52173 49.0133 4.52741C48.6722 4.52741 48.7039 4.48681 48.7039 4.8425C48.7039 7.26307 48.7039 9.68364 48.7039 12.1042C48.7039 12.2723 48.708 12.4412 48.7104 12.6093H50.4158V7.86266C50.5019 7.88053 50.514 7.93657 50.5376 7.97961C51.3692 9.46248 52.2002 10.9456 53.0307 12.429C53.0501 12.4682 53.067 12.5087 53.0811 12.55C53.1582 12.5963 53.1899 12.5427 53.2232 12.4867L53.7518 11.5934C54.4557 10.4023 55.1608 9.21371 55.8673 8.02752C55.9048 7.93356 55.9685 7.85237 56.0509 7.79364V8.00965C56.0509 9.44543 56.0509 10.8801 56.0509 12.3137C56.0509 12.4112 56.0557 12.5086 56.0582 12.6061H57.8691C57.8927 12.5114 57.8991 12.4131 57.8878 12.3162C57.8873 11.4424 57.8867 10.5664 57.8862 9.68824Z" fill="#990D81"/>
<path d="M47.2223 11.0099C45.5819 11.0099 43.9412 11.0099 42.3002 11.0099C42.0501 11.0099 42.0485 11.0099 42.0477 10.772C42.0477 10.3464 42.0477 9.92007 42.0477 9.49454C42.0477 9.26391 42.0477 9.26309 42.2791 9.26066H42.4115C43.4493 9.26066 44.4872 9.26066 45.525 9.26066C45.7297 9.26066 45.7329 9.26065 45.7337 9.06007C45.7337 8.6792 45.7337 8.29752 45.7337 7.91584C45.7337 7.66653 45.7338 7.68845 45.4958 7.68683C44.8754 7.68277 44.2541 7.68683 43.6337 7.68683C43.1724 7.68683 42.7112 7.68683 42.2531 7.68683C42.055 7.68683 42.0517 7.68195 42.0501 7.47812C42.0501 7.12324 42.0501 6.76835 42.0501 6.41347C42.0501 6.22994 42.055 6.22588 42.245 6.22588C42.8476 6.22588 43.451 6.22588 44.0543 6.22588C45.1095 6.22588 46.1652 6.22588 47.2215 6.22588C47.4237 6.22588 47.4261 6.22588 47.4278 6.02042C47.4278 5.64767 47.4278 5.27492 47.4278 4.90298C47.4278 4.60332 47.4635 4.61875 47.1395 4.61875C44.9398 4.61875 42.7404 4.61875 40.5412 4.61875C40.1441 4.61875 40.1977 4.5749 40.1977 4.95171C40.1977 7.50546 40.1977 10.0598 40.1977 12.6146H47.5455C47.5455 12.1891 47.5553 11.7635 47.5553 11.338C47.5504 10.9628 47.5894 11.014 47.2223 11.0099Z" fill="#990D81"/>
<path d="M102.745 7.66881C103.973 6.63746 105.2 5.60529 106.427 4.57231V4.51953C105.696 4.51953 104.972 4.53252 104.246 4.5244C104.052 4.51729 103.863 4.58374 103.717 4.71037C102.603 5.61829 101.486 6.52079 100.364 7.41788C100.3 7.46823 100.253 7.56081 100.135 7.53319V7.31799C100.135 6.45718 100.135 5.59663 100.135 4.73636C100.135 4.53415 100.131 4.5309 99.9277 4.53009C99.4486 4.53009 98.9697 4.53009 98.4911 4.53009C98.2865 4.53009 98.2865 4.53009 98.2816 4.73392C98.2816 4.78671 98.2816 4.84031 98.2816 4.89634V11.7358C98.2816 11.9485 98.2873 12.1621 98.2816 12.3741C98.2767 12.5097 98.3206 12.5608 98.4619 12.5592C98.9589 12.5519 99.4551 12.5527 99.9521 12.5592C100.084 12.5592 100.156 12.5267 100.139 12.3814C100.135 12.3273 100.135 12.273 100.139 12.219C100.139 11.4821 100.139 10.7458 100.139 10.0101C100.139 9.92886 100.118 9.83222 100.206 9.76644C100.505 9.54501 100.803 9.32169 101.1 9.09647C101.111 9.08558 101.124 9.07743 101.139 9.0727C101.153 9.06797 101.169 9.06678 101.184 9.06923C101.2 9.07168 101.214 9.07771 101.227 9.08682C101.239 9.09592 101.249 9.10786 101.256 9.12164C101.289 9.16387 101.323 9.20285 101.357 9.24589C102.218 10.2946 103.079 11.3435 103.939 12.3927C103.977 12.4459 104.027 12.4886 104.085 12.517C104.144 12.5455 104.208 12.5586 104.273 12.5552C104.894 12.5462 105.516 12.5552 106.136 12.5495C106.191 12.5495 106.26 12.5836 106.299 12.5121C106.264 12.4303 106.212 12.3567 106.148 12.2961C105.001 10.8744 103.853 9.4527 102.705 8.03101C102.547 7.83529 102.508 7.86777 102.745 7.66881Z" fill="#990D81"/>
<path d="M67.019 11.6016C65.9552 9.3619 64.8938 7.12161 63.8348 4.88079C63.7358 4.66965 63.6229 4.59656 63.3963 4.61117C63.0777 4.63066 62.7583 4.63066 62.4397 4.61117C62.2253 4.59899 62.1148 4.66802 62.0223 4.87023C61.1639 6.74616 60.2917 8.61559 59.4236 10.4883C59.0987 11.1948 58.7739 11.9046 58.4531 12.6127H60.2097C60.5045 12.0166 60.8017 11.423 61.0892 10.8261C61.1517 10.697 61.2386 10.675 61.3645 10.6759C62.127 10.6759 62.8904 10.6759 63.6537 10.6759C63.9022 10.6759 64.1507 10.6759 64.3992 10.6759C64.4427 10.6708 64.4867 10.6802 64.5244 10.7025C64.562 10.7248 64.5914 10.7588 64.608 10.7993C64.8938 11.3799 65.1853 11.9573 65.4736 12.5372C65.4807 12.5636 65.4832 12.5911 65.4809 12.6184H67.4511C67.4901 12.5372 67.4316 12.4844 67.4032 12.4235C67.2781 12.149 67.1482 11.8737 67.019 11.6016ZM61.7884 9.24658L62.8774 7.11404C63.2501 7.85547 63.5928 8.54006 63.9502 9.25146L61.7884 9.24658Z" fill="#990D81"/>
<path d="M77.9332 8.51932C77.8471 8.46166 77.7407 8.42999 77.6757 8.34472C77.6822 8.3301 77.6839 8.32117 77.6896 8.31629C77.7245 8.28868 77.7594 8.26188 77.7951 8.23509C78.2466 7.91025 78.513 7.47659 78.5504 6.9195C78.6316 5.76714 78.0631 4.91283 76.9514 4.63997C76.605 4.56188 76.2506 4.52561 75.8956 4.53196C74.2985 4.53196 72.7014 4.53196 71.1043 4.53196C70.8704 4.53196 70.8672 4.53196 70.8672 4.76178C70.8672 7.28142 70.8672 9.80134 70.8672 12.3215C70.8672 12.553 70.8672 12.553 71.1003 12.5554H71.2066C72.6976 12.5554 74.1884 12.5554 75.6788 12.5554C75.9981 12.5573 76.3173 12.5405 76.6346 12.5051C77.9121 12.3581 78.8671 11.4899 78.8005 10.0534C78.7948 9.74573 78.7125 9.44438 78.561 9.17654C78.4096 8.9087 78.1938 8.68282 77.9332 8.51932ZM72.7196 6.3551C72.7196 6.16101 72.7244 6.15451 72.9047 6.15451C73.8532 6.15451 74.8023 6.15586 75.7519 6.15857C75.9295 6.15627 76.1064 6.1812 76.2765 6.23247C76.581 6.32993 76.7142 6.53214 76.7094 6.88215C76.7045 7.21267 76.5632 7.41 76.2692 7.50096C76.0545 7.55763 75.8325 7.58226 75.6106 7.57404C75.2111 7.5781 74.8123 7.57404 74.4128 7.57404C73.9166 7.57404 73.4196 7.57404 72.9226 7.57404C72.7236 7.57404 72.7212 7.56917 72.7196 7.36453C72.7174 7.02886 72.7174 6.69239 72.7196 6.3551ZM76.4917 10.7802C76.1774 10.9255 75.8372 10.9312 75.501 10.9426C75.1372 10.9523 74.7701 10.9426 74.4095 10.9426C73.9223 10.9426 73.435 10.9426 72.9478 10.9426C72.7244 10.9426 72.7212 10.9426 72.7204 10.7298C72.7204 10.2767 72.7204 9.82435 72.7204 9.37201C72.7204 9.24533 72.7618 9.2031 72.8885 9.20391C73.863 9.20959 74.8375 9.20391 75.812 9.21528C76.0256 9.21727 76.2372 9.25657 76.4373 9.33141C76.7556 9.45078 76.9083 9.69035 76.9246 10.0249C76.9408 10.3595 76.8133 10.6324 76.4917 10.7802Z" fill="#990D81"/>
<path d="M96.9476 4.52856C96.5301 4.53587 96.1135 4.52856 95.6961 4.52856C95.3908 4.52856 95.4127 4.50338 95.4127 4.81929C95.4127 6.23828 95.4127 7.65754 95.4127 9.07707C95.4127 9.16559 95.4428 9.26467 95.3559 9.36943C95.2803 9.28335 95.2186 9.20701 95.1504 9.13798C93.7022 7.66214 92.2548 6.18631 90.8082 4.71047C90.7545 4.64752 90.687 4.59793 90.6109 4.56565C90.5348 4.53337 90.4521 4.51928 90.3696 4.5245C90.0237 4.53749 89.6777 4.5245 89.3318 4.52856C89.0069 4.52856 89.024 4.49364 89.024 4.82254V12.2475C89.024 12.3011 89.024 12.3539 89.024 12.4099C89.0183 12.5073 89.0557 12.5561 89.1604 12.5553C89.6396 12.5553 90.1187 12.5553 90.5978 12.5553C90.6969 12.5553 90.7481 12.522 90.7448 12.4188C90.7448 12.3474 90.7448 12.2767 90.7448 12.2052C90.7448 10.7776 90.7448 9.34939 90.7448 7.92066C90.7325 7.8247 90.7394 7.72726 90.7651 7.63399C90.8561 7.64293 90.8902 7.7152 90.9373 7.75987C91.2564 8.07983 91.5731 8.40304 91.8915 8.72463C93.0999 9.94926 94.3083 11.1747 95.5167 12.401C95.5623 12.4536 95.6194 12.495 95.6837 12.522C95.7479 12.5491 95.8174 12.561 95.887 12.5569C96.2118 12.5463 96.5439 12.5569 96.872 12.5569C97.1311 12.5569 97.1311 12.5569 97.1335 12.2954V4.86802C97.1335 4.81442 97.1295 4.76082 97.1335 4.7056C97.1465 4.56917 97.0848 4.52612 96.9476 4.52856Z" fill="#990D81"/>
<path d="M86.561 9.10098C85.8691 7.64409 85.1783 6.1872 84.4886 4.73031C84.4195 4.58332 84.34 4.51754 84.171 4.52404C83.808 4.53703 83.4402 4.53866 83.0812 4.52404C82.9034 4.51673 82.8165 4.5752 82.7418 4.73762C81.5778 7.26376 80.4103 9.78828 79.2392 12.3112C79.2076 12.3802 79.1466 12.4444 79.1832 12.5548C79.7078 12.5548 80.2389 12.5548 80.7676 12.5548C80.8983 12.5548 80.93 12.4663 80.9698 12.381C81.2353 11.8499 81.5066 11.3253 81.7632 10.7861C81.7871 10.7213 81.8322 10.6665 81.8912 10.6307C81.9502 10.5949 82.0196 10.5801 82.088 10.5887C83.0544 10.596 84.0208 10.5977 84.9872 10.5887C85.1724 10.5887 85.2698 10.6407 85.3502 10.8129C85.5987 11.3415 85.8691 11.8605 86.1314 12.3826C86.1745 12.4695 86.2037 12.5564 86.3336 12.5556C86.9362 12.5499 87.5388 12.5556 88.1617 12.5556C88.1555 12.4643 88.1277 12.3758 88.0804 12.2974C87.5732 11.2303 87.0667 10.1648 86.561 9.10098ZM82.5306 9.18219C82.5509 9.00353 83.3427 7.41751 83.5863 7.07075L84.6477 9.18219H82.5306Z" fill="#990D81"/>
</svg>
