<svg width="16" height="17" viewBox="0 0 16 17" fill="none" xmlns="http://www.w3.org/2000/svg">
<path d="M7.91807 6.06672V2.23438L6.64062 3.51182" stroke="black" stroke-width="0.958087" stroke-linecap="round" stroke-linejoin="round"/>
<path d="M7.91406 2.23438L9.19151 3.51182" stroke="black" stroke-width="0.958087" stroke-linecap="round" stroke-linejoin="round"/>
<path d="M4.72677 8.61719C2.17188 8.61719 2.17188 9.7605 2.17188 11.1721V11.8108C2.17188 13.5737 2.17188 15.0044 5.3655 15.0044H10.4753C13.0302 15.0044 13.6689 13.5737 13.6689 11.8108V11.1721C13.6689 9.7605 13.6689 8.61719 11.114 8.61719C10.4753 8.61719 10.2964 8.75132 9.96431 9.00042L9.31281 9.69024C8.55912 10.495 7.28167 10.495 6.52159 9.69024L5.87648 9.00042C5.54434 8.75132 5.3655 8.61719 4.72677 8.61719Z" stroke="black" stroke-width="0.958087" stroke-miterlimit="10" stroke-linecap="round" stroke-linejoin="round"/>
<path d="M3.44531 8.6193V7.34185C3.44531 6.05801 3.44531 4.99773 5.36149 4.8125" stroke="black" stroke-width="0.958087" stroke-miterlimit="10" stroke-linecap="round" stroke-linejoin="round"/>
<path d="M12.3849 8.6193V7.34185C12.3849 6.05801 12.3849 4.99773 10.4688 4.8125" stroke="black" stroke-width="0.958087" stroke-miterlimit="10" stroke-linecap="round" stroke-linejoin="round"/>
</svg>
