<svg width="28" height="28" viewBox="0 0 28 28" fill="none" xmlns="http://www.w3.org/2000/svg">
<circle cx="13.8965" cy="14.002" r="13.1784" fill="white" stroke="#F3F4F6" stroke-width="0.85022"/>
<path d="M13.8926 15.9492C14.968 15.9492 15.8398 15.0774 15.8398 14.002C15.8398 12.9265 14.968 12.0547 13.8926 12.0547C12.8171 12.0547 11.9453 12.9265 11.9453 14.002C11.9453 15.0774 12.8171 15.9492 13.8926 15.9492Z" stroke="#240552" stroke-width="0.973633"/>
<path d="M15.0388 7.60647C14.8006 7.50781 14.4981 7.50781 13.8932 7.50781C13.2882 7.50781 12.9857 7.50781 12.7475 7.60647C12.5899 7.67172 12.4467 7.76738 12.3261 7.888C12.2055 8.00862 12.1098 8.15183 12.0446 8.30944C11.9848 8.45418 11.9608 8.6236 11.9517 8.8696C11.9477 9.04744 11.8985 9.22134 11.8088 9.37496C11.7191 9.52858 11.5919 9.65688 11.439 9.74782C11.2838 9.83482 11.109 9.88095 10.9311 9.88185C10.7531 9.88276 10.5779 9.83843 10.4218 9.75301C10.2037 9.63747 10.046 9.57386 9.88959 9.55309C9.54837 9.50822 9.2033 9.60067 8.93023 9.81013C8.72642 9.96786 8.57453 10.2294 8.27206 10.7533C7.96958 11.2771 7.8177 11.5387 7.78459 11.795C7.76229 11.9641 7.77351 12.1359 7.81761 12.3006C7.86171 12.4653 7.93784 12.6198 8.04163 12.755C8.1377 12.8797 8.27206 12.9842 8.48042 13.1153C8.78743 13.3081 8.98476 13.6365 8.98476 13.9987C8.98476 14.3609 8.78743 14.6893 8.48042 14.8815C8.27206 15.0132 8.13705 15.1177 8.04163 15.2424C7.93784 15.3776 7.86171 15.5321 7.81761 15.6968C7.77351 15.8615 7.76229 16.0333 7.78459 16.2024C7.81834 16.4581 7.96958 16.7203 8.27141 17.2441C8.57453 17.768 8.72577 18.0295 8.93023 18.1873C9.06553 18.2911 9.21994 18.3672 9.38466 18.4113C9.54938 18.4554 9.72118 18.4666 9.89024 18.4443C10.046 18.4235 10.2037 18.3599 10.4218 18.2444C10.5779 18.159 10.7531 18.1146 10.9311 18.1155C11.109 18.1164 11.2838 18.1626 11.439 18.2496C11.7525 18.4313 11.9388 18.7656 11.9517 19.1278C11.9608 19.3744 11.9842 19.5432 12.0446 19.688C12.1098 19.8456 12.2055 19.9888 12.3261 20.1094C12.4467 20.23 12.5899 20.3257 12.7475 20.3909C12.9857 20.4896 13.2882 20.4896 13.8932 20.4896C14.4981 20.4896 14.8006 20.4896 15.0388 20.3909C15.1964 20.3257 15.3396 20.23 15.4602 20.1094C15.5809 19.9888 15.6765 19.8456 15.7418 19.688C15.8015 19.5432 15.8255 19.3744 15.8346 19.1278C15.8476 18.7656 16.0339 18.4307 16.3474 18.2496C16.5026 18.1626 16.6773 18.1164 16.8553 18.1155C17.0332 18.1146 17.2084 18.159 17.3645 18.2444C17.5826 18.3599 17.7403 18.4235 17.8961 18.4443C18.0652 18.4666 18.2369 18.4554 18.4017 18.4113C18.5664 18.3672 18.7208 18.2911 18.8561 18.1873C19.0606 18.0302 19.2118 17.768 19.5143 17.2441C19.8167 16.7203 19.9686 16.4587 20.0017 16.2024C20.024 16.0333 20.0128 15.8615 19.9687 15.6968C19.9246 15.5321 19.8485 15.3776 19.7447 15.2424C19.6486 15.1177 19.5143 15.0132 19.3059 14.8821C19.1539 14.7897 19.0278 14.6601 18.9396 14.5056C18.8513 14.3511 18.8039 14.1766 18.8016 13.9987C18.8016 13.6365 18.9989 13.3081 19.3059 13.1159C19.5143 12.9842 19.6493 12.8797 19.7447 12.755C19.8485 12.6198 19.9246 12.4653 19.9687 12.3006C20.0128 12.1359 20.024 11.9641 20.0017 11.795C19.968 11.5393 19.8167 11.2771 19.5149 10.7533C19.2118 10.2294 19.0606 9.96786 18.8561 9.81013C18.7208 9.70633 18.5664 9.63021 18.4017 9.58611C18.2369 9.542 18.0652 9.53078 17.8961 9.55309C17.7403 9.57386 17.5826 9.63747 17.3638 9.75301C17.2078 9.83831 17.0327 9.88258 16.8549 9.88167C16.6771 9.88077 16.5025 9.83471 16.3474 9.74782C16.1945 9.65688 16.0672 9.52858 15.9775 9.37496C15.8878 9.22134 15.8386 9.04744 15.8346 8.8696C15.8255 8.62295 15.8021 8.45418 15.7418 8.30944C15.6765 8.15183 15.5809 8.00862 15.4602 7.888C15.3396 7.76738 15.1964 7.67172 15.0388 7.60647Z" stroke="#240552" stroke-width="0.973633"/>
</svg>
